<?xml version="1.0" encoding="UTF-8"?>
<svg xmlns="http://www.w3.org/2000/svg" version="1.1" viewBox="0 0 919 803">
  <!-- Generator: Adobe Illustrator 29.7.1, SVG Export Plug-In . SVG Version: 2.1.1 Build 8)  -->
  <defs>
    <style>
      .st0 {
        fill: #76bf5a;
      }

      .st0, .st1 {
        fill-rule: evenodd;
      }
    </style>
  </defs>
  <g id="Layer_2">
    <polygon class="st0" points="82.22 178.35 150.33 229.2 270.7 293.92 314.24 304.81 321.34 401.5 262.94 327.08 201.11 275.01 185.32 261.31 171.72 257.51 153.3 259.18 120.47 297.94 100.56 334.23 97.62 338.96 44.54 348.99 75.88 370.44 62.82 431.22 56.78 448.31 56.05 459.39 54.49 487.06 61.49 478.19 85.41 429.46 96.57 405.46 109.84 387.67 156.27 412.03 227.01 468.68 292.31 558.74 314.19 605.15 340.97 674.1 373.56 737.84 371.65 743.54 376.76 766.88 370.91 767.62 361.66 775.76 386.23 775.76 391.16 763.51 382.13 729.03 367.34 681.03 364.81 655.76 340.84 563.53 326.22 541.15 286.3 457.83 245.12 387.03 213.85 359.28 197.47 352.02 141.27 342.46 145.24 334.23 186.4 297.94 213.85 310.03 243.21 337.03 262.94 361.54 285 387.03 308.44 421.46 323.12 443.15 336.69 541.15 346.69 576 355.73 615.53 367.59 664.38 367.59 674.1 377.82 712.78 389.19 749.72 392.15 760.97 388.06 775.76 408.9 777.03 413.89 763.51 408.9 733.06 400.2 659.44 395.81 626.12 379.29 565.68 374.91 525.03 392.14 556.51 423.76 645.3 443.27 702.03 455.66 740.03 457.08 752.12 463.26 767.62 483.27 766.35 485.86 751.03 490.54 741.56 492.17 719.22 479.26 689.38 467.65 643.61 433.36 550.17 386.23 468.68 363.42 440.59 344.04 310.15 393.34 331.56 437.03 342.46 428.13 326.38 393.34 287.97 373.64 270.34 342.66 254.1 334.95 210.05 334.95 170.81 339.21 135.79 339.21 92.31 334.95 99.02 324.27 146.41 315.48 199.85 314.63 244.32 268.36 230.1 169.22 202.43 106.82 178.35 87.34 174.78 82.22 178.35"/>
    <path class="st0" d="M511.15,751.53l-.8-35.33-19.81-60.24-12.85-74.5-11.58-95.77-7.87-55.65-9.64-31.93v-38.4l-6.21-15.8,3.96-19.03-5.4-13.17,3.14-88.73,5.97-20.54-36.26-9.88-20.45-11.58-24.3-3.95,24.3-11.37,40.61,5.73,24.29,5.08,5.89-35.29,5.08-18.07,19.48-38.68,11.4-20.05,17.54-15.18,12.28-2.89,14.12,13.84v8.19l-21.77-4.52-13.82,28.52-16.28,91.53v5.32l42.69,31.34,18.21,24.69,24.28,56.91,14.68,57.89,6.15,25.44-2.13,9.57-18.78-12.99-11.01-20.05-12.7-33.6-55.06-91.06-10.73-11.03-2.51,82.89,3.3,27.1.34,3.75,13.55,3.88,63.81,32.19,52.52,31.06,25.41,17.85,38.55,34.94,2.53,2.84v-23.01l5.01-119.58-4.24-102.21-11.58-68.89-31.06-91.76-16.38-37.27,23.15,14.68,18.35,23.44,15.81,35.58,16.66,70.59,5.36,42.64,10.45,37.1,3.67,59.31-5.93,98.14,2.87,75.94,3.06,21.59,43.2,41.94,45.85,57.04,26.29,57.04,37.69,66.72,7.98,8.15s1.36,21.41,8.55,22.12-68,2.4-68,2.4l-9.81-50.95-22.04-65.6-24.55-36.78-57.55-47.98-1.76,16.45-11.98,129.8-.79,51.66-58.41.5,12.75-66.36,13.55-97.69,11.77-64.04-16.27-19.74-49.78-32.19,1.76,42.61-1.87,65.81,1.59,23.09-4.93,65,11.54,85-60.04,5.15,7.12-26.61-.28-53.93,7.64-67.6,7.41-36.15,5.2-95.87-1.05-12.83-36.71-21.34-46.31-39.15,5.65,35.62,13.84,71.37,26.82,82.79,3.46,70.55v49.5l-4.59,21.96,4.59,10.16v19.85s-37.28-6.92-37.31-8.15.4-6.81.4-6.81Z"/>
  </g>
  <g id="Layer_1">
    <path class="st1" d="M1.52,353.25c1.3,1.67,9.3,3.48,16.25,3.69,9.15.27,23.5,4.48,43.42,12.72,4.72,1.95,9.63,3.97,10.91,4.47,2.69,1.07,2.77.26-2.02,20.4-3.08,12.96-5.83,23.15-8.44,31.29-.76,2.36-1.37,5.41-1.37,6.78s-1.31,5.97-2.9,10.22c-1.6,4.24-3.15,10.42-3.44,13.72-.3,3.3-.81,7.12-1.13,8.5-.32,1.38-1.03,6.27-1.58,10.87-.75,6.32-.7,8.73.22,9.83.95,1.14.94,1.62-.04,2.23-.91.56-1,1.71-.36,4.17l.9,3.4,2-4.5c1.1-2.48,3.44-9.08,5.2-14.69,1.76-5.6,5.21-13.7,7.67-18,2.45-4.3,4.46-8.29,4.47-8.88,0-1.04,3.78-8.63,7.6-15.26,3.01-5.24,6.41-9.68,6.41-8.38,0,1.69-16.82,35.98-18.01,36.71-.54.33-.99,1.39-.99,2.36s-1.16,4.08-2.59,6.93c-1.42,2.85-2.41,5.72-2.19,6.37.22.65,1.66-1.26,3.2-4.24,1.55-2.98,4.27-8.12,6.06-11.42,1.79-3.3,4.3-8.7,5.58-12,1.28-3.3,3.3-7.35,4.49-9,1.19-1.65,2.5-4.12,2.91-5.5.41-1.38,2.25-5.42,4.08-9,1.83-3.58,4.49-9.16,5.91-12.41,1.42-3.25,4.99-8.88,7.92-12.5,2.94-3.62,5.87-7.6,6.52-8.84.64-1.24,1.53-2.25,1.96-2.25s5.48,2.53,11.21,5.61c5.73,3.09,15.51,8.25,21.72,11.47,10.08,5.23,30.21,19.6,34.23,24.44.78.94,3.93,3.34,7,5.34,14.05,9.14,44.26,37.79,55.52,52.64,4.59,6.05,9.42,12.35,10.74,14,1.32,1.65,3.6,5.07,5.07,7.6,1.47,2.53,3.61,5.46,4.77,6.5,1.15,1.04,3.01,3.68,4.12,5.87,2.06,4.04,5.73,9.62,6.92,10.53,1.49,1.14,7.62,10.73,8.32,13.02.41,1.36,1.83,3.91,3.14,5.66,1.31,1.75,2.39,3.55,2.39,4,0,.45,1.38,2.84,3.06,5.32s4.11,6.83,5.41,9.67c1.29,2.84,4.38,8.53,6.87,12.63,8.06,13.28,9.42,17.63,9.59,30.7.31,24.1,2.29,45.16,6.38,68,2.31,12.86,2.64,16,1.69,16-1.24,0-5.01-5.01-5.01-6.66,0-.76-1.12-3.17-2.5-5.34s-2.5-4.53-2.5-5.23c0-.7-.86-3.07-1.91-5.27-1.05-2.2-4.23-8.84-7.07-14.75-2.84-5.91-6.14-13.11-7.34-16-2.84-6.84-7.79-15.75-8.75-15.75-.42,0-2.21-2.36-3.98-5.25-7.19-11.71-31.96-37.34-45.2-46.77-7.96-5.67-19.75-10.51-19.75-8.11,0,1.01,2.25,2.07,5.9,2.76,1.32.25,3.7,1.45,5.29,2.66,13.45,10.26,42.43,38.58,43.44,42.45.32,1.24.91,2.25,1.31,2.25.84,0,5.92,7.46,15.67,23,1.55,2.47,3.83,6.95,5.07,9.94,1.24,2.99,2.94,5.83,3.78,6.3.84.47,1.53,2.13,1.53,3.69s.62,3.34,1.37,3.97c.75.62,2.17,3.27,3.15,5.87.98,2.61,2.99,7.21,4.47,10.24,1.48,3.03,3.31,7.75,4.05,10.5.75,2.75,2.39,6.53,3.66,8.39,1.27,1.86,2.3,4.09,2.3,4.95,0,2.23-6.7-4.42-9.05-8.97-5.5-10.67-20.1-24.37-29.11-27.32-5.66-1.85-18.44-1.97-21.63-.2-2.43,1.35-5.74,6.66-4.15,6.66.52,0,.94-.47.94-1.05,0-1.81,8.29-4.91,13.21-4.93,10.85-.05,19.82,6.04,25.35,17.22,1.91,3.85,6.36,9.32,13.54,16.64,7.2,7.34,10.91,11.9,11.37,13.99.37,1.7,1.17,2.99,1.77,2.86,1.38-.28,3.72,4.07,3.74,6.97,0,1.21.46,2.47,1.01,2.81.55.34.98,1.15.96,1.81-.05,1.35-8.96-8.26-8.96-9.67,0-2.31-11.69-15.02-17.75-19.31-3.71-2.62-6.97-5.07-7.25-5.45-.27-.38-4.16-.83-8.64-1-8.08-.31-8.15-.29-10.84,2.9-2.9,3.45-2.03,4.54.97,1.21,1.53-1.69,3.07-2,9.9-1.98,5.43.01,7.61.32,6.61.95-1.18.74-.76,1.24,2.03,2.4,1.93.81,6.35,4.09,9.83,7.3,4.9,4.52,6.51,6.73,7.17,9.83,3.13,14.66,2.6,13.18,9.4,26,2.1,3.95,2.51,5.73,1.95,8.5-.39,1.92-.61,6.65-.5,10.5.2,6.74.36,7.15,4.25,11,3.25,3.21,3.91,3.56,3.38,1.74-.5-1.67-.2-2.4,1.15-2.82,3.27-1.02,4.82-2.12,4.95-3.53.07-.76.19-1.91.25-2.54.21-2.08,4.14-.17,6.78,3.29,3.09,4.05,5.86,4.38,6.76.82.45-1.78,0-3.46-1.5-5.56-2.08-2.92-2.09-3.05-.28-4.38,1.81-1.33,1.81-1.45-.02-4.69l-1.88-3.32,3.35,3.5c4.98,5.2,7.9,9.8,7.9,12.43,0,1.7.68,2.47,2.5,2.82,2.03.39,2.5.08,2.52-1.63,0-1.16.41-2.73.89-3.49.62-.97,1.08-.14,1.58,2.79.62,3.69.95,4.09,2.86,3.5,3.13-.97,7.49-4.24,8.72-6.52.72-1.35,1.67-1.78,2.99-1.37,2.35.75,6.7-1.94,4.92-3.04-.89-.55-.85-.93.14-1.55,1.03-.64.55-2.4-2.25-8.12-3.55-7.26-5.52-14.81-3.86-14.81,1.5,0,3.72,2.77,5.99,7.47,2.14,4.43,4.02,5.9,4.02,3.17,0-.75-1.57-4.51-3.5-8.35-1.92-3.84-3.78-8.4-4.12-10.13-.35-1.73-1.14-3.15-1.75-3.15-2.83,0-10.13-12.35-20.1-34-9.96-21.64-10.74-23.51-12.6-30.5-1.03-3.85-2.95-9.92-4.28-13.5-1.33-3.58-3.1-8.33-3.93-10.57-.83-2.24-2.72-6.47-4.21-9.4-1.95-3.84-2.53-6.17-2.1-8.35.39-1.96-.06-4.44-1.31-7.1-1.05-2.25-3.79-8.58-6.08-14.08-4.47-10.72-7.83-17.69-8.92-18.5-2.27-1.68-8.06-10.19-9.52-14-.95-2.47-3.21-6.75-5.01-9.5-1.8-2.75-5.86-9.7-9.02-15.45-3.16-5.75-7.83-13.33-10.39-16.84-2.56-3.51-5.44-7.7-6.39-9.3-.95-1.6-3.96-5.79-6.68-9.29s-6.94-9.46-9.37-13.24c-7.42-11.53-17.62-23.16-30.08-34.29-2.11-1.88-4.92-5.14-6.24-7.25-1.33-2.11-2.8-3.83-3.27-3.83-1.23,0-7.63-5.23-15.12-12.35-3.57-3.4-8.3-7.51-10.5-9.13-2.2-1.63-5.6-4.54-7.56-6.48-3.73-3.7-21.13-17.34-24.69-19.36-1.14-.64-7.35-4.55-13.81-8.67-10.06-6.43-21.34-12.6-49.44-27.03-3.03-1.55-9.33-4.16-14-5.8-4.68-1.64-10.97-3.97-14-5.19s-6.96-2.72-8.75-3.34c-3.8-1.32-4.17-2.43-1-3.01,11.97-2.21,14.91-2.62,18.48-2.62,4.04,0,8.11-.69,21.49-3.64,3.7-.82,7.52-1.45,8.5-1.4,14.29.68,46.52,4.18,55.59,6.03,2.85.58,8.79,1.51,13.19,2.05,4.4.55,9.35,1.4,11,1.9,1.65.5,5.7,1.2,9,1.57,8.04.9,19.69,5.86,25.55,10.89,2.63,2.26,6.73,5.54,9.11,7.3,11.26,8.3,17.04,15.4,25.83,31.7,2.79,5.18,5.8,10.02,6.68,10.75.88.73,2.44,3.13,3.47,5.34,1.03,2.21,2.84,5.59,4.03,7.51s7.1,13.17,13.13,25c6.03,11.83,12.86,24.88,15.17,29s5.36,9.98,6.76,13c3.49,7.53,11.79,25.91,15.8,35,1.82,4.12,4.46,9.3,5.86,11.5,5.23,8.21,10.02,19.01,11.61,26.17,1.11,5,2.41,8.11,4.01,9.61,3.06,2.87,6.42,14.53,12.31,42.72,2.33,11.17,5.35,22.09,7.45,27,.82,1.92,1.79,5.08,2.16,7l.66,3.5-2.02-2.32c-1.11-1.28-2.3-3.98-2.64-6-.34-2.02-1.44-5.5-2.44-7.72-1-2.23-2.71-6.73-3.8-10-1.09-3.28-2.42-7.08-2.96-8.46s-1.56-4.3-2.26-6.5c-.7-2.2-3.05-7.82-5.21-12.49-2.17-4.67-4.84-11.2-5.94-14.5-4.32-12.93-20.82-45.22-20.82-40.74,0,.59,1.51,3.92,3.34,7.4,3.38,6.4,13.8,30.29,15.16,34.75.4,1.33,2.96,7.4,5.69,13.5,4.82,10.8,8.13,20.62,6.91,20.55-.83-.04-10.1-19.62-10.1-21.32,0-.75-1.17-3.09-2.6-5.19-1.43-2.1-3.03-4.98-3.56-6.39-1.73-4.57-12.95-23.86-14.92-25.64-1.05-.95-1.92-2.15-1.92-2.67,0-3.96-10.63-21.48-15.87-26.16-3.48-3.1-2.45-.47,2.3,5.88,2.44,3.26,6.27,9.55,8.52,13.98,4.61,9.08,5.28,10.29,13.26,23.67,3.15,5.29,6.14,10.69,6.64,12,.5,1.31,3.39,7.56,6.41,13.88,3.03,6.33,6.45,13.68,7.6,16.34,1.31,3.02,2.88,5.05,4.19,5.39,1.45.38,1.95,1.12,1.61,2.41-.27,1.02-.12,1.86.33,1.86,1.41,0,5.66,8.3,6.9,13.5.66,2.75,3.42,9.56,6.15,15.13,2.72,5.57,4.96,10.97,4.96,12,0,1.03.95,6.37,2.11,11.87,3.88,18.53,3.76,17.64,2.26,16.39-.75-.62-9.13-16.65-18.62-35.61-21.46-42.89-20.28-40.64-22.17-42.21-2.52-2.09-1.95-.46,4.46,12.67,3.32,6.81,6.91,14.59,7.97,17.29,1.06,2.7,3.3,7.46,4.96,10.58,1.66,3.12,3.03,6.32,3.03,7.11,0,1.77,4.57,9.69,6.53,11.31,1.68,1.39,9.47,17.28,9.47,19.3,0,.75,1.45,3.35,3.23,5.77,1.78,2.42,3.83,5.98,4.56,7.9,2.93,7.75,3.12,8.95,1.64,10.43-1.81,1.81-1.88,3.19-.09,1.71,1.34-1.11,2.61-.12,6.65,5.19,1.19,1.56,1.18,1.96-.05,2.73-1.22.77-1.16,1.39.44,4.17,2.42,4.22,3.55,7.87,4.74,15.27.53,3.3,1.22,7.46,1.54,9.25.69,3.9-1.29,4.52-2.25.7-.39-1.58-1.23-2.43-2.19-2.25-2.39.46-2.45,2.17-.15,4.63,1.57,1.69,1.93,2.97,1.43,5.2-.61,2.79-.46,2.97,2.43,2.97,2.3,0,3.08-.46,3.08-1.8,0-.99.48-2.28,1.06-2.86.58-.59,1.48-5.48,1.99-10.89,1.12-11.79,1.57-13.43,3.76-13.51,1.13-.04.89-.38-.74-1.03-1.85-.74-2.14-1.24-1.25-2.14,1.39-1.39,1.55-3.77.25-3.77-.51,0-1.44,1.58-2.08,3.5-.63,1.92-1.5,3.5-1.92,3.5-.79,0-3.06-6.67-3.1-9.12-.01-.76-2.04-5.4-4.5-10.32-2.46-4.92-4.48-9.81-4.48-10.87s-.64-4.02-1.43-6.56c-2.99-9.68-5.57-20.2-5.6-22.86-.02-1.52-.68-3.9-1.47-5.27-2.01-3.51-1.94-6.38.13-5.59,1.43.55,1.55-.02.96-4.64-.37-2.9-1.51-7.52-2.54-10.27-1.8-4.8-3.26-9.64-6.5-21.5-.83-3.03-2.68-9.49-4.12-14.37-1.54-5.2-2.42-10.16-2.13-12,.57-3.62-.3-8.61-4.29-24.63-1.58-6.33-3.37-15.78-3.99-21-.62-5.22-2.43-15.12-4.02-22-4.73-20.43-6.12-27.96-7.11-38.5-.51-5.5-1.41-13.91-1.99-18.7-1.09-9.04-1.3-38.35-.29-39.99.79-1.27-.5-7.81-1.53-7.81-.45,0-1.15,4.55-1.54,10.11-.51,7.22-1.02,9.8-1.79,9.04-1.76-1.76-2.84-22.3-2.26-42.58.39-13.44.22-19.13-.57-19.62-.62-.38-1.74-5.73-2.5-11.88-.76-6.15-1.64-11.61-1.95-12.12-.32-.51-.78-3.52-1.02-6.68-.24-3.16-.88-9.35-1.41-13.76-.53-4.4-.92-9.36-.85-11.01.07-1.65-.32-5.73-.85-9.07-1-6.31-.82-8.43.74-8.43.51,0,.92,1.55.92,3.45,0,3.29,2.47,14.35,3.42,15.3.25.25.93.15,1.52-.21.76-.47.75-1.25-.01-2.68-.6-1.11-.82-2.29-.49-2.62.75-.75,3.55,2.99,2.95,3.95-.67,1.08,1.68,9.87,3.7,13.81.98,1.92,3.62,5.19,5.85,7.26,2.24,2.07,4.06,4.58,4.06,5.58s1.12,2.86,2.49,4.15c1.7,1.6,2.44,3.31,2.35,5.42-.28,6.38,1.48,15.24,3.89,19.59,1.61,2.9,2.79,7.17,3.34,12,.76,6.68,5.3,33.08,8.01,46.5.55,2.75,1.5,7.48,2.11,10.5.61,3.02,1.15,11.12,1.21,18s.55,13.17,1.08,14c.53.83,1.02,3.52,1.08,6,.06,2.48,1.06,7.65,2.21,11.5,2.24,7.49,5.24,25.85,5.24,32.02,0,5.68,3.99,28.5,5.68,32.48.82,1.92,1.7,5.22,1.96,7.33.26,2.1.94,5.03,1.51,6.5.57,1.47,2.11,6.95,3.4,12.17s3.32,12.2,4.51,15.5c2.68,7.48,4.9,21.64,4.93,31.5.01,4.12.45,10.2.97,13.5.52,3.3,1.18,10.28,1.47,15.5.5,9.22.83,11.49,4.08,28.5.84,4.4,1.98,11.76,2.53,16.36.55,4.6,1.45,9.18,1.98,10.18,1.41,2.64,1.21,3.75-.67,3.6-1.12-.09-2.08,1.29-3.03,4.36-.76,2.47-1.82,5.88-2.36,7.57-1.1,3.48-1.28,11.65-.35,16.29.52,2.58.99,3.02,2.79,2.57,1.85-.46,2.17-.13,2.13,2.26-.03,2.2.46,2.88,2.29,3.14,3.37.48,6.2-2.43,5.54-5.71-.36-1.81.16-3.53,1.65-5.42,2.39-3.04,3.55-2.99,10.23.38,4.13,2.09,4.44,1.91,2.31-1.36-.9-1.38-1.32-4.01-1.12-6.97.3-4.4.15-4.75-2-4.75-2.64,0-3.5,1.05-4.38,5.34-1.08,5.29-2.66,4.1-2.09-1.58l.53-5.26h5.5c5.97.02,5.73-.35,4.34,6.61-.42,2.09-.08,2.73,1.72,3.2,2.62.69,7.75-.18,8.52-1.43.3-.48,1.19-.87,1.98-.87,1.77,0,1.96,6.2.34,10.87-1.16,3.32-.52,8.13,1.07,8.13.51,0,1.24-2.69,1.61-5.98.37-3.29,1.29-6.5,2.05-7.12.76-.63,1.37-1.98,1.37-3.02,0-2.73,1.26-2.29,3.2,1.13,2.06,3.62,4.8,3.99,4.8.65,0-2.42-2.99-6.65-4.69-6.65-1.32,0-5.31-4.36-5.31-5.81,0-.65.62-1.19,1.39-1.19s1.33.79,1.25,1.75c-.08.96.54,1.75,1.36,1.75,1.11,0,1.63-1.55,2-5.92l.5-5.92,1.37,4.92c.75,2.71,2.61,7.62,4.13,10.92s3.03,6.8,3.36,7.77c.74,2.18,3.88,3.53,4.42,1.91.22-.65,1.27-1.18,2.33-1.18,1.12,0,2.32-1,2.84-2.36.49-1.3,1.79-2.6,2.88-2.88,1.63-.43,2.11-1.71,2.7-7.21.42-3.94.31-7.59-.27-8.87-.54-1.2-.77-3.63-.51-5.42.39-2.68.92-3.25,2.99-3.25s2.33-.21,1.21-1.57c-.72-.86-2.12-1.36-3.11-1.1-1.42.37-2.03-.4-2.85-3.68-1.04-4.13-1.59-5.42-4.71-11.15-.9-1.65-2.41-5.7-3.36-9-.95-3.3-3.72-11.4-6.15-18-2.44-6.6-5.81-16.05-7.5-21-1.69-4.95-4.53-12.6-6.32-17-1.79-4.4-4.15-10.34-5.26-13.21-2.51-6.5-5.05-8.04-4.16-2.53.53,3.28.45,3.49-.67,1.73-1.59-2.51-5.69-13.83-6.73-18.56-.43-1.96-1.58-5.11-2.57-7-1.84-3.53-4.03-9.06-9.52-23.94-1.72-4.67-4.24-10.73-5.58-13.45-1.35-2.72-2.45-6.02-2.45-7.33,0-1.48-.48-2.22-1.25-1.95-2.23.78-1.11,7.61,2.71,16.54,2.05,4.78,4.79,11.16,6.09,14.19,4.79,11.12,7.7,18.77,11.55,30.33,2.16,6.51,4.64,13.19,5.5,14.86.86,1.67,2.22,5.57,3.02,8.67,1.5,5.83,5.04,13.72,9.25,20.6,1.33,2.18,3.71,7.49,5.28,11.79,1.57,4.31,3.92,9.95,5.22,12.53,1.3,2.59,2.7,5.83,3.1,7.21,1.73,5.92,9.98,24.68,11.67,26.56,2.16,2.4,2.34,6.47.65,14.66-.9,4.34-1.6,5.77-2.75,5.55-1.03-.2-1.64-1.66-1.85-4.43-.24-3.25-.76-4.26-2.44-4.7-2.09-.55-2.1-.61-.3-2.6,1.77-1.95,1.77-2.2.11-5.89-.96-2.12-2.76-4.96-4.02-6.31-3.76-4.06-4.87-7.01-4.96-13.24-.11-7.23-2.2-8.87-3.22-2.52-.61,3.83-.8,4.05-2.01,2.4-.74-1-1.62-3.44-1.96-5.4-.35-1.97-1.66-6.28-2.92-9.58s-2.77-8.88-3.36-12.39c-.59-3.52-1.7-7.12-2.47-8-2.56-2.93-4.65-7.96-4.68-11.31-.02-1.82-.95-5.77-2.07-8.8-1.12-3.03-2.69-7.75-3.47-10.5s-2.07-6.35-2.84-8-1.73-4.8-2.12-7c-.39-2.2-1.12-4.52-1.62-5.15-.5-.63-1.32-2.43-1.81-4-.49-1.57-2.53-7.35-4.53-12.85-7.84-21.6-15.49-44.75-15.49-46.88,0-1.23-1.14-4.62-2.54-7.51-1.4-2.9-2.8-6.69-3.12-8.44-.32-1.74-1.64-4.75-2.93-6.69-2.34-3.49-6.33-14.1-6.39-16.98-.02-.83-.64-2.67-1.39-4.1-.75-1.43-1.67-4.67-2.05-7.21-.72-4.8-3.19-10.69-4.48-10.69-.41,0-1.27-2.59-1.91-5.75-.64-3.16-2.06-10.02-3.17-15.25-1.1-5.23-2.01-10.93-2.02-12.68,0-1.75-.4-4.23-.88-5.5-1.18-3.14-2.38-18.92-1.24-16.3.48,1.11,2.21,3.36,3.85,5,3.97,3.98,18.11,24.8,19.59,28.84,1.86,5.08,18.68,35.3,27.63,49.65,6.87,11.01,12.77,23.13,19.67,40.43,3.06,7.66,6.16,14.86,6.9,16,.73,1.14,2.29,5.86,3.47,10.48,1.17,4.63,3.03,10.16,4.12,12.3,1.09,2.14,3.11,7.79,4.49,12.55,2.13,7.35,2.32,9.01,1.24,11.02-1.05,1.95-.96,3.85.49,10.91.97,4.7,1.54,8.76,1.27,9.03-.65.65-3.41-6-5.07-12.23-.73-2.75-2.25-7.47-3.38-10.5-1.12-3.03-2.34-7.19-2.71-9.25-.37-2.06-1.07-3.75-1.56-3.75s-.89.34-.89.76c0,1.83,7.14,28.64,8.11,30.45.59,1.11,1.89,4.78,2.89,8.15,3.86,13.04,6.3,18.19,8.11,17.07.49-.3.89.15.89,1.01s-.51,1.56-1.12,1.56c-1.09,0-.89,2.09.76,7.91.44,1.57.32,2.18-.36,1.76-.57-.35-1.32-2.11-1.66-3.91s-1.33-4.61-2.19-6.26-4.08-7.85-7.14-13.78c-3.06-5.93-5.78-10.56-6.04-10.29-.65.65,6.47,18.33,8.67,21.53.96,1.4,2.78,5.46,4.05,9.04,1.27,3.58,4.5,10.6,7.18,15.62,2.68,5.01,4.87,9.84,4.87,10.72,0,1.7,2.12,6.74,7.64,18.16,3.8,7.85,3.85,8.09,2.11,10.04-3.91,4.36-4.01,4.6-2.89,7.05.6,1.33,1.47,2.41,1.92,2.41,1.26,0,.14,13.26-1.29,15.32-1.52,2.19-.8,5.68,1.16,5.68.78,0,1.67-.67,1.99-1.5.78-2.03,2.52-1.91,2.16.15-.16.91.31,1.86,1.05,2.11,1.08.38,1.21-.88.67-6.4-.37-3.78-.89-7.65-1.16-8.61-.27-.96,0-1.75.58-1.75s1.07-1.12,1.07-2.5.46-2.5,1.03-2.5c1.52,0,3.06,4.8,2.4,7.46-.62,2.47,1.32,4.58,2.48,2.69.45-.73,1.9-.24,4.3,1.47,5.08,3.62,7.73,2.64,7.98-2.94.65-14.57.69-14.88,1.93-14.11.74.46.89,2.64.46,6.48-.44,3.87-.28,6.02.47,6.48,2.01,1.24,3.26-1.32,3.48-7.15.16-4.17.7-6.07,2.01-7.03,1.52-1.11,1.62-1.71.63-3.88-1.38-3.03-1.56-7.83-.27-7.03,1.19.74,5.03,13.53,4.79,15.95-.11,1.04.31,2.07.92,2.29,1.17.42,2.77-8.31,1.98-10.8-.69-2.17-1.78-45.39-1.13-44.74,1.3,1.3,3.67,20.18,4.06,32.36.23,7.15.91,17.2,1.52,22.33.61,5.13.87,9.94.59,10.68-.5,1.29,1.97,4.22,2.83,3.36.79-.79.57-9.39-.39-15.37-.53-3.3-1.24-16.58-1.56-29.5-.98-38.99-1.36-46.25-2.46-47.35-.73-.73-1.05,2.64-1.05,11.21,0,7.92-.35,12.04-1,11.64-.55-.34-1-2.14-1-4,0-4.14-3.86-35.42-4.63-37.5-.3-.83-1.19-6.84-1.96-13.37-.77-6.53-2.06-14.85-2.85-18.5-.79-3.65-2.12-10.23-2.95-14.63-1.8-9.58-4.99-23.91-7.02-31.5-5.58-20.89-8.56-34.46-12.62-57.5-2.85-16.18-3.77-20.66-4.92-24-.84-2.43-.93-1.77-.47,3.45.31,3.55.94,7.15,1.39,8,.45.85,1.55,7.11,2.43,13.9.88,6.79,1.8,12.68,2.05,13.08.25.4.93,3.62,1.52,7.15,3.83,23.05,6.65,35.82,9.49,42.92,2.6,6.53,7.93,33.39,10.61,53.5.59,4.4,1.96,13.62,3.05,20.49,3.01,18.92,4.97,81.51,2.47,79.01-1.51-1.51-3.42-10.81-6.57-32-.45-3.03-1.33-6.81-1.96-8.41-.74-1.89-1.2-12.44-1.32-30-.1-14.9-.34-26.28-.55-25.29-.3,1.43-.66,1.56-1.79.63-.78-.65-1.42-2.08-1.42-3.2s-.86-4.99-1.92-8.63c-3.68-12.65-7.26-35.43-8.56-54.39-.62-9.14-3.64-25.72-4.68-25.72s-1.05.68.16,8.81c.55,3.68,1.43,11.19,1.95,16.69,3.03,31.84,5.87,47.3,11.85,64.5,2.28,6.57,2.59,8.93,2.44,19-.09,6.33-.24,18.03-.33,26l-.16,14.5-1.75-4.06c-.97-2.23-2.09-5.61-2.5-7.5-.41-1.89-1.34-4.61-2.07-6.05-.73-1.44-2.29-7.06-3.47-12.5-2.44-11.31-4.48-19.14-6.5-24.89-1.42-4.05-3.45-14.58-5.98-31-.76-4.95-1.82-11.81-2.36-15.24-.53-3.43-1.71-16.93-2.63-30-.91-13.07-2.34-26.68-3.18-30.26-1.86-7.93-3.07-14.44-4.25-23-.49-3.58-1.83-13.02-2.97-21-1.14-7.98-2.28-17.88-2.52-22s-.93-10.42-1.52-14c-.59-3.58-1.36-8.75-1.7-11.5-.34-2.75-1.46-6.67-2.48-8.71-1.02-2.04-1.86-4.75-1.86-6.01s-.93-4.77-2.06-7.79c-2.12-5.64-5.94-16.96-5.94-17.62,0-1.22,2.72-.05,3.77,1.63.86,1.38,2.33,2,4.74,2,3.96,0,4.12-.43,1.89-4.91-1.98-3.96-1.45-4.72,1.42-2.05,1.6,1.49,2.13,3.07,2.01,6.03-.09,2.21-.44,3.56-.78,3-.7-1.14-7.79-.28-8.61,1.04-.28.46.23,1.97,1.14,3.36,2.24,3.42,5.75,3.32,7.35-.2,1.11-2.45,1.34-2.55,2.23-.97.54.97.84,2.98.67,4.48-.3,2.58-.11,2.72,3.98,2.72,3.86,0,4.45.33,5.89,3.29,2.24,4.6,6.16,7.58,7.99,6.06.97-.81,1.08-1.48.36-2.21-1.33-1.33-1.36-4.64-.04-4.64.55,0,1,1.12,1,2.5,0,1.56.57,2.5,1.5,2.5.83,0,1.5-.45,1.5-1s.68-1,1.5-1,1.5.4,1.5.89c0,1.11-4.83,4.43-7.49,5.16-1.1.3-2.15,1.36-2.35,2.37-.2,1.05.08,1.56.67,1.2.56-.35,1.69.71,2.5,2.34,1.38,2.78,1.35,3.02-.51,3.61-1.51.48-1.83,1.15-1.3,2.79.38,1.18,1.22,4.49,1.86,7.34,1.48,6.59,2.63,7.78,2.63,2.71,0-2.17.73-4.98,1.62-6.25,1.19-1.7,1.32-2.6.5-3.42-2.28-2.28-1.24-3.61,2.38-3.02,4.04.65,4.24.04,1.5-4.47-2.5-4.1-2.51-5.23-.07-5.23,1.22,0,2.08-.83,2.32-2.25.37-2.13.44-2.15,1.25-.31.56,1.28.45,2.07-.32,2.33-1.85.62-1.4,2.13,1.35,4.52,2.65,2.31,4.06,8.13,2.56,10.56-.66,1.07-1.14.91-2.28-.72-1.33-1.9-1.63-1.95-3.63-.54-1.4.98-2.18,2.58-2.18,4.47,0,2.92,1.62,3.86,3.55,2.05.52-.49,1.9-1.17,3.07-1.52,1.68-.51,2.33-.06,3.17,2.14,1.14,3.01,2.15,9.58,2.83,18.28.23,3.02.84,7.52,1.35,10,.51,2.48,1.46,7.65,2.12,11.5.66,3.85,1.62,8.12,2.13,9.5s1.35,4.7,1.86,7.39c.51,2.69,2.68,9.89,4.81,16,2.13,6.11,4.68,14.03,5.66,17.61.98,3.58,3.02,9.42,4.53,13,1.52,3.58,3.54,9.65,4.49,13.5s3.21,11.5,5.01,17c2.97,9.05,3.34,11.54,3.92,26.25.45,11.55.29,17.21-.56,19.56-.92,2.53-.92,4.7-.04,9.25.63,3.27,1.88,12.02,2.77,19.44,1.42,11.8,1.46,15.58.34,30-.71,9.08-1.55,20.78-1.89,26-.44,6.93-.86,8.96-1.53,7.5-.75-1.64-1.32-16.39-1.6-41.5-.03-2.61-.27-3.1-.96-1.93-1.29,2.2-1.28,36.03,0,43.93,1.52,9.34,2.32,20,1.5,20-.39,0-1.6-1.01-2.69-2.25-1.09-1.24-1.72-1.72-1.39-1.07.33.65.14,1.46-.42,1.81-1.74,1.08-1.11,3.25,1.11,3.83,1.75.46,2.01,1.05,1.48,3.37-2.82,12.23-1.34,13.54,3.7,3.29,1.75-3.56,3.62-6.48,4.16-6.48s1.09,2.97,1.25,6.59c.26,6.14.11,6.67-2.17,7.7-2.33,1.06-2.37,1.25-.97,4.06.81,1.62,2.12,3.2,2.92,3.5,2.35.9,4.76-2.3,4.13-5.49-.53-2.64-.39-2.77,2.27-2.24,2.45.49,2.93.2,3.51-2.13.48-1.93,1.79-3.13,4.61-4.24,4.46-1.75,5.78-4.4,3.91-7.88-1.02-1.91-1.04-4.55-.11-13.13,1.43-13.18,1.47-15.79.58-40.34-.72-19.93-.04-26.97,4.63-47.67.53-2.35.96-8.79.96-14.31,0-9.37,1.73-24.86,4.05-36.36,1.15-5.67,8.26-22.42,11.66-27.45,1.26-1.86,2.29-3.85,2.29-4.41,0-1.55,5.1-9.93,5.69-9.34.28.28-.18,3.8-1.03,7.83-2.9,13.71-5.58,45.34-4.21,49.66,1.52,4.78,2.27,1.48,2.83-12.35.64-15.72,3.16-40.73,4.97-49.39.62-2.97,2.12-6.85,3.32-8.63,1.21-1.78,1.87-3.75,1.48-4.39-.86-1.39-4.06-.37-4.06,1.29,0,.64-1.91,4.31-4.25,8.15-2.34,3.84-5.6,9.56-7.25,12.72-1.65,3.16-3.79,6.76-4.75,8-1.72,2.21-1.74,2.14-1.21-3.25.88-8.88,2.27-69.17,1.69-73-.48-3.16-.37-3.36,1.12-2.13,1.01.84,1.65,2.86,1.65,5.25,0,2.78.42,3.88,1.5,3.88,1.91,0,1.9.9-.02,3.02-.83.92-1.6,3.75-1.72,6.29-.19,4.38.07,4.87,5.09,9.56l5.29,4.94-1.59,3.07c-1.35,2.61-1.4,3.67-.33,7.09.69,2.21,1.54,4.03,1.89,4.03,1.79,0,3.05-3.26,2.47-6.37-.72-3.86,1.15-5.37,4.46-3.6,3.29,1.76,3.77,4.04,2.87,13.47-.88,9.21-.52,42.05.61,55.5.45,5.39.01,11.58-1.56,22-2.59,17.18-3.56,47.12-1.95,60.5.6,4.95,1.93,12.6,2.97,17,1.03,4.4,2.4,12.72,3.03,18.5.63,5.78,1.63,14.1,2.21,18.5.59,4.4,1.01,10.03.94,12.5-.18,6.18,1.69,12,3.87,12,1.35,0,1.88-1.24,2.43-5.75.39-3.16,1.4-7.23,2.25-9.04.85-1.81,1.2-3.61.77-4s-.97-.15-1.21.54c-1,2.8-2.17.92-2.82-4.5-.38-3.16-1.38-8.67-2.22-12.25-.85-3.58-1.45-9.2-1.34-12.5.12-3.41-.42-7.51-1.24-9.5-.79-1.92-1.77-5.97-2.18-9-.4-3.03-1.09-6.44-1.53-7.59-1.98-5.25-.83-50.37,1.59-61.91,1.81-8.65,1.84-10.95.52-44-.51-12.83-.51-27.83.02-36,.49-7.7.95-14.9,1.01-16,.13-2.24-.81-23.35-1.63-36.75-.35-5.71-.18-8.75.5-8.75.57,0,1.04.47,1.04,1.05s1.46,1.71,3.25,2.52c5.65,2.55,18.82,11.33,26.68,17.78,4.16,3.42,9.15,7.4,11.07,8.84,1.92,1.44,7.05,6.05,11.38,10.25,7.35,7.11,7.77,7.75,6.28,9.39-1.94,2.14-4.35,12.18-5.21,21.68-.99,10.95-3.38,24.39-5.59,31.5-1.11,3.58-2.64,11.9-3.38,18.5s-2.69,19.2-4.32,28c-1.63,8.8-3.26,20.72-3.62,26.5-.79,12.51-3.18,31.38-4.5,35.53-.52,1.63-2.09,6.12-3.49,9.97-1.4,3.85-2.55,9.17-2.55,11.82,0,5.76-2.65,20.67-4.61,25.95-1.82,4.92-1.78,5.34.74,7.87,2.04,2.04,2.06,2.27.48,4.93-1.05,1.78-1.28,3.02-.64,3.42,1.29.8,3.02-.24,3.02-1.83,0-.67,1.4-2.45,3.11-3.94,1.71-1.5,2.87-3.34,2.58-4.1-.51-1.33.65-10.96,3.69-30.62.81-5.22,2.37-11.99,3.48-15.03,2.92-8.03,5.6-25.42,8.58-55.47.82-8.25,2.21-18.15,3.09-22,.88-3.85,1.98-11.5,2.42-17,.45-5.5,1.93-14.28,3.29-19.5s3.04-12.2,3.73-15.5c.69-3.3,1.7-7.21,2.24-8.69.54-1.48.71-3.14.38-3.68-.34-.55-.21-1.24.29-1.55.5-.31,1.18.79,1.52,2.43.34,1.65.89,4.38,1.24,6.07.66,3.28.85,3.3,7.11.79,2.91-1.17,3.38-1.1,4.65.64.78,1.07,4.27,3.08,7.77,4.47,5.88,2.34,6.37,2.78,6.67,5.9.31,3.25.22,3.34-2.5,2.66-1.55-.39-4.17-2.16-5.82-3.93-3.02-3.24-9.06-6.39-10.15-5.3-1.2,1.2.8,7.91,2.49,8.35.94.25,3,2.92,4.58,5.94,1.58,3.02,4.7,7.05,6.93,8.96l4.05,3.47-1.21,10.73c-.66,5.9-1.87,13.21-2.69,16.23-.93,3.45-1.48,10.14-1.49,17.93,0,6.84-.45,13.81-.99,15.5-.54,1.69-1.71,17.92-2.59,36.07-.89,18.15-1.96,37.95-2.39,44-.82,11.6.29,17.5,3.3,17.5,1.1,0,1.67-2.63,2.45-11.25.56-6.19,1.02-12.83,1.03-14.75.05-8.75,2.25-53.73,3.17-64.77.56-6.75,1.02-15.75,1.02-20,0-4.25.88-13.58,1.95-20.73,1.62-10.77,4.45-49.61,4.37-59.75-.01-1.51.16-2.75.38-2.75.34,0,16.3,13.63,18.51,15.8.39.38,3.09,3.33,6,6.55,5.73,6.34,22.25,20.64,23.84,20.64,1.23,0,12.95,12.02,12.95,13.28,0,.51,2.24,3.75,4.98,7.2,7.89,9.92,16.98,25.56,21.08,36.29,3.16,8.28,9.66,26.53,12.54,35.23,1.37,4.12,2.89,11.55,3.39,16.5.5,4.95,1.38,10.57,1.96,12.49.58,1.92,1.05,5.13,1.05,7.13s.67,5.25,1.5,7.23c.83,1.97,1.5,6.34,1.5,9.71,0,5.12.37,6.43,2.25,8,2.85,2.38,5.62,2.69,3.73.43-.85-1.02-1.06-3.19-.65-6.65.69-5.83-.85-17.71-2.94-22.61-.77-1.81-1.4-4.04-1.4-4.96,0-1.57.11-1.57,1.66-.02,1.92,1.91,4.1,7.4,5.39,13.53.49,2.35,1.38,5.16,1.96,6.25.58,1.09,1.4,4.57,1.81,7.74.57,4.45,1.11,5.72,2.39,5.62,1.07-.08,1.44.4,1.07,1.37-.48,1.24-.21,1.3,1.58.34,1.75-.94,2.15-.88,2.15.33,0,.81.5,1.78,1.11,2.16.74.46.89-.01.43-1.44-.65-2.03-.39-2.28,2.71-2.53.69-.05,1.8-.84,2.48-1.74.99-1.32.92-2.26-.35-4.81-.87-1.75-1.32-3.44-1-3.76.75-.75,7.34,6.36,9.23,9.96,1.04,1.98,2.21,2.75,4.17,2.73,3.4-.02,4.45-.76,5.97-4.23.66-1.51,1.89-2.75,2.73-2.75,1.02,0,1.52-.98,1.52-3,0-2.49-.4-3-2.38-3-1.55,0-3.33-1.24-5.1-3.57-3.25-4.26-2.57-5.67,1.25-2.61,1.5,1.21,3.72,2.62,4.92,3.14,1.2.52,2.73,1.98,3.38,3.24,2.56,4.93,7.31,11.8,8.17,11.8,1.1,0-.02-3.94-1.7-6-2.11-2.59-9.54-17.09-9.54-18.62,0-2.71-3.83-9-9.93-16.3-3.34-3.99-6.07-7.87-6.07-8.61s-2.02-4.3-4.5-7.92c-2.47-3.61-4.5-6.84-4.5-7.16s-.84-1.78-1.87-3.24c-1.03-1.46-3.32-6.03-5.1-10.15-1.78-4.12-3.85-8.79-4.62-10.38-.76-1.58-1.13-3.89-.82-5.14.62-2.49-3.11-6.9-4.9-5.8-.57.35-.69.12-.29-.53.65-1.05-6.25-15.15-7.4-15.13-.27,0-1.1.39-1.84.86-1.11.71-1.08,1.36.2,3.84,1.49,2.88,1.46,3.04-.92,4.31-1.76.94-2.29,1.86-1.86,3.22.33,1.05.63,3.91.67,6.36.04,2.46.45,4.7.91,4.98.46.29.36,1.42-.23,2.53-.8,1.5-.68,3.17.5,6.62.86,2.54,1.57,5.83,1.57,7.31s.65,4.54,1.45,6.8c.81,2.3,1.05,4.34.55,4.66-.5.31-1.38-1.37-1.97-3.72-.59-2.35-1.87-6.08-2.86-8.28-.98-2.2-2.83-7.38-4.1-11.5-1.27-4.12-2.88-8.85-3.56-10.5-.69-1.65-2.03-5.03-2.98-7.5s-2.38-6.02-3.17-7.87c-.79-1.85-1.21-3.61-.92-3.89,1.1-1.1,3.53,2.13,5.07,6.77.89,2.66,2.2,5.34,2.93,5.94.73.6,1.68,3,2.12,5.33.7,3.7.85,3.88,1.19,1.47.58-4.11-2.24-12.69-6.75-20.51-2.2-3.81-3.99-7.42-3.99-8.02s-.52-1.41-1.15-1.8c-1.1-.68-.87,1.34.76,6.84.29.96.08,1.75-.45,1.75-1.24,0-3.24-5.65-2.6-7.32.27-.7-.88-2.27-2.54-3.5-1.66-1.23-4.18-4.52-5.6-7.32-1.42-2.8-3.44-5.31-4.5-5.59-1.06-.28-1.93-.92-1.93-1.43s-1.77-4.54-3.94-8.96c-2.17-4.42-3.73-8.58-3.47-9.26.26-.67-.66-2.28-2.03-3.57-1.38-1.29-3.03-3.97-3.69-5.95-1.43-4.34-6.66-11.1-8.59-11.1-.76,0-2.03-1.54-2.81-3.42-1.27-3.04-5.95-6.58-8.69-6.58-.91,0-14.96-14.41-20.27-20.78-1.51-1.81-4.37-4.11-6.37-5.12-8.14-4.12-9.98-5.2-11.15-6.62-1.41-1.7-.91-1.76,4.26-.56,5.42,1.26,3.64-.47-2.51-2.44-5.26-1.68-13.54-6.74-15.04-9.17-.44-.72-1.57-1.3-2.51-1.3s-2.16-.97-2.7-2.16c-.54-1.19-2.34-2.87-3.99-3.75-1.65-.88-7.5-5.92-13-11.21-5.5-5.29-12.76-12.18-16.14-15.3-8.82-8.15-9.02-11.17-.66-9.88,4.05.62,6.59,2.05,5.83,3.28-.75,1.21,4.66,7.71,8.98,10.8,11.19,8.01,14.78,10.22,23.72,14.58,7.36,3.59,10.64,5.85,13.5,9.3,2.08,2.51,6.93,7.82,10.78,11.81,7.68,7.96,13.81,15.14,17.54,20.53,1.33,1.92,3.18,4.4,4.1,5.5.92,1.1,1.83,3.12,2.02,4.49.21,1.54,1.1,2.63,2.34,2.87,1.97.37,1.97.34.1-1.74-2.51-2.79-1.25-2.69,2.72.21,3.31,2.42,8.68,3.42,8.68,1.61,0-.57-1.52-1.67-3.37-2.45-5.57-2.33-10.22-5.8-12.6-9.39-1.84-2.78-1.94-3.28-.56-2.75.93.36,2.21.65,2.86.65.64,0,1.93,1.35,2.87,3,1.59,2.79,5.8,4.3,5.8,2.07,0-1.55-8.28-8.12-10.97-8.7-4.56-.99-5.03-1.29-5.03-3.31,0-1.1-1.01-2.53-2.25-3.17-3.52-1.84-25.75-25.85-25.75-27.81,0-1.01-9.99-5.43-10.69-4.73-1.62,1.62-13.51-6.01-23.03-14.77-3.71-3.41-4.97-5.16-4.11-5.69,1.54-.95-1.68-4.89-3.99-4.89-1.23,0-1.17.36.31,2,.99,1.1,1.35,2,.78,2-1.51,0-3.55-2.76-2.86-3.87.63-1.02-10.55-13-13.92-14.93-1.93-1.1-1.92-1.14.31-1.17,1.28-.02,2.03-.48,1.69-1.03-.34-.55-1.63-1-2.86-1s-2.67-.41-3.19-.91c-1.04-.99-25.88-12.09-27.06-12.09-.4,0-1.44-.64-2.31-1.42-.87-.78-4.23-2.82-7.48-4.52-9.38-4.93-15.78-9.38-16.6-11.55-.49-1.28-2.85-2.71-6.53-3.97-3.3-1.12-7.52-3.57-9.87-5.72-4.09-3.75-5.6-4.55-5.6-2.99,0,1.06,4.05,4.76,6,5.47.97.36.7.58-.77.63-4.04.14-16.46-6.85-20.93-11.78-2.58-2.85-4.22-4.04-4.25-3.08-.07,2.31,10.83,11.91,15.46,13.62,2.2.81,6.84,2.29,10.32,3.29,3.48.99,7.3,2.67,8.5,3.73,1.2,1.05,3.3,2.46,4.68,3.12,2.23,1.07,18.63,10.83,27,16.06,2.49,1.56,16.32,7.83,19,8.61,6.13,1.8,24.62,17.39,22.32,18.81-1.09.67-15.03-2.52-18-4.12-1.2-.65-3.28-1.18-4.63-1.18s-3.03-.71-3.75-1.57-3.14-2.49-5.37-3.61-5.1-2.98-6.35-4.14c-1.26-1.15-4.27-3.24-6.69-4.64-2.42-1.4-8.59-5.95-13.72-10.12-11.7-9.53-13.24-10.43-7.14-4.2,6.74,6.89,27.31,24.72,30.33,26.28,1.38.71,4.53,2.81,7,4.67,11.17,8.36,13.79,10.06,16.55,10.72l2.95.7-3-2.57c-1.65-1.41-5.11-3.67-7.68-5.03-4.37-2.3-6.49-4.16-5.67-4.98.84-.83,12.57,3.91,14.67,5.94,2.28,2.19,3.73,7.54,2.04,7.54-2.28,0-.35,2.15,4.39,4.89,2.89,1.67,11.88,9.35,19.98,17.07,8.1,7.72,15.44,14.04,16.31,14.04s1.28.48.9,1.09c-.37.6-1.75.89-3.07.64-2.12-.4-1.89.08,1.95,4.18,2.39,2.55,5.18,5.98,6.21,7.61,1.03,1.64,4.74,5.83,8.25,9.31,6.4,6.35,8.04,10.15,1.96,4.53-1.78-1.64-6.46-5.54-10.4-8.65s-8.14-7.03-9.33-8.71c-1.19-1.67-4.22-4.61-6.74-6.53-4.95-3.78-15.3-13.61-24.6-23.37-3.21-3.36-6.38-6.11-7.05-6.11s-3.09-1.8-5.38-4c-2.29-2.2-4.65-4-5.25-4-1.22,0-17.74-10.8-18.57-12.14-.29-.47-1.29-.87-2.22-.87-.93,0-5.27-1.84-9.64-4.07-4.89-2.5-9.89-4.26-13-4.58-2.78-.29-8.2-1.65-12.05-3.03-3.85-1.38-8.35-2.84-10-3.26-3.68-.93-20.06-10.7-27.43-16.37-4.59-3.53-12.69-11.21-39.07-37.05-1.92-1.89-6.88-6.19-11-9.55-9.46-7.72-18.08-16.23-22.58-22.26-1.92-2.57-5.16-6.02-7.21-7.66-4.35-3.49-3.61-5.38,1.07-2.72,3.82,2.18,10.39,8.96,11.23,11.59.53,1.68,9.43,7.97,11.27,7.97.41,0,1.31.9,1.99,2,1.73,2.78,3.57,2.53,3-.41-.41-2.13-.25-2.28,1.38-1.26,1.01.63,1.84,1.92,1.84,2.87,0,1.21,1.1,1.89,3.75,2.3,7.81,1.23,10.71,2.6,12.25,5.78,1.97,4.08,6.29,7.21,8.67,6.29,1.67-.65,1.69-.81.19-1.92-.9-.66-3.6-2.86-6-4.89-2.4-2.03-5.83-4.87-7.61-6.31-1.79-1.45-3.25-3.02-3.25-3.49,0-1.15,5.98,1.41,10.58,4.52,4.45,3.02,5.42,3.12,5.42.57,0-1.07.45-2.22,1-2.56,2.49-1.54.77-2.73-3.28-2.28-3,.34-5.31-.07-7.74-1.37-1.9-1.02-4.18-1.85-5.07-1.85-1.98,0-7.65-2.76-8.5-4.13-1.15-1.87.39-2.04,2.99-.33,2.31,1.51,2.59,1.52,2.59.11,0-1.74-2.87-3.61-4.6-2.98-1.66.6-3.8-2.3-2.35-3.2,1.27-.79,4.85.81,9.55,4.26,1.7,1.25,4.4,2.29,6,2.3,1.6.02,4.03.68,5.41,1.46,3.13,1.79,6,1.9,6,.23,0-.7-2.28-2.07-5.06-3.06-2.79-.99-5.86-2.59-6.83-3.56-.97-.97-2.52-2.05-3.44-2.4-.92-.35-1.67-1.11-1.67-1.67,0-1.47,1.55-1.27,2.91.36,1.01,1.22,6.29,2.88,9.75,3.07.64.03,2.02.84,3.08,1.8,1.95,1.76,4.41,2.25,5.56,1.11,1.22-1.23-1.28-4.14-4.02-4.68-6.23-1.23-13.61-3.73-16.72-5.65-1.81-1.12-4.48-2.04-5.93-2.04-2.34,0-2.63-.39-2.63-3.5,0-3.29-.19-3.5-3.3-3.5-1.82,0-3.87.56-4.57,1.25-1.02,1-1.84.61-4.19-2-2.82-3.14-4.95-4.17-4.95-2.39,0,.47,1.8,2.9,4,5.4,2.2,2.5,4,4.81,4,5.14,0,1.61-2.21.12-6.77-4.55-3.84-3.94-5.45-4.98-6.87-4.41-1.59.63-.94,1.56,4.52,6.49,4.74,4.28,5.98,5.91,4.84,6.35-1.75.67-4.77-1.54-12.18-8.92-4.2-4.19-5.65-5.05-7.76-4.65-1.91.36-2.88-.04-3.69-1.54-1.23-2.3-.89-2.65,3.61-3.61,2.66-.57,3.57-.26,5.43,1.88,1.23,1.41,2.83,2.57,3.55,2.57,1.64,0,1.7-1.22.14-2.78-1.97-1.97-.14-2.59,8.46-2.85,4.52-.14,9.47-.34,10.99-.45,2.92-.21,13.76,4.93,17.32,8.21,1.15,1.06,4.08,2.93,6.5,4.15,3.44,1.74,4.35,2.71,4.17,4.47-.15,1.43.3,2.25,1.25,2.25.82,0,1.49-.67,1.49-1.5,0-1.93.13-1.92,9,.95,8.16,2.64,21.82,9.7,31.83,16.45,3.48,2.35,8.01,5.02,10.07,5.94,2.06.92,7.76,4.31,12.67,7.52,4.91,3.22,13.66,8.64,19.43,12.06,24.93,14.75,35.56,21.83,44.4,29.55,5.65,4.93,11.9,11.58,14.36,15.26,1.37,2.05,6.71,6.72,11.86,10.38,10.48,7.43,25.7,22.67,35.12,35.19,6.25,8.3,11.29,13.25,32.11,31.52,6.15,5.4,14.79,14.18,19.18,19.5,4.4,5.32,11.39,13.28,15.53,17.68,4.15,4.4,8.72,9.8,10.15,12s4.06,5.63,5.83,7.62c1.77,1.99,5.13,6.94,7.48,11,2.34,4.06,4.83,8.05,5.54,8.88,2.09,2.45,9.44,19.9,9.44,22.41,0,1.27,1.15,4.01,2.55,6.07,1.4,2.07,4.79,8.09,7.53,13.39,7.37,14.24,11.94,22.43,13.52,24.21.77.87,1.4,1.91,1.4,2.31,0,1.41,6.41,14.17,10.73,21.36,2.4,3.99,5.6,10.29,7.12,14,2.87,7.02,11.43,19.25,13.48,19.26.65,0,2.2,1.8,3.46,4,2.44,4.27,3.34,4.75,5.06,2.68.8-.97.59-2.21-.82-4.75-1.05-1.89-2.78-5.24-3.86-7.44-1.07-2.2-2.94-4.59-4.14-5.31-1.21-.72-3.33-3.87-4.73-7-4.12-9.25-7.24-15.49-9.35-18.69-1.09-1.65-3.38-5.92-5.09-9.5s-6.88-13.12-11.49-21.21c-4.61-8.09-8.93-15.96-9.6-17.5-.67-1.53-2.69-4.98-4.5-7.65-1.8-2.67-3.28-5.91-3.28-7.19s-.42-2.59-.92-2.9c-.51-.31-1.68-2.93-2.61-5.81-4.57-14.18-20.85-38.16-41.1-60.52-6.43-7.1-11.36-13.44-11.67-15.01-.71-3.53-13.41-16.21-16.24-16.21-.43,0-3.53-2.59-6.9-5.75s-9.7-8.96-14.08-12.89l-7.97-7.14-.23-9.36c-.12-5.15-.68-12.06-1.22-15.36-3.36-20.26-4.48-49.42-2.98-77.5.51-9.62,1.36-26.95,1.87-38.5.52-11.55,1.42-24.28,2-28.3,2.08-14.3,2.33-42.57.54-60.22-.92-9.06-2.04-18.28-2.49-20.48-2.5-12.22-4.25-18.87-6.97-26.5-1.67-4.68-3.52-11.88-4.11-16-.59-4.12-1.94-11.1-2.99-15.5-1.15-4.82-1.91-11.62-1.92-17.12,0-5.17-.6-10.81-1.38-13.02-.76-2.14-1.7-6.81-2.09-10.38-.91-8.33-3.65-19.38-8.6-34.68-2.17-6.71-3.94-13.32-3.94-14.68,0-4.99-9.15-30.04-13.55-37.11-11.79-18.92-19.74-28.34-33.07-39.15-13.23-10.74-16.55-13.73-20.84-18.75-4.75-5.56-7.13-6.81-8.11-4.27-.78,2.03,1.22,6.41,5.08,11.12,1.92,2.34,3.49,4.59,3.49,5s.9,1.88,2,3.28c1.1,1.4,2,3.21,2,4.02,0,1.77,10.47,23.61,13.15,27.43,1.03,1.47,3.19,6.87,4.78,12,4.28,13.73,8.82,27.11,12.77,37.64,1.92,5.13,4.1,11.89,4.83,15.04.73,3.14,3.36,11.77,5.84,19.18,3.92,11.7,9.02,29.61,11.66,40.96.45,1.93,1.51,8.68,2.36,15,.85,6.32,1.98,14.43,2.52,18s1.22,12.8,1.53,20.5c.31,7.7,1,16.69,1.54,19.99,1.65,10.11,2.3,48.4,1.07,63.3-1.74,21.12-2.76,69.5-2.34,110.22.1,9.62.18,18.62.17,20-.03,7.31,2.68,16,4.98,16,.35,0,.42-11.59.16-25.75-.77-41.23-.01-79.54,2.45-124.75.77-14.21-.94-57.6-2.88-72.87-.83-6.53-1.48-15.75-1.44-20.5.04-4.85-.6-11.08-1.45-14.22-.84-3.07-1.82-8.7-2.19-12.5-.68-7.04-3.36-20.52-6.04-30.38-.82-3.01-1.48-6.19-1.48-7.07,0-1.86-6.45-22.06-7.91-24.81-.55-1.02-1.97-5.64-3.16-10.26-1.19-4.62-4.3-14.03-6.91-20.9-2.61-6.88-6.19-17.22-7.96-23-1.77-5.78-4.53-13.96-6.14-18.2-1.6-4.24-2.92-8.1-2.92-8.6s-.9-1.71-2-2.71c-1.1-.99-2-2.61-2-3.6s-.43-2.06-.97-2.38c-1.09-.67-6.03-10.18-6.03-11.6,0-1.83,2.13-.84,6.27,2.93,2.33,2.12,4.99,4.26,5.91,4.75,1.88,1.01,20.81,21.9,20.81,22.96,0,.37,2.01,3.89,4.46,7.83,2.45,3.93,5.33,9.4,6.38,12.14,5.1,13.21,7.22,19.89,9.66,30.48,1.46,6.32,3.3,12.83,4.1,14.46,3.54,7.23,8.38,35.39,9.89,57.58.32,4.7,1.29,11,2.16,14,.87,3,1.92,8.84,2.34,12.97.47,4.6,2.42,12.15,5.03,19.5,2.34,6.6,4.86,14.56,5.6,17.71,3.3,14.04,4.3,84.9,1.36,96.28-.57,2.2-1.45,12.55-1.96,23-.51,10.45-1.35,20.41-1.87,22.14-1.34,4.48-.64,63.84.82,68.86.64,2.2,1.38,8.95,1.65,15,.29,6.55,1.26,13.61,2.4,17.45,1.05,3.55,1.76,6.61,1.58,6.79-.19.19-1.93-2.04-3.88-4.95-4.78-7.13-26.6-28.3-35.7-34.63-1.92-1.34-8.45-7.62-14.5-13.96-10.02-10.49-26.27-23.96-33.3-27.6-1.54-.8-8.18-4.78-14.75-8.85-6.58-4.07-14.71-8.8-18.08-10.5-3.37-1.7-9.17-5.18-12.88-7.72-3.71-2.54-8.61-5.56-10.87-6.69-2.27-1.14-4.79-2.65-5.62-3.35-2.95-2.53-28.75-16.02-35.5-18.56-1.87-.71-11.43-5.09-23-10.55-2.75-1.3-6.13-3.27-7.51-4.38-2.68-2.16-1.59-2.09-27.99-1.97-7.42.03-16.76-.05-20.75-.19l-7.25-.25v-3.29c0-3.6,1.87-4.49,2.71-1.29.29,1.1.97,2,1.51,2,.6,0,.85-3.14.63-7.98-.34-7.43-.57-8.18-3.45-10.8-2.85-2.61-3.15-3.51-3.87-11.77-1.03-11.78-1.04-15.42-.1-31.45.43-7.42.72-15.3.63-17.5-.09-2.2.14-10.44.5-18.3.56-12.11.89-14.26,2.2-14,.85.17,2.02,1.2,2.61,2.3,3.01,5.59,5.78,9.5,6.72,9.5.6,0,.78-.86.42-2-.57-1.8-.18-2,3.91-2s4.72.34,6.07,2.95c.84,1.62,1.53,3.85,1.53,4.94,0,3.07,1.86,3.51,2.59.61.43-1.72.11-3.18-.97-4.37-3.75-4.14-.62-4.28,3.51-.16,2.45,2.45,2.79,3.32,1.92,4.93-.58,1.08-1.05,2.89-1.05,4.03,0,2.43-1.25,2.67-3,.57-1.12-1.35-5-2.16-5-1.05,0,.25.52,1.6,1.16,3,1.63,3.57,6.84,3.54,10.17-.06,1.72-1.85,3.01-2.42,4.45-1.96,2.71.86,3,1.97,2.44,9.34-.39,5.18-.71,6.07-1.85,5.13-.76-.63-1.38-1.71-1.38-2.41s-.67-2.55-1.49-4.13c-.94-1.8-1.5-2.24-1.5-1.18,0,2.47-3.69,3.26-6.52,1.4-3.12-2.04-3.41-2-2.77.45.7,2.67,3.86,4.29,6.89,3.53,1.94-.49,2.61-.12,3.35,1.83.51,1.34,1.85,2.73,2.98,3.09,2.25.71,2.25,2.76.02,23.52-1.58,14.68-1.34,34.97.46,39.22.87,2.05,1.58,4.84,1.58,6.22,0,1.53.83,2.94,2.15,3.65l2.15,1.15-.88-15.87c-.92-16.5-.95-26.02-.14-35.36.27-3.02.78-15.81,1.14-28.4.36-12.6,1-23.52,1.42-24.26.55-.98,1.7-.04,4.15,3.4,7.88,11.08,12.38,18.12,15.17,23.76,1.63,3.3,3.67,7.35,4.53,9,.86,1.65,2.94,5.7,4.63,9,1.69,3.3,5.57,9.88,8.63,14.62,5.87,9.09,8.3,13.05,11.56,18.84,1.1,1.95,4.83,7.82,8.29,13.05,6.74,10.18,14.77,26.06,17.69,35,2.66,8.15,6.98,14,10.33,14,2.19,0,.66-5.89-2.33-9.02-1.36-1.42-2.48-3.24-2.48-4.04,0-4.51-11.72-28.99-18.32-38.27-2.42-3.4-5.43-8.2-6.68-10.68-1.26-2.48-3.29-5.85-4.52-7.5-1.23-1.65-3.24-5.02-4.47-7.5-1.23-2.48-3.03-5.4-4.02-6.5-.99-1.1-2.89-4.02-4.23-6.5-1.34-2.48-4.28-7.88-6.52-12s-4.79-9.57-5.65-12.1c-1.9-5.62-8.65-15.88-17.03-25.9-4.21-5.04-6.5-8.73-6.96-11.25-.38-2.06-1.12-3.75-1.64-3.75-1.87,0-2.45.46-2.16,1.72.52,2.24-1.16,1.37-6.29-3.29-2.75-2.49-7.02-5.56-9.5-6.82-2.47-1.26-8.02-4.15-12.33-6.42-6.77-3.57-8.41-4.05-12.1-3.55-2.62.36-5.18.1-6.63-.68-1.3-.69-5.7-2.1-9.78-3.12-4.08-1.02-9.88-3.32-12.88-5.1-8.86-5.27-16.3-8.8-21.28-10.07-2.56-.65-5.45-1.98-6.42-2.95-1.49-1.49-3-1.68-9.92-1.22-9.05.6-8.26-.25,2.69-2.87,3.97-.95,8.12-2.7,9.86-4.16,2.26-1.9,3.78-2.4,6.14-2.04,1.73.26,5.84.77,9.14,1.13,3.3.35,6.81,1.07,7.79,1.6,1.75.93,10.03,2.78,22.21,4.95,10.96,1.95,22.98,5.08,24.5,6.37.83.7,3.3,1.58,5.5,1.97,10.9,1.9,25.55,9.04,38,18.53,3.3,2.51,8.64,6.14,11.87,8.05,3.83,2.27,9.49,7.42,16.3,14.85,8.88,9.69,11.14,12.88,15.23,21.5,2.64,5.57,6.04,13.5,7.54,17.62,4.32,11.86,6.51,16.89,11.19,25.69,2.41,4.52,4.37,9.16,4.37,10.31s.97,3.98,2.16,6.3c3.34,6.5,9.45,30.5,11.78,46.21.49,3.3,1.59,7.94,2.45,10.31,1.64,4.51,3.91,19.89,3.13,21.16-.25.4.14,1.55.87,2.54,1.73,2.36,4.63,1.26,4.57-1.73-.19-9.96-1.98-22.97-3.7-26.81-1.14-2.56-2.27-7.95-2.64-12.64-.36-4.49-1.32-10.09-2.15-12.44-.83-2.35-2.18-7.22-3.01-10.83-2.95-12.91-10.27-32.42-15.04-40.14-1.22-1.96-2.95-5.79-3.86-8.5-2.57-7.65-6.21-16.55-10.04-24.56-1.93-4.02-3.51-7.8-3.51-8.4s-.82-1.97-1.82-3.04c-1-1.07-3.02-3.97-4.48-6.44-4.35-7.35-20.52-23.24-27.33-26.87-3.31-1.76-8.15-4.97-10.76-7.13-2.61-2.15-7.24-5.35-10.29-7.09l-5.55-3.17.67-4.11c.37-2.26.83-5.24,1.02-6.61.19-1.38.86-4.75,1.5-7.5,2.32-10.03,2.92-14.12,2.98-20.17.06-6.26,1.11-12.76,3.52-21.83.73-2.75,2.09-8.6,3.02-13s2.28-9.8,3.01-12c.72-2.2,1.62-5.35,1.99-7s1.99-5.14,3.59-7.76c1.61-2.62,2.93-5.32,2.93-6,.02-2.36,4.92-11.77,6.43-12.35,1.59-.61,10.34,1.67,16.93,4.42,3.79,1.58,3.91,1.56,5.82-.79,1.25-1.54,1.71-3.14,1.3-4.46-.36-1.13-.91-3.18-1.23-4.56-.95-4.1-5.47-10.53-10.11-14.39-5.03-4.18-8.13-5.22-10.99-3.69-1.11.6-3.2,1.08-4.63,1.08-4.38,0-9.66,3.48-17.73,11.68-6.16,6.26-8.8,9.97-13.16,18.5-3,5.87-6.37,11.95-7.48,13.5-1.11,1.55-3.43,6.65-5.16,11.32-3.85,10.42-6.83,16.64-9.6,19.97-3.02,3.64-4.34,6.43-5.32,11.27-.48,2.35-2.07,10.11-3.55,17.26-1.74,8.45-2.55,15.01-2.29,18.75.42,6.19.32,6.31-3.92,4.64-3.97-1.57-12.85-3.57-19.32-4.37-7.09-.87-16.9-3.49-19.66-5.26-1.4-.89-5.47-1.43-11.5-1.51-8.92-.12-9.64.03-16.05,3.46-4.01,2.14-8.84,3.84-12,4.22-7.69.93-13.57,2.6-14.95,4.26-.99,1.19-.59,1.94,2.19,4.12,3.36,2.64,6.39,3.84,16.87,6.68,4.84,1.31,5.74,1.29,8.81-.17q3.42-1.62,7.11,1.87c2.14,2.02,6.42,4.47,10.19,5.81,3.58,1.27,9.53,3.82,13.23,5.65,3.7,1.83,7.4,3.33,8.24,3.33,1.39,0,18.65,4.76,19.13,5.27,1.73,1.85-2.18,17.54-3.94,15.78-1.52-1.52-3.65-1.29-3.65.38,0,.79.96,1.74,2.13,2.11,1.99.63,2.08,1.13,1.48,7.82-.89,9.9-1.55,21.12-2.05,34.64-.23,6.33-.89,20.19-1.48,30.81-.98,17.86-.92,19.74.8,25,1.03,3.13,2.11,8.24,2.41,11.37l.54,5.68-3.08-1.72c-1.79-1-4.16-3.82-5.67-6.76-1.43-2.77-3.83-6.51-5.35-8.29-1.51-1.79-2.75-3.61-2.75-4.04,0-1.48-12.94-16.35-15.72-18.07-1.53-.94-6.38-5.66-10.78-10.48-4.4-4.82-9.94-10.62-12.32-12.89-5.03-4.8-19.93-13.89-32.43-19.8-7.93-3.75-8.84-4.47-9.74-7.73-.55-1.98-1-4.8-1-6.28,0-3.6-2.52-15.26-4.47-20.74-3.02-8.49-1.89-67.16,1.54-80.58.56-2.2,1.21-15.76,1.43-30.13.22-14.37.48-26.52.57-27,.41-2.24-.23-3.37-1.91-3.37-1.22,0-2.52,1.57-3.9,4.75-2.19,5.01-9.27,30.79-9.27,33.75,0,.95-1.11,6.29-2.46,11.87-1.36,5.57-3.15,14.64-3.99,20.14-1.34,8.75-3.99,23.86-7.71,44-.61,3.3-1.16,14.62-1.22,25.17-.06,10.54-.44,19.5-.85,19.91-.64.65-3.69-.35-11.26-3.69-6.46-2.85-23.27-8.19-31-9.84-4.95-1.06-12.25-3.07-16.23-4.48-3.98-1.41-8.41-2.56-9.85-2.56-3.32,0-31.41-7.5-37.45-10-2.49-1.03-9.02-2.99-14.5-4.35-5.48-1.36-13.11-3.91-16.96-5.65-6.66-3.02-26.42-10.38-35-13.03-2.2-.68-9.18-3.27-15.5-5.76-11.51-4.53-21.01-7.34-32.77-9.71-3.45-.69-8.13-2.49-10.4-4-2.27-1.5-5.07-2.7-6.23-2.65-4.65.17-9.59,1.44-10.67,2.74-1.58,1.9,2.87,7.06,9.21,10.68,2.67,1.53,4.86,3.12,4.86,3.53s1.24,1.24,2.75,1.82c1.51.58,7.15,4.17,12.53,7.97,5.38,3.8,10.58,7.36,11.56,7.91.98.55,4.01,2.85,6.72,5.11,9.81,8.17,26.26,20.15,35.5,25.85,5.19,3.2,11.29,7.09,13.56,8.64,2.27,1.55,6.09,3.9,8.5,5.22,9.74,5.35,15.96,8.67,27.88,14.9,6.88,3.59,19.02,10.27,27,14.83,17.36,9.93,27.08,14.54,34.09,16.16,3.61.83,5.35,1.77,5.69,3.07.8,3.06,6.72,5.29,37.8,14.26,2.8.81,6.5,1.47,8.23,1.47,2.45,0,3.25.49,3.61,2.25,1.16,5.59,1.82,15.5,2.06,30.75.14,9.08.75,18.3,1.36,20.5.6,2.2,1.01,6.02.91,8.5-.1,2.48.2,9.18.67,14.89.63,7.71.56,10.21-.28,9.69-.63-.39-1.14-1.33-1.14-2.08s-1.82-3.48-4.04-6.05c-2.22-2.57-5.36-7.27-6.96-10.46-1.61-3.19-5.31-8.65-8.23-12.14-2.92-3.49-6.54-8.26-8.05-10.6-1.51-2.34-3.15-4.25-3.64-4.25s-2.49-2.23-4.45-4.95c-5.84-8.13-24.31-27.46-28.76-30.1-2.28-1.35-6.98-4.93-10.45-7.95-3.47-3.02-8.88-7.52-12.03-10-3.15-2.48-9.59-8.27-14.31-12.89-4.72-4.61-10.16-9.55-12.08-10.96s-5.4-4.17-7.71-6.11c-9.41-7.9-11.46-9.29-15.53-10.53-2.34-.71-5.49-1.86-7-2.56-2.07-.95-3.68-1-6.5-.2-2.06.59-6.24,1.51-9.28,2.06-5.28.95-6.07,1.53-17.25,12.58-6.44,6.37-11.72,11.84-11.72,12.16,0,.6-5.51,7.84-7.93,10.43-.79.84-3.91,6.7-6.94,13.02s-7.17,14.23-9.2,17.58c-2.03,3.34-4,7.49-4.38,9.21-1.33,6.07-6.68,7.6-30.38,8.72-4.58.22-9.76.85-11.5,1.42-9.22,2.99-18.48,4.04-36.24,4.12-10.23.04-19.24.32-20.01.62-1.75.67-1.84,4.4-.16,6.55ZM60.39,443.58c1.7-1.82.89,3.52-1.13,7.49-1.11,2.18-2.19,3.96-2.39,3.96-.63,0,2.58-10.44,3.52-11.45ZM68.6,427.2c.71-2.38,1.77-4.63,2.35-5,.58-.37,1.39-1.8,1.8-3.18.41-1.38,1.52-3.17,2.47-4,.95-.83,2.26-3.38,2.91-5.68.65-2.3,2.56-5.45,4.24-7,1.68-1.55,3.87-4.39,4.87-6.32,1-1.93,3.62-5.53,5.82-8,3.9-4.39,4.04-4.46,6-2.69,2.83,2.55,1.84,5.22-4.36,11.69-2.89,3.02-7.21,7.93-9.59,10.9-4.29,5.35-5.03,6.5-12.25,19.1-2.05,3.58-4.14,6.93-4.65,7.45-1.33,1.37-1.14-2.13.39-7.27ZM72.77,406.67c.36-2.67,1.5-6.35,2.52-8.17,4.1-7.29,6.57-10.45,8.19-10.46,3.18-.02,3.71-3.01,1.05-5.87-3-3.23-1.37-3.93,3.98-1.69,4.7,1.96,5.54,3.44,3.06,5.44-1.1.89-2.28,2.41-2.62,3.38-.34.97-1.68,2.17-2.97,2.66-1.29.49-3.18,2.16-4.2,3.72-1.02,1.55-2.61,3.51-3.55,4.34-.94.84-2.25,3.77-2.93,6.52-.68,2.75-1.44,5.79-1.69,6.75-.25.96-.91,1.75-1.46,1.75s-.78-.79-.52-1.75c.26-.96.78-3.94,1.14-6.61ZM100.01,179.81c3.72,1.19,8.08,2.47,9.69,2.84,1.61.37,7.01,2.46,12,4.63,9.59,4.18,13,5.38,26.42,9.33,4.59,1.35,11.79,4.07,16,6.04,9.96,4.67,15.39,6.57,28.15,9.86,5.77,1.49,12.97,3.51,16,4.48,3.02.97,8.2,2.52,11.5,3.43,3.3.91,8.25,2.29,11,3.06,2.75.77,7.25,1.72,10,2.11,2.75.39,7.47,1.58,10.5,2.64,3.02,1.07,8.2,2.52,11.5,3.23,10.58,2.28,22,5.44,26.56,7.36,7.4,3.11,18.27,7.03,21.19,7.65,2.26.48,2.75,1.12,2.75,3.56,0,1.98.5,2.98,1.5,2.98.83,0,1.5-.87,1.5-1.94,0-2.99,1.58-3.32,5.73-1.2,2.09,1.07,7.14,2.95,11.23,4.19,6.99,2.12,23.49,10.04,29.04,13.93,1.38.96,4.82,2.92,7.65,4.35,7.72,3.89,13.89,8.31,15.91,11.4.99,1.52,4.63,5.61,8.08,9.1,3.45,3.48,6.55,7.2,6.88,8.25.33,1.05,1.08,1.92,1.66,1.92s2.69,1.69,4.7,3.75c2.01,2.06,4.83,4.51,6.27,5.45,2.53,1.64,7.47,8.51,6.69,9.29-.21.21-5.32-4.43-11.36-10.31-6.04-5.88-11.8-11.33-12.79-12.11-1.67-1.3-1.76-1.21-1.18,1.12.51,2.02.21,2.65-1.44,3.08-1.65.43-2.07.08-2.07-1.76,0-1.26-.71-2.57-1.58-2.9-1.31-.5-1.47-.06-.91,2.64.37,1.79,1.42,4.82,2.33,6.74,2.28,4.8,19,18.59,24.44,20.16,2.32.67,5.91,2.71,7.98,4.53,2.06,1.82,4.31,3.32,5,3.33s2.37.9,3.75,1.98c2,1.57,2.15,1.96.77,1.98-2.99.04-14.77-5.27-14.77-6.65,0-.73-.59-1.32-1.3-1.32-4.05,0-23.26-12.6-32.35-21.22l-3.16-2.99-1.22,2.28c-1.1,2.05-.88,2.56,2.16,5.08l3.38,2.8-4.68.03c-3.93.02-5.23-.49-8.1-3.22-1.88-1.79-3.66-3.92-3.95-4.75-.42-1.18-.8-1.24-1.81-.29-1.04.98-.82,1.59,1.12,3.16,4.1,3.33,1.65,3.23-7.35-.31-11.38-4.47-14.17-6.21-15.48-9.68-1.33-3.52-3.26-3.79-3.26-.45s-1.11,3.75-5.88,1.39c-2.73-1.35-9.2-2.74-18.42-3.94-16.48-2.16-27.54-4.58-29.79-6.52-.87-.75-3.12-1.37-5-1.37-1.88,0-6.27-1.35-9.76-3-3.49-1.65-6.82-3-7.4-3-2.17,0-50.52-24.85-53.85-27.67-.88-.74-4.03-2.62-7-4.17-6.84-3.56-14.3-7.78-19.27-10.9-2.13-1.33-5.57-3.03-7.66-3.76-2.09-.74-9.62-5.2-16.75-9.91-7.12-4.72-13.18-8.58-13.46-8.58-1.65,0-26.89-17.77-32.96-23.22-1.67-1.49-3.88-2.99-4.92-3.32-1.04-.33-1.88-1.01-1.88-1.52s-1.91-2.12-4.25-3.59c-2.34-1.47-6.18-4.24-8.54-6.17-6.02-4.91-4.28-6.22,4.53-3.4ZM104.02,362.35c.41.24,2.21.76,4,1.14,2.63.56,3.14.42,2.68-.78-.31-.82-1.33-1.7-2.25-1.97-.93-.27-2.47-.81-3.43-1.21-1.22-.5-1.75-.25-1.75.83,0,.85.34,1.75.75,1.99ZM104.66,335.03c.81,0,1.68-1.53,2.08-3.66.38-2.02,1.73-5.73,3.01-8.25,1.28-2.52,4.24-8.57,6.58-13.43,6.76-14.08,17.78-27.75,27.89-34.61,3.1-2.11,6.24-4.55,6.97-5.43,1.71-2.06,3.95-2.04,6.26.06,2.49,2.25,3.6.86,1.33-1.65-1.03-1.14-3.08-2.01-4.74-2.01-3.88,0-3.2-1.98,1.49-4.3,2.5-1.24,6.25-1.86,11.96-1.98,8.76-.19,8-.45,19.29,6.55,4.41,2.74,7.37,5.28,17.95,15.41,6.08,5.82,12.63,11.75,14.56,13.18,1.93,1.43,8.22,6.93,14,12.23,5.77,5.3,11.85,10.33,13.5,11.19,4,2.07,23.7,22.05,27.33,27.73,1.59,2.48,4.12,5.62,5.63,7,2.94,2.67,18.47,23.13,20.58,27.11,2.32,4.37,10.41,15.2,13.8,18.48,3.63,3.51,3.65,3.64,2.74,16.32-.48,6.59-.28,8.91.9,10.71.83,1.27,1.51,3.19,1.51,4.28,0,3.7-1.88,3.15-3.91-1.13-1.11-2.35-4.11-7.15-6.66-10.66-3.09-4.26-4.9-7.92-5.42-11-.43-2.54-.83-3.83-.9-2.86-.07.96-.46,1.73-.87,1.7-3.36-.22-18.25-21.95-18.25-26.64,0-1.2-.45-2.47-1-2.81-.55-.34-1-1.44-1-2.44s-.67-2.38-1.5-3.06c-.82-.68-1.5-1.71-1.5-2.28,0-2.24,3.83,2.62,6.93,8.78,1.8,3.57,3.68,6.76,4.19,7.07.51.31,2,2.68,3.32,5.25,1.32,2.57,3.33,5.25,4.48,5.94,2.93,1.77,2.74-.21-.42-4.35-3.67-4.82-3.04-6.33,1-2.41,1.93,1.87,3.5,3.79,3.5,4.27,0,1.52,9.13,13.73,10.26,13.73.6,0,.11-1.04-1.09-2.31-1.2-1.27-2.17-2.63-2.17-3.02s-1.22-2.61-2.72-4.94c-1.5-2.33-4.04-6.71-5.66-9.73s-4.1-6.81-5.53-8.41c-1.42-1.6-4.65-5.2-7.17-8s-6.06-7.33-7.87-10.07c-1.81-2.74-8.3-9.79-14.43-15.68-6.12-5.88-14.5-14.63-18.63-19.45-14.1-16.44-20.29-22.55-22.33-22.02-1.37.36-3.8-1.46-8.77-6.55-6.73-6.89-6.97-7.03-10.64-6.29-4.48.91-9.39.69-14.51-.64-6.04-1.57-4.34-2.47,3.88-2.05,9.68.49,9.19-1.32-.58-2.14-9.04-.76-12.76-2.6-5.55-2.75,2.75-.06,6.96-.41,9.37-.78l4.37-.68-3.37-3.21c-6.03-5.76-10.35-9.25-11.44-9.27-1.01-.01-3.35,2.28-6.34,6.23-1.21,1.59-1.05,1.7,1.71,1.14,2.4-.48,3.26-.18,4.13,1.45,1.04,1.95.88,2.03-3.16,1.61-11.02-1.15-10.09-1.49-11.03,4.03-.47,2.74-1.38,5.34-2.04,5.78-.65.44-3.65.67-6.67.52-4.81-.25-5.52-.03-5.85,1.72-.2,1.1-2.54,4.1-5.2,6.66-2.66,2.56-6.1,6.88-7.65,9.59-3.33,5.82-8.25,11.61-11.21,13.19-1.28.68-2.12,2.11-2.12,3.6,0,1.36-.98,3.45-2.19,4.65-1.44,1.43-1.77,2.33-.98,2.59,1.44.48,4.47-2.89,7.18-7.96,1.08-2.03,2.82-4.29,3.87-5.02,1.65-1.15,5.49-5.96,17.12-21.43,2.76-3.68,5.66-5.1,7.21-3.55,1.32,1.32-3.56,7.56-7.95,10.18-1.78,1.06-4.12,3.41-5.19,5.22-1.07,1.81-2.43,3.83-3.01,4.5-.58.66-1.06,1.62-1.06,2.13s-.87,1.54-1.93,2.29c-1.18.84-2.06,2.83-2.25,5.09-.35,4.15,1.11,5.18,2.76,1.95.59-1.16,3.35-4.51,6.12-7.45,2.78-2.93,5.84-6.89,6.81-8.78.97-1.89,2.94-4.83,4.38-6.54,1.44-1.7,3.06-3.82,3.61-4.72,1.34-2.18,5.54-2.77,8.47-1.21,2.34,1.25,2.34,1.29.3,1.93-1.15.36-2.74,1.66-3.55,2.87s-2.64,3.47-4.08,5c-1.44,1.54-5.19,6.04-8.34,10-3.15,3.97-7.58,9.23-9.83,11.71-3.16,3.47-7.17,9.18-8.88,12.65-.04.09-3.68-.52-8.08-1.34-4.4-.82-9.27-1.45-10.82-1.38l-2.82.11,2.45-3.27c1.35-1.8,3.01-5.07,3.69-7.27,1.47-4.74,1.49-4.77,6.12-11.63,1.99-2.95,3.79-5.91,4-6.58.24-.79.88-.9,1.8-.34,1.21.75,1.16,1.29-.33,3.55-.96,1.47-1.5,2.92-1.2,3.23.91.91,4.55-3.87,7.27-9.55,1.4-2.93,3.17-5.56,3.94-5.86,1.93-.74,1.74-2.09-.36-2.59-1.39-.33-1.2-.64.95-1.53,2.89-1.19,5.8-5.79,5.8-9.15,0-3.16-3.87-2.57-7.75,1.19-2.78,2.7-3.5,2.99-4.28,1.75-.81-1.29-.94-1.27-.96.14,0,.89-1.4,2.2-3.1,2.91-1.7.7-4.78,3.57-6.85,6.37-2.07,2.8-4.58,5.77-5.58,6.59-2.81,2.32-8.84,12.05-10.22,16.5-1.93,6.23-1.61,10.02.98,11.77,3.78,2.54,1.14,3.48-7.5,2.67-3.49-.33-5.45-1.94-2.36-1.94ZM115.99,324.53c.96-2.78,5.11-9.44,9.34-15,4.19-5.5,8.16-11.01,8.82-12.25.66-1.24,1.86-2.25,2.67-2.25,1.94,0,1.85,1.22-.32,4.11-.98,1.31-3.51,5.76-5.61,9.89-2.11,4.12-4.39,8.17-5.07,9-.69.83-2.72,4.54-4.52,8.25-3.12,6.42-5.23,8.25-6.34,5.5q-.78-1.93,1.05-7.25ZM119.32,369.34c2.49,1.74,3.96,1.4,3.96-.91,0-1.94-2.45-2.82-4.56-1.64-1.51.85-1.46,1.1.6,2.54ZM131.98,375.78c.54,2.79,2.29,2.98,2.29.25,0-1.11.67-2,1.5-2s1.5.7,1.5,1.56c0,2.38,6.1,9.44,8.15,9.44.99,0,4.86,1.17,8.58,2.6,3.72,1.43,9.47,3.24,12.77,4.03,3.3.79,6.9,1.66,8,1.94,1.52.39,1.4.15-.5-.99-2.7-1.63-6.11-2.85-12.7-4.54-3.67-.95-12.38-7.09-19.94-14.06-2.08-1.92-10.53-2.93-10.22-1.22.07.41.33,1.76.57,3ZM141.27,300.53c.55-.34,1-.14,1,.44s-.45,1.06-1,1.06-1-.2-1-.44.45-.72,1-1.06ZM147.8,339.6c2.96.56,4,.1,8.53-3.71,2.83-2.39,5.99-5.92,7.01-7.85,1.02-1.93,6.73-8.57,12.68-14.76,12.21-12.69,12.86-12.96,21.57-8.73,8.25,4.01,14.69,8.29,21.68,14.41,3.58,3.13,8.08,6.77,10,8.08,1.93,1.31,5.52,4.32,8,6.7,2.47,2.37,5.18,4.54,6,4.83.82.28,2.62,2.1,4,4.04,1.38,1.94,5.2,6.94,8.5,11.11,3.3,4.17,6.65,8.54,7.43,9.71.79,1.17,2.86,3.69,4.61,5.62s4.28,5.17,5.63,7.21c1.35,2.04,3.66,4.66,5.14,5.82,1.48,1.16,2.68,2.58,2.68,3.15,0,.99,5.78,10.27,12.13,19.48,1.58,2.29,2.87,4.58,2.87,5.1s.95,1.79,2.1,2.83c1.16,1.05,2.8,3.24,3.64,4.88.85,1.64,4.45,7.44,8,12.9,4.45,6.84,6.71,9.51,7.26,8.61.86-1.39,1.12.52,3.07,22.51,1.21,13.64,2.06,21.41,3.87,35.5.6,4.67,1.27,10.98,1.47,14,.47,6.75,3.64,25.49,5.1,30.08.34,1.06.17,1.92-.36,1.92-.92,0-6.06-11.29-8.65-19-2.03-6.04-6.65-16.02-13.88-30-3.84-7.42-10.3-20.2-14.35-28.39-4.05-8.19-8.62-16.74-10.14-19-1.52-2.26-4.59-7.71-6.81-12.11-2.22-4.4-5.9-10.88-8.18-14.4-2.28-3.52-4.14-6.79-4.14-7.26s-3.2-6.14-7.11-12.6c-3.91-6.46-8.07-13.39-9.25-15.41-3.2-5.5-32.91-30.83-36.16-30.83-.67,0-3.3-.92-5.85-2.05-2.55-1.13-8.57-2.72-13.38-3.54-4.81-.82-12.57-2.16-17.24-2.98s-13.23-1.94-19-2.51c-11.95-1.17-13.38-1.5-12.49-2.95.37-.6,2.06-.77,4.01-.41ZM152.45,309.53c2.31-2.66,3.82-3.22,3.82-1.42,0,1.14-3.96,4.82-5.25,4.88-1.23.05-.87-.81,1.43-3.46ZM153.95,282.28c.57,2.11,1.91,2.28,2.66.33.3-.78,2.71-2.68,5.36-4.22,2.65-1.54,6.71-4.24,9.04-6.01,2.33-1.76,5.14-3.49,6.25-3.85,2.72-.86,2.57-2.51-.23-2.49-5.13.03-16.75,5.23-16.75,7.48,0,.79-1.46,1.82-3.25,2.28-3.27.84-4.12,2.63-3.08,6.47ZM175.17,288.07c2.6-1.08,3.33-.95,6.27,1.12,1.83,1.28,3.54,2.47,3.8,2.64s-.19.75-1,1.3c-1.76,1.19-9.72.36-11.61-1.21-1.72-1.42-1.12-2.33,2.54-3.84ZM187.71,273.03c.79,0,2.37,1.32,3.52,2.93,2.86,4.02.62,5.3-2.52,1.45-2.74-3.35-2.97-4.38-.99-4.38ZM191.31,389.89c1.08,1.3,1.97,2.95,1.97,3.67s2.81,4.45,6.25,8.3c3.44,3.84,9.27,10.52,12.96,14.83,12.14,14.19,25.75,27.43,30.2,29.4,2.33,1.03,5.49,2.86,7.02,4.06,2.59,2.04,2.75,2.06,2.41.28-.2-1.05-3.06-3.68-6.35-5.86-7.02-4.63-34.91-32.06-34.04-33.48.33-.53-1.92-3.58-4.99-6.77-3.07-3.19-7.7-8.39-10.28-11.55-2.58-3.16-5.25-5.75-5.94-5.75-1.58,0-1.57.03.78,2.86ZM203.86,227.42c2.33.89,4.62.74,3.99-.27-.7-1.13-5.57-2.08-5.57-1.09,0,.42.71,1.03,1.58,1.36ZM210.91,295.56c3.07,2.84,1.89,3.14-3.42.87-3.52-1.51-3.6-1.64-1.48-2.46,1.75-.68,2.82-.33,4.9,1.6ZM205.94,232.36c.37.37,1.34.67,2.17.67s2.21.63,3.08,1.4c1.65,1.47,20.78,6.9,19.38,5.51-2.1-2.09-19.72-9.9-22.34-9.9-2.84,0-3.73.9-2.3,2.33ZM238.49,323.26c1.25.83,4.44,4.15,7.07,7.39,9.84,12.08,18.71,23.66,18.71,24.43,0,.44,2.16,3.19,4.81,6.12,5.23,5.79,11.64,15.71,10.75,16.61-.31.31-.71.37-.91.14-6.45-7.69-15.71-19.58-18.85-24.2-6.8-10.02-18.36-25.02-21.67-28.14-3.47-3.27-3.42-4.65.09-2.34ZM259.56,253.12c15.12,7.08,23.22,10.35,28.33,11.44,3.65.78,9.8,3.58,11.88,5.41,2.44,2.14,5.5,3.31,5.5,2.11,0-.49-.56-1.11-1.25-1.39-.84-.34-.76-.51.25-.53.83-.01,5.33,1.31,10,2.93,14.47,5.03,14,4.92,14,3.5,0-1.34-7.48-4.32-19.5-7.76-12.37-3.55-13.95-4.28-15.3-7.1-1.25-2.6-4.2-3.8-4.2-1.71,0,.55-.51,1-1.14,1-1.66,0-9.86-4.23-9.86-5.08,0-1.02-5.79-2.92-8.9-2.92-2.79,0-13.66-3.69-18.99-6.44-1.79-.92-4.1-1.54-5.14-1.37-1.08.18,5.05,3.57,14.32,7.9ZM250.03,463.47c.85,1.62,4.96,6.42,9.14,10.67,8.9,9.05,10.52,10.92,12.19,14.06,1.21,2.28,7.37,10.83,14.29,19.83,3.58,4.66,15.62,27.02,15.62,29.01,0,.62,1.07,2.56,2.38,4.31,1.31,1.75,2.72,4.31,3.13,5.68.96,3.21,5.12,10.74,7.74,13.98l2.03,2.52-.69-3c-.89-3.87-14.61-31.5-15.64-31.5-.43,0-1.58-2.14-2.55-4.75-.97-2.61-2.59-5.82-3.58-7.14s-1.81-2.92-1.81-3.57-1.51-2.95-3.36-5.11c-1.85-2.16-4.37-5.95-5.61-8.43s-3.73-6.08-5.53-8c-1.8-1.92-3.89-4.69-4.64-6.14-1.4-2.71-24.95-27.59-24.76-26.16.06.44.8,2.12,1.65,3.74ZM252.26,431.52c1.47.91,8.05,12.52,14.47,25.51,3.12,6.33,6.12,12.31,6.65,13.3.54.99,3.03,6.62,5.54,12.5,2.51,5.88,5.42,11.89,6.46,13.35,1.04,1.46,1.94,3.71,2.01,5,.08,1.7.24,1.86.57.6.25-.96.92-1.75,1.49-1.75,1.8,0-.12-5.17-4.62-12.5-2.37-3.85-4.84-8.66-5.49-10.69-.65-2.03-1.97-4.73-2.92-6-.96-1.27-2.61-4.34-3.67-6.81-2.93-6.82-17.36-31.58-19.55-33.57-1.06-.96-1.93-1.25-1.93-.65s.44,1.37.99,1.7ZM265.11,496.53c.95,1.65,3.84,6.87,6.44,11.6,6,10.92,10.33,16.9,12.23,16.9s1.94-2.61.01-3.35c-1.48-.57-8.52-10.95-12.41-18.29-1.86-3.5-8.09-11.55-8.02-10.36.02.27.8,1.85,1.75,3.5ZM275.64,609.23c1.23,3.95,3.64,7.23,3.64,4.96,0-1.94-2.68-7.85-3.9-8.6-.61-.38-1.05-.54-1-.37.06.17.62,1.98,1.26,4.02ZM281.93,623.03c1.45,2.47,3.25,5.21,3.99,6.08.74.87,1.35,2.47,1.35,3.55s1.4,4.18,3.11,6.89,4.82,8.75,6.91,13.45c5.75,12.94,14.17,26.95,16.23,27.01,1.41.04.75-1.7-3.42-9.09-2.29-4.06-5.55-10.04-7.25-13.28-1.69-3.24-3.85-7.29-4.78-9s-1.74-3.78-1.78-4.61-1.41-3.27-3.05-5.43c-1.64-2.16-2.97-4.47-2.97-5.13s-.66-1.75-1.48-2.42-2.94-4.1-4.73-7.62c-1.79-3.52-3.6-6.4-4.02-6.4-1.29,0-.88,1.28,1.88,6ZM287.31,523.21c.57.19,1.65,2.12,2.39,4.3.75,2.17,1.83,4.11,2.41,4.3.58.19-.14-2.35-1.6-5.65-1.46-3.3-3.01-5.78-3.44-5.51-1.12.69-.98,2.14.24,2.55ZM297.27,693.53c1.1.99,1.99,2.3,1.97,2.91-.02.6-.92.03-2-1.27-2.54-3.05-2.53-3.95.03-1.64ZM308.58,722.44c.65,1.05,3.07,4.72,5.37,8.16,2.83,4.23,4,6.92,3.63,8.34-.3,1.15-.86,2.09-1.24,2.09-.6,0-4.88-8.65-7.91-16-1.4-3.4-1.32-4.93.14-2.59ZM312.99,611.41c.39.39,1.24,2.61,1.89,4.92.64,2.31,3.46,9.71,6.26,16.44,5.19,12.49,10.14,26.39,10.14,28.45,0,.63.67,1.89,1.49,2.79,1.93,2.13,2.22,7.26.77,13.52-.64,2.75-1.71,7.7-2.38,11s-1.6,6.5-2.06,7.12c-1.12,1.48-7.41.13-7.05-1.51.37-1.68-2.63-18.49-4.36-24.47-.78-2.67-1.41-6.58-1.41-8.68s-.49-5.09-1.09-6.64-1.43-9.57-1.85-17.82c-1.09-21.62-1.15-25.92-.35-25.12ZM313.27,546.03c.53.83.97,1.05.97.5s-.44-1.67-.97-2.5c-.53-.83-.97-1.05-.97-.5s.44,1.67.97,2.5ZM316.73,702.03c.62,0,5.54,8.46,5.54,9.54,0,1.33-1.88-.85-3.98-4.63-1.93-3.46-2.39-4.91-1.56-4.91ZM319.62,744.61c.9.35,1.38,1.05,1.05,1.57-.35.56-1.16.46-2.02-.25-1.76-1.46-1.25-2.17.96-1.33ZM318.3,213.53c-.19-3.3-.29-9.32-.22-13.39.11-7.01.65-10.3,5.16-31.61,1.05-4.95,2.16-12.26,2.48-16.24.31-3.98,1.49-11.18,2.61-15.99,1.12-4.81,2.46-11.23,2.96-14.26,1.56-9.34,4.39-21.01,5.09-21.01,1.18,0,1.69,5.11,1.83,18.44.08,7.18-.32,15.42-.87,18.3-1.53,7.96-5.11,49.03-4.82,55.23.22,4.61-.03,5.52-1.57,5.84-1.72.35-1.82-.62-1.66-15.96.2-19.62.05-21.55-1.2-16.34-.53,2.2-1.07,15.02-1.21,28.5-.13,13.48-.62,27.15-1.08,30.38-.69,4.85-.59,5.8.57,5.42,1.84-.61,2.78-6.25,2.86-17.3.08-10.5.7-13.5,2.79-13.5,1.26,0,1.43,1.2,1,7.21-.31,4.27.07,10.49.93,15.25.99,5.52,1.24,10.94.79,17.32-.74,10.45-.42,10.24-8.97,5.94-9.3-4.69-8.85-3.79-7.94-15.67.44-5.81.65-13.25.47-16.55ZM319.27,281.03c.55,0,1-.42,1-.94s-.45-1.22-1-1.56c-.55-.34-1,.08-1,.94s.45,1.56,1,1.56ZM323.5,310.21c1.75.25,2.38,1.21,2.93,4.49.85,5,3.03,9.43,7.3,14.83,4.3,5.43,6.54,9.15,6.54,10.84,0,.77.94,3.53,2.08,6.12s1.83,4.97,1.51,5.28c-.58.58-3.6-5.85-3.6-7.67,0-.55-.91-1.49-2.03-2.08-1.12-.6-1.9-1.85-1.75-2.79.18-1.07-.48-1.81-1.76-1.99-2.09-.3-6.17-6.58-5.69-8.76.14-.65-.86-3.16-2.24-5.57-1.38-2.41-2.51-5.2-2.51-6.2,0-1-.69-2.5-1.51-3.32-2.16-2.16-1.85-3.55.73-3.18ZM323.27,745.03c.55,0,1,.41,1,.92s1.06,2.2,2.36,3.75c1.3,1.56,2.92,5.19,3.6,8.08.68,2.89,1.65,5.5,2.14,5.81.49.31.9,1.06.9,1.67,0,1.93-5.1-3.57-6.71-7.23-1.59-3.63-4.11-10.94-4.23-12.25-.04-.41.38-.75.93-.75ZM324.95,699.3c.58-.19,1.83.84,2.78,2.29,1.32,2.01,1.45,2.92.57,3.79-.88.86-1.65.55-3.13-1.26-2.01-2.46-2.09-4.2-.22-4.82ZM326.49,711.84c.72.72.78,1.18.15,1.18-1.33,0-2.52-1.18-1.85-1.85.28-.28,1.05.02,1.7.67ZM324.94,350.78c.56,1.38,2.34,1.72,2.34.44,0-.45-.66-1.68-1.47-2.75-1.09-1.45-1.46-1.56-1.42-.44.03.83.27,2.06.55,2.75ZM325.27,332.03c1.27,1.96,1.27,5,0,5-.55,0-.99-1.46-.98-3.25.01-2.47.25-2.89.98-1.75ZM325.86,238.63c.87-.33,1.76-.61,1.97-.61s.1-.75-.26-1.67c-.49-1.27-.24-1.52,1.03-1.03.92.35,1.67.26,1.67-.21,0-1.04-4.02-2.19-5.17-1.48-.45.28-.83,1.66-.83,3.06,0,1.91.39,2.4,1.58,1.94ZM327.86,727.47c1.57,2.14,1.83,3.56.65,3.56-.9,0-3.01-4.28-2.46-5,.21-.28,1.02.37,1.8,1.44ZM329.25,713.54c.54-.33,4.14,2.51,8,6.32,4.97,4.9,7.02,7.66,7.02,9.42,0,1.37.71,3.08,1.57,3.79.86.72,2.28,2.68,3.15,4.37,1.54,2.98,1.53,3.03-.32,1.58-13.96-10.92-23.27-23.12-19.43-25.5ZM331.72,280.58c1.44.94,2.87,1.46,3.17,1.16.31-.3-.62-1.33-2.06-2.27-1.44-.94-2.87-1.46-3.17-1.16-.31.3.62,1.33,2.06,2.27ZM330.66,746.03c.21,0,.62.9.91,2,.29,1.1.11,1.75-.38,1.44-.87-.54-1.31-3.44-.52-3.44ZM331.74,705.03c1.72,0,10.12,10.74,9.15,11.71-1.25,1.24-9.65-7.88-10.56-11.46-.03-.14.6-.25,1.4-.25ZM331.21,341.03c1.18,0,2.44,1.95,1.73,2.67-.72.72-2.67-.55-2.67-1.73,0-.52.42-.94.94-.94ZM333.67,738.94c.77.64,2,1.03,2.75.87,1.7-.36,1.86,4.38.17,4.94-.65.22-1.87-.87-2.71-2.42-1.92-3.55-2.01-4.89-.21-3.4ZM333.37,689.34c.6-1.55,1.47-5.45,1.94-8.67.47-3.22,1.1-6.11,1.42-6.43.94-.94,3.34,2.97,5.08,8.28.9,2.75,2.95,7.06,4.55,9.59,1.61,2.52,2.92,5.08,2.92,5.68,0,1.12,4.86,12.46,7.52,17.56.81,1.56,1.48,3.42,1.48,4.14s1.38,3.05,3.07,5.17c3.95,4.97,9.93,15.2,9.93,16.98,0,.76-.45,1.38-1,1.38s-1-.49-1-1.09-1.46-2.81-3.25-4.91c-1.79-2.1-4.74-6.78-6.57-10.39s-3.74-6.83-4.25-7.15c-1.88-1.16-.84,2.33,3.07,10.3,4.51,9.21,4.52,9.24,2.59,9.24s-10.41-13.13-15.9-24.6c-1.34-2.8-4.75-7.52-7.56-10.47-5.47-5.73-6.3-8.76-4.03-14.62ZM334.52,346.27c1.24.82,3.15,3.35,4.24,5.61,1.34,2.77,2.49,3.96,3.51,3.64,2.29-.72,5.46,8.46,3.58,10.35-.94.94-1.55,1.02-2.02.25-.37-.6-.2-1.1.38-1.1,1.66,0,1.25-1.82-1.13-5.04-2.71-3.66-3.4-3.69-4.57-.21l-.92,2.75-1.79-3.46c-1.22-2.35-1.43-3.58-.66-3.83,1.79-.6,1.32-1.93-.87-2.5-1.55-.4-2-1.36-2-4.24,0-3.63.05-3.68,2.25-2.23ZM334.17,758.03c.49,0,1.17.71,1.5,1.58.94,2.45.74,2.77-.89,1.42-1.66-1.38-1.99-3-.61-3ZM335.82,438.03c.71,2.48,1.32,5.74,1.37,7.25.04,1.51.55,2.75,1.12,2.75.61,0,.84-1.35.56-3.25-.27-1.79-1.02-7.52-1.68-12.75-.66-5.23-1.58-9.93-2.06-10.45-1.32-1.45-.78,11.31.69,16.45ZM338.27,246.53c.76-1.77.87-1.69.93.75.04,1.51-.38,2.75-.93,2.75-1.17,0-1.17-.77,0-3.5ZM339.81,583.03c1.23,0,1.32-.4.46-2-.59-1.1-1.28-2-1.53-2s-.47.9-.47,2,.67,2,1.54,2ZM344.45,748.9c1.55,1.74,2.82,3.6,2.82,4.14,0,2.12-2.63.73-5.3-2.78-3.58-4.71-1.52-5.84,2.48-1.36ZM342.2,284.48c1.2.74,2.38-1.14,1.56-2.47-.69-1.12-2.49-.38-2.49,1.02,0,.48.42,1.14.93,1.46ZM348.81,482.53c.69,7.15,1.81,18.85,2.47,26,1.3,13.99,3.24,20.53,3.8,12.8.17-2.31-.21-8.16-.84-13-.63-4.84-1.27-11.29-1.43-14.33-.37-7.23-3.54-25.19-4.67-26.41-.53-.58-.82-.38-.74.5.07.8.7,7.3,1.4,14.45ZM348.36,368.47c.6-.37,1.61-.1,2.25.59.91.99.76,1.12-.7.6-1.58-.56-1.77-.28-1.23,1.85.36,1.45.2,2.51-.39,2.51-1.36,0-1.31-4.7.07-5.55ZM351.02,317.55c.96.41,4.58,1.56,8.03,2.55,6.06,1.75,19.39,8.18,21.97,10.6.69.65,2.27,1.48,3.51,1.84s4.07,1.51,6.3,2.56c2.23,1.05,6.96,2.19,10.5,2.54,3.54.35,7.57,1.21,8.94,1.9,2.45,1.23,13.31,3.73,21.81,5.02,3.17.48,4.53,1.23,5.15,2.84.46,1.21,1.62,2.84,2.57,3.64,4.79,3.98,8.29,21.99,7.02,36.23-.91,10.29-.82,14.69.36,17.25,1.81,3.9,5.08,14.92,5.08,17.11,0,1.22.84,4.62,1.88,7.56,4.4,12.52,4.78,14.72,7.14,41.34.64,7.15,1.81,16.83,2.62,21.5.8,4.67,2.14,13,2.96,18.5.83,5.5,2.18,13.38,3,17.5.82,4.12,2.13,16.85,2.9,28.29,1.39,20.63,2.3,28.91,5.06,46.21.79,4.95,2.11,13.57,2.94,19.16.83,5.59,2.69,14.14,4.13,19,3,10.1,4.55,18.23,3.73,19.55-.31.5-.07,2.12.53,3.6,1.63,4.02,2.98,15.32,1.78,14.92-1.62-.54-3.71-8.49-8.67-33.02-1.02-5.04-2.03-5.87-1.99-1.63.04,4.01,6.7,35.47,8.51,40.17,1.4,3.64-1.58,1.59-3.62-2.5-1.17-2.34-2.93-4.92-3.92-5.75-1.58-1.32-5.58-12.9-7.42-21.5-1.85-8.63-10.5-36.42-12.65-40.64-1.02-2-3.25-8.67-4.96-14.82-1.71-6.15-4.33-13.28-5.83-15.86-2.46-4.23-5.45-11.35-11.38-27.18-1.13-3.03-3.12-6.9-4.42-8.61-1.3-1.71-3.52-5.99-4.93-9.5-1.42-3.51-3.82-7.74-5.35-9.39-2.8-3.03-10.05-14.89-10.05-16.45,0-.46-1.63-3.25-3.62-6.2-1.99-2.94-5.85-9.85-8.58-15.35-2.73-5.5-7.74-14.31-11.13-19.58-5.7-8.85-7.83-11.65-17.7-23.26-1.94-2.28-4.11-4.91-4.82-5.84-1.28-1.67-4.53-20.87-6.15-36.32-.46-4.4-1.55-10.68-2.42-13.95-2.21-8.35-4.58-29.89-4.58-41.68,0-7.21-.46-10.96-1.7-13.65-2.57-5.63-4.1-11.29-4.21-15.57-.08-3.31.15-3.75,1.65-3.11ZM353.67,301.28c1.6,2.11,3.61,2.29,3.61.32s-2.91-4.75-4.08-4.02c-1.23.76-1.12,1.6.47,3.7ZM359.83,294.06c5.34,3.05,5.63,3.11,7.5,1.42,2.32-2.1,2.51-4.29.44-5.09-2.69-1.03-1.58-2.6,1.53-2.14,4.04.59,3.33-1.38-1.01-2.82-3.66-1.21-6.02-3.79-6.02-6.59,0-.99-.67-1.81-1.5-1.81-1.93,0-1.96-.15,1.17,7.47,1.47,3.58,2.37,6.82,1.99,7.2-.38.38-2.43-.29-4.56-1.49-4.56-2.57-5.1-2.65-5.1-.75,0,.78,2.5,2.86,5.56,4.61ZM358.19,511.53c.73,1.85,1.12,6.93,2.59,34,.3,5.5,1,15.4,1.55,22,.56,6.6,1.14,14.11,1.31,16.7.32,5.04,2.29,8.54,3.9,6.94.6-.6.54-2.18-.15-4.29-.61-1.84-1.1-5.14-1.09-7.34,0-2.2-.2-6.92-.46-10.5l-.47-6.5,1.71,6.03c.94,3.32,2.78,7.09,4.1,8.39l2.39,2.36-.65-2.89c-.36-1.59-1.11-5.82-1.65-9.39-.55-3.58-1.26-7.17-1.58-8-.64-1.63-2.3-10.71-2.85-15.5-.19-1.65-1.29-5.38-2.44-8.29-1.15-2.91-2.1-7.32-2.1-9.8,0-4.73-2.62-17.84-4.09-20.41-1.12-1.96-1.11,3.67,0,6.5ZM357.93,419.76c.27.68.29,2.03.04,3-.25.97-.48.42-.5-1.23-.02-1.65.19-2.45.46-1.77ZM364.52,766.58c2.74.84,3.26,1.27,2.49,2.03-.86.86-4.74-.55-4.74-1.73,0-.58.96-.71,2.25-.31ZM363.27,541.53c.55.34.99,1.15.99,1.81-.01.72-.4.59-.99-.31-1.24-1.92-1.24-2.27,0-1.5ZM364.27,553.53c.55-.34,1-.14,1,.44,0,2.01.17,2.56,1.2,3.8,1.14,1.38.4,4.26-1.1,4.26-.53,0-1.15-1.46-1.37-3.25-.22-1.79-.48-3.56-.56-3.94-.09-.38.29-.97.84-1.31ZM365.88,612.59c.61,1.79,1.4,5.78,1.76,8.85.36,3.07,1.59,9.52,2.72,14.34,2.35,9.96,5.72,27.86,6.93,36.75.45,3.3,1.53,9.15,2.41,13,.88,3.85,1.88,8.8,2.22,11,.34,2.2,1.69,7.23,2.99,11.18,1.3,3.95,2.37,8.23,2.37,9.51,0,4.51,5.35,16.8,6.71,15.43.24-.23-.09-2.38-.72-4.78-.63-2.39-1.61-6.15-2.17-8.35-.56-2.2-1.45-5.09-1.98-6.42-.94-2.38-2.79-11.47-6.93-34.08-2.92-15.94-5.48-27.85-8.38-39-1.36-5.22-2.93-12.65-3.49-16.5-.56-3.85-1.68-8.8-2.49-11-.8-2.2-1.48-5.44-1.51-7.19-.02-1.76-.48-3.46-1.02-3.8-1.27-.79-.88,6.73.58,11.05ZM369.88,761.45c-.81-2.11-.1-1.76,3.28,1.62,2.53,2.53,2.77,3.15,1.44,3.66-.88.34-2.33.08-3.22-.57-.89-.65-2.51-1.5-3.61-1.89-1.88-.66-1.86-.72.33-1.05,1.53-.23,2.14-.84,1.78-1.77ZM369.08,306.71c.32,2.2,7.34,9.31,9.2,9.31,2.12,0,.84-2.76-2.5-5.43-1.92-1.54-3.5-3.62-3.5-4.65,0-1.77.16-1.76,3.47.19,1.91,1.12,3.93,1.76,4.5,1.41,1.75-1.08,1.14-3.52-.89-3.52-2.69,0-5.08-1.04-5.08-2.2,0-.62,1.97-.72,5.23-.27,4.62.63,5.08.54,3.96-.81-.7-.84-2.39-1.81-3.76-2.15-1.37-.34-2.9-1.7-3.4-3.02-.69-1.81-1.43-2.26-3.05-1.83-2.84.74-4.68,4.72-3.08,6.65.91,1.1.89,1.73-.11,2.78-.71.75-1.15,2.34-.97,3.54ZM372.89,589.31c.34.34,1.47,7.5,2.5,15.92,2.94,23.88,4.42,32.54,5.84,34.25.86,1.04,1.11,3.03.73,5.81-.57,4.21,1.23,19.12,3.35,27.74,1.16,4.72,2.49,11.77,3.95,21,.48,3.03,1.37,7.53,1.98,10,.61,2.47,1.97,8.78,3.03,14,2.79,13.8,3.7,17.11,5.04,18.37,1.92,1.8.68-8.97-3.49-30.37-.8-4.12-1.96-10.2-2.57-13.5-.61-3.3-1.57-7.51-2.15-9.34-.57-1.84-1.4-5.67-1.84-8.5-1.09-7.03-3.89-23.16-4.98-28.66-.49-2.47-1.43-8.33-2.08-13-.66-4.67-1.82-11.04-2.57-14.14-.75-3.11-1.37-7.38-1.36-9.5,0-4.89-4-26.54-5.15-27.81-.49-.55-.86.77-.86,3.08s.28,4.31.62,4.65ZM378.66,536.06c.76.8,2.17,3.94,3.13,6.96s3.68,9.55,6.04,14.5c7.62,15.96,17.8,42.64,21.94,57.5,3.83,13.72,9.02,29.08,11.49,33.96,1.55,3.07,4.01,9.61,5.48,14.56,1.47,4.94,3.55,11.24,4.62,13.99,1.07,2.76,2.8,8.38,3.84,12.5,1.04,4.12,3.28,10.8,4.98,14.85,1.7,4.04,3.1,7.54,3.1,7.76,0,.54-7.55-4.32-12.01-7.72-2.47-1.89-4.02-4.27-5.26-8.04-2.69-8.22-4.73-16.96-4.73-20.27,0-2-.33-2.66-1-1.99-.67.67-.66,2.86.03,6.6.57,3.08.93,5.98.8,6.45-.47,1.68,1.38,8.83,3.19,12.39,1.47,2.88,1.7,4.67,1.1,8.55l-.75,4.91-.8-3.5c-.44-1.92-1.43-4.22-2.2-5.09-2.27-2.58-6.55-13.98-7.43-19.8-.45-2.97-1.51-6.09-2.36-6.94-1.75-1.75-3.23-.98-1.95,1.02,1.43,2.24,3.13,7.72,2.56,8.28-1.16,1.16-1.99.34-4.68-4.6-3.93-7.22-4.44-10.05-5.52-30.36-.83-15.51-1.38-19.38-4-28-1.68-5.5-4.42-14.95-6.09-21s-3.89-13.7-4.93-17c-1.04-3.3-2.38-8.92-2.98-12.5-.6-3.58-1.54-8.97-2.09-12-.55-3.03-1.44-9-1.99-13.27-.55-4.27-1.4-8.77-1.89-10-1.33-3.31-1.2-4.34.36-2.69ZM379.28,286.85c4.03,4.83,12,8.93,12,6.17,0-.55-.39-1-.87-1s-3.19-2.25-6.03-5-5.6-5-6.13-5c-1.55,0-1.06,2.31,1.04,4.83ZM385.7,320.45c1.93.36,4.8,1.74,6.36,3.05,1.57,1.32,4.02,2.69,5.46,3.05,1.44.36,2.85,1.29,3.15,2.07.3.78.44,1.4.32,1.39-.64-.04-7.86-2.93-12.19-4.87-8.27-3.71-9.74-5.94-3.11-4.69ZM391.63,529.03c1.33,3.04,2.54,3.98,4.28,3.31.87-.33,2.73,2.41,5.48,8.09,4.01,8.28,6.26,11.04,5.17,6.35-.29-1.24-2.09-5.62-4.01-9.75-1.92-4.12-4.15-9.3-4.96-11.5-2.76-7.47-5.65-13.5-6.49-13.5-1.44,0-.89,5.7.67,7,.83.68,1.5,1.89,1.5,2.67s.69,2.76,1.53,4.38c1.56,3.02.31,4.26-1.34,1.32-1.49-2.66-3.08-1.24-1.83,1.63ZM395.02,306.13c3.76,2.89,19.19,18.29,18.76,18.72-.66.66-14.42-10.79-15.59-12.97-.54-1.02-1.61-1.85-2.37-1.85-1.41,0-2.33-1.43-2.47-3.87-.07-1.15.2-1.16,1.67-.03ZM405.38,762.03c.49,0,.89-.7.89-1.56s-.4-1.31-.89-1.01c-.49.3-1.17-.16-1.5-1.02-.86-2.23-.79-2.41.89-2.41.83,0,1.5.54,1.5,1.2,0,.91.3.9,1.24-.04.99-.99.96-1.41-.13-2.09-1.72-1.06-2.1-10.23-.46-10.78,2.34-.79,4.04,10.67,3.49,23.59-.12,2.83-.38,3.18-1.6,2.16-.8-.66-1.93-.92-2.5-.56-.57.35-1.41.42-1.85.15-1.07-.66-.23-7.62.92-7.62ZM407.02,689.04c1.47.02,9.06,16.59,10.31,22.49.7,3.3,1.85,7.17,2.55,8.6,1,2.02,1.02,2.89.08,3.9-.95,1.03-.84,1.17.55.68,2.23-.78,4.38,2.42,5.25,7.82l.65,4-2.53-5.25c-1.39-2.89-3.11-5.27-3.82-5.29-1.34-.04-5.84-8.42-5.81-10.83.02-1.66-2.61-10-5.08-16.13-1.59-3.93-2.36-6.48-2.78-9.25-.06-.41.22-.74.63-.74ZM408.78,553.16c.79,1.45,2.13,2.9,2.98,3.23,2.02.78.6-2.06-2.4-4.78-2.44-2.21-2.52-2.01-.58,1.55ZM410.58,715.53c4.38,7.53,8.05,28.46,6.1,34.74-1.09,3.5-2.12,1.64-1.37-2.47.6-3.26.35-5.05-1.06-7.82-1.01-1.98-2.32-7.16-2.92-11.53-.6-4.36-1.47-9.28-1.93-10.93-1.02-3.65-.4-4.71,1.18-1.99ZM413.96,561.53c.8,3.52,6.37,16.55,9.78,22.88,4.48,8.31,13.45,30.09,19.2,46.62,2.62,7.54,7.53,17.57,8,16.34.24-.64-1.16-5.59-3.12-11-1.96-5.41-4.04-11.19-4.64-12.84-4.33-12.03-7.83-20.73-12.89-32-7.96-17.73-9.57-21.06-13.53-28-3.34-5.85-3.74-6.13-2.8-2ZM418.08,729.03c1,0,5.2,8.52,5.2,10.55,0,.82,1.06,1.9,2.36,2.4,1.3.49,2.62,1.88,2.93,3.07.52,1.99.43,2.04-1.15.61-1.01-.91-2.62-1.32-3.89-.99-1.77.46-2.29.04-2.81-2.29-.35-1.57-1.22-4.88-1.94-7.35-1.65-5.68-1.68-6-.71-6ZM423.46,748.26c1.85.62,2.16,2.77.39,2.77-.87,0-1.58-.71-1.58-1.58s.53-1.41,1.19-1.19ZM423.95,186.3c2.39,1.4,12.16,3.58,13.94,3.12,4.14-1.08,19.36,3.3,28.7,8.25,2.65,1.41,5,2.38,5.22,2.15.91-.91-8.24-6.9-11.99-7.85-2.23-.56-5.62-1.69-7.55-2.51-1.92-.82-6.05-1.9-9.17-2.4-3.12-.5-7.04-1.61-8.7-2.47-1.66-.86-3.67-1.57-4.46-1.57-2.04,0-6.98,2.69-5.99,3.27ZM427.77,330.66c.82.32,1.24.98.93,1.49-.65,1.05-2.43.21-2.43-1.15,0-.5.67-.65,1.49-.34ZM430.27,748.53c.55.34,1,1.04,1,1.56s-.45.94-1,.94-1-.7-1-1.56.45-1.28,1-.94ZM431.52,708.44c1.24.91,3.45,2.42,4.92,3.35,2.66,1.68,5.83,6.99,5.83,9.77,0,1.79-2.6,1.95-3.42.22-.32-.69-.34.1-.03,1.75.31,1.65,1.19,3.49,1.97,4.08,2.03,1.56,3.21,5.21,3.89,11.98.33,3.26.32,5.26,0,4.43-.94-2.36-4.38-10.2-5.92-13.5-.77-1.65-2.29-5.62-3.39-8.82-1.1-3.2-2.88-7.25-3.96-9-2.81-4.54-2.76-6.39.12-4.27ZM434.67,755.72c.49-.11,1.38.58,1.98,1.52.8,1.28.76,2.05-.18,2.99-1.03,1.03-1.45.98-2.23-.22-1.1-1.72-.87-4.01.43-4.29ZM435.2,699.91c.53.86,1.05.96,1.46.29.35-.57.15-1.34-.44-1.71-1.49-.92-2.01-.19-1.02,1.42ZM436.8,705.04c1.27,1.06,1.42.99.89-.38-.35-.9-1.03-1.64-1.52-1.64-1.29,0-1.1.58.63,2.02ZM450.49,345.45c4.81.77,5.74,1.78,5.77,6.27,0,1.75.46,3.47,1.01,3.81,1.48.92,1.21,2.5-.43,2.5-1.37,0-10.33-10.57-10.49-12.38-.04-.48,1.82-.57,4.14-.2ZM449.13,218.03c2.05,0,4.14,1.86,4.14,3.7s-2.07,1.64-4.79-.27c-2.44-1.71-2.11-3.43.65-3.43ZM454.02,213.42c3.42,1.8,12.25,10.13,12.25,11.55,0,.58.66,1.05,1.47,1.05,1.63,0,4.06,3.81,3.06,4.81-1.04,1.04-6.04-2.31-5.8-3.87.12-.79-2.91-4.36-6.74-7.93-3.83-3.57-6.97-6.62-6.98-6.78,0-.15,1.22.38,2.74,1.17ZM453.45,384.3c.73.26,1.19,1.03,1.03,1.71-.55,2.39.94,5.02,2.85,5.02,1.06,0,1.93.67,1.93,1.5s-.44,1.5-.97,1.5-1.71,1.42-2.6,3.15c-2.11,4.08-2.85,2.68-3.24-6.17-.25-5.62-.03-7.08,1-6.7ZM454.62,224.03c1.48,0,6.22,3.77,5.56,4.42-.22.23-1.87-.21-3.66-.96-3.27-1.37-4.41-3.46-1.9-3.46ZM455.62,206.03c.74,0,2.11.85,3.05,1.88.94,1.04,3.01,2.15,4.61,2.47,1.69.34,3.62,1.75,4.63,3.37.95,1.53,3.17,4.36,4.94,6.28,3.87,4.21,5.3,8,3.03,8-.84,0-1.98-.83-2.53-1.85-1.47-2.75-8.13-10.57-9.49-11.15-2.04-.87-9.59-7.29-9.59-8.17,0-.46.61-.83,1.35-.83ZM457.37,281.03c.42,8.52.52,19.14.21,23.58-.58,8.45.46,12.42,3.25,12.42,1.08,0,1.32-.67.86-2.5-.51-2.02-.26-2.5,1.31-2.5,3.33,0,3.43-1.27.29-4.13l-3.02-2.76-.11-16.31c-.15-22.45-1.09-35.05-2.64-35.56-1.4-.46-1.42,2.27-.16,27.75ZM458.77,353.03c.83.68,1.49,1.75,1.47,2.37-.02.62-.69.25-1.5-.81-1.89-2.49-1.87-3.14.03-1.56ZM458.27,246.53c.57.35,1-.49,1-1.94s-.45-2.56-1-2.56-1,.87-1,1.94.45,2.22,1,2.56ZM459.11,744.03c.46,0,1.36,1.15,2,2.55.93,2.04.85,3.14-.37,5.5-.84,1.62-1.74,2.95-2,2.95s-.47-2.47-.47-5.5.38-5.5.84-5.5ZM461.42,634.24c.63.21,2.59,5.98,4.36,12.83,1.77,6.85,4.66,17.33,6.42,23.3,1.76,5.97,2.95,11.1,2.64,11.42-.31.31-.57-.12-.57-.96s-.86-2.62-1.9-3.95-2.42-4.43-3.05-6.88c-.63-2.46-2.05-6.64-3.16-9.31-1.94-4.66-3.28-10.47-4.86-21.16-.41-2.75-.8-5.15-.88-5.33-.08-.18.38-.16,1.01.05ZM462.27,659.53c.56-.34.99.4.99,1.69-.01,1.86-.21,2.02-.99.81-1.2-1.86-1.2-1.76,0-2.5ZM463.18,167.28c1.25-3.78,2.09-9.89,2.44-17.81.6-13.64,2.46-20.01,8.16-28.04,1.92-2.7,3.49-5.27,3.49-5.71s.83-2.7,1.85-5c1.02-2.31,3.12-7.35,4.68-11.19,1.56-3.85,3.39-7.47,4.07-8.04,1.57-1.33,6.94-11.86,8.95-17.55.9-2.55,3.48-6.23,6.25-8.9,2.6-2.5,6.58-6.57,8.85-9.03,3.3-3.57,5.23-4.73,9.53-5.73,8.72-2.02,9.28-1.83,16.21,5.59,6.55,7,5.95,9.24-1.03,3.81-4.81-3.75-6.35-4.39-6.35-2.65,0,.55-1.59,1-3.53,1-5.21,0-10.32,2.47-11.49,5.56-.56,1.46-2.39,4.58-4.07,6.92-2.47,3.44-3.83,7.62-7.02,21.64-2.18,9.56-4.22,18.73-4.53,20.38-.31,1.65-1.84,7.28-3.39,12.5-1.71,5.73-3.27,14.26-3.95,21.5-.62,6.6-1.79,16.46-2.61,21.9-.82,5.45-1.22,11.14-.89,12.66l.61,2.75-5.31-1.88c-2.92-1.03-9.25-3.04-14.06-4.47-4.81-1.43-8.75-3.01-8.75-3.53s.86-3.52,1.91-6.69ZM464.05,754.03c.43,0,1.3,1.36,1.93,3.03.89,2.36.85,3.59-.19,5.6-1.17,2.25-1.39,2.34-1.81.72-.8-3.12-.75-9.35.07-9.35ZM465.16,319.45c.49.3,1.1-.58,1.37-1.96.48-2.5-.39-3.99-1.61-2.77-.94.94-.78,4.1.25,4.73ZM468.02,426.14c1.99.29,5.85-.38,6.66-1.15,1.49-1.43-1.4-3.96-4.53-3.96-2.4,0-2.88.41-2.88,2.5,0,1.38.34,2.55.75,2.61ZM471.14,395.75c.35.53,1.84,1.26,3.31,1.62,1.7.42,2.8,1.44,3,2.8.18,1.18,1.38,2.53,2.68,3.01,1.9.7,2.25.57,1.78-.64-.32-.83-.14-1.51.39-1.51s.97.47.97,1.04c0,1.83,4.4,5.68,7.25,6.35,1.51.35,2.75,1.31,2.75,2.12s.34,1.48.75,1.48c.41,0,.78,2.25.82,5,.04,2.75-.3,5-.75,5s-.82-.36-.82-.81-.6-1.62-1.33-2.62c-1.27-1.74-1.51-1.73-6.13.31-5.7,2.52-6.55,2.6-6.55.62,0-.83.73-1.5,1.62-1.5,1.45,0,1.47-.23.14-2.23-.81-1.23-2.49-2.24-3.72-2.25-1.62-.02-2.9-1.26-4.62-4.46-2.9-5.42-2.22-6.61,1.48-2.56,3.54,3.88,8.61,7.5,10.5,7.5.82,0,1.76.45,2.1,1,.73,1.17,4.5,1.36,4.5.22,0-1.94-3.4-5.28-7.39-7.28-2.4-1.2-5.88-3.48-7.74-5.06-1.85-1.58-3.71-2.88-4.12-2.88-.41,0-.75-.63-.75-1.4s-.79-1.72-1.75-2.12c-1.33-.55-1.42-.85-.38-1.23.75-.28,1.65-.07,2,.46ZM470.27,681.03c1.28,1.98,1.28,5.29,0,4.5-.55-.34-.99-1.83-.98-3.31.01-2.1.23-2.36.98-1.19ZM471.89,753.03c.21,0,.38.9.38,2s-.41,2-.91,2-.67-.9-.38-2c.29-1.1.7-2,.91-2ZM475.45,435.43c3,3.64,3.22,3.74,3.96,1.74.9-2.43-2.73-7.14-5.51-7.14-2.35,0-2.05,1.04,1.55,5.4ZM475.86,694.53c1.49,0,1.96.78,2.09,3.5.1,1.92.45,5.3.8,7.5l.62,4-1.8-2.41c-1.83-2.45-4.28-9.79-3.86-11.59.13-.55,1.09-1,2.15-1ZM475.69,233.03c2.57,0,4.58,1.19,4.58,2.71,0,1.1.67,1.34,2.5.87,2.36-.59,2.5-.4,2.5,3.43,0,3.57-.21,3.94-1.78,3.1-1.08-.58-2.41-.59-3.4-.04-1.41.79-1.56.4-1.11-2.95.47-3.51.28-3.92-2.1-4.51-2.75-.69-3.63-2.62-1.2-2.62ZM477.02,165.34c1.51-.4,3.76-.68,5-.62,2.6.12,3.2-3.11.75-4.05-2.08-.8-1.87-4.86.48-9.38,1.09-2.09,2.44-6.19,2.99-9.11.55-2.92,1.91-6.46,3.02-7.86,2.12-2.7,2.77-7.71.92-7.09-1.89.63-7.07,14.03-6.42,16.62.43,1.71-.09,3.05-1.83,4.79-2.35,2.35-3.67,6.26-3.67,10.9,0,1.42-.74,2.45-2,2.78-1.1.29-2,1.25-2,2.14,0,1.27.59,1.46,2.75.88ZM480.27,712.53c.55.34,1,1.3,1,2.14s.56,1.34,1.25,1.11c1.32-.44,1.74-2.57.84-4.25-.85-1.57-.98-3.5-.25-3.5.99,0,3.3,7.96,2.62,9.06-.87,1.41-2.58,1.14-4.64-.71-1.9-1.72-2.59-4.93-.83-3.84ZM480.88,700.34c.84,1.54,1.32,3.35,1.07,4-.25.65-.92.07-1.5-1.31-1.61-3.84-1.29-5.86.43-2.69ZM481.72,223.03c3.27,0,6.26,8.83,3.56,10.5-.58.36-1-.65-1-2.41,0-2-.68-3.39-2-4.09-2.31-1.24-2.69-4-.56-4ZM483.17,685.03c.5,0,1.83,1.46,2.97,3.25,1.14,1.79,2.8,4.25,3.7,5.48.9,1.22,2.02,4.83,2.49,8,.47,3.18,1.15,7.24,1.51,9.02,1.83,9.13-5.17-2.04-8.94-14.25-2.63-8.54-3.08-11.5-1.74-11.5ZM484.27,717.03c.55,0,1-.48,1-1.06s-.45-.78-1-.44c-.55.34-1,.82-1,1.06s.45.44,1,.44ZM485.77,154.03c.92,0,1.51-.48,1.31-1.07s-.79-1.07-1.31-1.07-1.11.48-1.31,1.07.39,1.07,1.31,1.07ZM486.77,741.03c.83,0,1.5.89,1.5,2,0,2.21-1.55,2.71-2.34.75-.88-2.18-.7-2.75.84-2.75ZM485.96,485.21c.29-.72.25-1.58-.08-1.92s-.57.26-.52,1.31c.05,1.16.29,1.4.6.6ZM488.32,720.03c2.35,3.47,3.04,5.44,1.04,3-1.12-1.38-2.05-2.95-2.05-3.5,0-.55.45-.33,1.01.5ZM488.96,468.21c.29-.72.25-1.58-.08-1.92s-.57.26-.52,1.31c.05,1.16.29,1.4.6.6ZM491.21,681.03c1.02,0,1.56,1.55,2.54,7.35.79,4.66-.98,4.18-2.37-.65-1.24-4.29-1.3-6.7-.17-6.7ZM491.94,97.78c.85,2.12,2.34,1.38,2.34-1.16,0-1.32,1.37-5.46,3.04-9.19,3.66-8.16,3.73-13.53.08-6.4-1.88,3.67-6.35,15.05-6.05,15.41.04.05.31.66.58,1.34ZM492.94,463.78c1.07,2.66,3.34,1.27,3.26-2-.04-1.79-.31-2.67-.6-1.96-.4.99-.84,1.02-1.92.13-1.12-.93-1.39-.79-1.32.71.04,1.03.31,2.43.58,3.12ZM495.77,735.03c1.67,4.33,1.74,5,.57,5-.94,0-1.75-2.82-1.86-6.5-.04-1.17.5-.55,1.29,1.5ZM497.21,686.58c1.64,1.67,5.88,15.75,6.61,21.95.39,3.3,1.06,6.45,1.49,7,.84,1.07,3.13,21.67,2.49,22.32-1.17,1.17-2.36-1.47-2.95-6.55-.37-3.17-1.52-9.59-2.57-14.26-1.05-4.67-2.18-10.97-2.52-14s-1.22-6.85-1.97-8.5c-1.57-3.49-2-9.4-.58-7.95ZM498.52,349.85c1.24-.18,2.25-.77,2.25-1.32s-1.01-1.14-2.25-1.32c-1.55-.22-2.25.19-2.25,1.32s.7,1.54,2.25,1.32ZM499.41,747.57c1.9.6,2.06.39,1.48-1.93-.74-2.96.83-3.57,2.21-.86,1.34,2.63,2.2,8.03,1.54,9.74-.99,2.58-3.08,1.67-5.2-2.24-2.62-4.84-2.62-5.53-.03-4.71ZM503.71,226.29c2.44,2.33,6.57,6.04,9.18,8.24l4.74,4-3.23-4.75c-1.78-2.61-3.58-4.75-4.01-4.75s-3.11-2.34-5.95-5.2c-3.54-3.56-5.18-4.66-5.18-3.49,0,.94,2,3.62,4.44,5.95ZM500.99,412.03c.39,0,2.76,1.97,5.25,4.38,14.59,14.1,26.42,24.06,34.66,29.18,7.3,4.54,11.38,7.52,11.38,8.34,0,.48,5.55,3.61,12.34,6.95s12.92,6.76,13.62,7.61c.79.95,1.02,2.58.59,4.29-.38,1.52-.63,3.66-.57,4.76.66,11.45-.55,49.94-2.02,64-.52,4.95-.95,11.92-.97,15.5-.05,10.37-3.41,26.69-6.9,33.5-1.69,3.3-3.08,6.54-3.09,7.21,0,.66-1.09,2.24-2.41,3.5-1.47,1.4-2.83,4.38-3.52,7.67-.62,2.96-2.69,8.69-4.6,12.72-1.91,4.03-3.48,8.08-3.48,9,0,2.37-2.2,9.39-2.94,9.39-.34,0-.61-11.14-.59-24.75l.03-24.75-3.8-8.75c-2.09-4.81-4.48-12.01-5.31-16-.83-3.98-2.56-9.5-3.85-12.25-3.44-7.33-4.75-11.02-11.4-32-7.28-22.98-10.14-34.38-10.14-40.45,0-2.51-.46-6.14-1.03-8.06-1.03-3.48-1.58-6.92-6.44-39.99-1.77-12.06-3.03-17.81-4.05-18.49-1.54-1.04-1.99-2.51-.76-2.51ZM506.96,511.21c.29-.72.25-1.58-.08-1.92s-.57.26-.52,1.31c.05,1.16.29,1.4.6.6ZM508.3,525.03c1.16,6.84,4.22,28.58,5.85,41.5.55,4.4,2.81,15.65,5,25,2.2,9.35,4.3,19.16,4.67,21.79.52,3.67,1.58,5.72,4.48,8.75,3.34,3.48,5.96,4.99,5.96,3.45,0-.28-1.97-5.12-4.37-10.75-2.4-5.63-4.69-11.82-5.08-13.74s-2.07-8.45-3.73-14.5c-1.66-6.05-3.61-15.5-4.34-21-1.74-13.25-8.33-51.68-8.98-52.33-.71-.71-.39,6.42.52,11.83ZM510.88,705.3c.33.33.37,1.2.08,1.92-.32.8-.56.56-.6-.6-.04-1.05.19-1.64.52-1.31ZM525.26,250.13c1.64,2.42,2.99,4.75,3,5.17.01.43,1.81,3.61,4.01,7.09,2.19,3.47,4.62,8.1,5.39,10.28,1.73,4.91,8.33,15.36,9.7,15.36,1.49,0-12.25-25.96-18.73-35.36-6.56-9.53-6.34-9.26-6.34-7.95,0,.56,1.34,3,2.98,5.42ZM539.77,675.39c.82-.32,1.24-.98.93-1.48-.65-1.05-2.42-.21-2.42,1.15,0,.5.67.65,1.49.34ZM545.13,423.26c3.18,3.7,7.33,7.83,9.22,9.18,8.33,5.94,27.83,15.67,31.15,15.55.7-.03-1.31-1.31-4.47-2.85-3.16-1.54-8.44-4.92-11.73-7.51-3.29-2.59-6.95-4.89-8.13-5.11-2.96-.57-5.25-2.3-13.82-10.43-4.09-3.88-7.57-7.05-7.75-7.05-1.11,0,.45,2.31,5.54,8.23ZM545.88,708.3c.33.33.37,1.2.08,1.92-.32.8-.56.56-.6-.6-.04-1.05.19-1.64.52-1.31ZM548.28,738.53c1.1,1,1.74,2.08,1.42,2.4-.32.32-1.23-.28-2.01-1.35-2-2.74-1.76-3.18.59-1.05ZM551.11,420.06c2.75,2.73,5.59,4.95,6.33,4.92.73-.02-.74-1.94-3.28-4.25-2.53-2.31-5.06-5.05-5.61-6.08-.69-1.29-1.23-1.51-1.72-.72-.42.68,1.33,3.19,4.28,6.13ZM550.8,743.88c1.57,0,2.97,6.06,1.7,7.33-.79.79-1.36.16-2.06-2.29-1.11-3.87-1.02-5.04.37-5.04ZM553.92,644.53c.83-4.95,2.36-11.47,3.41-14.5,3.82-11.03,7.09-19.52,7.81-20.24.4-.41.58,4.99.4,12-.3,11.73-1.82,25.22-4.24,37.74-.53,2.75-1.67,9.95-2.54,16s-2.17,14.57-2.91,18.93c-.73,4.36-1.11,9.65-.83,11.75.55,4.12-1.28,5.52-2.05,1.57-.24-1.24-.47-13.95-.5-28.25-.04-18.7.37-28.53,1.45-35ZM556.24,713.03c.53,0,.71.67.39,1.5-.32.83-.75,1.5-.97,1.5s-.39-.67-.39-1.5.44-1.5.97-1.5ZM559.41,315.53c2.2,5.5,5.57,13.33,7.49,17.4,1.92,4.07,3.91,9.66,4.43,12.42,1.34,7.04,2.33,7.33,1.49.43-.69-5.68-6.92-22.23-13.84-36.76-4.82-10.11-4.54-5.91.43,6.5ZM559,696.46c1.9,3.62,2.09,33.07.24,36.56-.73,1.38-1.47-10.17-1.52-23.8-.05-13.33.12-14.97,1.28-12.76ZM562.82,398.44c3,3.25,6.51,6.63,7.8,7.5,7.09,4.8,11.65,8.62,11.65,9.74,0,.7,1.8,1.75,4,2.35,2.39.64,4.84,2.21,6.09,3.91,1.23,1.66,3.82,3.34,6.25,4.06,2.29.68,4.61,1.6,5.17,2.05.55.45,3.82,1.14,7.25,1.53,5.41.61,6.24.49,6.24-.94,0-1.25-.59-1.5-2.48-1.02-3.24.81-16.88-3.98-21.52-7.56-1.92-1.48-4.97-3.42-6.76-4.29-3.79-1.85-10.3-7.23-21.36-17.65-9.06-8.54-10.34-8.35-2.33.34ZM559.96,687.26c.25.96.26,2.76.02,4-.24,1.24-.44.46-.46-1.74s.18-3.22.43-2.26ZM563.04,430.08c2.05,1.41,6.8,4.04,10.55,5.85,3.75,1.81,7.06,3.92,7.36,4.7.3.77,1.28,1.41,2.18,1.42.9,0,3.62,1.36,6.04,3,4.1,2.78,6.1,3.61,6.1,2.54,0-.51-9.3-6.49-18-11.58-1.92-1.12-5.52-3.36-8-4.97-8.09-5.27-10-6.18-9.98-4.78.01.7,1.7,2.43,3.75,3.83ZM561.27,404.53c.55.34,1,.14,1-.44s-.45-1.06-1-1.06-1,.2-1,.44.45.72,1,1.06ZM567.27,411.53c.55.34,1,.14,1-.44s-.45-1.06-1-1.06-1,.2-1,.44.45.72,1,1.06ZM569.91,739.03c.75,5.84,3.37,12.79,5.06,13.44.88.34,1.72.48,1.87.33s-.4-2.98-1.24-6.27c-4-15.73-3.95-30.47.24-66.99.82-7.15,1.93-17.28,2.46-22.5,1.34-13.08,5.02-37.18,5.95-39,.42-.83.44-2.4.03-3.5-.56-1.51-1.03-.52-1.93,4-.66,3.3-1.43,6.67-1.72,7.5-.66,1.86-1.77,9.17-4.36,28.5-1.1,8.25-2.72,19.95-3.59,26s-1.75,12.58-1.95,14.5c-.65,6.35-1.28,40.43-.82,44ZM581.83,693.53c.75,6.6,1.66,16.5,2.04,22s1.14,10.58,1.7,11.29c.7.89.66,1.65-.14,2.45-.64.64-1.16,3.17-1.16,5.63,0,2.61-.64,5.18-1.53,6.16-1.95,2.15-.39,6.97,2.25,6.97.98,0,3.08.69,4.67,1.52,1.59.83,3.11,1.3,3.38,1.03.26-.26-.04-4.66-.68-9.77-1.89-15.11-1.26-47.79.91-47.79.41,0,1.01,4.16,1.32,9.25.31,5.09.98,11.28,1.49,13.75.51,2.47,1.45,7.63,2.1,11.46.65,3.83,1.87,8.55,2.71,10.5.84,1.95,2.17,5.02,2.95,6.82.78,1.81,1.42,3.94,1.42,4.75s.48,1.47,1.06,1.47c.7,0,.99-4.16.85-12.33-.26-15.04-.93-23.67-1.83-23.67-1.5,0-2.73,6.93-2.48,13.96.3,8.21-1.05,7.95-2.11-.41-.35-2.78-1.26-8.65-2.03-13.05-.76-4.4-1.38-9.12-1.36-10.5.11-8.75-.53-18.14-1.25-18.59-.47-.29-.86.37-.86,1.47s-.45,2.28-1,2.62c-1.02.63-1.22-1.14-1.33-11.69-.03-3.13-.42-5.47-.87-5.19-.44.27-.82,2.61-.83,5.19-.01,2.58-.73,8.74-1.61,13.69s-1.56,10.91-1.53,13.25c.06,4.47-1.48,5.84-2.27,2-.25-1.24-.75-6.97-1.11-12.75-.35-5.78-.8-12.3-1-14.5-.72-8.16-1.25-16.12-1.36-20.42-.22-8.35-1.01-3.51-1.47,8.95-.26,7.2.12,17.54.9,24.47ZM583.18,479.03c1.11,0,6.09,5.79,6.09,7.08,0,1.7-1.33.95-4.14-2.33-2.92-3.41-3.47-4.75-1.95-4.75ZM586.22,610.03c1.68,0,2.09-1.77.55-2.36-.91-.35-1.49,0-1.49.9,0,.81.42,1.47.94,1.47ZM589.47,499.03c1.5,0,1.79.46,1.29,2.06-.92,2.88,3.35,9.04,6.02,8.7,1.64-.21,2.01.34,2.06,3.06.03,1.83.69,3.72,1.47,4.2,2.07,1.28.47,2.32-2.45,1.59-1.38-.35-3.05-1.64-3.69-2.87-.65-1.23-2.35-3.59-3.79-5.25-3.39-3.91-3.98-11.49-.9-11.49ZM590.17,653.46c.61.38,1.11.21,1.11-.37s.67-5,1.48-9.81c.82-4.81,1.92-12.58,2.46-17.25s1.24-10.75,1.58-13.5c1.01-8.27-1.17-2.98-2.47,6-.64,4.4-1.63,10.76-2.2,14.14-.57,3.38-1.16,7.42-1.31,9-.15,1.58-.61,4.72-1.02,6.99-.48,2.69-.35,4.36.37,4.81ZM592.77,490.03c.83.68,1.48,1.98,1.47,2.87-.03,1.12-.48.85-1.47-.87-1.83-3.21-1.83-3.52,0-2ZM601.3,502.03c1.12,0,2.17.56,2.35,1.25.43,1.7,2.21,6.86,3.1,9,1.47,3.52-1.99,1.65-4.71-2.54-3.3-5.1-3.55-7.71-.74-7.71ZM603.77,495.03c.83,0,1.5.45,1.5,1s-.67,1-1.5,1-1.5-.45-1.5-1,.67-1,1.5-1ZM604.21,461.99c1.91,1.02,8.86,1.5,7.9.54-.27-.27-2.6-1.13-5.17-1.9-4.68-1.41-6.36-.58-2.74,1.36ZM603.67,473.03c.22,0,.65.67.97,1.5.32.83.14,1.5-.39,1.5s-.97-.67-.97-1.5.18-1.5.39-1.5ZM646.24,737.5c1.57.97,2.03.36,2.49-3.31.22-1.71.67-3.55,1-4.1.34-.54,1-3.82,1.48-7.28.48-3.46,1.63-8.77,2.56-11.79.93-3.03,1.64-6.61,1.59-7.97-.05-1.36.55-4.51,1.34-7,.79-2.49,1.73-7.9,2.08-12.03.35-4.12,2.18-13.55,4.07-20.94s3.42-14.46,3.42-15.7.6-2.62,1.32-3.06c.8-.49,1.09-1.72.74-3.15-.78-3.15-2.82,3.24-14.64,45.85-1.55,5.58-2.81,13.14-3.07,18.3-.26,5.26-1.18,10.7-2.29,13.52-2.41,6.12-3.71,17.65-2.1,18.65ZM654.02,739.96c.69.04,1.25.97,1.25,2.07,0,1.33.67,2,1.98,2s2.74-1.5,4.42-4.81c1.34-2.65,3.15-5.4,4.02-6.12,1.1-.91,1.57-3.02,1.56-6.94,0-3.6-.33-5.13-.89-4.25-.48.76-1.38,1.06-2,.68-.62-.38-.84-1.17-.48-1.74.35-.57.81-4.26,1-8.18.2-3.92.78-9.16,1.31-11.64.52-2.47,1.23-7.42,1.57-11,.92-9.68,3.18-22.01,6.11-33.38,1.44-5.57,3.02-13.27,3.53-17.12,1.41-10.82,2.49-24.54,1.97-25.07-.26-.26-1.49,1.67-2.73,4.3-1.54,3.25-2.28,6.71-2.32,10.85-.03,3.35-.37,6.39-.74,6.77-1.8,1.8-3.29,8.87-3.3,15.69,0,4.15-.72,10.22-1.59,13.5-.86,3.28-1.98,9.56-2.49,13.96-1.09,9.44-2.44,18.7-3.96,27-.6,3.3-1.44,9.38-1.85,13.5-.41,4.12-1.29,8.48-1.94,9.68-.65,1.2-1.18,3.49-1.18,5.1,0,2.03-.68,3.24-2.25,4-1.24.6-1.69,1.11-1,1.15ZM667.84,718.03c.31,0,1.47-.48,2.57-1.07,1.54-.82,1.95-1.93,1.75-4.75-.39-5.72-1.03-5.84-3.03-.56-1.96,5.17-2.21,6.39-1.29,6.39ZM668.96,637.21c.29-.72.25-1.58-.08-1.92s-.57.26-.52,1.31c.05,1.16.28,1.4.6.6ZM671.02,593.21c2.7.31,2.77.49,3.75,9.74.64,6.03,1.46,9.58,2.28,9.84,1.01.33,1.14-1.36.61-7.92-.37-4.59-1.06-9.1-1.53-10.03-.47-.93-.86-2.81-.86-4.19,0-3.08-.74-3.59-4.26-2.92-2.05.39-2.74,1.11-2.74,2.84s.63,2.39,2.75,2.63ZM674.02,483.29c.97.87,2.97,1.89,4.46,2.26,1.49.37,3.23,1.31,3.87,2.08.64.77,1.75,1.4,2.47,1.4s2.7,1.18,4.42,2.62c1.72,1.44,3.31,2.43,3.55,2.19.83-.83-10.75-9.82-12.66-9.82-1.06,0-3.05-.74-4.42-1.64-2.99-1.96-4.17-1.34-1.69.9ZM674.52,548.44c.69.32,2.04.86,3,1.2,1.72.61,2.47,2.4,1,2.37-2.54-.05-5.25-1.43-5.25-2.69,0-.82.55-1.21,1.25-.88ZM676.43,688.81c.74-.25,1.5-1.25,1.69-2.23.22-1.14-.14-1.62-1-1.33-.74.25-1.5,1.25-1.69,2.23-.22,1.14.14,1.62,1,1.33ZM678.82,735.53c.15.55.57,2.3.92,3.9,1.43,6.44,2.82.25,3.62-16.08.45-9.25,1.79-23.57,2.98-31.82,2.7-18.76,3.35-26.5,2.25-26.5-.47,0-1.44,2.81-2.16,6.25-.71,3.44-1.74,8.28-2.28,10.75-.54,2.47-1.38,8.78-1.85,14-.48,5.22-1.32,13.55-1.88,18.5-1.36,12.12-1.95,19.79-1.6,21ZM681.28,584.91c1.1,4.65,6.8,10.25,9.68,9.49,2.57-.68,2.19-2.42-1.5-6.88-1.36-1.65-3.09-4.46-3.84-6.25-.89-2.12-2.05-3.25-3.35-3.25-2.15,0-2.32,1.22-.98,6.89ZM682.09,640.38c.78,1.85,6.57,4.92,7.51,3.98.27-.27-.22-1.92-1.09-3.67-.87-1.75-2.18-4.37-2.91-5.83-1.6-3.21-1.71-5.14-.25-4.65.59.2,1,.75.91,1.22-.19,1.04,2.02,2.55,3.76,2.57.69,0,1.23-1,1.21-2.23-.08-4.06-2.65-12.25-3.82-12.15-.63.06-1.76.17-2.53.25-.83.09-1.62,1.85-1.98,4.4-1.31,9.38-1.56,14.34-.82,16.11ZM686.67,603.03c1.43,0,2.61-2.07,2.61-4.58,0-2.29-2.71-1.62-3.37.83-.88,3.28-.78,3.75.76,3.75ZM687.11,569.63c1.36-.84,8.71,7.25,7.59,8.37-.63.63-2.29-.24-4.7-2.45-3.73-3.41-4.47-4.94-2.89-5.92ZM691.77,615.03c1.22,1.01,1.5.97,1.5-.26,0-.83.87-2.12,1.93-2.87,2.73-1.94,3.37-11.15.82-11.67-1.41-.28-1.75.35-1.75,3.22,0,2.24-.75,4.32-2,5.57-2.38,2.38-2.54,4.3-.5,6ZM693.65,555.54c2.86,1.87,3.98,4.4,3.04,6.85-1.01,2.62-2.14,1.91-2.83-1.76-.35-1.87-1.31-3.96-2.14-4.64-2.36-1.96-.9-2.3,1.92-.45ZM695.49,521.34c1.25.87,3.29,2.4,4.51,3.39l2.23,1.8-3.34.17c-2.84.14-3.57-.31-4.86-3-1.86-3.87-1.52-4.42,1.46-2.35ZM696.21,579.06c4.19-2.24,5.07-1.41,5.01,4.72-.05,4.86-.24,5.46-1.25,3.85-.66-1.05-2.2-2.82-3.44-3.93-2.75-2.48-2.81-3.3-.32-4.63ZM701.21,530.23c3.29-.25,8.97,2.24,13.07,5.73,5.98,5.09,16.84,15.08,23.18,21.32,3.77,3.71,8.65,7.93,10.82,9.37,4.53,3,4.4,4.59-.29,3.72-2.91-.54-3.07-.45-1.71,1,.83.88,4.2,2.69,7.5,4.03,5.96,2.41,6.01,2.47,8.99,9.81,1.65,4.06,3.72,8.49,4.6,9.85,6.39,9.85,5.88,10.35-2.06,2.03-4.42-4.64-8.04-8.97-8.04-9.63s-1.07-1.91-2.38-2.77c-3.02-1.98-17.1-15.01-20.93-19.37-3.62-4.12-2.24-4.31,2.14-.3,3.32,3.04,6.4,5.01,7.81,5.01,2.22,0-15.47-13.19-19.31-14.4-1.19-.37-2.89-1.79-3.77-3.14-.99-1.52-2.56-2.46-4.09-2.46-1.36,0-2.48-.57-2.48-1.27,0-1.47-6.63-8.65-12.67-13.72-2.29-1.92-4.01-3.73-3.82-4.03.18-.3,1.72-.65,3.42-.78ZM701.27,557.03c.73-1.13,1.01-.57,1.14,2.25.09,2.06.21,4.28.27,4.92.05.64-.46,1.35-1.15,1.58-1.52.51-1.72-6.47-.25-8.75ZM705.87,535.43c.93.36,1.91.42,2.19.15s-.26-.79-1.19-1.15c-.93-.36-1.91-.42-2.19-.15-.27.28.26.79,1.19,1.15ZM719.46,554.34c.8.32.56.56-.6.6-1.05.04-1.64-.19-1.31-.53.33-.33,1.2-.37,1.92-.08ZM757.09,562.76c3.98,3.2,7.29,8.46,8.56,13.6.38,1.56,2.62,4.93,4.97,7.5,3.73,4.08,12.65,17.92,12.65,19.63,0,.79,4.23,6.84,5.36,7.66.47.35.25.85-.5,1.12-1.14.41-1.13.88.07,2.87.79,1.31,2.04,3.57,2.77,5.03.74,1.46,2.91,3.85,4.83,5.31,1.92,1.46,4.18,4.32,5.03,6.35.85,2.03,2.81,5.04,4.37,6.69,1.55,1.65,3.07,3.67,3.37,4.5.36,1.01.57.78.62-.67.13-3.48,1.14-5.25,2.66-4.66.86.33,1.42-.09,1.42-1.06,0-2.37,1.58-1.96,3.93,1.03,1.14,1.45,2.07,2.16,2.07,1.58,0-1.99-3.5-7.22-5.21-7.77-2.32-.75-8.52-10.85-10.27-16.71-.78-2.62-2.85-6.76-4.6-9.19-1.75-2.43-4.81-7.7-6.8-11.7-4.04-8.12-6.43-10.16-5.13-4.39.44,1.95.63,3.55.41,3.55s-2.86-3.35-5.89-7.44c-3.03-4.09-6.29-8.03-7.26-8.75-.96-.72-2.98-3.11-4.47-5.31-1.49-2.2-4.9-6.15-7.57-8.78-4.04-3.98-5.23-4.64-7.09-3.96-2.16.8-2.1.93,1.69,3.98ZM775.33,582.07c2.18,2.45,4.6,5.58,5.36,6.96.77,1.38,2.45,3.46,3.74,4.63,1.29,1.17,3.89,4.7,5.78,7.85,1.89,3.14,4.48,6.11,5.75,6.59,2.26.86,3.29,3.93,1.31,3.93s-.97,1.91,1.61,3.2c1.6.8,4.12,4.13,6.5,8.59,4.42,8.27,5.39,13.43,2.64,14-1.19.25-1.75-.26-1.75-1.58,0-1.07-.93-3.12-2.07-4.57-1.14-1.45-1.8-2.64-1.48-2.64.83,0-2.28-4.62-5.53-8.22-5.01-5.54-5.74-6.6-7.77-11.19-1.11-2.51-3.62-6.99-5.58-9.94s-3.59-5.77-3.61-6.26c-.03-.49-2.23-4.05-4.89-7.9-2.66-3.85-4.64-7.21-4.4-7.46.24-.25,2.22,1.55,4.4,4ZM798.75,618.6c.8,1.06,1.47,1.48,1.47.93.02-1.49-1.76-4.03-2.39-3.4-.3.3.11,1.41.91,2.47ZM813.93,649.2c.91.18,2.51,1.97,3.55,3.98,1.48,2.86,1.7,4.39.99,7l-.91,3.34-1.15-4.13c-.63-2.27-1.83-4.69-2.65-5.37-2.07-1.72-1.96-5.23.16-4.82ZM816.02,677.05c.93.03,6.63,11.93,6.01,12.55-.46.46-6.68-10.46-6.73-11.82-.02-.41.31-.74.72-.73ZM820.28,697.8c1.1,1.8,2,4.14,2,5.19s.93,3.49,2.07,5.42c2.05,3.48,5.93,13.27,5.93,14.97,0,.49-.71.3-1.58-.42-1.29-1.07-1.72-1.07-2.38-.02-.82,1.33-3.61-7.99-3.27-10.92.1-.83-.9-4.65-2.22-8.5-2.98-8.7-3.1-9.9-.56-5.73ZM820.27,666.03c.55,0,1,.45,1,1s-.45,1-1,1-1-.45-1-1,.45-1,1-1ZM820.27,644.03c.53.83.97,1.05.97.5s-.44-1.67-.97-2.5c-.53-.83-.97-1.05-.97-.5s.44,1.67.97,2.5ZM824.27,651.53c.55.34,1,.17,1-.38s-.45-1.28-1-1.62-1-.17-1,.38.45,1.28,1,1.62ZM828.28,680.03c.56,0,2.39,3.04,4.08,6.75,1.69,3.71,3.71,8.06,4.49,9.65.78,1.6,1.43,3.4,1.45,4,.02.6,1.36,2.86,3,5.02,2.92,3.86,3.8,6.57,2.13,6.57-.7,0-7.69-13.58-14.4-28-2.01-4.32-1.95-4-.75-4ZM831.46,727.81c1.53,1.53.4,2.65-1.81,1.81-1.3-.5-1.43-.93-.54-1.82.89-.89,1.45-.89,2.35.02ZM839.77,763.03c1.89,0,1.9-1.09.03-3.56-1.41-1.86-1.47-1.82-1.5.81-.02,1.79.49,2.75,1.47,2.75ZM842.17,727.58c.49.52,1.16,2.53,1.49,4.45l.6,3.5-1.41-3.5c-1.69-4.18-1.93-5.79-.67-4.45ZM848.83,741.07c1.31,1.09,1.64.95,2.12-.88.82-3.15,1.87-2.7,5.29,2.27,3.08,4.48,3.87,7.94,2.06,9.06-1.27.78-11.01-8.29-11.01-10.25,0-1.23.27-1.26,1.55-.2ZM856.83,721.77c1.27-.28,5.26,7.18,5.36,10.01.12,3.4-2.85,2.82-3.56-.69-.32-1.62-1.23-3.18-2.01-3.48-1.56-.6-1.39-5.49.2-5.84ZM873.85,733.45c3.16,8.62,11.85,18.57,16.22,18.57,2.26,0,1.51-1.15-6.05-9.22-1.51-1.62-2.75-3.46-2.75-4.1s-1.63-3.53-3.62-6.42c-5.15-7.48-6.78-6.98-3.8,1.17Z"/>
  </g>
</svg>