<svg width="307" height="271" viewBox="0 0 307 271" fill="none" xmlns="http://www.w3.org/2000/svg">
<path fill-rule="evenodd" clip-rule="evenodd" d="M18.7237 1.22098C17.1157 2.40498 17.3957 3.38695 22.4817 14.4279C25.5027 20.9889 27.8046 26.528 27.5946 26.737C26.8836 27.448 19.9987 24.107 19.9987 23.051C19.9987 22.473 19.5057 22 18.9017 22C18.2987 22 15.7606 20.2 13.2616 18C10.7616 15.8 7.99271 13.994 7.10771 13.986C6.22271 13.979 4.4857 13.701 3.2487 13.37C-0.655302 12.324 0.571699 16.16 5.7487 21.19C8.3607 23.728 13.6487 27.707 17.4987 30.032C28.7707 36.839 28.5647 37.602 15.3807 37.877C5.76466 38.077 3.9987 38.391 3.9987 39.899C3.9987 40.762 8.04471 42.807 12.1597 44.023C15.0687 44.883 29.4927 42.958 34.7497 41.009C37.5777 39.961 38.4586 40.074 41.5166 41.878C43.4496 43.019 45.5867 44.43 46.2657 45.015C49.0977 47.457 64.8816 55.812 69.6306 57.384C75.0006 59.161 78.6406 62.152 77.5606 63.9C76.9676 64.859 78.1706 65.821 88.4986 72.648C90.6986 74.103 93.9226 76.529 95.6626 78.04C97.4036 79.552 100.517 81.346 102.582 82.027C104.647 82.709 107.948 84.219 109.918 85.383L113.499 87.5L106.738 87.796C100.973 88.048 99.0586 87.66 93.7376 85.156C84.8476 80.972 83.1067 80.556 82.3817 82.444C81.4917 84.764 83.5266 86.68 90.6466 90.224C94.1406 91.962 96.9986 93.646 96.9986 93.965C96.9986 95.078 86.2206 97.039 76.6456 97.668C68.7256 98.188 67.0016 98.588 67.0136 99.901C67.0416 102.79 68.5836 104.114 71.3376 103.615C76.0766 102.756 74.1566 104.534 68.2486 106.476C65.0866 107.515 62.0486 108.671 61.4986 109.045C59.8306 110.178 54.6377 111.322 52.2487 111.083C49.4247 110.799 49.2878 113.047 51.9808 115.483C53.9588 117.274 58.1816 117.247 65.5476 115.398C67.9326 114.8 68.0546 114.944 67.4306 117.629C67.0646 119.208 65.4557 122.175 63.8557 124.223L60.9476 127.946L64.7236 127.723C68.3116 127.511 68.4957 127.649 68.4447 130.5C68.4157 132.15 68.0416 134.962 67.6156 136.75C67.1886 138.538 67.2127 139.999 67.6697 139.998C70.4687 139.992 79.9986 120.367 79.9986 114.609C79.9986 111.135 82.9347 109.139 92.6577 106.002C106.033 101.687 109.266 100.381 115.123 96.922C123.241 92.129 124.314 92.364 136.037 101.5C149.164 111.73 164.299 125.209 167.14 129.198L169.349 132.3L166.924 131.744C165.59 131.438 161.799 130.031 158.499 128.618C155.199 127.204 151.191 126.037 149.593 126.024C147.995 126.011 145.295 124.942 143.593 123.648C138.693 119.924 134.894 118.322 129.249 117.602C124.25 116.963 124 117.04 124.013 119.216C124.045 124.555 125.046 125.702 132.083 128.463C136.494 130.194 138.999 131.738 138.999 132.726C138.999 134.057 137.805 134.178 130.499 133.585C122.299 132.92 121.999 132.97 121.999 135.007C121.999 136.168 121.637 136.894 121.195 136.621C120.753 136.348 118.391 136.593 115.945 137.166C113.5 137.739 110.262 138.192 108.749 138.171C105.846 138.132 105.429 139.268 106.66 143.867C107.285 146.204 107.41 146.226 116.286 145.531C121.233 145.145 128.561 143.968 132.571 142.918C137.35 141.666 143.937 140.929 151.681 140.778C165.771 140.504 171.756 142.352 179.079 149.237C183.199 153.11 187.469 156.479 198.236 164.35C200.291 165.852 202.451 167.976 203.037 169.07C203.971 170.816 203.64 171.252 200.326 172.637C197.174 173.954 193.661 174.118 179.025 173.633C169.386 173.314 160.149 172.929 158.499 172.776C155.784 172.526 155.499 172.779 155.499 175.438C155.499 178.164 155.894 178.475 160.999 179.758C164.024 180.518 166.91 181.542 167.412 182.033C168.643 183.237 163.805 185 159.27 185C153.876 185 147.999 187.904 147.999 190.57C147.999 196.208 154.8 195.794 168.968 189.293C175.219 186.424 183.54 184 187.135 184C188.984 184 187.81 185.946 183.34 190.291C178.82 194.685 178.72 194.911 179.962 197.91C181.976 202.772 184.75 201.885 189.999 194.701C195.069 187.761 199.333 185.369 201.456 188.273C203.306 190.802 203.999 190.401 203.999 186.804C203.999 183.719 208.358 176 210.1 176C210.556 176 211.35 176.788 211.865 177.75C212.381 178.712 221.201 187.825 231.467 198C249.017 215.395 257.999 226.047 257.999 229.464C257.999 231.119 257.097 231.024 243.49 227.944C239.085 226.946 231.733 224.526 227.151 222.565C222.57 220.604 217.983 219 216.957 219C215.932 219 213.96 218.484 212.575 217.853C210.39 216.857 209.812 217.009 208.192 219.01C206.928 220.572 205.329 221.285 203.228 221.226C199.593 221.122 197.715 222.968 198.172 226.195C198.448 228.139 199.281 228.605 203.499 229.173C226.126 232.221 258.602 239 263.069 241.609C264.925 242.693 268.413 246.037 270.82 249.04C276.673 256.343 290.308 271 291.248 271C292.736 271 291.953 265.23 289.745 259.92C287.338 254.131 280.676 242.24 275.906 235.221C272.72 230.531 271.983 223.354 274.284 219.428C276.163 216.223 287.566 206.786 295.065 202.231C300.951 198.655 302.513 196.423 301.179 193.496C300.526 192.063 299.202 191 298.07 191C296.986 191 295.649 190.212 295.1 189.25C294.184 187.645 293.869 187.627 291.3 189.033C289.76 189.877 288.362 191.509 288.196 192.66C288.029 193.812 285.218 197.622 281.95 201.127C275.439 208.11 275.05 207.871 276.944 198.055C277.892 193.141 280.993 189.935 289.249 185.331C291.861 183.874 293.999 182.376 293.999 182.002C293.999 181.628 296.973 179.413 300.608 177.08C306.909 173.034 307.188 172.689 306.605 169.668C306.268 167.926 305.001 165.678 303.789 164.672C301.655 162.902 301.544 162.902 300.273 164.672C297.812 168.101 296.264 169.5 290.509 173.5C287.343 175.7 284.137 178.091 283.384 178.814C279.837 182.216 279.939 174.998 283.536 168.081L285.314 164.663L282.636 162.527C280.584 160.891 279.735 159.019 279.002 154.52C278.477 151.29 277.586 148.187 277.023 147.624C276.46 147.061 275.977 146.802 275.949 147.05C275.922 147.297 275.724 152.45 275.51 158.5C275.274 165.168 274.309 172.615 273.06 177.41C271.926 181.76 270.999 186.093 270.999 187.037C270.999 187.981 269.707 192.972 268.129 198.127C266.55 203.282 264.939 210.538 264.549 214.25C264.093 218.586 263.395 221 262.596 221C261.912 221 259.259 217.962 256.7 214.25C252.363 207.956 246.2 201.085 230.412 184.943C226.885 181.337 223.999 177.946 223.999 177.407C223.999 176.869 228.611 175.165 234.249 173.622C245.815 170.457 251.657 167.211 252.607 163.425C254.102 157.47 246.778 156.892 239.566 162.397C235.456 165.534 231.999 166.974 231.999 165.549C231.999 161.926 235.324 152.346 239.514 143.899C242.407 138.069 245.104 131.319 245.508 128.899C245.912 126.48 247.111 122.288 248.172 119.584C249.233 116.88 249.965 113.28 249.8 111.584C249.541 108.929 249.151 108.548 246.999 108.848C243.224 109.372 242.06 110.751 237.859 119.678C234.766 126.249 233.998 129.032 233.995 133.689C233.993 137.695 233.383 140.498 232.032 142.714C230.954 144.481 229.353 148.704 228.474 152.097C226.176 160.965 217.866 170.361 214.985 167.349C214.538 166.882 214.607 160.875 215.137 154C216.493 136.424 216.829 123 215.914 123C215.485 123 214.158 124.372 212.964 126.049C210.456 129.571 208.621 140.459 208.547 152.25C208.521 156.513 208.296 160 208.048 160C206.768 160 181.999 133.347 181.999 131.969C181.999 131.08 183.53 126.785 185.401 122.426C187.272 118.067 189.547 111.125 190.456 107C192.526 97.606 193.202 95.269 196.49 86.145C198.868 79.548 200.112 77.813 208.57 69.3C213.941 63.893 217.999 58.979 217.999 57.879C217.999 56.065 217.821 56.04 215.062 57.467C213.447 58.302 211.846 59.439 211.503 59.993C211.161 60.547 209.837 61 208.562 61C207.286 61 205.535 62.013 204.67 63.25C203.186 65.372 203.105 65.043 203.245 57.5C203.462 45.855 201.693 42.449 197.57 46.571C196.38 47.762 195.999 50.278 195.999 56.96C195.999 65.583 193.437 77.475 189.528 87C188.738 88.925 187.431 93.2 186.623 96.5C184.314 105.935 183.067 108.711 181.923 106.966C180.724 105.138 181.767 96.411 183.616 92.8C185.398 89.32 185.334 81.21 183.499 78C182.713 76.625 182.054 74.455 182.034 73.177C182.009 71.494 181.517 70.959 180.249 71.236C179.286 71.447 178.606 72.139 178.737 72.775C178.869 73.41 178.472 75.184 177.857 76.715C177.241 78.247 176.592 84.675 176.414 91C176.236 97.325 175.48 104.975 174.734 108L173.377 113.5L169.647 102C166.542 92.427 165.314 89.959 162.318 87.273C159.913 85.116 157.475 81.147 154.973 75.311C149.127 61.678 146.601 63.742 151.492 78.154C152.863 82.194 153.988 86.066 153.992 86.757C153.996 87.448 155.543 91.948 157.43 96.757C159.317 101.566 161.173 107.3 161.553 109.5L162.245 113.5L154.676 106.042C150.513 101.94 145.17 97.497 142.803 96.167C140.436 94.838 135.917 91.36 132.76 88.438C129.604 85.517 125.681 82.334 124.042 81.366C120.087 79.03 119.533 77.189 122.012 74.622C129.172 67.208 134.969 56.177 139.946 40.5C141.168 36.65 143.049 30.713 144.125 27.307C146.538 19.669 146.488 4.49997 144.049 4.49997C142.994 4.49997 142.276 6.76195 141.413 12.8029C140.76 17.3689 139.954 21.378 139.622 21.711C139.289 22.043 137.706 19.432 136.103 15.908C132.697 8.41602 128.614 3.98499 126.795 5.80399C125.891 6.70799 126.383 9.60203 128.911 18.241C133.157 32.75 133.696 38.641 131.44 45.869C128.822 54.251 118.119 71 115.38 71C113.874 71 113.779 69.553 113.6 44C113.545 36.025 113.135 28.938 112.69 28.25C111.594 26.556 108.517 26.671 107.031 28.461C106.081 29.607 106.082 30.72 107.036 33.611C107.886 36.187 108.054 40.948 107.593 49.4C107.193 56.732 107.333 62.853 107.949 64.934C108.507 66.822 108.766 68.566 108.524 68.809C108.281 69.051 105.701 67.672 102.791 65.743C99.8796 63.815 94.5736 60.728 90.9986 58.884C87.4236 57.039 84.2736 55.272 83.9986 54.956C83.7236 54.64 80.1236 52.684 75.9986 50.61C71.8736 48.536 67.7206 46.139 66.7696 45.284C63.8436 42.651 57.0697 19.129 57.0227 11.441C56.9907 6.07795 55.2847 3.87896 52.1127 5.10996C49.8457 5.98996 49.7587 6.34996 50.3667 12.287C50.7187 15.724 52.3047 23.704 53.8897 30.018C55.4757 36.333 56.6267 41.66 56.4477 41.855C55.8817 42.473 42.4546 33.085 39.5116 30.014C37.9606 28.395 33.7168 21.097 30.0798 13.796C26.4428 6.49499 22.7907 0.390966 21.9637 0.231966C21.1367 0.0729661 19.6787 0.51798 18.7237 1.22098Z" fill="black"/>
</svg>
