<svg width="518" height="1476" viewBox="0 0 518 1476" fill="none" xmlns="http://www.w3.org/2000/svg">
<path d="M242.046 17.6054C243.056 17.6054 244.16 18.0554 244.5 18.6054C244.84 19.1554 245.991 19.6053 247.059 19.6054C248.127 19.6054 249 20.0554 249 20.6054C249 21.1554 248.551 21.6054 248.003 21.6054C246.974 21.6078 247.492 51.4285 248.579 54.8554C249.509 57.7844 251.3 56.8884 250.578 53.8554C250.218 52.3424 249.684 45.1756 249.392 37.9287C248.895 25.6182 248.988 24.6828 250.799 23.7138C253.598 22.2148 254.014 23.1827 253.339 29.6357C252.679 35.9516 253.658 43.3781 254.967 41.9853C255.759 41.1433 256.737 35.8451 257.395 28.8281C258.018 22.1893 266.031 17.6105 267.411 23.1054C267.756 24.4804 268.488 25.6054 269.038 25.6054C269.621 25.6053 269.76 24.4971 269.372 22.9492C268.897 21.0583 269.183 19.944 270.368 19.0781C272.875 17.2445 279 20.2341 279 23.291C279 24.5859 280.036 26.2387 281.413 27.1406C283.461 28.4825 283.7 29.1638 282.992 31.6337C282.533 33.2357 282.491 35.7924 282.898 37.3173C283.587 39.8923 283.68 39.9365 284.204 37.9335C284.514 36.7476 286.283 34.9998 288.134 34.0507C289.985 33.1007 292.85 31.1953 294.5 29.8173C297.031 27.7024 297.55 27.5654 297.821 28.9443C297.997 29.8432 296.887 31.6585 295.354 32.9785C292.952 35.0444 292.751 35.6002 293.905 36.9902C296.091 39.6251 298.51 38.9034 299.97 35.1816C300.709 33.2976 302.143 31.5394 303.157 31.2744C305.056 30.7782 305.785 27.6054 304 27.6054C302.377 27.6054 302.858 20.9681 304.584 19.5351C306.777 17.7154 309.58 19.6454 309.247 22.746C309.108 24.044 309.333 24.6126 309.747 24.0097C310.161 23.4067 311.751 22.6074 313.281 22.2324C315.671 21.6474 316.304 21.9814 317.781 24.6083C319.349 27.3953 319.896 27.6397 324 27.3847C327.803 27.1487 328.549 26.7574 328.82 24.8554C329.138 22.6115 331.376 21.7865 332.446 23.5185C332.758 24.0205 334.808 24.7354 337.005 25.1064C340.148 25.6374 341 26.2199 341 27.8339C341 28.9619 341.748 30.4326 342.662 31.1005C345.145 32.9155 343.63 35.6054 340.125 35.6054C337.603 35.6054 337.268 35.9124 337.754 37.7744C338.201 39.4802 337.974 39.8092 336.693 39.3173C335.797 38.9744 334.818 39.0902 334.518 39.5771C334.217 40.0631 334.819 40.7305 335.854 41.0585C337.116 41.4592 338.78 40.6793 340.918 38.6816C342.669 37.0466 344.934 35.4431 345.952 35.1201C346.969 34.7979 348.079 33.4242 348.42 32.0693C348.802 30.5473 349.754 29.6054 350.912 29.6054C353.428 29.6055 354.548 32.7314 352.554 34.1894C350.131 35.9613 350.688 36.3405 354.75 35.6865C358.316 35.1115 358.515 34.8783 358.803 30.9443C359.09 27.0094 359.234 26.8417 361.737 27.5107C364.348 28.2088 366.164 30.6054 364.083 30.6054C362.294 30.6054 362.85 32.6382 365.5 35.7871C366.875 37.4211 368 39.5638 368 40.5458C368 41.9565 368.823 42.333 371.904 42.333C374.326 42.333 376.984 43.1691 378.904 44.5371C382.235 46.909 382.727 48.4843 380.75 50.4453C380.063 51.1263 379.028 53.5795 378.452 55.8955C377.822 58.4283 376.826 60.1053 375.952 60.1054C375.124 60.1054 374.626 59.3534 374.794 58.3554C375.044 56.8634 374.269 56.6054 369.544 56.6054C366.495 56.6054 364 56.7934 364 57.0234C364 57.2534 363.728 58.1515 363.396 59.0185C362.88 60.3625 363.456 60.5045 367.294 59.9785C371.217 59.4405 371.947 59.6371 372.943 61.498C373.893 63.274 373.784 63.7547 372.293 64.3427C370.85 64.9127 371.084 65.1559 373.488 65.5859C375.859 66.0109 376.479 66.6365 376.488 68.6132C376.499 70.8132 375.974 71.175 372 71.705C369.525 72.035 368.261 72.372 369.191 72.455C371.656 72.6741 372.24 74.2232 370.509 75.9531C369.679 76.7831 369 78.2698 369 79.2568C369 80.8214 369.193 80.7752 370.511 78.8935C371.342 77.7066 373.254 76.595 374.761 76.4208C377.04 76.1588 377.553 75.5604 377.813 72.8554C378.192 68.9335 379.279 68.6789 380.557 72.2128L381.5 74.8193L383.824 71.6533C385.659 69.1524 385.899 68.1893 384.968 67.0673C384.035 65.9424 384.384 64.7075 386.646 61.1289C389.717 56.2679 390.972 55.7207 393.429 58.1767C395.515 60.2626 395.41 61.3153 392.988 62.6113C391.517 63.3993 391.104 64.3954 391.452 66.3164C392.195 70.4113 393.958 71.068 399.976 69.4921C400.895 69.2511 401.582 69.9544 401.796 71.3554C402.072 73.1664 401.664 73.6054 399.704 73.6054C398.365 73.6054 396.127 74.5055 394.728 75.6054C393.33 76.7054 391.49 77.6054 390.642 77.6054C389.794 77.6056 388.661 78.3897 388.124 79.3476C387.588 80.3064 386.328 81.0935 385.325 81.0976C384.14 81.1026 383.379 81.9824 383.154 83.6054C382.963 84.9802 382.176 86.465 381.404 86.9052C379.337 88.0822 379.633 91.6053 381.799 91.6054C382.941 91.6054 384.052 90.3506 384.841 88.1689C385.974 85.0349 386.428 84.7361 389.996 84.7861C392.328 84.8181 394.561 84.1866 395.526 83.2226C397.529 81.2198 399.057 81.1815 401.559 83.0732C402.626 83.8812 404.287 84.5562 405.25 84.5732C407.343 84.6112 407.554 86.9016 405.612 88.5126C404.563 89.3826 403.592 89.3762 401.642 88.4882C398.067 86.8596 395.871 88.7116 396.666 92.6865C396.986 94.2855 396.681 96.9608 395.989 98.6318C394.341 102.611 395.364 103.452 398.779 100.927C403.272 97.6058 419.407 95.9778 432.222 97.5527C452.643 100.064 465.108 98.5021 472.608 92.4951C474.75 90.7811 478.876 88.2452 481.781 86.8603C484.686 85.4752 488.799 82.368 490.923 79.955C493.046 77.5431 496.97 73.8243 499.642 71.6914C502.314 69.5574 506.047 65.7409 507.937 63.2089C510.569 59.6829 512.017 58.6054 514.127 58.6054C517.537 58.6054 518.162 59.5463 517.372 63.4931C516.945 65.6301 513.743 69.6067 507.021 76.3466C501.668 81.7136 496.304 88.0383 495.101 90.4003C493.898 92.7623 488.969 98.8374 484.147 103.9C476.645 111.776 470.839 118.876 461.581 131.49C460.526 132.928 458.437 135.455 456.938 137.105C455.44 138.755 451.191 144.605 447.497 150.105C443.802 155.605 438.441 163.03 435.582 166.605C432.724 170.18 428.161 176.867 425.443 181.463C416.862 195.971 408.721 203.256 391 212.287C386.72 214.467 385.269 215.6 386.75 215.602C390.267 215.607 389.451 216.963 383.437 221.105C380.036 223.447 377.094 226.46 375.873 228.853C374.774 231.007 372.499 233.52 370.816 234.437C369.134 235.355 365.223 237.905 362.126 240.105C359.029 242.305 354.471 245.196 351.998 246.53C349.524 247.864 346.077 250.026 344.337 251.334C342.597 252.641 338.097 254.556 334.337 255.589C327.732 257.403 308.631 259.673 296.713 260.061C288.06 260.343 287.822 260.822 289.522 274.506C290.301 280.776 291.639 288.014 292.495 290.591C294.651 297.08 294.957 298.739 296.078 310.003C296.62 315.445 297.274 320.24 297.531 320.656C297.788 321.072 298.729 326.969 299.621 333.76C300.812 342.824 301.075 349.755 300.609 359.833C299.578 382.111 302.253 413.965 306.887 434.609C307.443 437.087 308.385 446.537 308.98 455.609C309.575 464.682 310.569 476.605 311.19 482.105C311.811 487.605 312.275 495.48 312.221 499.605C311.416 561.067 311.384 589.946 312.111 598.605C313.207 611.665 314.809 624.702 316.043 630.605C316.892 634.666 318.494 647.602 322.545 683.105C323.298 689.705 324.388 698.48 324.967 702.605C327.966 723.988 329.241 747.768 329.438 786.105C329.666 830.347 330.042 837.907 333.646 870.605C337.021 901.224 337.683 906.283 338.488 907.586C338.869 908.203 340.047 914.197 341.104 920.906C342.161 927.616 343.662 936.48 344.441 940.605C345.22 944.73 346.152 952.605 346.512 958.105C346.872 963.605 347.855 973.055 348.697 979.105C349.539 985.155 350.563 997.305 350.972 1006.11C351.382 1014.91 351.992 1022.78 352.33 1023.61C352.667 1024.43 353.181 1032.98 353.472 1042.61C354.441 1074.7 355.907 1099.79 357.008 1103.13C357.607 1104.95 358.143 1109.73 358.199 1113.77C358.565 1140.02 360.138 1181.61 361.072 1189.72C362.306 1200.43 361.125 1213.99 356.514 1242.08C355.157 1250.35 353.553 1263.63 352.949 1271.61C352.345 1279.58 351.482 1290.83 351.032 1296.61C350.582 1302.38 349.523 1310.26 348.677 1314.11C347.832 1317.96 346.647 1328.08 346.043 1336.61C345.44 1345.13 344.195 1356.83 343.278 1362.61C341.976 1370.8 341.667 1378.61 341.872 1398.11C342.704 1477.26 342.704 1477.25 334.547 1475.21C329.97 1474.06 327.965 1462.16 331.261 1455.7C332.642 1453 332.998 1449.7 332.992 1439.7C332.988 1432.77 332.518 1424.23 331.948 1420.71C330.681 1412.91 332.305 1376.55 334.521 1363.11C335.337 1358.16 336.455 1346.91 337.007 1338.11C337.558 1329.31 338.911 1317.61 340.013 1312.11C341.115 1306.61 342.187 1300.08 342.395 1297.61C344.394 1273.81 345.281 1264.77 347.057 1250.11C348.19 1240.76 349.529 1229.28 350.032 1224.61C350.535 1219.93 351.471 1213.23 352.112 1209.72C353.263 1203.41 353.155 1199.78 351.05 1174.11C350.509 1167.51 349.821 1150.86 349.521 1137.11C349.221 1123.36 348.307 1103.56 347.49 1093.11C345.902 1072.78 343.139 1029.42 343.221 1026.11C343.357 1020.61 341.932 995.862 340.947 986.605C340.333 980.83 339.444 971.38 338.971 965.605C337.627 949.169 336.246 938.933 335.079 936.753C334.49 935.65 333.508 930.105 332.897 924.429C332.287 918.751 331.161 912.589 330.395 910.733C329.628 908.878 328.962 904.828 328.916 901.733C328.869 898.638 328.432 893.405 327.943 890.105C327.455 886.805 326.577 879.155 325.993 873.105C325.409 867.055 324.244 858.505 323.404 854.105C322.197 847.781 321.787 835.106 321.445 793.605C321.162 759.216 320.518 735.758 319.577 725.605C316.686 694.385 314.971 679.341 313.503 672.304C312.677 668.345 311.998 663.305 311.993 661.105C311.981 656.187 309.713 638.879 307.668 628.105C304.121 609.421 303.089 570.97 304.271 501.605C304.397 494.18 304.169 484.505 303.763 480.105C303.358 475.705 302.566 465.13 302.002 456.605C301.438 448.08 300.312 437.955 299.498 434.105C296.077 417.912 294.743 409.651 294.333 402.105C292.998 377.577 292.587 361.226 293.243 358.824C293.652 357.329 293.483 350.705 292.867 344.105C292.252 337.505 291.615 329.855 291.452 327.105C291.289 324.355 290.706 319.855 290.155 317.105C288.028 306.478 287 299.861 287 296.796C287 295.041 286.622 293.606 286.16 293.605C285.698 293.605 284.729 291.017 284.007 287.855C282.274 280.266 282.271 280.056 283.897 280.404C284.956 280.631 284.859 280.039 283.497 277.961C282.333 276.184 281.488 272.38 281.1 267.161L280.5 259.105L274 258.4C263.514 257.264 235.902 250.64 230.929 248.068C229.468 247.313 217.524 242.393 204.387 237.137C176.632 226.029 177.128 226.263 171.9 221.787C168.277 218.686 167.45 218.408 163.278 218.878C157.073 219.578 141.321 218.132 131.5 215.963C127.1 214.991 119.441 214.174 114.48 214.15C106.438 214.11 105.191 213.852 102.98 211.77C99.6455 208.63 97.012 207.369 87 204.117C82.325 202.598 76.925 200.55 75 199.565C73.075 198.58 68.8 196.736 65.5 195.464C57.3211 192.314 51.863 188.867 45.7021 182.962C42.8412 180.219 38.7001 176.657 36.5 175.046C31.035 171.044 30.815 170.539 33.584 168.36C34.9128 167.315 35.9997 165.411 36 164.127C36 160.422 39.5501 162.094 44.209 167.994C49.4449 174.627 53.1839 177.189 60.3047 179.026C65.5967 180.392 72.165 184.402 76 188.61C78.578 191.438 88.3521 197.324 91.6631 198.041C93.4032 198.418 97.7902 200.513 101.413 202.698C107.1 206.128 109.194 206.797 116.749 207.591C121.562 208.097 127.391 209.07 129.703 209.753C133.055 210.743 134.378 210.741 136.236 209.746C138.025 208.789 139.712 208.756 143.502 209.605C149.045 210.848 158.834 211.11 162.013 210.102C165.145 209.108 163.975 207.464 157.563 203.856C154.389 202.069 150.151 199.315 148.146 197.735C146.141 196.155 141.575 193.398 138 191.607C134.425 189.817 130.375 187.587 129 186.653C125.118 184.016 102.313 176.96 101.216 178.057C100.941 178.331 101.752 179.394 103.017 180.419C104.291 181.45 105.004 182.791 104.614 183.421C104.164 184.149 101.904 182.585 98.3447 179.083C95.2837 176.071 91.9286 173.605 90.8896 173.605C88.533 173.606 88.4881 174.468 90.75 176.313C92.332 177.604 92.212 177.68 89.5 177.102C85.583 176.268 84.2588 174.946 85.7998 173.405C87.8248 171.38 87.1531 169.699 83.5811 167.863C81.701 166.896 76.864 164.228 72.8311 161.932C68.7991 159.636 64.15 157.488 62.5 157.16C59.7181 156.607 59.6641 156.649 61.75 157.737C62.987 158.383 64 159.293 64 159.759C63.9996 161.607 61.1099 160.394 55.1055 156.024C50.1265 152.401 48.9198 151.019 49.3398 149.414C49.6837 148.098 49.0686 146.632 47.5938 145.245C43.6817 141.568 35.1606 134.609 34.5645 134.605C32.9555 134.605 34.4479 137.993 38.0869 142.596C40.3339 145.44 41.9146 148.024 41.5996 148.34C40.5006 149.436 34.1625 141.617 33.5195 138.372C32.7955 134.713 31.8557 132.409 26.6729 121.567C24.6919 117.422 21.8968 110.897 20.4639 107.067C18.5469 101.946 16.6857 99.0236 13.4287 96.0146C9.19177 92.1016 7.85701 89.6054 10 89.6054C10.55 89.6054 11 89.1003 11 88.4833C11 87.6805 10.5941 87.698 9.57617 88.5429C8.45923 89.4698 7.27592 89.2763 4.07617 87.6445C1.83577 86.5013 0.00261046 85.3871 0 85.1669C0 83.2219 1.63742 81.6054 3.60742 81.6054C5.01896 81.6053 5.99964 81.0175 6 80.1708C6 78.0738 24.5305 78.8803 35.1855 81.4423C39.7585 82.5423 45.9751 83.7186 49 84.0566C54.021 84.6176 60.121 85.6329 95 91.7089C101.325 92.8119 109.619 94.4135 113.434 95.2695C117.343 96.1475 122.19 96.5778 124.546 96.2548C127.59 95.8378 129.764 96.2109 132.545 97.6289C134.645 98.6998 136.571 99.3682 136.823 99.1152C137.543 98.3946 132.851 94.654 129.146 92.9941C126.171 91.6609 125.905 91.4205 127.182 89.9609L127.732 89.3437C129.009 87.8862 128.772 87.6377 126.062 86.2851C123.463 84.9891 123 84.9736 123 86.1826C123 86.9645 122.325 87.6054 121.5 87.6054C119.112 87.6054 119.69 82.4145 122.502 78.6025C123.879 76.7365 124.626 74.8311 124.163 74.3681C123.7 73.9053 121.046 74.6694 118.265 76.0664C115.485 77.4623 112.689 78.6054 112.054 78.6054C111.418 78.605 110.219 76.9808 109.39 74.9951C108.125 71.9696 107.689 71.6237 106.691 72.8554C104.959 74.9934 102.299 75.6715 101.137 74.2705C99.613 72.4343 102.755 66.7057 105.688 65.9697C108.705 65.2121 112.617 68.5856 113.528 72.7314C114.265 76.0893 115.998 76.4397 117.777 73.5908C118.809 71.9388 118.759 71.0395 117.497 68.5996C115.639 65.0066 116.328 61.5856 119.511 58.5956C121.677 56.5596 124.741 56.5985 123.475 58.6455C123.169 59.1417 123.644 60.9511 124.531 62.6669C126.713 66.8855 125.797 68.9494 121.988 68.3906C118.236 67.8396 118.033 69.3559 121.75 70.1699C126.433 71.1969 127.147 71.5589 126.513 72.5849C125.728 73.8585 130.71 82.4064 133.109 83.9052C134.855 84.9961 134.841 85.1453 132.797 87.3212C131.621 88.5732 130.997 89.9366 131.411 90.3496C131.825 90.7633 132.689 90.4006 133.332 89.5419C133.974 88.6839 135.4 87.6415 136.5 87.2265C138.366 86.5215 138.382 86.4043 136.74 85.4833C135.773 84.9394 134.293 82.8497 133.452 80.8378C132.612 78.8248 131.153 76.3271 130.212 75.2871C128.908 73.8461 128.47 71.3922 128.374 65.0009C128.266 57.7475 128.477 56.6056 129.933 56.6054C130.86 56.6054 132.491 55.9445 133.559 55.1376C136.63 52.8146 137.808 53.3095 137.647 56.8554C137.518 59.7014 137.842 60.1448 140.25 60.4218C141.763 60.5958 143 61.1464 143 61.6464C143 62.1454 144.237 63.1973 145.75 63.9833C147.263 64.7693 149.625 67.2444 151 69.4833C152.459 71.8583 155.166 74.4009 157.5 75.5859C159.7 76.7029 162.266 78.1601 163.202 78.8251C166.749 81.3451 166.26 78.3584 162.572 74.9794C159.92 72.5504 158.487 71.8177 157.983 72.6337C157.457 73.4855 157.057 73.5074 156.566 72.7128C156.19 72.1039 156.447 71.6055 157.137 71.6054C157.828 71.6054 156.954 70.1215 155.196 68.3076C153.438 66.4946 152 64.5293 152 63.9423C152 63.3552 151.169 61.8021 150.152 60.4902C147.957 57.6562 146.538 52.6054 147.938 52.6054C148.758 52.6037 155.531 48.4079 156.863 47.0761C157.09 46.8479 156.089 46.2099 154.639 45.6581C151.515 44.4702 151.231 42.9841 153.962 42.1171C156.499 41.3121 159.237 42.8129 160.899 45.9179C162.123 48.2018 166.747 51.1911 167.655 50.2841C167.872 50.0643 167.748 47.3135 167.378 44.1689C166.801 39.2533 166.446 38.5178 164.854 38.9335C163.836 39.1995 162.775 39.0504 162.498 38.6015C161.591 37.1345 163.174 34.6054 165 34.6054C165.982 34.6054 167.039 33.9445 167.349 33.1376C167.992 31.4617 166.499 30.1786 164.991 31.1113C164.436 31.4532 163.062 31.4427 161.937 31.0859C159.955 30.4569 159.971 30.3614 162.496 28.0214C164.986 25.7135 165.237 25.6766 168.148 27.1816C170.855 28.5814 171.126 29.1206 170.582 32.0195C170.087 34.6563 170.473 35.8244 172.598 38.1162C174.928 40.6312 175.332 40.7622 176.163 39.2792C176.777 38.1813 178.381 37.6054 180.826 37.6054H184.553L184.155 41.8554L183.757 46.1054L185.879 44.2001C187.538 42.7102 188 41.1321 188 36.9501V31.6054H184.5C182.119 31.6054 181 31.144 181 30.164C181 27.2753 184.857 26.5467 189.5 28.5576C190.6 29.0346 192.287 29.6753 193.25 29.9833C194.213 30.2913 195 31.4562 195 32.5742C195 33.6912 195.413 34.6054 195.918 34.6054C196.423 34.6054 197.508 34.8637 198.328 35.1777C199.27 35.5395 200.063 34.9866 200.478 33.6767C201.345 30.9457 204.83 29.0353 206.287 30.4921C207.05 31.2551 206.976 32.2817 206.029 34.0517C204.945 36.0776 204.936 36.8239 205.982 38.0839C206.959 39.2615 207.591 39.359 208.633 38.4951C209.733 37.5821 210 37.8975 210 40.1054C210 42.3554 209.745 42.6396 208.589 41.6796C206.006 39.5356 206.13 42.0874 208.899 48.0624L211.637 53.9716L213.267 49.8955C214.539 46.7175 214.676 45.0167 213.891 42.1728C212.512 37.1808 213.132 31.5381 215.202 30.2421C217.616 28.7303 218.405 29.9986 218.147 34.9765C218.024 37.3595 218.576 41.289 219.374 43.708C220.172 46.127 221.387 50.6983 222.074 53.8671C222.761 57.0361 223.926 60.1281 224.662 60.7392C225.398 61.3502 226 61.4271 226 60.9111C226 58.9071 223.847 47.8611 222.529 43.1054C219.803 33.2624 218.5 28.0894 218.5 27.1054C218.5 26.5554 217.602 25.8605 216.505 25.5615C213.933 24.8604 213.407 22.0559 215.463 19.9999C216.941 18.522 217.267 18.6015 219.476 20.9853C221.462 23.1283 222.456 23.4701 225.19 22.9511C227.011 22.6061 229.063 21.8827 229.75 21.3427C230.693 20.6017 231 21.1285 231 23.4833C231 26.6993 230.349 27.0575 225.25 26.6445C222.686 26.4365 222.646 26.5437 223.98 30.0527C224.519 31.47 225.183 35.4365 225.457 38.8671C226.046 46.2571 229.079 56.7982 230.78 57.3652C232.301 57.8718 231.368 52.4003 229.201 48.1054C227.479 44.6925 225.781 30.5232 226.947 29.2978C227.83 28.3698 230.977 34.4838 231.045 37.2568C231.07 38.2739 231.692 40.4556 232.428 42.1054L233.765 45.1054L234.725 42.666C235.491 40.719 235.829 42.1257 236.396 49.6357C237.151 59.6504 237.531 60.9071 239.097 58.5761C240.352 56.7081 239.317 46.3003 237.427 41.7763C235.806 37.8964 235.566 34.6054 236.905 34.6054C237.403 34.6048 237.562 32.693 237.259 30.3554C236.709 26.1155 236.712 26.1093 238.785 27.9472C239.927 28.9611 240.825 30.5362 240.78 31.4472C240.657 33.9092 242.962 41.6054 243.821 41.6054C244.57 41.6025 244.25 28.2478 243.442 25.7861C243.196 25.0334 242.245 24.7105 241.229 25.0322C239.686 25.5222 239.499 25.0654 239.829 21.6015C240.122 18.5296 240.635 17.6055 242.046 17.6054ZM354.682 1374.26C355.647 1373.29 356.918 1375.65 356.3 1377.26C356.018 1378 355.384 1378.61 354.893 1378.61C353.848 1378.6 353.685 1375.25 354.682 1374.26ZM338.942 1017.61C340.966 1017.61 342.422 1022.23 340.729 1023.27C339.589 1023.98 335.902 1019.57 336.637 1018.38C336.902 1017.96 337.939 1017.61 338.942 1017.61ZM289 297.105C288.213 295.273 288.136 295.315 288.086 297.605C288.055 298.98 288.467 300.78 289 301.605C289.8 302.843 289.96 302.756 289.914 301.105C289.884 300.005 289.473 298.205 289 297.105ZM382.568 217.495C385.049 213.478 351.79 223.166 340.825 229.655C337.154 231.827 333.804 233.605 333.382 233.605C332.958 233.606 330.31 235.968 327.495 238.855C321.005 245.511 313.397 248.245 304.074 247.271C296.387 246.467 289.288 247.414 288.548 249.341C288.236 250.154 287.752 252.909 287.472 255.463C286.975 260.002 287.003 260.059 288.732 258.016C291.251 255.037 295.345 253.784 304.5 253.19C327.087 251.724 338.639 249.263 344.392 244.691C346.342 243.141 349.413 241.288 351.218 240.572C353.023 239.857 356.3 237.842 358.5 236.095C360.7 234.347 364.317 231.777 366.538 230.383C368.759 228.989 371.684 226.22 373.038 224.23C374.437 222.174 376.897 220.148 378.736 219.536C380.516 218.944 382.24 218.025 382.568 217.495ZM293.417 257.685C292.252 257.733 292.015 257.969 292.813 258.288C293.534 258.577 294.398 258.542 294.729 258.21C295.061 257.878 294.471 257.642 293.417 257.685ZM253.345 246.73L248.5 246.855L253 247.604C255.475 248.015 257.837 248.158 258.25 247.92C258.662 247.683 259 247.881 259 248.363C259 249.21 268.475 252.605 270.838 252.605C271.477 252.605 272 252.199 272 251.702C271.998 251.206 268.892 249.856 265.095 248.702C261.297 247.549 256.009 246.661 253.345 246.73ZM250 249.764C248.625 249.764 248.063 249.991 248.75 250.268C249.438 250.546 250.563 250.546 251.25 250.268C251.938 249.991 251.375 249.764 250 249.764ZM280.662 247.355C280.385 246.668 280.158 247.23 280.158 248.605C280.158 249.98 280.385 250.543 280.662 249.855C280.94 249.168 280.94 248.043 280.662 247.355ZM235 246.029C237.475 247.311 241.004 248.686 242.843 249.083C245.752 249.712 246.139 249.565 245.83 247.955C245.628 246.897 243.982 245.594 241.988 244.911C240.07 244.255 236.7 243.714 234.5 243.709L230.5 243.698L235 246.029ZM55.9004 94.0214C43.7984 91.7664 42.0394 92.5441 50.0234 96.6171C53.8155 98.5514 60.7513 106.336 70 119.033C81.305 134.555 99.928 155.171 106.5 159.44C112.138 163.101 121.221 167.596 123 167.605C123.825 167.609 125.925 168.483 127.668 169.545C129.41 170.607 132.785 172.056 135.168 172.764C143.516 175.245 147.736 177.957 151.254 183.105C153.134 185.855 156.545 189.373 158.836 190.922C161.534 192.747 163 194.486 163 195.864C163 198.659 171.476 206.796 180.914 213.058C189.447 218.72 218.576 233.605 221.123 233.605C222.064 233.605 224.934 234.505 227.5 235.605C230.066 236.705 233.591 237.611 235.333 237.618C237.075 237.625 241.353 238.525 244.839 239.618C251.844 241.814 254 242.065 254 240.685C254 239.759 243.092 230.634 218.188 210.727C207.059 201.831 167.802 161.51 165.738 156.855C165.067 155.342 163.502 152.581 162.259 150.716C159.109 145.99 159.507 144.434 162.863 148.355C164.394 150.142 165.991 151.605 166.413 151.605C166.835 151.606 170.627 154.682 174.84 158.441C179.053 162.201 185.313 166.96 188.75 169.015C192.187 171.069 194.999 173.197 195 173.743C195 174.945 204.871 184.72 215.053 193.6C219.149 197.172 230.15 207.76 239.5 217.13C252.495 230.152 257.796 234.778 262 236.771C265.025 238.205 268.51 240.554 269.743 241.991C272.614 245.336 276.258 245.386 278.405 242.109C281.024 238.113 279.465 235.179 268.932 224.266C263.539 218.678 256.552 210.505 253.405 206.105C236.016 181.793 210.725 153.992 193.028 139.735C187.819 135.539 180.394 129.27 176.528 125.804C172.663 122.339 168.15 118.779 166.5 117.893C161.26 115.082 141.745 107.606 139.58 107.581C138.436 107.568 134.8 106.413 131.5 105.014C126.266 102.794 123.776 102.427 112 102.137C103.933 101.938 94.476 101.006 88.5 99.8242C83 98.7362 75.125 97.3035 71 96.6415C66.8751 95.9796 60.0804 94.8004 55.9004 94.0214ZM322 236.484C322 235.455 320.476 235.492 317 236.605C315.625 237.045 311.688 237.451 308.25 237.506C303.626 237.58 302 237.967 302 238.997C302 239.762 303.121 240.67 304.491 241.014C308.31 241.972 322 238.43 322 236.484ZM289.378 234.605C287.686 234.606 283.604 238.54 284.433 239.372C284.763 239.702 285.566 239.439 286.217 238.788C286.868 238.138 288.715 237.605 290.322 237.605C292.807 237.605 293.058 237.38 292 236.105C291.315 235.28 290.135 234.605 289.378 234.605ZM455 121.747C455 119.987 453.507 120.389 451.405 122.711C450.357 123.869 444.424 127.247 438.223 130.217C430.054 134.129 426.698 136.27 426.046 137.984C425.535 139.329 423.977 140.645 422.44 141.031C418.313 142.066 399.09 152.588 395.393 155.834C393.593 157.413 388.383 160.312 383.812 162.277C379.241 164.242 373.326 167.395 370.67 169.284C368.013 171.172 363.063 174.101 359.67 175.791C353.106 179.06 344.746 185.074 336.388 192.539C333.576 195.05 329.558 198.23 327.459 199.605C325.36 200.98 322.261 203.659 320.572 205.557C318.882 207.456 313.112 213.555 307.75 219.114C299.416 227.751 298 229.7 298 232.529C298 235.624 298.178 235.799 300.75 235.212C302.263 234.867 306.425 234.146 310 233.61C322.848 231.687 323.155 231.571 328.384 226.662C331.198 224.021 336.317 220.405 339.76 218.627C343.203 216.848 346.353 214.816 346.76 214.112C347.993 211.978 356.692 209.605 363.285 209.604C369.459 209.602 382.299 207.63 389 205.654C393.205 204.414 413.918 189.148 414.612 186.777C414.882 185.857 415.817 183.755 416.689 182.105C417.562 180.455 419.359 177.053 420.683 174.543C422.007 172.034 424.623 168.209 426.498 166.043C428.372 163.878 430.939 160.384 432.203 158.28C433.466 156.176 436.348 152.125 438.604 149.277C440.86 146.429 443.738 142.076 444.999 139.602C446.259 137.129 449.026 132.356 451.146 128.997C453.265 125.638 455 122.375 455 121.747ZM268.411 229.462C267.062 227.279 270.153 228.908 271.626 231.156C272.852 233.028 273.001 234.004 272.187 234.819C271.371 235.635 270.79 235.184 270.007 233.125C269.42 231.581 268.702 229.933 268.411 229.462ZM455.488 107.559C450.893 105.746 419.964 105.432 411.694 107.115C400.463 109.4 391.49 114.13 382.813 122.336C378.586 126.335 374.664 129.605 374.098 129.605C372.257 129.606 366.279 135.519 365.002 138.601C364.286 140.329 363.011 141.605 361.999 141.605C361.032 141.605 358.522 143.743 356.421 146.355C351.859 152.027 343.551 160.293 323.496 179.105C298.358 202.688 289.329 212.216 286.543 218.105C283.916 223.658 283.581 225.35 284.59 227.978C285.427 230.16 290.932 226.255 298 218.465C309.269 206.046 318.258 197.617 324.896 193.243C328.654 190.767 333.928 186.13 336.615 182.939C343.239 175.073 344.109 174.41 355 168.94C363.765 164.539 369.324 160.653 380.895 150.835C388.095 144.724 392.007 142.656 395.172 143.289C397.523 143.76 398 143.517 398 141.852C398 138.895 397.523 139.158 419.498 130.055C424.447 128.005 429.397 125.768 430.498 125.086C431.599 124.403 433.754 123.552 435.287 123.196C436.82 122.84 440.195 121.042 442.787 119.2C445.379 117.359 448.85 115.137 450.5 114.261C452.15 113.386 454.62 111.784 455.988 110.703L458.478 108.737L455.488 107.559ZM256.986 202.309C252.429 199.117 252.776 200.598 257.934 206.355C260.767 209.517 266.031 215.592 269.632 219.855C273.233 224.118 276.814 227.605 277.59 227.605C279.488 227.605 279.379 225.917 277.41 224.815C276.536 224.326 275.842 223.636 275.867 223.283C276.048 220.767 272.38 215.239 269.197 213.229C267.117 211.916 264.066 209.306 262.416 207.427C260.767 205.549 258.323 203.245 256.986 202.309ZM269.902 199.605C269.326 199.605 269.788 200.791 270.927 202.24C272.285 203.965 273 206.339 273 209.117C273 211.669 273.598 213.856 274.5 214.605C275.325 215.29 276 216.545 276 217.394C276 218.243 276.25 218.688 276.556 218.383C277.285 217.654 274.247 205.982 272.395 202.399C271.6 200.863 270.478 199.606 269.902 199.605ZM361 217.585C361 216.486 358.826 215.908 356.5 216.388C352.766 217.158 353.048 218.14 357.032 218.245C359.214 218.302 360.999 218.005 361 217.585ZM284.551 207.264C283.582 206.892 283.286 207.187 283.658 208.156C284.265 209.738 286 210.15 286 208.713C286 208.222 285.348 207.57 284.551 207.264ZM295.758 197.03C295.451 196.725 294.047 197.72 292.636 199.241C289.312 202.827 289.959 203.474 293.545 200.15C295.068 198.74 296.063 197.335 295.758 197.03ZM149.841 191.492C147.072 189.52 146.869 189.492 147.786 191.204C149.03 193.529 155.978 199.959 156.589 199.351C156.83 199.109 156.102 197.734 154.971 196.296C153.839 194.858 151.531 192.695 149.841 191.492ZM297 185.071C297 183.745 295.032 184.907 293.615 187.07C291.892 189.7 291.472 192.605 292.815 192.605C293.525 192.603 297 186.346 297 185.071ZM59.918 184.575C53.6201 182.273 54 182.337 54 183.595C54.001 184.139 57.6006 186.394 62 188.605C66.3985 190.817 69.9975 192.25 70 191.791C70 189.994 65.052 186.451 59.918 184.575ZM330.809 166.081C329.961 165.239 320.048 173.462 312.241 181.481C307.862 185.979 304.694 189.916 305.202 190.23C306.313 190.917 307.373 190.004 320.777 176.808C326.53 171.143 331.044 166.316 330.809 166.081ZM129.226 177.026C122.977 174.263 117.56 173.65 120.036 175.987C120.841 176.747 124.844 178.549 128.932 179.991C133.018 181.433 137.518 183.397 138.932 184.355C142.113 186.514 146.998 188.697 147 187.962C147 185.733 142.314 181.498 138.8 180.552C136.545 179.945 132.237 178.358 129.226 177.026ZM257.507 168.208C255.194 164.261 251.975 160.588 253.132 163.217C256.179 170.139 264.237 185.69 264.596 185.343C265.599 184.34 263.605 176.211 261.95 174.556C260.989 173.595 258.99 170.739 257.507 168.208ZM340.75 136.61C339.136 136.616 332 143.156 332 144.628C331.998 145.249 328.495 149.433 324.214 153.929C319.931 158.426 314.361 164.805 311.836 168.105C309.31 171.405 306.289 174.963 305.122 176.011C303.132 177.798 302.223 180.605 303.635 180.605C303.985 180.605 305.402 179.368 306.784 177.855C308.167 176.342 315.34 168.707 322.726 160.887C333.497 149.481 336.027 146.266 335.51 144.637C335.01 143.061 335.31 142.605 336.851 142.605C340.354 142.605 342 141.452 342 138.998C342 137.682 341.438 136.607 340.75 136.61ZM191 173.605C188.909 173.605 190.17 176.12 193.5 178.589C195.444 180.03 195.451 180.013 193.75 178.01C192.787 176.876 192 175.42 192 174.776C192 174.132 191.55 173.605 191 173.605ZM97.5 171.67C96.008 171.685 96.388 172.175 99 173.605C103.548 176.095 105.183 176.095 102 173.605C100.625 172.529 98.6 171.659 97.5 171.67ZM26.6055 95.2802C26.9795 96.8342 28.3456 100.127 29.6426 102.598C30.9384 105.068 31.9997 107.891 32 108.872C32 111.475 38.4683 123.375 42.7793 128.704C47.2033 134.173 61.9411 147.739 68.5791 152.452C74.5001 156.656 112.436 172.502 113.657 171.281C113.941 170.994 110.6 168.698 106.231 166.178C93.1965 158.66 82.8213 148.681 73.4014 134.605C71.3774 131.58 68.365 127.08 66.708 124.605C60.5591 115.422 51.3084 107.303 44.1465 104.807C42.3616 104.184 39.6853 102.734 38.2002 101.585C36.7152 100.435 33.3449 97.9105 30.7119 95.9755L25.9238 92.456L26.6055 95.2802ZM27.667 160.272C28.798 159.14 31.6964 159.534 32.8994 160.983C33.7053 161.955 33.7461 163.144 33.0371 165.01C31.8402 168.156 29.1562 169.461 27.9141 167.502C26.8721 165.855 26.713 161.225 27.667 160.272ZM223.334 160.477C221.825 159.234 221.738 159.388 222.405 162.105C223.422 166.248 225 167.66 225 164.428C225 163.011 224.25 161.233 223.334 160.477ZM393.6 150.605C391.894 150.607 382.618 158.557 383.404 159.344C384.297 160.234 388 158.433 388 157.107C388 156.357 388.961 155.601 390.135 155.426C391.31 155.25 392.94 154.092 393.757 152.855C395.095 150.831 395.079 150.605 393.6 150.605ZM214.013 146.127C211.622 142.259 204 135.789 204 137.629C204.001 138.285 206.139 140.979 208.75 143.618C211.362 146.258 215.3 150.545 217.5 153.145C220.615 156.826 221.578 157.479 221.851 156.094C222.063 155.024 220.996 153.37 219.173 151.943C217.506 150.639 215.184 148.022 214.013 146.127ZM340.28 148.66C339.156 148.74 334.673 154.605 335.736 154.605C336.225 154.605 337.622 153.255 338.842 151.605C340.062 149.956 340.709 148.631 340.28 148.66ZM241.364 106.245C240.779 101.976 239 99.6217 239 103.115C239 103.945 238.116 105.382 237.036 106.307C235.874 107.302 235.413 108.42 235.906 109.047C236.364 109.63 237.301 111.906 237.988 114.105C238.674 116.305 239.948 119.65 240.819 121.538C241.994 124.087 242.092 125.074 241.201 125.371C239.484 125.944 239.715 128.288 241.901 132.47C244.236 136.939 247 143.196 247 144.016C247 144.35 248.35 146.487 250 148.765C251.65 151.042 253 152.397 253 151.775C253 149.935 249.722 142.161 248.639 141.435C247.479 140.656 247.215 139.407 246.354 130.605C246.004 127.03 244.882 122.436 243.859 120.395C242.837 118.354 242 115.38 242 113.784C242 112.189 241.714 108.796 241.364 106.245ZM263.116 106.822C262.007 106.443 261.841 107.419 262.282 111.727C262.585 114.685 263.148 118.118 263.533 119.355C263.952 120.701 263.813 121.605 263.187 121.605C262.611 121.605 261.995 120.628 261.82 119.434C261.644 118.24 260.869 117.055 260.098 116.8C259.024 116.446 258.882 116.896 259.489 118.722C259.925 120.033 260.214 123.018 260.132 125.353C260.049 127.69 260.886 132.175 261.991 135.319C263.096 138.463 264.016 142.626 264.035 144.57C264.055 146.514 264.706 149.23 265.482 150.605C266.74 152.833 266.845 151.744 266.45 140.605C266.205 133.73 265.684 125.18 265.292 121.605C264.9 118.03 264.561 113.348 264.539 111.2C264.515 108.798 263.967 107.114 263.116 106.822ZM258.282 144.627C257.722 138.499 254.223 126.399 253.939 129.605C253.58 133.661 254.323 139.365 255.503 141.605C256.228 142.98 257.283 145.68 257.848 147.605C258.707 150.533 258.778 150.047 258.282 144.627ZM343 145.605C342.45 145.605 342 146.307 342 147.164C342 148.021 342.45 148.445 343 148.105C343.55 147.765 344 147.065 344 146.547C344 146.029 343.55 145.605 343 145.605ZM271.771 108.855C270.741 100.118 269.671 97.6927 268.359 101.113C268.041 101.942 268.043 104.079 268.364 105.863C268.686 107.646 269.027 116.883 269.122 126.388C269.217 135.893 269.679 143.907 270.148 144.196C270.616 144.486 271.026 143.909 271.058 142.914C271.089 141.918 271.508 135.93 271.988 129.605C272.559 122.071 272.485 114.915 271.771 108.855ZM329.969 140.605C329.436 140.606 329 141.281 329 142.105C329 142.93 329.177 143.605 329.393 143.605C329.609 143.605 330.045 142.93 330.362 142.105C330.678 141.28 330.501 140.605 329.969 140.605ZM331.799 123.871C331.522 122.489 331.024 122.812 329.507 125.355C328.441 127.142 327.035 128.605 326.382 128.605C325 128.606 317.697 139.238 318.177 140.553C318.354 141.039 321.572 137.883 325.326 133.538C329.483 128.727 332.014 124.946 331.799 123.871ZM281.301 116.105C279.548 120.492 276.898 138.904 277.878 139.884C278.34 140.345 279.24 137.883 279.88 134.413C280.519 130.944 281.518 126.278 282.099 124.044C282.679 121.81 283.007 118.435 282.827 116.544L282.5 113.105L281.301 116.105ZM338.779 132.769C339.485 130.651 337.533 131.623 335.529 134.387L333.557 137.105L335.974 135.519C337.303 134.647 338.565 133.41 338.779 132.769ZM293.568 101.841C293.376 101.648 292.276 102.814 291.125 104.43C288.554 108.041 286.035 118.325 286.015 125.291C286.007 128.143 285.537 131.693 284.972 133.18C284.407 134.666 284.106 136.043 284.304 136.242C285.123 137.061 286.95 131.275 290.334 117.147C292.304 108.925 293.758 102.041 293.568 101.841ZM262.387 127.605C262.599 127.605 262.971 128.955 263.213 130.605C263.455 132.255 263.282 133.605 262.827 133.605C262.372 133.605 262 132.255 262 130.605C262 128.956 262.174 127.606 262.387 127.605ZM249 130.105C247.734 129.323 247.734 130.647 249 132.605C249.835 133.898 249.971 133.871 249.985 132.414C249.993 131.484 249.55 130.445 249 130.105ZM232.441 128.605C232.198 128.605 232 129.055 232 129.605C232 130.155 232.477 130.605 233.059 130.605C233.641 130.605 233.84 130.155 233.5 129.605C233.16 129.056 232.685 128.606 232.441 128.605ZM229.879 123.03C228.511 122.186 228.844 124.014 230.45 126.164C231.849 128.037 231.88 128.025 231.33 125.84C231.016 124.594 230.363 123.329 229.879 123.03ZM303.44 115.855C304.864 111.246 301.399 113.642 298.708 119.128C296.001 124.649 295.2 128.218 296.905 127.164C298.101 126.424 302.559 118.711 303.44 115.855ZM248.878 115.397C247.707 110.742 246 109.536 246 113.364C246 117.342 248.857 126.605 250.084 126.605C251.11 126.605 250.671 122.523 248.878 115.397ZM362.5 124.605C361.675 124.605 361 125.055 361 125.605C361 126.155 361.675 126.605 362.5 126.605C363.325 126.605 364 126.155 364 125.605C364 125.055 363.325 124.605 362.5 124.605ZM355.091 122.605C354.626 122.606 353.685 123.28 353 124.105C351.987 125.326 352.037 125.605 353.271 125.605C354.104 125.605 355.045 124.93 355.362 124.105C355.678 123.28 355.556 122.605 355.091 122.605ZM227.399 120.939C226.479 117.107 226 116.746 226 119.88C226 121.315 226.468 122.777 227.04 123.131C227.722 123.552 227.846 122.797 227.399 120.939ZM210.524 121.566C211.482 120.017 209.786 118.502 208.194 119.485C207.163 120.122 207.197 120.523 208.364 121.492C209.441 122.386 210.005 122.405 210.524 121.566ZM173.671 112.492C165.004 103.364 162 101.322 162 104.554C162 105.733 165.581 109.319 171.561 114.129C176.819 118.358 181.283 121.656 181.481 121.458C181.679 121.26 178.164 117.225 173.671 112.492ZM197.595 111.605C194.463 107.244 191 105.032 191 107.39C191.001 108.562 201.148 118.196 203.826 119.566C205.998 120.678 206.078 120.619 205.041 118.682C204.43 117.54 203.313 116.605 202.559 116.605C201.804 116.605 199.57 114.355 197.595 111.605ZM358 115.605C357.45 115.605 357 116.532 357 117.664C357 118.796 357.45 119.445 358 119.105C358.55 118.765 359 117.84 359 117.047C359 116.254 358.55 115.605 358 115.605ZM390 98.6054C389.45 98.6054 389 99.1192 389 99.747C389 100.374 385.98 103.977 382.288 107.75C375.234 114.962 373.436 117.375 374.401 118.34C374.724 118.66 377.577 116.452 380.743 113.434C383.909 110.414 387.513 107.4 388.75 106.738C390.419 105.846 391 104.64 391 102.07C391 100.164 390.55 98.6054 390 98.6054ZM367 116.605C366.45 116.605 366 117.082 366 117.664C366 118.246 366.45 118.445 367 118.105C367.55 117.766 368 117.29 368 117.047C368 116.804 367.55 116.605 367 116.605ZM227 107.605C227 104.893 225.326 104.253 224.681 106.718C224.38 107.867 223.685 108.529 223.136 108.189C221.22 107.006 220.98 109.495 222.669 113.036C223.605 114.999 224.711 116.605 225.126 116.605C226.609 116.605 227.075 114.614 226.044 112.686C225.347 111.385 225.332 110.518 225.997 110.107C226.549 109.766 227 108.64 227 107.605ZM364.787 113.468C364.449 112.452 364.213 112.452 363.583 113.472C362.749 114.821 363.589 116.352 364.604 115.335C364.936 115.003 365.019 114.163 364.787 113.468ZM259.914 105.605C259.304 104.533 259.052 105.01 259.03 107.273C259.014 109.016 258.727 111.153 258.393 112.023C258.059 112.893 258.233 113.605 258.78 113.605C259.326 113.605 259.998 112.142 260.271 110.355C260.544 108.568 260.383 106.43 259.914 105.605ZM245.941 96.6054C244.241 96.6054 244.958 101.334 247.023 103.744L249.045 106.105L248.391 102.105C248.032 99.9058 247.546 97.7679 247.311 97.3554C247.075 96.9435 246.459 96.6056 245.941 96.6054ZM281 98.0585C281 95.1217 279.472 94.8544 278.035 97.539C276.794 99.8579 276.655 105.605 277.839 105.605C279.046 105.605 281 100.939 281 98.0585ZM348.559 102.605C348.315 102.606 347.84 103.056 347.5 103.605C347.16 104.155 347.359 104.605 347.941 104.605C348.523 104.605 349 104.155 349 103.605C349 103.055 348.802 102.605 348.559 102.605ZM220.771 99.6054C219.008 99.6054 218.923 99.8245 220.095 101.355C220.831 102.318 221.531 103.263 221.651 103.455C222.284 104.48 223.827 102.317 223.349 101.073C223.039 100.266 221.879 99.6056 220.771 99.6054ZM260.604 100.877C260.272 100.545 260.036 101.134 260.079 102.188C260.127 103.353 260.364 103.59 260.683 102.794C260.971 102.072 260.936 101.209 260.604 100.877ZM376.137 93.6054C374.933 93.6063 369 100.089 369 101.403C369 103.35 371.811 102.777 372.472 100.694C372.805 99.6443 374.2 98.0493 375.571 97.1513C376.942 96.2523 377.798 95.0874 377.473 94.5615C377.148 94.0355 376.547 93.6054 376.137 93.6054ZM153.304 95.6054C152.296 95.6057 153.324 97.5483 155.25 99.2822C159.358 102.98 160.554 102.963 157.054 99.2558C155.158 97.2488 153.471 95.6054 153.304 95.6054ZM352.142 97.6054C351.114 97.6061 349.697 100.635 350.396 101.335C350.64 101.576 351.341 100.838 351.954 99.6914C352.568 98.5434 352.653 97.6054 352.142 97.6054ZM42.293 99.1699C40.868 98.6279 40.7534 98.7414 41.7334 99.7294C42.4124 100.413 43.2194 100.72 43.5264 100.412C43.8335 100.104 43.2785 99.5457 42.293 99.1699ZM145.411 93.6826C142.622 90.3676 140.863 89.8607 139.182 91.8867C138.371 92.8636 139.29 93.8245 143.061 95.9433C148.552 99.0311 149.304 98.3084 145.411 93.6826ZM391.902 90.6054C390.846 90.6054 389.525 95.4649 390.356 96.2949C391.499 97.4356 393.79 94.517 393.28 92.5683C392.998 91.4886 392.378 90.6059 391.902 90.6054ZM409.588 91.1152C411.617 89.5802 415.029 89.0974 414.958 90.3554C414.875 91.8124 407.681 95.7019 405.615 95.4052C404.463 95.2402 403.359 94.2585 403.161 93.2226C402.866 91.6736 403.235 91.4471 405.239 91.9501C406.695 92.3161 408.446 91.9791 409.588 91.1152ZM224.499 84.5429C225.084 88.9809 227.871 96.0683 228.704 95.2353C228.947 94.9908 228.69 93.2878 228.134 91.4492C227.577 89.6101 226.4 86.3053 225.518 84.1054L223.914 80.1054L224.499 84.5429ZM357.2 93.8056C358.711 92.2946 357.868 91.4514 356 92.6054C355.207 93.0954 354.89 93.8283 355.296 94.2343C355.701 94.6403 356.558 94.4476 357.2 93.8056ZM183.755 88.8554C182.653 87.4785 180.997 87.1775 181.005 88.3554C181.008 88.7674 182.155 90.4555 183.555 92.1054C186.021 95.0134 186.079 95.0284 185.427 92.6054C185.058 91.2304 184.305 89.5434 183.755 88.8554ZM175 88.4462C172.759 85.3523 172 84.8015 172 86.2685C172 87.3475 173.35 89.5245 175 91.1054C176.65 92.6864 178 93.6661 178 93.2831C177.999 92.9004 176.65 90.7237 175 88.4462ZM338 90.3056C338 87.2207 337.501 86.8585 336.574 89.2724C336.222 90.1894 336.399 91.4046 336.967 91.9726C337.678 92.6836 338 92.1624 338 90.3056ZM263.873 78.9765C262.587 69.6277 261.587 66.8015 261.179 71.3671C261.045 72.8731 260.838 74.7804 260.719 75.6054C260.471 77.3375 264.087 88.851 264.69 88.248C264.911 88.022 264.543 83.8513 263.873 78.9765ZM139 63.0224C139 61.4054 135.71 61.2483 132.098 62.6923L129.696 63.6533L132.022 66.1298C133.302 67.4916 134.773 68.6054 135.292 68.6054C136.257 68.6054 141.788 72.887 145.65 76.623C147.231 78.153 147.93 78.3592 148.291 77.4042C148.602 76.5805 150.638 78.0978 153.859 81.5546C156.651 84.5505 159.202 86.7361 159.528 86.4101C159.853 86.0841 158.588 84.3081 156.716 82.4628C154.844 80.616 152.905 78.3536 152.406 77.4345C151.908 76.5155 148.825 73.4244 145.555 70.5654C140.309 65.9777 139.528 65.5865 138.912 67.2353C138.238 69.0422 138.188 69.0406 137.427 67.166C136.928 65.936 137.072 65.082 137.82 64.833C138.469 64.6159 139 63.8013 139 63.0224ZM279.688 81.8437C279.438 80.8877 279.241 81.9054 279.252 84.1054C279.263 86.3053 279.468 87.0874 279.707 85.8437C279.946 84.5998 279.937 82.7998 279.688 81.8437ZM378.988 76.6054C377.874 76.6054 377.554 77.3184 376.518 82.1054C375.948 84.7374 376.046 84.9214 377.311 83.6054C378.103 82.7803 379.042 80.8683 379.396 79.3554C379.784 77.6927 379.623 76.6057 378.988 76.6054ZM406 73.333C406.825 73.02 408.099 72.9535 408.832 73.1845C409.564 73.4165 411.659 73.6054 413.488 73.6054C416.65 73.6054 416.756 73.7235 415.672 76.0205C415.046 77.3484 414.188 78.2219 413.766 77.9619C413.345 77.701 413 78.2213 413 79.1171C413 81.1891 410.616 83.6052 408.571 83.6054C406.701 83.6054 406.47 81.9654 408.25 81.3164C408.938 81.0654 407.812 80.8926 405.748 80.9316C400.402 81.0326 399.03 79.2931 402.082 76.2851C403.412 74.9732 405.175 73.646 406 73.333ZM419.607 76.1874C420.935 72.7296 427.074 74.9125 429.563 79.7285C431.486 83.4453 430.518 84.9383 428.182 81.8583C426.783 80.0146 425.868 79.7449 422.75 80.2548C418.846 80.8928 418.148 79.9894 419.607 76.1874ZM222.086 75.1054C222.055 76.2054 222.467 77.7804 223 78.6054C223.862 79.9384 223.963 79.9384 223.914 78.6054C223.884 77.7804 223.473 76.2054 223 75.1054L222.141 73.1054L222.086 75.1054ZM326.661 66.4287C328.381 64.5277 328.218 63.1883 326.415 64.4091C325.85 64.7921 323.725 67.3079 321.694 69.9999C318.064 74.8088 317.06 77.6053 318.964 77.6054C320.031 77.6054 325 70.6881 325 69.2021C325 68.6849 325.747 67.4374 326.661 66.4287ZM244 68.6054C243.45 68.6054 243 70.3788 243 72.5468C243 74.7147 243.45 76.7654 244 77.1054C244.611 77.4834 245 75.949 245 73.164C245 70.6572 244.55 68.6054 244 68.6054ZM352.75 71.7958C351.439 71.5438 351 72.1234 351 74.1054C351 76.0874 351.439 76.6679 352.75 76.416C353.713 76.23 354.5 75.1904 354.5 74.1054C354.5 73.0205 353.713 71.9819 352.75 71.7958ZM390.702 73.0292C389.216 71.6514 388 70.9556 388 71.4833C388 72.0103 387.748 73.0984 387.44 73.9003C387.064 74.8803 387.76 75.5792 389.558 76.0302C391.031 76.4002 392.499 76.4401 392.82 76.1181C393.14 75.7965 392.188 74.4068 390.702 73.0292ZM188.217 70.6035C186.732 65.9605 184.895 64.3496 183.556 66.5156C182.835 67.6817 183.818 70.3724 186.239 73.8671C189.059 77.9371 190.043 76.3145 188.217 70.6035ZM337.046 73.5195C338.321 71.1366 337.781 69.9163 336.298 71.831C334.37 74.321 333.896 75.6054 334.906 75.6054C335.469 75.6051 336.432 74.6663 337.046 73.5195ZM178.5 69.6054C177.675 69.6054 177 70.2254 177 70.9833C177 71.7403 177.675 72.9204 178.5 73.6054C179.768 74.6584 180 74.4454 180 72.2275C180 70.5635 179.452 69.6054 178.5 69.6054ZM349.595 68.6054C348.099 68.6058 346.73 72.3202 347.948 73.0732C348.366 73.3311 349.214 72.4311 349.832 71.0742C350.729 69.1073 350.68 68.6054 349.595 68.6054ZM362 71.664C362 70.3843 360.763 69.7813 359.25 70.3232C357.277 71.0312 357.794 72.6054 360 72.6054C361.1 72.6054 362 72.182 362 71.664ZM345 64.914C345 62.9995 344.435 63.2927 342.535 66.1923C341.603 67.6143 341.138 69.0764 341.502 69.4404C342.302 70.2404 345 66.75 345 64.914ZM163.586 66.5722C161.782 65.1894 161.742 65.2358 162.886 67.3837C163.554 68.6366 164.558 69.3781 165.117 69.0331C165.676 68.6874 165.991 68.3229 165.817 68.2226C165.642 68.1216 164.639 67.3792 163.586 66.5722ZM403 60.7568C406.025 60.8238 407.462 61.0763 406.193 61.3183C404.925 61.5613 403.39 62.8496 402.783 64.1826C401.32 67.3936 396.448 67.5924 395.46 64.4804C395.037 63.1475 395.292 62.0351 396.143 61.4951C396.889 61.0231 399.975 60.6908 403 60.7568ZM196.286 63.5898C195.723 61.4368 194 59.8348 194 61.4648C194 63.1706 195.184 65.6049 196.013 65.6054C196.453 65.6054 196.576 64.6986 196.286 63.5898ZM259.543 34.6054C257.785 34.6054 256.294 53.4129 257.445 61.0849C257.833 63.6726 258.337 65.601 258.566 65.373C258.794 65.1367 259.182 58.1237 259.427 49.7812C259.672 41.4343 259.724 34.6054 259.543 34.6054ZM312.169 31.6054C310.346 31.6054 307.178 40.1887 305.577 49.4677C304.738 54.3296 303.784 59.0044 303.458 59.8554C302.298 62.8774 304.789 62.5281 306.047 59.4921C306.75 57.7932 308.458 54.7618 309.841 52.7548C311.93 49.7228 312.431 47.6264 312.8 40.3554C313.097 34.5034 312.888 31.6054 312.169 31.6054ZM271.787 59.4677C271.449 58.4517 271.213 58.4516 270.583 59.4716C269.749 60.8206 270.589 62.3519 271.604 61.3349C271.936 61.0029 272.019 60.1627 271.787 59.4677ZM350.464 39.955C348.445 38.4782 346.087 38.1716 345.853 39.3554C345.265 42.3324 345.776 44.3448 347.5 45.8388C349.489 47.5607 349.487 47.5745 347.165 48.2265C345.172 48.7875 344.916 49.3418 345.416 52.0068C345.9 54.5915 345.613 55.3012 343.751 56.1181C342.513 56.6611 341.356 58.1184 341.18 59.3554C340.912 61.2474 341.325 61.6054 343.775 61.6054C346.824 61.6052 349.339 59.5044 350.374 56.0917C350.71 54.9847 352.183 53.3518 353.645 52.4648L356.304 50.8505L353.694 49.1406C351.518 47.7146 351.187 46.9221 351.697 44.3681C352.158 42.0633 351.853 40.971 350.464 39.955ZM162.487 55.9824C159.004 49.4275 158.954 49.3982 155.244 51.747C151.632 54.034 151.455 54.4924 153.25 56.8994C154.385 58.4224 163.944 61.9952 164.743 61.1962C164.928 61.0103 163.913 58.6647 162.487 55.9824ZM177.386 47.0068C175.651 43.3508 171.983 42.2214 172.022 45.3554C172.067 48.9602 180.858 63.606 181.115 60.5039C181.336 57.8229 180.82 55.0982 179.914 54.1552C179.411 53.6322 179 52.5765 179 51.8066C179 51.0376 178.274 48.8777 177.386 47.0068ZM196.402 38.0986C193.51 35.8926 192.889 35.7316 192.381 37.0556C192.05 37.9167 192.539 39.7784 193.466 41.1943C194.393 42.6091 194.912 44.392 194.618 45.1572C193.935 46.9392 198.618 57.5905 200.823 59.2665C204.154 61.7994 204.172 61.4099 201.334 47.9062C200.037 41.7286 199.336 40.3364 196.402 38.0986ZM289.985 55.3554C290.013 52.1464 288.306 53.5544 288.213 56.8154C288.147 59.1453 288.375 59.6253 289.046 58.5654C289.554 57.7624 289.976 56.3184 289.985 55.3554ZM335.094 49.4785C332.661 47.2116 330 47.0356 330 49.1406C330 49.9856 329.276 51.7818 328.39 53.1328C327.505 54.4846 327.051 56.2961 327.382 57.1581C327.92 58.5611 328.304 58.5381 330.992 56.9511C332.646 55.9731 334 54.5823 334 53.8583C334 53.1344 334.698 52.2742 335.552 51.9472C336.884 51.4362 336.819 51.0855 335.094 49.4785ZM190.081 52.2333C190.037 53.9533 190.675 55.9204 191.5 56.6054C192.71 57.6094 192.991 57.5844 192.955 56.4775C192.93 55.7235 192.292 53.7554 191.536 52.1054L190.162 49.1054L190.081 52.2333ZM357.281 39.6845C355.354 39.8795 354 40.8794 354 42.1074C354 44.6074 357.494 49.5926 359.25 49.5996C361.621 49.6076 361.452 51.4952 358.829 54.2871C354.513 58.8811 358.029 57.719 363.11 52.872L368.319 47.9042L366.409 45.2861C365.2 43.6283 363.531 42.6568 361.857 42.6367C360.403 42.6197 358.955 41.9304 358.638 41.1054C358.322 40.2806 357.711 39.6418 357.281 39.6845ZM410.2 47.8056C411.867 46.1386 412.502 46.2722 415.612 48.9472C417.402 50.4871 418.117 51.8583 417.699 52.9472C416.881 55.0782 413.181 55.0791 410.829 52.9501C408.704 51.0272 408.516 49.4896 410.2 47.8056ZM374.129 51.4208C372.982 48.3138 370.538 47.9998 368.637 50.7138C366.86 53.2506 367.498 55.2672 369.541 53.5712C370.291 52.9493 371.822 52.7318 372.944 53.0878C374.733 53.6556 374.878 53.4503 374.129 51.4208ZM200.079 52.1884C200.036 51.1344 200.272 50.5449 200.604 50.8769C200.936 51.2092 200.971 52.0722 200.683 52.7939C200.364 53.5903 200.127 53.3532 200.079 52.1884ZM272.662 50.3554C272.385 49.6684 272.158 50.2304 272.158 51.6054C272.158 52.9804 272.385 53.5434 272.662 52.8554C272.94 52.1684 272.94 51.0434 272.662 50.3554ZM289.604 49.8769C289.272 49.5449 289.036 50.1344 289.079 51.1884C289.127 52.3532 289.364 52.5903 289.683 51.7939C289.971 51.0722 289.936 50.2092 289.604 49.8769ZM129.914 38.7148C132.311 37.1388 138.213 38.7547 141.191 41.8007C147.278 48.0276 149.1 53.9489 143.186 48.2822C141.649 46.8105 139.909 45.6059 139.318 45.6054C138.728 45.6054 137.685 44.9304 137 44.1054C136.315 43.2805 134.996 42.6056 134.069 42.6054C133.141 42.6054 131.509 41.9398 130.441 41.1249C128.828 39.894 128.739 39.4868 129.914 38.7148ZM285.842 46.6308C285.631 45.9978 285.13 45.8089 284.729 46.2099C284.328 46.6109 284 47.6286 284 48.4726C284 49.5974 284.296 49.7095 285.112 48.8925C285.724 48.2816 286.053 47.2638 285.842 46.6308ZM276.311 40.3554C275.383 38.7284 274.22 39.7564 273.625 42.7304C272.529 48.2114 273.093 49.2284 274.943 45.1054C275.93 42.9058 276.545 40.7679 276.311 40.3554ZM391.75 44.7675C395.336 43.4586 399.281 43.3426 398.523 44.5683C397.996 45.4203 391.732 47.5856 389.75 47.5996C387.896 47.6136 389.265 45.6755 391.75 44.7675ZM293 42.6054C292.45 42.6054 292 43.4788 292 44.5468C292 45.6147 292.45 46.7654 293 47.1054C293.567 47.4564 294 46.615 294 45.164C294 43.7572 293.55 42.6054 293 42.6054ZM272.686 26.7216C272.584 26.7856 271.771 27.0315 270.881 27.2695C269.648 27.5986 269.141 29.3866 268.756 34.7734C268.008 45.2192 268.774 46.9296 271.526 40.9609C272.757 38.2909 274.717 35.2481 275.882 34.2001C278.766 31.6062 278.574 28.7741 275.436 27.58C274.026 27.0445 272.789 26.6584 272.686 26.7216ZM150.206 30.6249C155.178 28.399 156.332 28.7833 154.796 32.1542C153.837 34.2592 144.342 41.6054 142.581 41.6054C141.31 41.6054 142.111 38.7834 144 36.6054C145.1 35.3374 146 33.8963 146 33.4033C146 32.9102 147.893 31.6608 150.206 30.6249ZM393.152 35.4902C395.15 34.2245 396.153 34.4019 399.892 36.6816C402.768 38.4346 403.073 38.9538 401.892 40.0888C399.842 42.0582 392.637 40.6664 392.162 38.2109C391.965 37.1849 392.41 35.9602 393.152 35.4902ZM323.981 31.0507C319.2 30.6537 319 30.7385 319 33.1865C319 34.5894 318.508 36.6552 317.907 37.7783C315.952 41.4313 318.353 42.0682 323.254 39.1972C328.754 35.9732 331.552 33.0647 330.046 32.1347C329.45 31.7657 326.721 31.2777 323.981 31.0507ZM288.541 37.538C289.617 35.7974 288.392 35.4286 287.021 37.081C286.232 38.031 286.155 38.6054 286.819 38.6054C287.403 38.6052 288.179 38.1249 288.541 37.538ZM373 35.6054C373.55 35.6054 374 36.0288 374 36.5468C374 37.0648 373.55 37.7655 373 38.1054C372.45 38.4454 372 38.021 372 37.164C372 36.3072 372.45 35.6054 373 35.6054ZM263.109 24.6054C262.074 24.6054 261.007 31.8614 261.933 32.6054C262.275 32.8804 263.116 34.2305 263.802 35.6054C265.006 38.0194 265.031 37.9894 264.525 34.7304C264.236 32.8744 264 29.8364 264 27.9804C264 26.1249 263.599 24.6062 263.109 24.6054ZM120.282 28.6054C122.025 28.6059 127.237 34.0358 126.347 34.9248C124.178 37.0929 117.237 33.0392 118.313 30.2333C118.657 29.3385 119.542 28.6054 120.282 28.6054ZM147.418 18.5742C150.444 17.3502 153.429 17.4342 154.776 18.7812C156.281 20.2862 154.544 22.6053 151.912 22.6054C149.73 22.6054 143 28.2559 143 30.0869C143 30.7879 142.33 31.9168 141.512 32.5956C140.307 33.5953 139.906 33.5233 139.404 32.2158C137.996 28.5468 142.743 20.4652 147.418 18.5742ZM336.559 26.6054C336.315 26.6059 335.84 27.0557 335.5 27.6054C335.16 28.1554 335.359 28.6054 335.941 28.6054C336.523 28.6052 337 28.1553 337 27.6054C337 27.0554 336.802 26.6054 336.559 26.6054ZM296.136 21.6054L294 24.6054C292.256 27.0544 291.153 27.6054 287.991 27.6054C283.553 27.6054 282.447 26.5067 283.989 23.6269C284.874 21.9729 286.076 21.6054 290.604 21.6054H296.136ZM205.5 23.6054C206.211 22.4544 207.188 22.3568 209.418 23.2128C211.915 24.1709 211.299 26.6054 208.559 26.6054C205.925 26.6053 204.506 25.2133 205.5 23.6054ZM191.668 19.7216C192.394 19.2206 195 21.0854 195 22.1054C195 23.5384 192.831 24.6054 189.918 24.6054C187.46 24.6054 187.316 20.931 189.75 20.2949C190.713 20.044 191.575 19.7857 191.668 19.7216ZM208 17.6054C208 14.3034 209.483 13.776 212.521 15.997C214.138 17.1789 214.224 17.6302 213.09 18.997C212.356 19.881 210.91 20.6054 209.878 20.6054C208.458 20.6054 208 19.8733 208 17.6054ZM320.011 10.0927C322.294 7.34172 324.745 8.29439 325.19 12.1064C325.66 16.1293 324.653 17.589 321.905 16.8701C319.513 16.2441 318.352 12.0918 320.011 10.0927ZM195.665 12.7792C196.345 10.1794 197.699 10.0237 200.171 12.2607C202.923 14.7507 202.448 16.6054 199.059 16.6054C195.626 16.6054 194.883 15.7681 195.665 12.7792ZM231.494 10.4443C232.421 9.51853 238 10.8277 237.992 11.9687C237.985 13.0278 233.596 15.6054 231.801 15.6054C230.937 15.6046 230.679 11.2592 231.494 10.4443ZM261.336 11.1728C262.171 8.9958 266.334 9.21194 268.442 11.5419C270.141 13.4184 270.081 13.5 266.523 14.1679C262.491 14.9239 260.367 13.6986 261.336 11.1728ZM247.25 10.2675C249.79 9.24252 251 9.65582 251 11.5468C251 13.9025 249.725 14.8208 247.59 14.0019C245.696 13.2749 245.487 10.9795 247.25 10.2675ZM294.604 7.19526C295.478 4.91957 299.034 5.29568 302.358 8.01557C305.815 10.8424 304.645 11.892 299.039 10.9951C294.528 10.2741 293.696 9.56126 294.604 7.19526ZM277.571 4.1767C279.4 2.34871 279.967 2.2796 282 3.63959C283.311 4.51756 283.28 4.81238 281.75 5.98432C280.787 6.72232 280 7.98875 280 8.79975C280 11.0035 278.852 11.7275 277.342 10.4746C275.541 8.97953 275.646 6.10267 277.571 4.1767ZM187.553 8.52045C187.875 7.99949 188.564 7.83625 189.085 8.15815C189.606 8.48012 189.769 9.16939 189.447 9.69038C189.125 10.2113 188.436 10.3746 187.915 10.0527C187.394 9.7307 187.231 9.04144 187.553 8.52045ZM208.302 4.26166C209.649 0.751766 214 3.63622 214 8.03901C214 10.1039 212.73 10.0174 209.944 7.76166C208.487 6.58177 207.895 5.32061 208.302 4.26166ZM329.558 0.380805C330.714 -0.775111 334 0.912168 334 2.66303C334 4.91001 332.692 5.80886 330.59 5.0019C329.056 4.41396 328.411 1.52805 329.558 0.380805Z" fill="black"/>
</svg>
