<svg width="1718" height="1383" viewBox="0 0 1718 1383" fill="none" xmlns="http://www.w3.org/2000/svg">
<path fill-rule="evenodd" clip-rule="evenodd" d="M1122.37 1.81995C1115.16 4.33595 1106.75 9.63499 1100.63 15.511C1095.97 19.982 1086.72 32.843 1085.21 36.946C1084.9 37.801 1083.62 40.15 1082.36 42.166C1079.34 47.028 1076.28 57.0231 1075.46 64.7481C1075.1 68.1851 1074.44 70.7721 1074 70.4981C1073.55 70.2241 1071.08 66.4 1068.5 62C1065.92 57.601 1062.39 53.0221 1060.65 51.8261C1058.92 50.6291 1052.5 44.802 1046.38 38.877C1039.58 32.289 1034.14 27.841 1032.38 27.427C1030.8 27.054 1026.42 25.423 1022.66 23.801C1017.18 21.436 1015.01 20.981 1011.66 21.5C1004.25 22.651 1004 22.827 1004.04 26.817C1004.13 33.793 1006.52 38.345 1014.08 45.916C1016.05 47.887 1018.95 51.3 1020.53 53.5C1022.11 55.7 1024.36 58.4 1025.55 59.5C1026.73 60.6 1029.08 63.975 1030.78 67C1032.48 70.025 1035.24 73.822 1036.93 75.437C1038.62 77.052 1040 78.907 1040 79.557C1040 80.208 1042.88 85.052 1046.41 90.323C1049.93 95.593 1053.36 101.614 1054.04 103.703C1054.71 105.791 1055.58 107.95 1055.97 108.5C1056.37 109.05 1058.17 114 1059.98 119.5C1061.79 125 1063.57 129.725 1063.95 130C1065.28 130.99 1070.04 151.809 1076.07 183C1077.08 188.225 1077.93 196.915 1077.96 202.312C1078 211.609 1077.81 212.515 1074.35 219.597C1071.21 226.049 1070.87 227.414 1071.85 229.582C1073.74 233.725 1073.19 235.99 1069.12 240.861C1066.99 243.413 1062.93 249.325 1060.11 254C1057.28 258.675 1053.17 264.975 1050.98 268C1048.78 271.025 1046.07 275.5 1044.96 277.945C1043.85 280.39 1041.9 283.765 1040.64 285.445C1036.6 290.812 1033.11 298.338 1032.03 304C1031.45 307.025 1030.45 312.425 1029.81 316C1028.94 320.87 1027.69 323.777 1024.82 327.591C1022.72 330.391 1021 332.999 1021 333.387C1021 335.265 1011.65 352.721 1008.7 356.362C1006.85 358.638 1003.42 364.325 1001.06 369C998.71 373.675 995.595 378.999 994.142 380.832C988.086 388.466 985.803 393.039 981.86 405.44C979.576 412.623 977.382 418.95 976.985 419.5C976.588 420.05 975.483 422.892 974.529 425.815C973.576 428.738 972.594 430.929 972.349 430.683C972.103 430.437 972.366 424.671 972.933 417.868C974.559 398.364 974.1 271.884 972.379 265.055C971.624 262.06 970.535 255.76 969.958 251.055C969.382 246.35 967.828 238.675 966.506 234C965.184 229.325 963.207 221.9 962.113 217.5C956.683 195.661 954.451 190 946.861 178.805C944.737 175.673 942.999 172.728 942.999 172.262C942.999 171.796 938.48 166.709 932.957 160.957C927.434 155.206 921.302 148.555 919.331 146.177C917.359 143.799 914.79 141.451 913.622 140.958C912.454 140.466 909.699 138.728 907.499 137.097C905.299 135.466 901.024 132.47 897.999 130.441C894.974 128.411 890.837 125.119 888.806 123.125C886.775 121.131 882.153 117.025 878.536 114C874.918 110.975 871.685 107.453 871.351 106.173C870.482 102.844 872.851 99.099 876.427 98.148C879.353 97.369 879.485 97.113 879.207 92.743C878.987 89.282 879.381 87.707 880.813 86.328C887.665 79.728 890.794 65.0159 887.842 53.2889C885.528 44.0999 873.519 36.597 864.703 38.832C862.391 39.418 858.881 40.153 856.904 40.465C854.927 40.777 849.559 43.5 844.974 46.516C836.444 52.128 834.999 52.7729 834.999 50.9659C834.999 49.0299 828.991 44.0521 824.13 41.9611C821.465 40.8141 818.308 38.556 817.115 36.943C814.15 32.932 805.676 28.281 799.882 27.484C794.303 26.717 792.304 27.458 794.103 29.625C795.127 30.859 794.728 30.9891 791.401 30.5081C779.589 28.8001 772.628 27.856 764.999 26.926C755.355 25.75 747.012 24.4879 738.999 22.9919C725.927 20.5529 721.793 20.005 709.499 19.087C702.349 18.553 693.574 18.259 689.999 18.434C686.424 18.609 675.849 19.049 666.499 19.413C648.949 20.096 631.065 22.0111 617.999 24.6071C608.325 26.5291 596.932 30.024 594.929 31.683C594.066 32.398 590.916 33.83 587.929 34.865C581.501 37.091 563.287 45.968 553.704 51.545C549.967 53.72 545.242 56.4271 543.204 57.5601C540.212 59.2241 539.437 60.2821 539.177 63.0601C538.845 66.6121 534.707 72 532.312 72C531.59 72 530.999 72.45 530.999 73C530.999 73.55 530.661 73.899 530.249 73.775C529.837 73.651 526.713 76.239 523.308 79.525C515.593 86.97 512.004 89.7061 508.914 90.4981C507.586 90.8381 504.024 92.864 500.999 95C497.974 97.136 493.249 100.42 490.499 102.298C487.749 104.175 483.024 108.393 479.999 111.67C465.627 127.241 463.442 131.318 464.637 140.331C465.21 144.646 466.287 146.345 474.143 155.33C481.155 163.348 484.203 166.038 488.751 168.218C495.276 171.347 497.824 171.573 503.499 169.529C509.452 167.384 537.325 167.458 544.825 169.638C549.439 170.979 552.362 171.123 560.978 170.434C566.765 169.971 577.799 169.539 585.499 169.475C593.259 169.411 603.903 168.624 609.379 167.71C616.594 166.505 625.691 166.054 643.105 166.039C664.882 166.02 667.844 165.806 677.226 163.575C682.876 162.231 689.974 160.686 692.999 160.14C696.024 159.595 701.703 157.991 705.62 156.575C709.537 155.159 714.234 154 716.058 154C719.552 154 726.857 149.039 735.999 140.457C738.474 138.133 747.539 130.821 756.144 124.207C764.749 117.593 773.739 110.067 776.122 107.483C778.504 104.898 782.489 101.392 784.976 99.6899C787.464 97.9889 792.874 93.409 796.999 89.514C801.124 85.618 808.099 80.271 812.499 77.631C825.129 70.053 826.843 68.845 833.508 62.823C836.963 59.701 841.74 56.153 844.122 54.937C846.505 53.722 850.039 51.707 851.977 50.459C853.914 49.212 858.12 47.451 861.323 46.546C866.692 45.03 867.579 45.027 872.676 46.509C880.275 48.717 882.972 51.614 883.1 57.705C883.371 70.524 882.276 74.611 876.842 81.064C873.918 84.537 872.999 86.503 872.999 89.283C872.999 91.835 872.614 92.79 871.723 92.448C869.743 91.688 863.999 101.927 863.999 106.217C863.999 111.477 864.725 112.717 869.869 116.243C872.416 117.988 877.777 122.135 881.784 125.458C885.79 128.781 891.247 133.075 893.91 135C896.572 136.925 900.929 140.075 903.592 142C906.254 143.925 912.071 149.1 916.518 153.5C920.965 157.9 926.797 163.525 929.478 166C936.819 172.775 952.999 199.45 952.999 204.776C952.999 205.859 953.908 208.801 955.019 211.313C957.243 216.339 959.621 227.411 960.967 239C961.446 243.125 962.541 249.75 963.399 253.723C965.042 261.323 965.666 270.926 966.441 300.5C967.115 326.223 965.618 321.482 959.968 280C958.807 271.475 956.93 261.125 955.796 257C951.383 240.939 946.781 228.05 943.793 223.38C942.076 220.696 938.023 212.875 934.786 206C931.55 199.125 928.485 192.825 927.974 192C927.464 191.175 924.758 186.698 921.961 182.051C919.164 177.404 916.072 173.039 915.089 172.351C914.107 171.663 910.951 168.796 908.074 165.98C903.275 161.28 898.513 157.931 882.332 147.875C872.523 141.779 868.817 140.287 860.499 139.088C856.099 138.454 850.249 137.526 847.499 137.027C844.749 136.528 839.799 136.09 836.499 136.054C833.199 136.018 828.894 135.543 826.932 134.998C824.374 134.287 819.991 134.448 811.432 135.567C804.869 136.425 796.57 137.485 792.991 137.921C780.428 139.454 745.348 147.997 737.999 151.313C734.974 152.679 731.177 155.192 729.562 156.898C726.823 159.791 726.767 160 728.733 160C729.892 160 734.589 158.413 739.17 156.473C747.36 153.005 752.61 151.853 768.499 150.039C772.899 149.536 777.849 148.7 779.499 148.181C790.774 144.634 795.131 143.879 809.098 143.053C821.986 142.29 825.437 142.385 828.956 143.597C832.194 144.713 833.548 144.789 834.602 143.914C835.384 143.265 836.971 143.065 838.244 143.456C840.31 144.09 846.404 144.937 862.499 146.827C866.743 147.325 870.255 148.584 874.499 151.129C877.799 153.108 884.046 156.701 888.381 159.114C899.706 165.415 912.494 177.764 918.543 188.236C926.086 201.297 929.055 207.007 932.088 214.288C933.644 218.021 935.748 222.296 936.763 223.788C937.778 225.28 940.084 229.875 941.887 234C943.689 238.125 945.575 242.4 946.076 243.5C947.878 247.449 951.994 261.092 953.387 267.731C955.791 279.184 956.866 289.596 958.063 313C959.068 332.643 959.004 337.15 957.561 348.5C954.614 371.68 954.143 376.388 954.054 383.5C954.007 387.35 953.037 394.775 951.9 400C950.732 405.368 949.525 415.806 949.124 424C948.733 431.975 947.899 439.431 947.269 440.569C946.638 441.706 945.462 445.306 944.655 448.569C942.728 456.36 938.897 467 938.019 467C937.638 467 934.971 463.423 932.094 459.051C926.005 449.799 916.025 440.061 908.968 436.484C905.675 434.816 901.546 433.767 896.631 433.352C885.574 432.417 869.76 435.852 868.363 439.493C867.589 441.51 872.795 448.882 877.519 452.458C879.708 454.115 885.549 460.366 890.499 466.349C902.41 480.745 905.848 483.981 909.249 483.991C910.762 483.996 912.954 484.955 914.121 486.122C916.009 488.01 916.654 488.12 919.987 487.122C922.046 486.505 924.065 486 924.473 486C925.775 486 923.949 491.267 921.684 494.049C920.482 495.525 918.989 497.58 918.366 498.616C917.266 500.446 917.165 500.439 914.866 498.401C913.564 497.246 910.249 495.286 907.499 494.043C894.03 487.959 888.079 484.709 883.499 480.938C880.749 478.674 877.151 475.717 875.504 474.367C873.857 473.018 870.19 471.239 867.357 470.416C864.523 469.592 860.459 468.074 858.325 467.043C856.191 466.012 851.532 464.659 847.972 464.036C839.862 462.616 834.931 461.114 832.999 459.474C829.586 456.578 817.059 450.557 810.999 448.901C801.846 446.399 790.632 443.218 782.884 440.928C779.246 439.852 773.396 438.724 769.884 438.422C766.372 438.119 762.51 437.231 761.301 436.447C760.093 435.664 755.593 434.064 751.301 432.892C747.01 431.72 741.829 429.915 739.789 428.881C737.748 427.846 735.603 427 735.021 427C734.439 427 731.158 425.308 727.731 423.241C724.303 421.173 719.474 418.617 716.999 417.56C714.524 416.503 711.149 414.419 709.499 412.929C707.849 411.44 705.486 409.916 704.248 409.543C703.01 409.17 701.546 408.022 700.995 406.993C699.384 403.982 692.444 403.446 686.742 405.893C681.33 408.216 671.396 414.758 668.67 417.794C666.277 420.461 660.043 422.864 639.999 428.846C625.844 433.07 621.89 433.848 612.181 434.319C605.956 434.621 600.253 435.374 599.508 435.993C598.03 437.219 576.882 443 573.873 443C571.782 443 558.305 448.702 555.999 450.563C555.174 451.228 551.84 453.178 548.589 454.897C545.339 456.615 542.189 458.4 541.589 458.865C540.99 459.33 538.937 460.236 537.027 460.88C535.118 461.524 532.418 463.119 531.027 464.425C529.637 465.73 523.099 470.416 516.499 474.837C500.866 485.309 481.006 501.138 479.218 504.552C478.442 506.032 473.413 511.576 468.041 516.872C462.67 522.167 456.987 528.525 455.413 531C453.839 533.475 451.133 537.3 449.399 539.5C447.666 541.7 445.518 544.939 444.625 546.698C442.335 551.209 436.284 559.424 430.999 565.196C428.524 567.9 425.599 571.864 424.499 574.006C423.399 576.148 419.945 582.31 416.824 587.7C413.703 593.09 408.927 602.225 406.212 608C403.496 613.775 398.071 625.286 394.157 633.58C390.242 641.874 386.342 651.774 385.49 655.58C380.639 677.247 377.787 691.05 377.301 695.222C376.917 698.512 376.221 700.112 375.007 700.498C372.432 701.315 368.577 699.532 366.689 696.649C364.622 693.495 353.612 686.36 344.999 682.594C341.424 681.031 337.149 678.947 335.499 677.962C333.849 676.978 330.024 674.877 326.999 673.293C323.974 671.709 320.599 669.892 319.499 669.255C318.399 668.618 315.924 667.397 313.999 666.542C312.074 665.687 308.079 662.719 305.12 659.946C302.162 657.174 298.112 653.704 296.12 652.236C294.129 650.768 290.832 648.109 288.794 646.327C283.956 642.095 278.73 639.507 272.254 638.135C265.587 636.722 258.466 638.419 250.281 643.373C247.101 645.297 241.574 648.55 237.999 650.602C234.424 652.654 229.2 656.282 226.391 658.666C223.582 661.05 221.018 663 220.694 663C220.37 663 217.044 665.313 213.302 668.141C206.469 673.304 201.771 677.616 186.663 692.593C182.173 697.044 175.792 702.669 172.484 705.093C169.176 707.517 161.526 714.471 155.484 720.547C149.442 726.623 142.429 733.135 139.9 735.019C137.37 736.903 134.023 740.221 132.462 742.393C130.901 744.564 128.386 747.727 126.873 749.421C121.942 754.939 115.379 763.406 112.571 767.87C111.059 770.274 107.274 775.053 104.16 778.49C92.0501 791.859 78.7541 809.512 74.6441 817.679C73.2101 820.528 71.5431 823.164 70.9391 823.537C70.3351 823.911 68.0521 827.962 65.8661 832.54C63.6801 837.118 60.1151 842.807 57.9431 845.182C55.7711 847.557 52.4001 852.724 50.4521 856.664C48.5041 860.605 46.2611 864.368 45.4671 865.027C44.6721 865.686 41.4621 871.462 38.3321 877.863C35.2011 884.263 29.3461 894.993 25.3201 901.706C21.2931 908.42 17.9991 914.201 17.9991 914.552C17.9991 914.904 16.4231 918.514 14.4961 922.574C12.5701 926.633 10.8381 930.753 10.6491 931.728C10.4601 932.702 9.74611 934.85 9.06411 936.5C8.38211 938.15 7.57708 941.075 7.27608 943C6.97508 944.925 6.1631 947.175 5.4731 948C4.7821 948.825 3.90811 951.387 3.53011 953.692C3.15211 955.998 2.2031 958.416 1.4211 959.065C-0.581899 960.727 -0.344897 966.578 1.9861 973.014C4.0461 978.705 7.29008 982.127 12.4871 984.095C14.1441 984.722 18.8741 986.607 22.9991 988.283C28.4451 990.496 32.9341 991.514 39.3891 992C49.1831 992.737 53.0671 991.876 60.1691 987.392C62.4341 985.963 66.5841 983.973 69.3931 982.97C72.2011 981.967 76.9741 980.179 79.9991 978.998C83.0241 977.816 88.4241 975.822 91.9991 974.567C95.5741 973.312 101.199 970.934 104.499 969.283C107.799 967.631 113.48 965.299 117.124 964.1C120.768 962.901 126.393 960.319 129.624 958.363C132.855 956.407 138.874 953.037 142.999 950.874C153.655 945.286 167.321 936.256 177.499 928.079C184.534 922.426 205.19 907.493 208.628 905.574C210.207 904.692 213.974 902.172 216.999 899.973C221.65 896.591 245.747 884 247.567 884C247.893 884 255.37 880.4 264.183 876C272.996 871.6 281.076 868 282.138 868C283.2 868 285.09 867.331 286.338 866.514C288.914 864.826 298.766 861.18 303.999 859.978C305.924 859.536 310.649 858.072 314.499 856.723C327.43 852.196 334.627 850 336.569 849.991C337.631 849.986 340.749 848.875 343.499 847.522C346.249 846.169 349.399 845.045 350.499 845.024C351.599 845.002 355.403 844.102 358.953 843.022C363.974 841.496 366.999 841.195 372.577 841.666C378.137 842.136 380.483 841.905 383.027 840.636C384.83 839.736 387.609 839 389.2 839C391.003 839 392.968 838.057 394.411 836.5C395.686 835.125 397.005 834 397.343 834C397.682 834 398.931 835.912 400.119 838.25C403.218 844.343 411.935 855.654 418.156 861.652C421.095 864.485 425.464 869.097 427.865 871.902C430.266 874.706 432.741 877.006 433.365 877.012C434.814 877.028 441.346 883.217 446.499 889.457C450.941 894.835 464.086 908.011 469.199 912.21C481.04 921.933 486.874 926.397 489.499 927.742C491.149 928.587 492.724 929.586 492.999 929.962C493.274 930.338 495.974 932.651 498.999 935.102C502.024 937.554 505.399 940.306 506.499 941.218C514.646 947.975 517.284 950 517.938 950C518.35 950 519.995 951.154 521.593 952.564C525.338 955.87 536.975 961.807 543.449 963.715C546.227 964.534 548.949 965.558 549.499 965.991C550.049 966.424 554.549 967.84 559.499 969.139C566.895 971.079 570.993 971.5 582.499 971.5H596.499L604.804 967.211C611.454 963.777 615.51 960.591 625.146 951.234C631.766 944.805 637.877 938.202 638.727 936.559C639.576 934.917 642.039 928.617 644.2 922.559C646.361 916.502 649.613 908.61 651.427 905.023C654.687 898.576 656.262 891.09 657.711 875.153L658.288 868.806L663.894 869.519C666.977 869.911 673.729 870.179 678.9 870.114C689.492 869.981 704.02 871.486 711.499 873.492C714.249 874.229 720.999 875.351 726.499 875.984C731.999 876.618 739.424 877.827 742.999 878.67C746.574 879.514 753.324 881.038 757.999 882.057C762.674 883.076 769.118 884.845 772.319 885.988C775.52 887.131 781.37 888.481 785.319 888.988C789.268 889.495 801.274 892.215 811.999 895.034C822.724 897.853 838.636 901.898 847.358 904.024C856.08 906.149 863.991 908.588 864.937 909.444C865.883 910.3 868.122 911 869.914 911C873.943 911 894.631 916.774 912.499 922.885C914.149 923.449 921.071 925.807 927.881 928.125C935.142 930.597 941.345 933.354 942.881 934.793C944.321 936.142 946.65 937.655 948.056 938.154C950.863 939.15 956.014 946.909 958.425 953.771C959.25 956.12 960.591 959.495 961.406 961.271C963.786 966.461 973.661 996.863 975.447 1004.5C976.348 1008.35 977.717 1013.97 978.489 1017C979.261 1020.02 980.59 1026.25 981.442 1030.84C982.294 1035.42 983.289 1039.66 983.653 1040.25C984.017 1040.84 984.244 1043.1 984.159 1045.28C984.074 1047.46 984.629 1051.1 985.393 1053.37C986.157 1055.64 987.325 1063.35 987.99 1070.5C988.655 1077.65 989.812 1085.97 990.561 1089C991.311 1092.02 992.424 1099 993.036 1104.5C993.648 1110 995.039 1119.67 996.128 1126C997.217 1132.32 998.764 1141.55 999.565 1146.5C1000.37 1151.45 1001.68 1159.55 1002.48 1164.5C1005.63 1183.82 1008.1 1201.69 1009.57 1215.72C1010.42 1223.78 1011.31 1230.7 1011.56 1231.1C1012.33 1232.34 1010.85 1235 1009.39 1235C1007.69 1235 1007.62 1236.94 1009.16 1240.68C1009.8 1242.23 1010.68 1246.65 1011.11 1250.5C1011.54 1254.35 1012.35 1259.64 1012.92 1262.25C1014.81 1271.07 1017.41 1292.45 1017.5 1300C1017.55 1304.12 1018.36 1310.54 1019.29 1314.27C1020.22 1317.99 1021.46 1328.56 1022.04 1337.77C1023.92 1367.46 1027.36 1382.05 1032.63 1382.8C1034.41 1383.06 1034.87 1382.48 1035.35 1379.3C1036.48 1372.02 1036.61 1367.49 1035.74 1366.32C1035.26 1365.67 1034.46 1358.69 1033.97 1350.82C1032.98 1335.06 1032.11 1327.08 1028.57 1301C1025.14 1275.79 1024.03 1265.06 1023.44 1251.5C1023.16 1244.9 1022.5 1237.47 1021.99 1235C1020.64 1228.52 1017.2 1202.8 1016.5 1194C1015.95 1187.07 1014.91 1177.71 1011.93 1153C1011.3 1147.77 1010.41 1140.12 1009.95 1136C1009.49 1131.87 1008.64 1125.8 1008.06 1122.5C1007.48 1119.2 1007.01 1113.29 1007.01 1109.37C1007 1105.46 1006.11 1096.91 1005.02 1090.37C1003.94 1083.84 1002.38 1074.22 1001.56 1069C1000.74 1063.77 998.936 1056.19 997.557 1052.15C996.179 1048.11 994.566 1042.04 993.972 1038.65C993.379 1035.27 992.25 1030.7 991.464 1028.5C990.678 1026.3 989.124 1018.82 988.011 1011.89C986.898 1004.95 985.063 996.628 983.934 993.389C982.806 990.15 980.147 980.75 978.027 972.5C972.058 949.276 969.157 939.207 967.527 936.053C965.974 933.051 963.164 930.844 956.749 927.588C954.687 926.542 952.999 925.361 952.999 924.964C952.999 924.567 951.632 923.676 949.961 922.984C948.29 922.292 946.501 920.938 945.986 919.975C945.47 919.012 943.575 917.991 941.774 917.705C939.973 917.42 936.699 916.705 934.499 916.117C932.299 915.529 928.474 915.012 925.999 914.967C923.524 914.923 917.674 913.548 912.999 911.911C908.324 910.274 900.899 908.297 896.499 907.517C888.286 906.062 883.75 904.957 878.499 903.134C876.849 902.561 872.383 901.395 868.574 900.543C864.765 899.69 860.883 898.3 859.947 897.453C859.012 896.607 854.478 895.295 849.873 894.539C841.164 893.11 818.759 887.012 815.184 885.099C814.055 884.495 811.123 884 808.67 884C806.217 884 801.35 883.128 797.854 882.062C794.359 880.996 787.851 879.443 783.392 878.61C778.933 877.777 772.633 876.216 769.392 875.139C766.151 874.063 761.024 872.952 757.999 872.669C754.974 872.387 750.439 871.234 747.921 870.107C745.403 868.98 739.126 867.581 733.973 866.997C728.819 866.413 721.204 865.233 717.051 864.375C704.665 861.816 699.093 861.015 686.999 860.054C679.218 859.436 674.015 858.479 670.909 857.094C668.385 855.969 663.885 854.976 660.909 854.887C657.934 854.799 654.944 854.289 654.265 853.754C653.586 853.219 651.028 848.609 648.581 843.51C644.854 835.747 642.817 832.96 636.051 826.37C624.859 815.468 621.823 809.135 621.251 795.5L620.833 785.5L625.777 779C634.35 767.731 636.493 760.895 632.869 756.38C632.375 755.765 630.236 750.997 628.115 745.786C622.857 732.862 621.973 722.079 624.892 706.46C626.019 700.432 627.193 692.125 627.501 688C627.809 683.875 628.722 672.26 629.53 662.19C630.338 652.119 631.004 639.519 631.011 634.19C631.017 628.86 631.621 622.25 632.353 619.5C633.084 616.75 634.229 610.675 634.897 606C635.566 601.325 638.373 589.625 641.136 580C646.624 560.882 646.881 559.898 650.025 546C651.207 540.775 652.983 535.15 653.973 533.5C654.963 531.85 656.794 527.35 658.041 523.5C661.346 513.299 664.443 506.748 671.028 496.03C674.248 490.788 678.061 484.025 679.501 481C682.805 474.061 689.73 464.232 692.999 461.843C694.861 460.483 696.244 460.218 698.415 460.808C700.019 461.243 703.619 461.295 706.415 460.923C709.608 460.498 712.986 460.717 715.499 461.513C717.699 462.21 722.215 463.038 725.534 463.352C728.854 463.667 734.704 465.241 738.534 466.849C746.779 470.312 763.071 475.366 771.499 477.077C774.799 477.746 778.399 478.833 779.499 479.493C780.599 480.152 783.974 481.617 786.999 482.749C790.024 483.881 794.749 485.935 797.499 487.313C800.249 488.691 804.524 490.353 806.999 491.007C809.474 491.661 811.949 492.548 812.499 492.979C813.049 493.409 822.274 496.702 832.999 500.297C843.724 503.891 855.04 508.171 858.145 509.808C861.25 511.445 866.2 513.109 869.145 513.507C872.09 513.905 875.389 514.699 876.477 515.273C877.565 515.846 882.065 517.336 886.477 518.584C901.614 522.866 911.369 526.949 916.869 531.304C920.269 533.997 932.955 552.332 932.985 554.596C932.993 555.199 933.679 557.056 934.51 558.721C937.565 564.845 938.243 572.996 937.696 597C937.115 622.534 934.318 642.792 930.103 652C928.97 654.475 928.033 657.184 928.021 658.019C928.009 658.854 926.624 662.81 924.944 666.809C921.8 674.292 920.526 682.31 919.591 700.5C919.336 705.45 918.626 712.875 918.013 717C916.916 724.375 917.16 732.691 918.998 750.5C919.509 755.45 920.167 768.05 920.46 778.5C921.037 799.093 923.867 819.594 928.258 835C929.59 839.675 931.444 849.35 932.378 856.5C933.312 863.65 934.535 872.394 935.096 875.932C936.504 884.814 941.917 901 943.48 901C944.181 901 945.314 901.675 945.999 902.5C948.005 904.916 944.542 904.401 939.677 901.559C934.167 898.341 919.785 893.893 902.499 890.063C894.799 888.357 887.149 886.564 885.499 886.079C883.849 885.593 878.674 884.068 873.999 882.69C869.324 881.311 861.899 879.185 857.499 877.964C853.099 876.743 849.049 875.407 848.499 874.995C847.949 874.583 844.349 873.49 840.499 872.566C831.76 870.471 821.763 867.272 816.389 864.851C814.129 863.833 811.739 863 811.077 863C810.415 863 807.089 862.106 803.686 861.013C800.283 859.921 793.899 858.33 789.499 857.478C785.099 856.626 779.699 855.485 777.499 854.942C775.299 854.398 770.124 853.268 765.999 852.429C752.663 849.716 740.525 846.741 739.477 845.927C738.915 845.491 735.54 844.654 731.977 844.068C709.601 840.388 700.452 838.78 699.881 838.427C699.524 838.206 695.917 837.56 691.865 836.991C687.814 836.421 680.263 834.584 675.086 832.906C669.91 831.229 663.395 829.665 660.61 829.431C657.825 829.197 654.025 828.504 652.167 827.89C649.604 827.045 648.233 827.072 646.491 828.004L644.195 829.233L647.347 831.895C652.963 836.639 658.555 840 660.829 840C662.052 840 666.528 840.887 670.775 841.972C675.023 843.057 682.774 844.622 687.999 845.45C693.224 846.278 701.324 847.635 705.999 848.466C710.674 849.298 718.313 850.424 722.975 850.969C727.636 851.515 733.486 852.636 735.975 853.461C751.166 858.495 756.12 859.864 761.37 860.483C764.599 860.863 769.027 861.804 771.211 862.575C773.394 863.345 779.527 864.667 784.84 865.513C797.428 867.517 808.866 870.618 811.999 872.877C813.374 873.868 815.624 874.922 816.999 875.219C818.374 875.516 822.199 876.543 825.499 877.502C828.799 878.461 834.199 879.898 837.499 880.696C840.799 881.494 846.199 883.026 849.499 884.101C852.799 885.175 859.774 887.331 864.999 888.892C870.224 890.452 878.999 893.087 884.499 894.747C894.941 897.897 901.444 899.419 911.472 901.057C921.078 902.627 935.535 908.196 949.041 915.53C950.439 916.289 953.477 917.213 955.791 917.583C959.344 918.151 959.999 917.992 959.999 916.561C959.999 915.629 958.854 913.366 957.455 911.532C955.507 908.977 955.074 907.55 955.605 905.434C956.155 903.242 955.994 902.788 954.826 903.236C953.745 903.651 952.642 901.972 950.676 896.92C949.204 893.135 947.999 889.348 947.999 888.504C947.999 887.071 946.895 882.372 943.415 869C939.134 852.552 937.696 841.207 934.034 795C933.489 788.125 932.367 777.775 931.539 772C927.002 740.325 926.187 705.486 929.541 686.531C930.323 682.114 930.975 677.375 930.99 676C931.022 673.212 934.884 664.842 937.912 661C939.192 659.375 940.245 655.698 940.917 650.5C941.487 646.1 943.171 635.525 944.661 627C946.928 614.023 947.356 608.733 947.292 594.5C947.226 579.584 946.892 576.213 944.57 567C941.545 554.998 938.692 546.871 935.936 542.403C934.885 540.7 934.247 539.086 934.517 538.816C935.656 537.676 932.605 531.937 929.669 529.698C926.461 527.251 917.898 523 916.176 523C915.663 523 914.708 522.354 914.052 521.564C913.397 520.775 911.429 519.843 909.68 519.495C905.758 518.713 886.14 512.402 879.933 509.925C877.422 508.923 872.63 507.662 869.284 507.123C865.938 506.585 861.305 505.177 858.988 503.995C856.671 502.813 852.238 501.032 849.137 500.038C846.036 499.043 840.349 496.861 836.499 495.188C832.649 493.515 826.124 491.152 821.999 489.936C817.874 488.72 809.774 485.823 803.999 483.5C798.224 481.176 791.699 478.695 789.499 477.986C787.299 477.277 784.149 475.674 782.499 474.425C780.569 472.963 776.289 471.554 770.499 470.473C765.549 469.55 759.815 467.983 757.756 466.991C755.698 466 751.648 464.641 748.756 463.972C745.865 463.303 742.599 462.374 741.499 461.909C730.882 457.418 728.001 456.761 716.77 456.269C708.546 455.909 704.699 455.343 703.897 454.377C700.715 450.544 690.927 454.529 685.261 461.966C677.525 472.119 675.999 474.353 675.999 475.524C675.999 476.184 674.667 478.401 673.039 480.45C671.41 482.499 669.784 485.149 669.424 486.338C669.064 487.527 668.009 489.4 667.081 490.5C663.083 495.235 657.734 505.518 655.52 512.723C654.205 517 651.509 524.179 649.528 528.675C646.028 536.618 643.702 544.986 642.002 555.741C641.045 561.799 634.624 581.815 631.947 587.086C630.594 589.75 630.142 592.834 630.186 599.086C630.231 605.254 629.505 610.302 627.466 618C623.895 631.485 623.066 643.845 625.608 645.703C627.298 646.939 627.292 647.066 625.48 648.39C623.856 649.578 623.75 650.157 624.751 652.355C625.423 653.831 625.538 655.167 625.019 655.488C623.677 656.317 621.834 675.965 622.003 687.65C622.028 689.383 621.129 694.926 620.006 699.968C618.883 705.01 618.218 709.545 618.528 710.047C618.838 710.548 618.574 711.926 617.941 713.108C616.513 715.777 616.527 728.869 617.965 735.529C618.556 738.263 619.876 742.3 620.9 744.5C626.552 756.645 628.017 761.466 627.063 764.784C625.996 768.495 619.694 777.519 617.61 778.319C615.628 779.08 614.106 789.309 614.601 798.538C615.072 807.306 616.313 812.126 619.138 816.154C620.161 817.614 620.999 819.508 620.999 820.362C620.999 821.217 622.741 823.622 624.87 825.708C626.999 827.794 631.274 831.958 634.37 834.962C637.466 837.966 640.274 841.341 640.61 842.462C640.946 843.583 643.017 848.319 645.213 852.986C649.859 862.863 651.68 872.18 650.171 878.349C649.612 880.632 648.835 885.609 648.444 889.41C647.937 894.331 646.66 898.504 644.009 903.91C641.961 908.084 638.606 916.573 636.552 922.772C632.986 933.539 632.545 934.302 626.727 939.772C623.376 942.923 617.784 948.31 614.299 951.745C610.77 955.222 605.234 959.367 601.805 961.098L595.649 964.206L580.574 963.715C568.212 963.312 564.031 962.769 557.341 960.696C552.855 959.306 548.304 957.698 547.229 957.123C546.154 956.548 543.816 955.82 542.033 955.506C536.85 954.593 524.14 947.07 517.225 940.823C514.991 938.805 511.889 936.356 510.331 935.381C508.774 934.405 505.024 931.303 501.999 928.486C498.974 925.669 493.722 921.889 490.328 920.085C483.501 916.457 461.9 897.087 450.499 884.37C446.649 880.075 442.171 875.423 440.547 874.031C436.97 870.963 432.263 866.323 429.333 862.975C428.142 861.614 424.464 857.912 421.161 854.748C413.733 847.634 406.306 837.815 401.87 829.245C400.016 825.664 396.555 821.021 394.178 818.928C390.594 815.772 389.187 813.365 385.928 804.814C383.767 799.144 381.999 793.562 381.999 792.409C381.999 791.256 381.118 787.752 380.041 784.621C377.699 777.816 377.086 772.099 376.946 755.78C376.789 737.599 377.936 721.756 380.224 710.5C381.341 705 382.441 699.375 382.667 698C385.227 682.458 388.021 670.227 391.578 659C395.585 646.35 403.621 626.931 408.132 619C409.227 617.075 411.258 613.025 412.647 610C420.415 593.073 430.207 576.693 438.149 567.342C441.346 563.579 445.303 557.702 446.944 554.281C448.584 550.861 450.881 547.486 452.048 546.781C453.215 546.077 455.284 543.322 456.647 540.66C459.285 535.505 464.269 530.024 486.421 507.912C496.397 497.954 503.583 491.816 511.771 486.257C518.055 481.991 524.615 477.337 526.348 475.916C528.081 474.494 533.099 471.388 537.499 469.013C566.582 453.313 569.539 451.882 575.999 450.382C585.555 448.162 592.299 446.322 598.914 444.128C602.442 442.957 607.392 442 609.914 441.999C615.579 441.998 628.495 439.38 632.403 437.441C634 436.648 636.395 436 637.726 436C639.057 436 643.498 434.875 647.594 433.5C651.69 432.125 655.665 431 656.427 431C658.859 431 670.383 425.399 673.694 422.608C678.396 418.644 691.833 412 695.147 412C696.847 412 698.728 412.858 699.759 414.103C700.716 415.26 703.203 417.301 705.285 418.639C708.687 420.824 708.916 421.226 707.538 422.604C706.571 423.571 705.222 423.888 703.884 423.463C702.349 422.976 701.887 423.165 702.214 424.145C702.52 425.062 704.579 425.539 708.583 425.619C712.708 425.702 716.315 426.567 720.499 428.477C728.028 431.913 743.068 437.457 757.999 442.301C779.443 449.258 807.484 457.876 810.81 458.533C812.631 458.892 818.031 460.995 822.81 463.207C831.106 467.046 841.873 471.511 850.499 474.688C852.699 475.498 857.874 477.885 861.999 479.993C866.124 482.101 870.624 484.136 871.999 484.516C873.374 484.896 877.649 486.73 881.499 488.592C885.349 490.454 894.024 494.433 900.776 497.434C908.961 501.073 914.787 504.409 918.259 507.446C924.055 512.516 926.298 513.193 925.845 509.733C925.682 508.486 926.471 505.899 927.599 503.983C928.727 502.067 930.239 498.025 930.959 495C931.68 491.975 933.332 487.381 934.63 484.791C936.572 480.918 937.701 479.87 940.995 478.883C944.91 477.71 946.423 474.998 943.999 473.5C942.403 472.514 942.838 469.865 945.477 464.5C946.83 461.75 947.951 458.77 947.968 457.877C947.985 456.985 948.858 454.285 949.909 451.877C950.959 449.47 952.516 443.675 953.368 439C959.436 405.724 960.311 399.331 961.108 382.5C962.011 363.432 963.675 349.319 965.124 348.423C965.875 347.959 966.36 349.158 966.185 351.046C965.396 359.577 965.173 379.787 965.751 390.433C966.167 398.096 966.177 408.446 965.772 413.433C965.018 422.726 964.464 435.883 963.494 467.5C963.19 477.4 962.663 489.483 962.323 494.35C961.927 500.011 962.076 503.434 962.736 503.85C963.406 504.273 963.473 506.248 962.926 509.5C960.39 524.59 959.07 549.738 960.727 551.395C961.501 552.169 965.525 541.268 967.002 534.398C968.727 526.37 976.98 511.894 983.281 505.843C988.787 500.556 994.985 490.586 994.996 487C995.003 484.616 1000.5 473.65 1002.51 472C1003.52 471.175 1006.79 466.716 1009.78 462.092C1012.77 457.467 1017.11 451.617 1019.43 449.092C1021.74 446.566 1026.38 440.675 1029.74 436C1033.1 431.325 1039.37 423.82 1043.67 419.322C1051.4 411.243 1066.75 400 1070.05 400C1070.98 400 1073.94 399.025 1076.62 397.833C1083.31 394.863 1099 394.116 1107.73 396.354C1112.26 397.514 1115.21 397.713 1118.58 397.083C1121.13 396.608 1124.96 396.454 1127.1 396.741C1130.99 397.262 1132.57 395.818 1129.44 394.614C1128.58 394.284 1128.08 393.673 1128.34 393.257C1128.96 392.253 1160.16 393.664 1166.33 394.974C1173.08 396.409 1181.03 396.252 1185.75 394.589C1187.94 393.814 1193.93 392.67 1199.04 392.049C1204.5 391.385 1211.26 389.756 1215.42 388.104C1225.16 384.232 1234.05 381.411 1243.5 379.188C1254.06 376.706 1266.43 377.606 1280.88 381.909C1286.59 383.609 1292.33 385 1293.63 385C1294.93 385 1296.8 385.787 1297.79 386.75C1299.54 388.471 1308.49 392 1311.1 392C1311.83 392 1316.04 393.756 1320.46 395.903C1324.88 398.05 1331.2 400.938 1334.5 402.322C1342.86 405.828 1349.72 409.754 1355 414.054C1357.47 416.072 1361.51 418.889 1363.96 420.314C1369.16 423.337 1375.35 428.743 1384.76 438.465C1388.47 442.296 1394.12 448.098 1397.32 451.359C1404.23 458.392 1412.08 468.197 1417.46 476.5C1419.6 479.8 1422.98 484.525 1424.99 487C1432.12 495.802 1442.54 512.661 1452.49 531.5C1454.24 534.8 1456.18 538.4 1456.8 539.5C1460.63 546.235 1465.22 560.136 1466.06 567.537C1467 575.857 1470.57 594.491 1471.5 596.002C1471.78 596.456 1472.45 603.278 1472.99 611.163C1473.53 619.049 1474.4 626.983 1474.93 628.797C1475.46 630.61 1476.6 639.16 1477.47 647.797C1478.34 656.433 1479.69 666.875 1480.47 671C1481.25 675.125 1482.18 683.959 1482.55 690.631C1483.35 705.401 1482.14 709.123 1475.58 712.105C1470.1 714.59 1467.13 714.517 1466.15 711.873C1465.53 710.192 1464.33 709.657 1460.43 709.323C1457.72 709.09 1454.38 708.311 1453 707.592C1442.12 701.903 1439.2 700.102 1435.12 696.547C1430.24 692.294 1429.78 691.984 1421 686.854C1417.97 685.087 1413.04 681.416 1410.03 678.697C1407.03 675.977 1402.98 672.67 1401.03 671.347C1399.09 670.024 1396.01 667.858 1394.19 666.533C1392.37 665.207 1388.55 663.355 1385.69 662.416C1382.84 661.477 1376.78 658.974 1372.23 656.854C1367.68 654.734 1361.83 652.542 1359.23 651.983C1353.63 650.778 1352.01 650.054 1341.5 644.067C1331.85 638.568 1315.16 622.395 1308.64 612.212C1304.46 605.694 1297 591.383 1297 589.883C1297 589.478 1295.11 586.301 1292.8 582.823C1290.49 579.345 1287.64 574.925 1286.47 573C1281.05 564.089 1278.91 561 1278.17 561C1277.73 561 1276.5 560.2 1275.44 559.223C1274.37 558.245 1271.92 556.346 1270 555.002C1268.07 553.659 1264.18 550.685 1261.35 548.396C1251.44 540.38 1235.63 536.875 1209.5 536.906C1199.6 536.918 1189.79 536.469 1187.69 535.91C1183.62 534.82 1161.93 520.734 1158.34 516.843C1157.15 515.554 1154.06 510.225 1151.47 505C1146.74 495.435 1140.84 488.067 1135.75 485.394C1133.79 484.363 1132.99 483.168 1132.98 481.224C1132.97 479.726 1132.36 475.091 1131.62 470.925C1130.33 463.573 1129.35 461.381 1120.9 447L1117.09 440.5L1119.02 434.66C1120.09 431.447 1121.14 426.722 1121.35 424.16C1121.66 420.58 1122.19 419.419 1123.63 419.151C1124.66 418.959 1126.71 417.497 1128.19 415.901C1131.48 412.361 1136.75 412.016 1143.22 414.917C1145.57 415.972 1150.2 417.381 1153.5 418.047C1160.84 419.53 1184.31 426.954 1192.5 430.382C1198.97 433.09 1212.94 440.251 1217 442.942C1218.37 443.852 1220.85 445.169 1222.5 445.866C1224.15 446.564 1227.07 448.163 1229 449.419C1244.07 459.251 1250.49 463.23 1255.13 465.611C1261 468.62 1265.9 471.861 1276.12 479.5C1279.8 482.25 1284.99 485.999 1287.66 487.831C1290.32 489.663 1295.36 493.263 1298.86 495.831C1302.36 498.399 1306.7 501.4 1308.49 502.5C1313.24 505.418 1327.17 516.369 1329.5 519.02C1330.6 520.272 1335.7 524.653 1340.83 528.755C1345.96 532.857 1352.43 538.415 1355.21 541.107C1357.98 543.798 1360.61 546 1361.04 546C1362.41 546 1372.27 558.878 1379.69 570.366C1390.59 587.234 1395.66 593.794 1405.79 604.144C1409.48 607.915 1413.62 612.946 1415 615.323C1418.57 621.496 1422.6 626 1424.55 626C1427.28 626 1425.93 622.422 1418.93 611.074C1414.44 603.785 1409.99 598.219 1404.16 592.574C1398.19 586.79 1393.84 581.305 1388.84 573.236C1384.99 567.04 1380.82 560.74 1379.56 559.236C1378.3 557.731 1375.64 553.941 1373.65 550.814C1371.65 547.687 1366.3 541.872 1361.76 537.892C1357.22 533.912 1353.05 529.857 1352.49 528.883C1351.39 526.934 1345.46 521.751 1340 517.959C1338.07 516.623 1333.3 512.564 1329.38 508.941C1322.86 502.91 1315.47 497.452 1303.06 489.5C1294.22 483.835 1283.19 476.066 1282.84 475.257C1282.65 474.812 1277.89 471.382 1272.25 467.635C1266.61 463.887 1262 460.412 1262 459.911C1262 459.41 1260.94 459 1259.63 459C1258.33 459 1256.2 458.19 1254.88 457.201C1253.57 456.211 1249.12 453.423 1245 451.003C1240.87 448.584 1235.47 445.231 1233 443.552C1228 440.158 1222.82 437.28 1209.5 430.503C1204.55 427.984 1199.82 425.556 1199 425.108C1192.38 421.51 1171.14 413.588 1165.5 412.611C1160.42 411.732 1151.66 409.245 1146.5 407.214C1143.99 406.225 1139.17 405.614 1133.55 405.57C1125.92 405.51 1124.27 405.796 1122.44 407.5C1116.34 413.164 1116.25 413.192 1104.79 412.465L1094.08 411.787L1085.29 415.497C1068.39 422.629 1062.48 425.524 1058.25 428.75C1055.9 430.537 1053.59 432 1053.1 432C1051.77 432 1031 453.303 1031 454.672C1031 455.328 1030.08 456.156 1028.96 456.512C1027.84 456.868 1025.71 459.036 1024.24 461.33C1022.76 463.623 1020.15 467.184 1018.44 469.242C1016.72 471.301 1014.76 474.86 1014.07 477.152C1013.39 479.444 1011.92 482.547 1010.81 484.049C1009.69 485.551 1007.52 490.316 1005.97 494.64C1004.42 498.963 1001.8 506.268 1000.14 510.873C997.213 518.973 994.27 531.999 992.086 546.5C991.506 550.35 990.372 556.991 989.566 561.258C987.893 570.108 986.691 617.692 988.118 618.573C989.671 619.534 989.059 621.098 987.249 620.794C985.779 620.547 985.555 621.14 985.851 624.5C986.31 629.713 986.484 629.92 990.044 629.469C991.8 629.247 992.816 629.487 992.472 630.043C992.147 630.57 992.358 631 992.94 631C994.255 631 994.406 627.314 994.493 593C994.556 568.482 994.803 564.416 996.772 555.5C997.986 550 998.984 544.033 998.99 542.239C999.003 537.434 1002.47 522.78 1006.03 512.5C1007.74 507.55 1009.96 500.952 1010.95 497.839C1011.95 494.725 1013.88 490.675 1015.24 488.839C1016.61 487.002 1019.33 482.125 1021.3 478C1025.14 469.937 1028.71 465.542 1051.86 440.402C1053.51 438.603 1067.99 429.04 1073.48 426.12C1075.68 424.954 1078.46 424 1079.68 424C1080.89 424 1082.12 423.615 1082.41 423.145C1082.7 422.675 1085.69 421.288 1089.05 420.063C1093.88 418.302 1096.44 417.953 1101.33 418.393C1115.06 419.632 1119 420.225 1119 421.052C1119 421.529 1117.94 422.95 1116.64 424.21C1114.13 426.648 1111 435.136 1111 439.513C1111 440.975 1114.17 447.578 1118.11 454.325L1125.22 466.5L1125.95 476.407C1126.59 485.241 1126.93 486.519 1129.08 488.214C1135.65 493.376 1143 500.235 1143 501.192C1143 502.81 1149.87 515.963 1152.55 519.478C1154.59 522.151 1159.03 525.562 1176 537.506C1183.91 543.07 1186.37 543.628 1204 543.863C1220.36 544.081 1240.26 545.47 1243.71 546.635C1250.53 548.94 1258.98 554.153 1265.48 560.075C1266.59 561.084 1269.49 563.393 1271.92 565.205C1276.21 568.403 1277.49 570.088 1282.01 578.5C1283.19 580.7 1285.42 584.091 1286.95 586.035C1290.5 590.516 1294.54 598.497 1295.49 602.896L1296.22 606.292L1289.86 605.757C1286.36 605.463 1278.1 603.858 1271.5 602.191C1264.9 600.523 1255 598.487 1249.5 597.666C1244 596.844 1237.47 595.413 1235 594.485C1232.52 593.558 1227.54 592.008 1223.93 591.041C1212.27 587.922 1197.57 582.729 1194.96 580.805C1190.89 577.808 1180.14 576.584 1170.61 578.033C1152.29 580.819 1142.93 583.698 1139.24 587.685C1136.92 590.191 1136.69 590.228 1128.68 589.382C1117.4 588.191 1108.99 588.634 1099 590.945C1094.32 592.026 1087 593.339 1082.72 593.863C1076.14 594.667 1072.89 595.841 1061.71 601.448C1052.82 605.909 1046.85 609.643 1043.49 612.847C1040.75 615.468 1037.38 618.378 1036.02 619.313C1030.06 623.396 1012.27 642.213 1007.12 649.876C1004.03 654.483 1000.03 660.333 998.237 662.876C991.825 671.967 990.352 674.607 987.29 682.5C982.742 694.225 979.358 722.413 980.087 742.5C980.246 746.9 980.272 755.362 980.144 761.305C979.998 768.076 980.442 774.236 981.333 777.805C982.115 780.937 983.298 786.65 983.962 790.5C984.625 794.35 987.142 805.6 989.554 815.5C991.966 825.4 994.427 835.75 995.023 838.5C997.27 848.865 1000.34 857.266 1003.61 862.029C1005.48 864.736 1007 868.088 1007 869.476C1007 870.864 1007.35 872 1007.77 872C1008.75 872 1014.01 865.906 1018.25 859.865C1028.88 844.717 1046.01 826.999 1056.96 819.84C1058.36 818.927 1060.92 816.902 1062.65 815.34C1072.47 806.473 1086.34 794.743 1092 790.503C1095.57 787.826 1100.3 784.012 1102.5 782.028C1104.7 780.043 1109.67 776.371 1113.54 773.867C1117.55 771.272 1123.57 765.973 1127.54 761.545C1133.45 754.942 1135.85 753.108 1143.49 749.32C1148.44 746.869 1153.17 744.316 1153.99 743.646C1154.82 742.976 1159.34 740.5 1164.03 738.142C1168.72 735.785 1175.83 731.413 1179.83 728.428C1183.82 725.443 1187.52 723 1188.05 723C1190.34 723 1188.72 720.893 1186 720.35C1184.35 720.02 1183.01 719.244 1183.03 718.625C1183.1 716.448 1186.97 712.846 1190.22 711.947C1192.52 711.309 1195.58 708.607 1200.49 702.872C1204.33 698.381 1209.73 693.033 1212.49 690.987C1215.24 688.941 1218.4 686.253 1219.5 685.014C1226.63 676.978 1248.29 673.979 1256.76 679.855C1258.26 680.902 1262.42 683.374 1266 685.348C1269.57 687.323 1274.52 691.031 1277 693.589C1281.82 698.568 1287.89 701.942 1292.09 701.978C1293.51 701.99 1296.89 702.687 1299.59 703.527C1304.16 704.948 1319.34 707.299 1323.2 707.183C1325.69 707.108 1326.23 710.091 1324.58 714.776C1323.46 717.938 1323.37 719.761 1324.18 722.689C1325.64 727.982 1332.52 734.663 1337.28 735.414C1339.33 735.736 1342.56 736.243 1344.47 736.54C1349.32 737.295 1353.25 740.956 1357.59 748.781C1359.64 752.477 1362.38 756.784 1363.68 758.353C1367.09 762.472 1369.73 768.762 1371.95 778.036C1373.02 782.506 1374.31 786.689 1374.83 787.332C1375.35 787.974 1376.34 791.2 1377.04 794.5C1377.73 797.8 1379.53 802.525 1381.05 805C1382.56 807.475 1384.12 811.075 1384.52 813C1384.92 814.925 1386.09 818.17 1387.12 820.21C1388.15 822.251 1389 825.969 1389 828.473C1389 830.977 1389.9 836.273 1391 840.243C1392.1 844.212 1393 849.044 1393.01 850.98C1393.02 852.916 1393.95 858.1 1395.08 862.5C1396.21 866.9 1397.73 873.687 1398.45 877.582C1399.18 881.477 1400.52 886.101 1401.43 887.857C1402.33 889.613 1403.53 893.626 1404.09 896.775C1404.65 899.924 1406.38 906.55 1407.94 911.5C1409.5 916.45 1411.71 923.495 1412.85 927.155C1413.99 930.816 1416.29 935.967 1417.96 938.601C1419.63 941.236 1421 944.541 1421.01 945.946C1421.01 947.351 1421.68 952.922 1422.49 958.327C1423.65 966.024 1423.76 970.357 1422.98 978.327C1422.43 983.922 1421.55 993.851 1421.03 1000.39C1420.5 1006.93 1419.39 1014.35 1418.55 1016.89C1417.72 1019.43 1416.39 1024.66 1415.58 1028.52C1414.78 1032.39 1413.23 1037.62 1412.14 1040.16C1410.38 1044.27 1409.37 1045.18 1402.95 1048.39C1397.14 1051.29 1394.59 1052 1389.93 1052C1381.88 1052 1379.9 1050.99 1374.82 1044.31C1368.82 1036.42 1357.01 1013.03 1350.94 997C1350.21 995.075 1347.45 989.04 1344.81 983.589C1342.16 978.137 1340 972.88 1340 971.905C1340 970.931 1337.02 962.341 1333.39 952.817C1329.75 943.292 1326.44 933.925 1326.03 932C1324.35 924.1 1321.54 916.108 1318.12 909.5C1316.13 905.65 1312.98 899.256 1311.13 895.292C1306.41 885.168 1296.86 876.519 1282.45 869.304C1278.02 867.087 1272.62 864.166 1270.45 862.813C1268.28 861.461 1263.57 858.938 1259.98 857.207C1256.4 855.476 1251.67 852.213 1249.48 849.956C1247.29 847.699 1242.08 843.447 1237.9 840.507C1226.51 832.5 1220.87 825.291 1217.94 815C1217.24 812.525 1216.29 810.073 1215.83 809.55C1215.37 809.028 1215 804.922 1215 800.426C1215 791.852 1216.74 785.068 1219.85 781.528C1221.51 779.63 1222.94 776.471 1225.96 768C1226.65 766.075 1227.87 762.705 1228.68 760.51C1231.93 751.691 1227 740.06 1215.3 728.944L1207.66 721.686L1210.44 719.296C1211.97 717.981 1214.53 716.644 1216.13 716.324C1217.73 716.004 1219.28 715.35 1219.58 714.871C1219.87 714.392 1222.52 714 1225.45 714C1231.1 714 1240.87 718.088 1249.68 724.131C1251.98 725.709 1254.36 727 1254.97 727C1256.36 727 1274 744.606 1274 745.99C1274 746.546 1274.61 747 1275.35 747C1277.68 747 1294.09 766.063 1318.21 796.774C1320.25 799.373 1323.4 803.38 1325.21 805.678C1327.02 807.976 1329.52 811.351 1330.77 813.178C1332.01 815.005 1334.59 818.75 1336.49 821.5C1338.39 824.25 1340.68 828.075 1341.57 830C1342.46 831.925 1344.21 834.85 1345.45 836.5C1346.69 838.15 1348.44 840.927 1349.34 842.671C1350.23 844.415 1352.39 846.857 1354.14 848.098L1357.31 850.354L1356.59 847.504C1355.48 843.1 1347.46 827.331 1344.58 823.909C1343.16 822.225 1342 820.38 1342 819.809C1342 817.683 1332.41 803.26 1326.5 796.5C1323.13 792.65 1319.08 787.7 1317.48 785.5C1315.89 783.3 1312.31 779.023 1309.54 775.997C1306.77 772.97 1303.37 768.941 1302 767.044C1291.77 752.937 1271.79 732.309 1258.18 721.806C1241.72 709.113 1231.26 704.421 1224.69 706.795C1222.86 707.458 1219.32 708 1216.83 708C1213.58 708 1211.33 708.704 1208.9 710.484C1207.03 711.851 1203.65 713.832 1201.39 714.887C1195.66 717.565 1195.05 719.739 1199.79 720.595C1201.83 720.962 1203.95 721.538 1204.5 721.875C1206.14 722.877 1198.64 723.649 1196.93 722.655C1195.77 721.983 1193.71 722.898 1189.11 726.121C1185.68 728.529 1181.44 731.364 1179.69 732.42C1177.93 733.475 1174.51 735.93 1172.08 737.875C1169.65 739.819 1165.15 743.275 1162.08 745.554C1156.83 749.455 1149.33 755.903 1139 765.402C1136.52 767.679 1132.47 771.1 1130 773.006C1127.52 774.912 1124.95 776.928 1124.29 777.486C1117.45 783.192 1110.16 789.12 1103.62 794.282C1099.29 797.702 1093.21 802.631 1090.12 805.235C1087.03 807.84 1082.47 811.399 1080 813.145C1076.21 815.819 1068.06 822.867 1060.73 829.82C1052.91 837.23 1041.47 850.345 1039.46 854.214C1038.11 856.807 1036.2 859.358 1035.22 859.883C1034.24 860.408 1032.36 863.011 1031.04 865.669C1029.72 868.326 1027.98 870.989 1027.18 871.587C1025.32 872.975 1019 890.088 1018.15 896C1016.74 905.949 1017.53 962.284 1019.36 982.423C1020.36 993.381 1021.59 1003.42 1022.09 1004.74C1022.59 1006.05 1023 1008.65 1023 1010.5C1023 1012.35 1023.42 1014.97 1023.93 1016.3C1024.43 1017.64 1024.97 1028.14 1025.12 1039.62C1025.32 1055.4 1025.88 1063.07 1027.38 1071C1028.8 1078.47 1029.46 1086.7 1029.66 1099.5C1029.81 1109.4 1030.4 1122.45 1030.96 1128.5C1033.05 1150.79 1033.87 1162.89 1034.39 1179.24C1034.68 1188.45 1035.38 1196.84 1035.94 1197.89C1036.5 1198.93 1037.41 1203.82 1037.97 1208.76C1038.53 1213.69 1039.67 1219.35 1040.49 1221.33C1041.32 1223.31 1042.02 1226.64 1042.04 1228.72C1042.07 1230.8 1042.76 1234.3 1043.59 1236.5C1049.95 1253.49 1052.89 1262.71 1055.04 1272.5C1057.02 1281.5 1059.92 1301.03 1060.45 1309C1061.5 1324.86 1065.67 1354.96 1067.4 1359.2C1068.14 1361.01 1068.62 1363.31 1068.45 1364.31C1068.29 1365.31 1068.83 1366.38 1069.66 1366.7C1070.78 1367.13 1071.01 1368.15 1070.54 1370.63C1069.92 1373.95 1071.25 1378 1072.96 1378C1077.75 1378 1078.96 1366.2 1075.63 1352C1074.28 1346.22 1072.66 1337.22 1072.03 1332C1071.4 1326.77 1070.45 1319.57 1069.92 1316C1069.38 1312.42 1068.51 1304.84 1067.98 1299.16C1067.44 1293.47 1066.75 1288.41 1066.45 1287.91C1066.14 1287.42 1065.28 1282.4 1064.55 1276.76C1063.11 1265.76 1060.07 1254.05 1057.11 1248.15C1053.42 1240.8 1047.26 1218.08 1046.35 1208.51C1046.04 1205.21 1045.11 1200.47 1044.3 1198C1043.37 1195.17 1042.48 1186.09 1041.9 1173.5C1041.4 1162.5 1040.54 1150.35 1040.01 1146.5C1038 1132.1 1036.92 1116.93 1036.55 1098C1036.35 1087.27 1035.68 1075.35 1035.06 1071.5C1034.44 1067.65 1033.48 1055.72 1032.93 1045C1031.95 1026.06 1030.47 1012.03 1027.5 993.5C1023.81 970.439 1022.07 903.586 1024.9 893.5C1025.68 890.75 1026.7 887.995 1027.17 887.379C1027.64 886.762 1028.71 883.983 1029.53 881.203C1030.36 878.424 1032.49 874.381 1034.27 872.22C1036.04 870.059 1038.85 866.386 1040.5 864.059C1053.57 845.62 1064.82 833.851 1084.19 818.349C1090.62 813.202 1096.15 808.565 1096.47 808.045C1096.79 807.526 1099.82 804.996 1103.21 802.423C1106.59 799.851 1110 797.241 1110.79 796.623C1111.59 796.005 1114.99 792.95 1118.37 789.833C1121.74 786.716 1126.46 783.054 1128.85 781.695C1131.25 780.335 1137.99 774.561 1143.83 768.862C1149.68 763.164 1156.72 756.848 1159.48 754.827C1162.24 752.805 1166.07 749.972 1168 748.53C1172.78 744.946 1178 741.375 1181 739.633C1182.37 738.834 1185.74 736.115 1188.48 733.59C1193.94 728.55 1194.03 728.528 1202.57 730.076C1207.44 730.96 1209.27 731.9 1212.8 735.326C1222.2 744.455 1224.3 751.839 1220.59 762.741C1219.27 766.606 1217.5 770.837 1216.64 772.144C1215.78 773.451 1213.67 777.89 1211.95 782.01C1206.33 795.453 1206.85 809.471 1213.52 824.5C1215.89 829.836 1230.86 845.342 1236.5 848.299C1238.15 849.165 1241.88 852.152 1244.8 854.937C1247.72 857.722 1250.49 860 1250.97 860C1251.45 860 1253.12 861.043 1254.67 862.317C1256.23 863.592 1259.07 865.249 1261 866.001C1262.92 866.753 1267.11 869.115 1270.29 871.251C1273.48 873.387 1277.53 875.634 1279.29 876.244C1281.06 876.854 1283.81 878.149 1285.42 879.121C1289.31 881.471 1306 898.021 1306 899.525C1306 900.174 1308.4 905.835 1311.33 912.103C1314.27 918.371 1317.44 926.425 1318.39 930C1320.36 937.418 1323.04 944.712 1327.15 953.82C1328.71 957.296 1330 960.564 1330 961.083C1330 961.602 1330.44 962.809 1330.97 963.764C1331.5 964.719 1332.9 969.1 1334.08 973.5C1335.25 977.9 1338.19 985.661 1340.61 990.746C1343.02 995.832 1345 1000.34 1345 1000.76C1345 1002.61 1356.82 1028.08 1359.96 1033C1360.49 1033.82 1362.11 1037.11 1363.56 1040.3C1365.01 1043.49 1366.71 1045.92 1367.35 1045.69C1367.98 1045.46 1369.91 1047.47 1371.63 1050.15C1376.29 1057.4 1380.43 1059.82 1388.69 1060.08C1396.67 1060.33 1403.08 1058.36 1409.88 1053.59C1420.63 1046.04 1424.55 1033.67 1428.6 994.5C1430.57 975.449 1430.68 972.108 1429.78 959.983C1428.92 948.415 1426.62 939.077 1423.07 932.768C1419.6 926.593 1413.98 909.055 1411.63 897.075C1410.73 892.442 1408.86 886.2 1407.49 883.205C1406.12 880.209 1405 876.605 1405 875.195C1405 873.785 1404.34 870.127 1403.53 867.066C1399.3 850.989 1397 840.825 1397 838.215C1397 836.611 1395.7 830.844 1394.12 825.399C1392.53 819.955 1390.66 813.034 1389.96 810.019C1389.27 807.005 1387.42 801.83 1385.85 798.519C1384.28 795.209 1383 791.375 1382.99 790C1382.98 788.625 1381.87 785.25 1380.52 782.5C1379.17 779.75 1378.05 775.981 1378.03 774.125C1377.95 765.417 1361.5 738.098 1352.1 731.057C1348.43 728.31 1346.35 727.529 1341.83 727.192C1337.25 726.852 1335.64 726.236 1333.51 724.009C1330.91 721.294 1330.88 721.119 1331.89 713.873C1332.8 707.372 1332.72 706.311 1331.21 704.904C1328.1 701.997 1310.3 696.652 1294.7 693.937C1287.73 692.726 1282.55 689.518 1277.8 683.472C1276.73 682.112 1275.38 681 1274.81 681C1274.23 681 1271 679.317 1267.63 677.26C1258.01 671.392 1252.99 669.382 1246.19 668.675C1229.96 666.986 1216.71 674.808 1190.96 701.276C1179.97 712.562 1178.31 714.868 1176.36 721.44C1175.65 723.854 1173.79 725.253 1166 729.262C1160.77 731.947 1155.82 734.711 1155 735.404C1154.17 736.097 1151.25 737.816 1148.5 739.224C1134.67 746.302 1131.19 748.662 1126 754.483C1122.97 757.875 1117.16 763.091 1113.08 766.075C1109.01 769.059 1103.15 773.563 1100.08 776.084C1097 778.604 1092.69 781.825 1090.49 783.24C1088.3 784.656 1085.01 787.206 1083.19 788.907C1081.37 790.608 1079.55 792 1079.16 792C1078.76 792 1075.3 795.023 1071.47 798.718C1064.81 805.141 1059.76 809.295 1049.27 817C1042.83 821.729 1027.6 837.336 1023.41 843.5C1020.11 848.355 1013.44 856 1012.51 856C1011.48 856 1009.11 850.089 1007.5 843.5C1006.56 839.65 1004.98 835.086 1003.99 833.357C1003 831.628 1001.23 827.128 1000.05 823.357C997.822 816.25 996.807 813.267 994.321 806.529C993.516 804.344 991.965 797.594 990.876 791.529C989.788 785.463 988.283 778.25 987.533 775.5C986.782 772.75 985.896 763.75 985.562 755.5C985.229 747.25 984.755 738.475 984.51 736C983.911 729.97 985.76 710.757 987.556 704.346C988.349 701.511 988.999 697.976 988.999 696.489C988.999 695.002 991.109 688.996 993.689 683.142C997.859 673.678 1000.52 669.147 1011.19 653.366C1014.39 648.629 1037.04 626.096 1044.5 620.225C1047.25 618.061 1050.35 615.334 1051.39 614.166C1052.42 612.998 1055.75 611.115 1058.78 609.982C1061.8 608.849 1067.59 606.309 1071.63 604.337C1077.44 601.507 1080.94 600.544 1088.24 599.767C1093.33 599.226 1098.79 598.12 1100.36 597.31C1104.13 595.366 1114.49 594.856 1124.94 596.1C1135.53 597.359 1148.93 596.349 1149.74 594.231C1150.06 593.408 1149.82 591.94 1149.21 590.968C1148.21 589.37 1148.99 589.002 1157.3 587.127C1169.35 584.412 1186.26 583.714 1191.58 585.712C1193.73 586.522 1197.52 587.783 1200 588.514C1202.47 589.245 1207.2 590.945 1210.5 592.292C1213.8 593.638 1218.93 595.048 1221.89 595.424C1224.86 595.8 1229.01 596.985 1231.11 598.058C1233.22 599.132 1237.54 600.686 1240.72 601.513C1243.9 602.339 1248.02 603.738 1249.89 604.62C1251.75 605.503 1255.92 606.406 1259.15 606.627C1262.39 606.848 1266.71 607.655 1268.77 608.419C1273.94 610.343 1283.07 611.861 1292.21 612.313C1298.65 612.632 1299.97 612.433 1300.26 611.097C1300.45 610.188 1301.17 611.17 1301.92 613.379C1303.32 617.49 1304.66 619.43 1309.52 624.408C1311.19 626.108 1313.44 628.653 1314.52 630.061C1315.61 631.47 1318.97 634.756 1322 637.363C1325.02 639.97 1328.98 643.409 1330.79 645.005C1336.03 649.625 1348.08 655.812 1358.11 659.036C1363.2 660.672 1368.46 662.729 1369.8 663.607C1371.14 664.485 1374.33 665.945 1376.88 666.852C1385.21 669.815 1400 678.313 1405.81 683.475C1411.49 688.521 1415.94 691.677 1423.5 696.015C1425.7 697.278 1429.07 699.755 1431 701.52C1435.3 705.462 1442.06 710 1443.63 710C1444.27 710 1448.18 712.309 1452.31 715.132C1457.47 718.654 1460.86 721.869 1463.11 725.382C1469.91 736.02 1474.09 740.989 1492.32 760.147C1496.62 764.666 1500.82 769.68 1501.65 771.29C1503.34 774.561 1510.79 784.867 1514.25 788.724C1515.48 790.106 1517.95 792.766 1519.73 794.634C1523.03 798.103 1525.3 801.779 1527.99 808C1528.82 809.925 1532.42 816.361 1536 822.301C1544.67 836.708 1544.47 836.316 1550.03 850C1553.6 858.807 1568.9 889.82 1570 890.503C1570.56 890.846 1573.74 896.599 1577.06 903.288C1581.58 912.377 1583.33 917.099 1583.96 921.975C1584.98 929.8 1587.57 935.808 1594.39 946.232C1605.19 962.729 1607.07 965.967 1609.94 973.018C1613.47 981.688 1619 990.191 1629.35 1002.84C1633.56 1007.98 1637 1012.56 1637 1013.01C1637 1015.02 1647.73 1031 1652.44 1036C1655.28 1039.02 1658.53 1043.52 1659.65 1046C1660.76 1048.47 1662.76 1052.94 1664.09 1055.92C1665.41 1058.91 1667.96 1063.4 1669.75 1065.92C1671.54 1068.43 1673 1070.88 1673 1071.35C1673 1071.82 1674.12 1073.55 1675.5 1075.18C1676.87 1076.82 1678 1078.82 1678 1079.63C1678 1080.44 1679.85 1084.64 1682.11 1088.97C1687.16 1098.65 1689.74 1100.21 1695.64 1097.15C1702.82 1093.44 1702.97 1093.19 1704.07 1083.32C1704.63 1078.27 1706.16 1069.95 1707.47 1064.82C1714.15 1038.61 1714.78 1035.53 1716.33 1021.35C1717.04 1014.81 1717.25 1006.96 1716.84 1002.35C1715.77 990.501 1714.27 978.143 1713.15 972C1711.09 960.783 1691.82 919.724 1681.7 905C1680 902.525 1676.56 897.525 1674.05 893.889C1671.55 890.253 1667.53 884.403 1665.12 880.889C1662.72 877.375 1659.77 873.375 1658.56 872C1656.13 869.223 1656.53 869.792 1643.86 851C1633.97 836.327 1627 825.201 1627 824.096C1627 823.712 1622.61 819.083 1617.25 813.81C1611.89 808.537 1605.7 802.443 1603.5 800.266C1595.78 792.628 1582.66 769.615 1581.46 761.589C1580.94 758.11 1581.17 756.381 1582.43 754.46C1585.01 750.526 1583.12 739.17 1578.53 731.055C1576.59 727.619 1575 724.616 1575 724.382C1575 723.363 1569.06 714.837 1562.88 707C1553.23 694.747 1539.01 681.383 1527.5 673.738C1522 670.086 1515.74 665.839 1513.59 664.299C1503.15 656.819 1495.37 652.707 1490.75 652.233C1486.67 651.814 1486 651.998 1486 653.539C1486 658.08 1485.09 653.377 1483.57 641C1482.66 633.575 1481.5 625.025 1481 622C1480.5 618.975 1479.59 611.55 1478.97 605.5C1478.34 599.45 1477.03 590.9 1476.05 586.5C1475.07 582.1 1473.72 574.225 1473.06 569C1471.64 557.857 1468.28 547.254 1463.07 537.5C1458.35 528.654 1448.28 511.041 1444.22 504.5C1442.51 501.75 1439.68 497.094 1437.93 494.154C1436.18 491.214 1432.01 485.364 1428.66 481.154C1425.31 476.944 1419.98 469.584 1416.81 464.798C1410.93 455.908 1393.33 436.529 1382.89 427.439C1379.7 424.655 1376.21 421.267 1375.14 419.911C1374.08 418.554 1370.35 416.003 1366.85 414.242C1363.36 412.48 1358.02 409.002 1355 406.511C1348.41 401.083 1335.31 393.321 1331.35 392.491C1329.78 392.163 1326.7 391.08 1324.5 390.083C1322.3 389.086 1318.92 387.564 1317 386.699C1315.07 385.835 1312.05 384.842 1310.28 384.492C1308.51 384.142 1305.59 382.851 1303.78 381.624C1301.97 380.396 1297.34 378.376 1293.49 377.135C1289.65 375.893 1283.79 374.001 1280.47 372.93C1272.12 370.227 1253.06 368.54 1246 369.877C1242.97 370.45 1239.37 371.115 1238 371.355C1236.62 371.595 1230.55 373.581 1224.5 375.768C1206.32 382.34 1200.7 383.962 1193.94 384.579C1190.4 384.902 1184.5 385.856 1180.83 386.699C1175.21 387.99 1172.58 388.046 1164.07 387.057C1158.52 386.411 1149.65 385.874 1144.37 385.863C1139.09 385.853 1132.54 385.492 1129.82 385.061C1122.57 383.915 1118.5 384.98 1118.48 388.035C1118.45 391.276 1116.32 391.58 1108.48 389.458C1099.14 386.928 1083.07 387.8 1073 391.383C1065.88 393.916 1062.38 396.073 1049.89 405.613C1042.16 411.516 1027.97 425.977 1026.45 429.5C1025.74 431.15 1024.32 433.4 1023.3 434.5C1015.37 443.061 1007.58 452.777 1005.05 457.25C1001.84 462.941 995.224 470.205 996.628 466.498C997.044 465.399 998.147 463.15 999.078 461.5C1000.01 459.85 1002.19 454.662 1003.93 449.97C1006.16 443.978 1008.59 439.665 1012.12 435.47C1026.53 418.354 1029.56 415.263 1067.9 378.5C1087.41 359.796 1121.11 326.762 1123.09 324.396C1125.68 321.299 1134.97 312.862 1143 306.316C1147.12 302.951 1152.28 298.353 1154.45 296.099C1157.89 292.53 1158.97 292 1162.77 292C1166.76 292 1167.08 291.82 1166.46 289.875C1165.63 287.249 1167.32 286.036 1171.84 286.015C1173.68 286.007 1176.33 285.1 1177.73 284C1179.13 282.9 1181.08 282 1182.08 282C1183.07 282 1184.12 281.614 1184.41 281.143C1184.89 280.363 1187.32 279.791 1202.3 276.92C1204.94 276.414 1208.36 275.349 1209.9 274.553C1211.43 273.758 1213.55 273.327 1214.6 273.595C1215.64 273.864 1219.2 273.15 1222.5 272.009C1225.8 270.868 1232.71 269.498 1237.85 268.964C1242.99 268.431 1247.6 267.746 1248.09 267.443C1249.42 266.621 1258.13 266.002 1282 265.034C1318.92 263.537 1327.37 262.908 1331.81 261.324C1336.27 259.733 1339.14 260.247 1334.89 261.878C1332.68 262.731 1332.64 262.856 1334.39 263.562C1335.7 264.088 1336.69 263.773 1337.59 262.549C1338.74 260.967 1341.85 260.67 1366.19 259.825C1398.7 258.695 1414.67 258.589 1433.5 259.378C1441.2 259.701 1453.8 260.232 1461.5 260.559C1469.2 260.885 1482.02 261.994 1490 263.022C1497.97 264.051 1508.1 265.17 1512.5 265.509C1520.75 266.146 1536.78 268.903 1547.75 271.573C1551.19 272.41 1559.07 273.731 1565.25 274.508C1579.83 276.34 1585.33 277.47 1591.76 279.962C1594.65 281.083 1598.78 282 1600.92 282C1606.82 282 1621.88 288.134 1637 296.697C1648.57 303.25 1656.46 307.295 1663.75 310.404C1668.29 312.341 1672.99 314.843 1674.19 315.963L1676.38 318H1672.78C1669.98 318 1668.6 318.69 1666.58 321.085C1664.24 323.863 1663.92 326 1665.83 326C1666.22 326 1668.98 324.397 1671.95 322.437C1676.08 319.722 1677.97 319.031 1679.93 319.532C1681.34 319.893 1683.89 320.367 1685.6 320.585C1687.3 320.803 1690.62 321.66 1692.97 322.491C1701.51 325.504 1709.25 323.5 1710.35 317.988C1712.01 309.712 1711.6 308.823 1702.25 300.36C1692.03 291.106 1688.95 289 1685.66 289C1684.33 289 1682.7 288.347 1682.04 287.55C1678.83 283.676 1628.93 257.284 1618 253.673C1615.52 252.856 1609.59 250.345 1604.81 248.093C1600.03 245.842 1595.71 244 1595.21 244C1594.7 244 1588.94 241.468 1582.4 238.374C1575.85 235.28 1567.57 231.648 1564 230.303C1557.23 227.758 1550.63 224.893 1545.5 222.281C1543.85 221.44 1538.72 218.797 1534.1 216.407C1529.49 214.017 1521.84 210.664 1517.1 208.955C1512.37 207.246 1506.92 205.021 1505 204.011C1495.54 199.046 1491.55 197.508 1480 194.376C1473.12 192.511 1465.25 190.507 1462.5 189.921C1459.75 189.335 1455.92 188.404 1454 187.853C1452.07 187.301 1445.52 186.503 1439.43 186.08C1428.73 185.336 1428.01 185.134 1418.22 180.16C1412.64 177.327 1405.29 173.207 1401.89 171.005C1398.48 168.802 1395.14 167 1394.46 167C1393.78 167 1388.87 165.186 1383.55 162.97C1378.22 160.753 1371.53 158.326 1368.68 157.576C1365.83 156.826 1361.7 155.507 1359.5 154.644C1357.3 153.781 1350.55 152.271 1344.5 151.288C1330.9 149.078 1300.34 149.244 1295.64 151.552C1293.53 152.586 1292.26 152.677 1290.81 151.898C1289.3 151.09 1288.42 151.214 1287.09 152.42C1286.13 153.289 1284.91 154 1284.39 154C1283.86 154 1280.97 151.497 1277.96 148.437C1274.96 145.377 1269.12 140.323 1265 137.206C1260.87 134.089 1253.22 127.391 1248 122.322C1236.59 111.25 1231.31 107 1228.99 107C1228.03 107 1223.48 105.49 1218.88 103.645C1212.97 101.282 1208.14 100.106 1202.5 99.6639C1195.28 99.0979 1193.68 99.326 1186.06 102.014C1181.42 103.651 1177.37 105.407 1177.05 105.916C1176.74 106.425 1175.13 107.177 1173.49 107.587C1169.99 108.461 1164.12 111.481 1158.52 115.291C1156.33 116.781 1154.08 118.001 1153.52 118.002C1152.96 118.003 1149.96 120.365 1146.85 123.252C1140.69 128.986 1138.65 133.19 1135.05 147.606C1133.94 152.064 1132.36 157.011 1131.53 158.6C1130.71 160.188 1129.5 163.868 1128.85 166.777C1128.2 169.687 1127.31 171.706 1126.86 171.264C1126.05 170.453 1124.79 156.364 1122.99 128C1122.45 119.475 1121.51 106.307 1120.9 98.7371C1119.38 79.8261 1121.63 57.743 1127.97 29.5C1131.58 13.433 1132.11 10.0381 1131.8 5.23206C1131.44 -0.424939 1130.14 -0.895048 1122.37 1.81995ZM1124.42 8.87098C1124.72 9.34898 1124.26 12.387 1123.4 15.621C1118.51 34.095 1116.89 41.75 1115.47 53C1112.3 78.173 1111.91 84.273 1112.94 92.5C1113.49 96.9 1114.66 113.55 1115.53 129.5C1116.4 145.45 1117.52 160.3 1118.01 162.5C1118.49 164.7 1119.42 169.565 1120.07 173.31L1121.25 180.121L1117.49 185.574C1112.88 192.267 1106.08 199.194 1104.6 198.701C1102.82 198.106 1102.12 191.472 1102.06 174.586C1102.02 163.544 1102.52 155.96 1103.7 149.813C1105.19 142.011 1105.25 139.351 1104.18 127.539C1103.52 120.162 1102.13 111.285 1101.09 107.813C1100.06 104.341 1098.91 100.193 1098.55 98.596C1097.49 93.973 1092.48 87.507 1085.99 82.415C1079 76.923 1078.61 75.18 1082.49 66.849C1083.86 63.907 1084.99 59.925 1085 58C1085.02 54.084 1088.26 46.545 1093.29 38.713C1095.13 35.846 1097.88 31.532 1099.41 29.126C1103.2 23.169 1113.69 13.226 1116.95 12.511C1118.41 12.189 1120.25 11.043 1121.03 9.96302C1122.56 7.83502 1123.58 7.50698 1124.42 8.87098ZM716.458 25.907C720.835 26.599 725.647 27.801 727.152 28.579C729.173 29.624 730.577 29.7311 732.532 28.9871C734.451 28.2581 736.322 28.3671 739.338 29.3831C743.829 30.8951 754.512 32.347 773.499 34.023C780.099 34.606 787.67 35.514 790.324 36.041C792.978 36.568 796.844 36.729 798.914 36.398C803.558 35.655 808.703 38.0711 814.892 43.8991C817.278 46.1471 820.866 48.433 822.865 48.98C824.864 49.528 828.063 50.936 829.974 52.11L833.45 54.245L829.474 57.644C825.307 61.208 812.325 70.079 805.499 74.026C803.299 75.298 798.799 79.017 795.499 82.29C792.199 85.562 786.761 90.198 783.414 92.59C780.067 94.983 775.151 99.2681 772.491 102.112C769.83 104.957 766.001 108.458 763.983 109.892C756.567 115.161 749.127 120.984 748.488 122.018C748.126 122.603 745.956 124.25 743.665 125.678C741.374 127.107 738.824 128.901 737.999 129.667C737.174 130.432 735.117 132.283 733.427 133.779C731.738 135.276 727.798 138.862 724.672 141.75C720.339 145.752 718.245 147 715.861 147C714.142 147 711.33 147.868 709.614 148.929C707.897 149.99 702.219 151.747 696.996 152.834C691.773 153.921 683.449 155.715 678.499 156.821C671.118 158.469 664.259 158.942 640.363 159.452C624.339 159.794 609.714 160.549 607.863 161.13C604.276 162.257 574.405 164.161 556.999 164.372C550.403 164.453 545.366 164.021 543.452 163.213C539.155 161.398 504.619 161.004 502.859 162.75C500.99 164.604 494.436 164.265 490.209 162.096C488.169 161.049 484.052 157.224 481.061 153.596C478.069 149.968 475.294 147 474.892 147C474.491 147 473.209 145.457 472.043 143.572C468.902 138.489 470.926 130.819 476.537 126.539C478.367 125.143 480.181 122.989 480.568 121.751C480.956 120.513 482.337 118.227 483.637 116.672C486.184 113.625 495.308 107 496.957 107C497.511 107 500.064 104.988 502.631 102.528C505.198 100.069 508.918 97.529 510.898 96.884C515.849 95.271 521.327 91.352 528.999 83.934C532.574 80.478 537.444 75.816 539.821 73.575C542.199 71.334 544.941 67.775 545.915 65.666C547.481 62.275 549.292 60.968 561.592 54.356C569.241 50.244 579.549 45.265 584.499 43.291C589.449 41.318 594.399 39.154 595.499 38.485C596.599 37.815 601.324 36.255 605.999 35.019C610.674 33.783 615.501 32.387 616.726 31.918C617.951 31.448 622.901 30.564 627.726 29.954C632.551 29.343 638.074 28.396 639.999 27.849C641.924 27.302 652.274 26.607 662.999 26.306C673.724 26.004 683.078 25.448 683.785 25.069C685.838 23.969 707.751 24.531 716.458 25.907ZM1021.16 32.837C1024.65 34.397 1028.82 36.001 1030.43 36.402C1032.23 36.849 1037.69 41.3499 1044.57 48.0649C1050.73 54.0789 1056.38 59.002 1057.13 59.004C1057.88 59.006 1060.04 61.994 1061.93 65.645C1065.09 71.743 1073.05 80.538 1087.68 94.094C1090.1 96.328 1091.13 98.429 1091.96 102.771C1092.56 105.922 1093.73 110.728 1094.56 113.451C1096.77 120.756 1097.57 144.424 1095.78 149.5C1093.75 155.269 1094.26 187.429 1096.53 196.493C1098.57 204.616 1098.04 206.778 1093.18 210.11C1090.69 211.81 1088.45 214.651 1086.74 218.262C1084.35 223.318 1080.33 227.661 1079.14 226.473C1078.87 226.209 1079.59 224.981 1080.73 223.746C1083.69 220.554 1086.18 211.384 1085.44 206.43C1084.92 202.999 1085.23 201.876 1087.41 199.285C1090.75 195.322 1090.78 193.588 1087.5 194.411C1085.15 195.001 1085 194.802 1085 191.084C1085 188.909 1084.56 185.967 1084.02 184.544C1083.47 183.122 1081.93 175.447 1080.58 167.489C1079.23 159.53 1077.9 152.652 1077.62 152.204C1077.35 151.757 1075.94 146.248 1074.49 139.963C1073.04 133.678 1071.49 128.078 1071.04 127.518C1070.58 126.958 1067.94 120.425 1065.17 113C1060.19 99.709 1053.15 85.904 1047.75 78.887C1046.24 76.92 1045 74.935 1045 74.475C1045 73.271 1036.89 61 1036.1 61C1035.73 61 1034.58 59.566 1033.55 57.814C1031.75 54.771 1029.84 52.587 1016.75 38.665C1008.08 29.445 1009.47 27.61 1021.16 32.837ZM728.499 78.046C725.749 78.474 720.541 78.864 716.925 78.912C708.66 79.023 692.4 81.761 688.691 83.668C687.146 84.462 681.296 86.604 675.691 88.427C670.085 90.251 663.924 92.658 661.999 93.776C660.074 94.895 656.474 96.1221 653.999 96.5031C651.524 96.8841 644.324 99.355 637.999 101.994C624.646 107.565 621.513 108.466 609.999 110.042C600.72 111.312 593.022 113.152 577.119 117.901C570.183 119.972 564.542 121.011 560.119 121.033C556.478 121.051 550.349 121.502 546.499 122.036C542.649 122.57 536.093 123.426 531.93 123.939C519.572 125.461 518.842 125.766 519.195 129.271C519.639 133.692 522.252 134.949 526.248 132.665C529.891 130.582 549.716 127.025 557.999 126.968C564.034 126.926 568.595 125.997 589.499 120.549C597.199 118.542 607.711 116.262 612.858 115.483C619.412 114.491 626.306 112.441 635.858 108.643C643.361 105.661 653.774 101.843 658.999 100.159C671.407 96.1591 677.854 93.816 686.999 89.981C702.219 83.598 705.388 83.178 739.26 83.047C756.179 82.982 770.711 82.664 771.553 82.341C774.234 81.3119 772.518 79.636 767.432 78.317C762.024 76.915 736.883 76.74 728.499 78.046ZM1215 109.55C1218.02 110.849 1222.52 112.419 1225 113.04C1228.77 113.986 1231.61 116.219 1242.57 126.835C1249.76 133.801 1257.84 141.075 1260.52 143C1263.2 144.925 1268.11 148.981 1271.44 152.014C1279.55 159.4 1285.04 163.561 1287.84 164.449C1289.3 164.912 1290.86 166.85 1292.09 169.709C1293.16 172.199 1295.2 175.153 1296.62 176.275C1302.34 180.773 1307.05 188.002 1309.9 196.668C1310.68 199.052 1312.03 201.037 1313.06 201.305C1314.04 201.563 1316.06 204.187 1317.54 207.137C1319.02 210.087 1321.79 214.412 1323.68 216.75C1327.61 221.591 1326.39 222.314 1321.14 218.25C1319.18 216.737 1316.13 214.6 1314.35 213.5C1312.58 212.4 1308.21 209.409 1304.66 206.853C1301.11 204.297 1293.32 199.635 1287.35 196.492C1281.39 193.35 1274.83 189.447 1272.77 187.82C1267.64 183.76 1250.52 176.217 1243.38 174.874C1231.42 172.626 1216.95 174.728 1204.35 180.545C1202.62 181.345 1200.69 182 1200.06 182C1199.44 182 1197.79 182.747 1196.39 183.661C1192.94 185.924 1188.81 188.178 1180.3 192.437C1176.34 194.42 1171.8 197.141 1170.2 198.484C1168.6 199.827 1165.01 202.643 1162.22 204.741C1153.78 211.086 1144.01 219.965 1134 230.405C1128.77 235.853 1121 243.878 1116.72 248.239C1111.68 253.376 1107.75 258.517 1105.56 262.835C1103.7 266.501 1098.79 274.04 1094.64 279.589C1089.74 286.149 1086.01 292.446 1083.97 297.589C1082.25 301.94 1079.99 306.879 1078.95 308.563C1077.92 310.248 1075.79 314.748 1074.23 318.563C1072.67 322.379 1069.06 329.016 1066.2 333.314C1063.35 337.612 1059.82 344.137 1058.35 347.814C1056.89 351.491 1054.87 355.573 1053.85 356.885C1052.83 358.197 1052 359.85 1052 360.558C1052 361.267 1050.44 363.888 1048.54 366.383C1046.63 368.879 1043.95 373.076 1042.58 375.71C1041.18 378.385 1037.67 382.487 1034.64 385C1031.64 387.475 1027.69 391.829 1025.86 394.676C1024.02 397.522 1021.29 400.578 1019.79 401.467C1018.28 402.355 1015.46 405.936 1013.51 409.423C1011.55 412.911 1008.23 417.73 1006.13 420.132C1001.95 424.886 998.999 429.999 998.999 432.464C998.999 434.034 997.472 437.205 995.371 440C994.751 440.825 993.941 443.606 993.571 446.18C993.2 448.753 992.121 451.903 991.171 453.18C988.761 456.418 986.841 462.424 987.591 464.379C987.936 465.279 987.486 467.134 986.59 468.501C985.546 470.095 985.026 472.792 985.14 476.022C985.289 480.237 984.889 481.506 982.683 483.808C981.233 485.322 979.441 488.31 978.7 490.449L977.354 494.338L976.234 489.919C975.619 487.489 974.614 478.75 974.002 470.5C973.074 457.999 973.137 454.08 974.381 446.98C975.749 439.168 978.307 431.416 981.107 426.59C982.487 424.212 989.518 403.661 990.466 399.231C990.851 397.433 994.044 392.309 997.562 387.845C1001.08 383.38 1004.86 377.323 1005.96 374.384C1007.73 369.648 1012.8 361.353 1016.61 356.95C1017.34 356.098 1018.65 353.42 1019.5 351C1020.35 348.58 1021.68 345.902 1022.44 345.05C1023.21 344.197 1024.61 341.475 1025.56 339C1026.52 336.525 1028.96 332.25 1030.98 329.5C1033.89 325.567 1034.82 323.22 1035.35 318.5C1035.72 315.2 1036.67 310.475 1037.45 308C1038.23 305.525 1039.36 301.608 1039.96 299.295C1040.56 296.982 1042.14 293.794 1043.48 292.21C1044.81 290.626 1047.52 285.779 1049.49 281.439C1051.85 276.281 1054.34 272.523 1056.68 270.588C1060 267.857 1065 258.817 1065 255.56C1065 254.8 1066.24 253.114 1067.75 251.815C1071.2 248.851 1078 240.048 1078 238.548C1078 237.93 1080.24 235.219 1082.98 232.523C1085.71 229.827 1089.19 225.175 1090.7 222.185C1092.22 219.195 1094.59 216.018 1095.98 215.124C1099.63 212.771 1117.95 194.531 1123.79 187.426C1129.13 180.92 1132.98 174.194 1133.02 171.29C1133.04 170.305 1134.19 166.8 1135.58 163.5C1136.98 160.2 1139.21 153.224 1140.53 147.998C1143.57 136.036 1145.98 131.232 1150.74 127.726C1152.81 126.2 1156.93 123.1 1159.9 120.836C1165.31 116.706 1169.07 114.997 1183 110.322C1187.12 108.937 1191.17 107.392 1192 106.887C1194.58 105.31 1209.02 106.982 1215 109.55ZM514.019 133.476C513.003 134.7 513.083 135.095 514.454 135.621C516.791 136.518 518.476 134.64 516.674 133.145C515.58 132.237 514.986 132.311 514.019 133.476ZM1318.64 158.5C1319.38 160.448 1321.41 160.414 1323.06 158.425C1324.1 157.18 1325.74 156.955 1330.93 157.35C1346.07 158.502 1368.55 163.925 1378.5 168.826C1380.7 169.909 1384.52 171.338 1386.98 171.999C1392.63 173.516 1400.18 177.311 1402.06 179.579C1403.46 181.264 1422.98 191 1424.96 191C1425.51 191 1426.69 192.122 1427.59 193.494C1429.02 195.683 1429.71 195.911 1433.18 195.356C1436.34 194.849 1437.73 195.167 1440.14 196.945C1441.79 198.167 1447.27 200.644 1452.32 202.449C1457.37 204.255 1465.91 207.367 1471.3 209.366C1476.69 211.365 1482.09 213.003 1483.3 213.007C1488.48 213.022 1478.85 217.103 1456.61 224.323C1426 234.261 1420.66 235.8 1410.82 237.532C1399.47 239.531 1392.88 239.376 1382.94 236.878C1373.51 234.507 1368.17 232.089 1363.02 227.858C1361.11 226.286 1359.08 224.983 1358.52 224.963C1354.77 224.827 1335 201.425 1335 197.126C1335 195.724 1330.4 188.172 1328.81 186.98C1328.43 186.693 1327.68 185.281 1327.13 183.842C1325.94 180.721 1317.29 175.557 1311.53 174.534C1309.35 174.146 1306.38 173.216 1304.94 172.467C1302.26 171.082 1293 161.257 1293 159.799C1293 158.662 1296.49 158.811 1299.24 160.065C1301.07 160.899 1302.66 160.694 1306.54 159.12C1312.56 156.679 1317.83 156.409 1318.64 158.5ZM1245.32 183.567C1248.11 183.961 1251.31 185.234 1252.92 186.586C1254.45 187.872 1257.86 189.41 1260.51 190.003C1263.23 190.611 1266.79 192.367 1268.68 194.022C1272.52 197.396 1275.69 199.189 1285.5 203.536C1289.35 205.242 1295.74 209.082 1299.7 212.069C1303.66 215.056 1310.39 219.975 1314.65 223C1326.16 231.168 1329 233.871 1329 236.635C1329 239.442 1331.39 240.753 1333.42 239.063C1335.3 237.505 1336.35 239.253 1336.19 243.657C1336.12 245.496 1336.5 247 1337.03 247C1337.56 247 1338.01 246.438 1338.03 245.75C1338.07 243.995 1339.57 246.836 1340.36 250.172L1341 252.843L1333.02 252.896C1327.7 252.93 1321.83 252.132 1315.38 250.495C1306.23 248.173 1305.39 247.731 1299.61 242.201C1295.66 238.43 1290.97 235.2 1286.37 233.088C1280.49 230.39 1277.54 228.061 1269.51 219.806C1263.37 213.495 1258.62 209.464 1256.65 208.9C1252.97 207.844 1236.39 209.23 1227.29 211.353C1223.88 212.15 1219.76 213.747 1218.14 214.901C1216.52 216.056 1214.83 217 1214.4 217C1213.96 217 1212.01 218.048 1210.05 219.33C1208.1 220.611 1203.35 223.718 1199.5 226.235C1188.71 233.29 1181.43 239.885 1147.32 273.5C1126.16 294.351 1118.25 301.732 1115.28 303.402C1111.94 305.282 1103.85 312.105 1095 320.505C1090.32 324.941 1084.44 329.985 1081.92 331.715C1077.08 335.038 1072.74 340.066 1071.6 343.658C1070.79 346.246 1068 347.621 1068 345.436C1068 342.936 1070.82 336.982 1074.32 332.108C1076.14 329.573 1078.13 326.15 1078.75 324.5C1081.8 316.309 1086.13 306.897 1089.34 301.5C1091.3 298.2 1093.88 293.7 1095.08 291.5C1096.28 289.3 1100.35 283.097 1104.13 277.716C1107.91 272.334 1111 267.731 1111 267.485C1111 265.331 1119.74 254.622 1128.35 246.232C1134.15 240.585 1139.86 234.601 1141.05 232.934C1143.53 229.446 1160.8 213.842 1166 210.392C1167.92 209.114 1171.3 206.748 1173.5 205.134C1177.97 201.855 1200.47 190 1202.22 190C1202.84 190 1206.28 188.824 1209.87 187.387C1215.95 184.956 1235.26 181.757 1239 182.562C1239.82 182.74 1242.67 183.193 1245.32 183.567ZM1316.05 185.37C1317.95 187.223 1320.11 189.504 1320.85 190.438C1321.6 191.371 1322.83 191.894 1323.6 191.599C1324.37 191.304 1325 191.451 1325 191.924C1325 193.038 1322.46 194 1319.52 194C1317.17 194 1313.37 189.156 1311.86 184.25C1310.91 181.133 1312.03 181.432 1316.05 185.37ZM1473 201.594C1478.52 204.422 1478.97 204.84 1476 204.35C1471.23 203.565 1462 199.37 1462 197.988C1462 196.497 1464.94 197.459 1473 201.594ZM1326.29 200C1326.6 201.197 1327.65 202 1328.91 202C1331.19 202 1331.76 203.549 1329.75 204.304C1328.93 204.613 1329.53 205.789 1331.5 207.742C1334.68 210.892 1336.24 212.799 1341.53 220.008C1344.9 224.594 1354.44 233 1356.28 233C1356.84 233 1359.14 234.477 1361.4 236.283C1366.46 240.339 1368.63 241.292 1378.6 243.844C1393.69 247.708 1402.23 247.436 1423 242.429C1436.85 239.091 1438.05 238.741 1448.05 235.111C1452.75 233.405 1459.73 231.146 1463.55 230.091C1467.37 229.037 1474.32 226.726 1479 224.955C1483.67 223.184 1491.32 220.831 1496 219.727C1504.03 217.829 1509.58 214.756 1508.41 212.855C1508.12 212.385 1508.36 212 1508.94 212C1509.52 212 1510 212.477 1510 213.059C1510 213.641 1510.43 213.855 1510.95 213.533C1512.09 212.828 1530.55 220.432 1541 225.91C1545.12 228.073 1552.56 231.624 1557.52 233.801C1562.48 235.979 1570.81 239.777 1576.02 242.241C1581.23 244.705 1586.62 247.057 1588 247.469C1589.37 247.88 1595.67 250.696 1602 253.727C1608.32 256.758 1617.55 261.151 1622.5 263.489C1636.78 270.236 1638.16 270.928 1644.5 274.534C1647.8 276.411 1653.65 279.529 1657.5 281.464C1665.85 285.657 1673.23 290.21 1676.24 293.012C1677.44 294.132 1680.02 295.526 1681.96 296.109C1686.77 297.553 1698.64 306.371 1701.06 310.302C1704.02 315.106 1703.31 317.536 1699 317.343C1693.43 317.093 1681.81 313.538 1677.35 310.721C1675.1 309.3 1669.59 306.325 1665.1 304.11C1657.88 300.543 1649.03 295.824 1632.5 286.714C1620.81 280.271 1614.67 277.774 1608.26 276.856C1604.54 276.323 1599.47 275.401 1597 274.807C1580.56 270.86 1575.4 269.866 1566.5 268.925C1561 268.343 1549.97 266.338 1542 264.468C1534.02 262.598 1523.67 260.62 1519 260.073C1514.32 259.526 1505.32 258.431 1499 257.639C1492.67 256.847 1481.87 255.685 1475 255.056C1462.03 253.869 1398.08 253.195 1366.24 253.91C1356.2 254.135 1347.72 254.058 1347.41 253.739C1347.09 253.42 1346.46 250.311 1346.01 246.83C1345.06 239.41 1344.41 237.538 1341.43 233.5C1340.22 231.85 1337.86 227.775 1336.19 224.446C1334.53 221.116 1331.67 216.59 1329.83 214.389C1328 212.188 1325.4 208.02 1324.05 205.128C1321.96 200.66 1321.81 199.729 1323.05 198.949C1325.17 197.604 1325.71 197.777 1326.29 200ZM1492.06 204.572C1495.6 205.986 1499.62 207.593 1501 208.142C1503.09 208.978 1503.24 209.284 1501.93 210.021C1500.93 210.577 1497.44 210.176 1492.43 208.929C1480.08 205.858 1480.33 205.965 1482.3 204.524C1483.22 203.852 1483.68 203.009 1483.32 202.651C1481.91 201.241 1485.94 202.126 1492.06 204.572ZM1255.32 217.162C1256.52 217.801 1262 222.554 1267.5 227.724C1275.03 234.806 1279.29 237.959 1284.78 240.511C1289.19 242.564 1293.96 245.79 1296.89 248.7C1300.46 252.254 1303.71 254.262 1309.41 256.436C1313.65 258.051 1317.38 259.815 1317.72 260.356C1318.09 260.96 1317.59 261.05 1316.41 260.589C1310.15 258.131 1284.91 257.625 1261.5 259.49C1249.43 260.451 1229.14 263.305 1225.21 264.594C1222.86 265.367 1218.91 266 1216.43 266C1213.96 266 1209.36 266.853 1206.22 267.895C1203.07 268.937 1198.92 270.1 1197 270.479C1195.07 270.858 1190.35 272.096 1186.5 273.231C1182.65 274.365 1177.56 275.205 1175.18 275.097C1171.62 274.935 1170.52 275.345 1168.86 277.45C1167.76 278.853 1166.25 280 1165.51 280C1164.09 280 1154.41 287.782 1148.21 293.905C1146.17 295.918 1139.99 301.448 1134.47 306.193C1128.96 310.938 1114.43 324.747 1102.19 336.879C1089.95 349.012 1079.23 359.334 1078.36 359.817C1074.62 361.913 1024.22 411.235 1014.83 421.996C1011.71 425.569 1008.85 428.181 1008.47 427.799C1008.08 427.417 1008.72 425.896 1009.89 424.418C1011.05 422.94 1012 421.139 1012 420.417C1012 418.017 1031.31 396.497 1054.58 372.965C1060.31 367.17 1065.01 361.995 1065.02 361.465C1065.03 360.934 1066.67 358.7 1068.65 356.5C1070.63 354.3 1074 349.938 1076.13 346.807C1078.5 343.318 1082.95 338.89 1087.63 335.366C1091.83 332.205 1098.47 326.302 1102.37 322.249C1106.28 318.197 1111.95 313.257 1114.98 311.273C1123 306.024 1133.26 296.94 1152.69 277.872C1162.15 268.593 1170.37 261 1170.95 261C1171.53 261 1175.72 257.226 1180.25 252.613C1189.81 242.89 1199.63 234.184 1202.5 232.884C1203.6 232.386 1207.2 230.194 1210.5 228.012C1220.47 221.422 1225.4 219.161 1233.12 217.641C1242.27 215.843 1252.42 215.623 1255.32 217.162ZM907.038 444.616C915.014 448.618 924.998 458.935 930.099 468.447C931.663 471.364 931.624 471.673 929.114 476.228C926.562 480.857 926.384 480.972 921.709 480.986C918.68 480.995 915.921 480.322 914.209 479.156C912.718 478.142 909.524 476.013 907.111 474.425C904.698 472.836 901.323 469.816 899.611 467.712C897.899 465.608 894.598 461.828 892.274 459.312C889.951 456.795 887.812 454.008 887.521 453.118C887.231 452.228 884.765 449.925 882.043 448C879.32 446.075 877.072 444.195 877.046 443.822C877.02 443.449 879.361 442.885 882.249 442.568C896.525 441.002 900.488 441.33 907.038 444.616ZM637.637 464.5C637.321 465.325 636.413 466 635.62 466C634.827 466 632.001 467.694 629.339 469.765C626.677 471.836 623.544 474.199 622.377 475.015C599.916 490.727 580.243 509.76 574.179 521.648C573.032 523.895 571.003 527.031 569.669 528.616C565.738 533.291 557.006 549.229 556.984 551.773C556.971 553.253 556.83 553.286 555.999 552C555.248 550.838 555.026 551.141 555.014 553.346C555.006 554.911 554.195 557.386 553.213 558.846C550.894 562.292 549.418 565.559 547.948 570.5C547.294 572.7 545.758 576.525 544.535 579C543.312 581.475 541.74 585.075 541.042 587C540.344 588.925 538.506 593.987 536.957 598.248C535.408 602.51 533.633 608.585 533.012 611.748C532.391 614.912 531.018 619.588 529.96 622.14C528.903 624.693 527.357 630.993 526.525 636.14C525.693 641.288 524.317 648.65 523.467 652.5C520.06 667.935 519.5 673.185 519.519 689.5C519.539 707.418 520.482 717.167 524.017 736C525.204 742.325 526.544 749.55 526.996 752.055C528.136 758.381 529.839 764.819 531.55 769.27C532.347 771.344 532.999 774.07 532.999 775.328C532.999 777.589 537.538 787.222 541.797 794C543.007 795.925 544.513 799.075 545.144 801C545.775 802.925 547.875 806.975 549.811 810C551.746 813.025 553.9 817.3 554.598 819.5C555.295 821.7 555.909 822.825 555.963 822C556.108 819.764 558.103 823.526 559.087 827.891C559.638 830.334 559.515 831.698 558.694 832.244C557.826 832.82 558.026 833.44 559.422 834.506C561.178 835.846 561.589 835.699 564.172 832.806C568.216 828.277 567.886 826.173 561.378 815C552.85 800.358 540.665 774.915 539.01 768.294C537.993 764.225 536.428 759.777 535.53 758.408C534.633 757.038 533.663 753.124 533.375 749.709C533.086 746.294 531.721 737.425 530.341 730C524.128 696.572 524.3 674.102 530.976 647C531.992 642.875 533.366 636.818 534.03 633.541C534.693 630.263 536.033 624.863 537.007 621.541C537.982 618.218 539.549 612.575 540.489 609C541.43 605.425 543.25 599.8 544.532 596.5C553.905 572.384 556.963 565.131 562.068 554.908C565.251 548.533 570.427 539.083 573.57 533.908C576.713 528.734 580.424 522.475 581.816 520C584.882 514.548 599.012 500.267 605.095 496.472C607.517 494.96 612.294 491.288 615.71 488.311C619.126 485.335 624.301 481.29 627.21 479.322C630.119 477.355 633.849 474.476 635.499 472.924C637.149 471.371 640.156 469.41 642.181 468.566C647.029 466.544 647.7 465.217 644.494 463.998C640.766 462.581 638.305 462.761 637.637 464.5ZM942.344 530.543C942.018 531.392 942.022 532.356 942.351 532.686C943.064 533.398 945.999 531.138 945.999 529.878C945.999 528.368 942.967 528.921 942.344 530.543ZM1134.5 559.676C1131.38 560.068 1112.14 564.351 1094 568.69C1088.22 570.072 1080.3 571.797 1076.4 572.524C1072.49 573.251 1066.42 575.157 1062.9 576.76C1056.05 579.881 1041.94 588.862 1032.37 596.197C1029.14 598.67 1025.4 601.277 1024.05 601.99C1022.7 602.703 1016.95 607.272 1011.28 612.143C1005.6 617.014 1000.46 621 999.84 621C997.845 621 996.063 624.406 996.031 628.281C995.998 632.205 993.548 634.507 992.027 632.045C991.439 631.094 990.762 631.223 989.164 632.591C987.597 633.933 987.344 634.711 988.158 635.691C989.966 637.87 993.345 637.17 996.34 633.997C997.899 632.345 1000.26 630.722 1001.59 630.389C1002.91 630.056 1004 629.21 1004 628.51C1004 626.686 1016.69 615.609 1027.5 608C1032.58 604.425 1040.73 598.596 1045.62 595.047C1050.5 591.498 1057.5 587.084 1061.17 585.24C1067.51 582.051 1084.55 577.024 1093.79 575.617C1096.14 575.258 1099.97 574.266 1102.29 573.413C1104.6 572.559 1111.27 570.584 1117.11 569.024C1127.66 566.203 1127.82 566.191 1145.11 567.083C1154.67 567.577 1164.97 568.402 1168 568.917C1171.02 569.432 1176.17 569.887 1179.43 569.927C1185.1 569.997 1188.23 570.683 1196 573.557C1197.92 574.269 1201.66 575.105 1204.3 575.414C1206.94 575.723 1212.34 577.505 1216.3 579.373C1220.26 581.241 1224.84 583.08 1226.47 583.459C1228.1 583.838 1231.93 585.665 1234.97 587.52C1238.73 589.812 1243.06 591.367 1248.51 592.378C1252.91 593.196 1257.86 594.568 1259.51 595.427C1261.15 596.285 1263.85 596.994 1265.5 597.001C1267.15 597.009 1271.3 597.866 1274.71 598.905C1278.13 599.945 1283.64 601.111 1286.96 601.496C1292.54 602.144 1293 602.047 1293 600.221C1293 597.697 1291.38 596.42 1287 595.481C1285.08 595.069 1281.7 593.911 1279.5 592.909C1275.31 590.998 1254.88 584.652 1249.18 583.488C1247.36 583.116 1244.66 582.182 1243.18 581.412C1241.71 580.642 1239.47 580.01 1238.22 580.006C1236.97 580.003 1233.37 578.71 1230.22 577.133C1227.07 575.557 1222.25 573.94 1219.5 573.54C1216.75 573.14 1214.05 572.468 1213.5 572.046C1212.95 571.624 1206.97 569.63 1200.22 567.614C1190.7 564.769 1185.1 563.743 1175.22 563.033C1168.22 562.529 1159.12 561.433 1155 560.598C1147.86 559.153 1141.1 558.848 1134.5 559.676ZM278.54 648.022C281.7 649.684 288.608 655.017 293.892 659.873C304.365 669.498 307.941 671.979 321.499 679.024C326.449 681.597 335.449 686.27 341.499 689.41C347.549 692.55 352.949 695.694 353.499 696.396C354.51 697.686 361.348 702.43 365.579 704.776C366.845 705.478 368.163 706.941 368.507 708.026C368.912 709.303 370.023 710 371.652 710H374.17L373.463 717.75C373.074 722.012 372.656 725.617 372.533 725.761C372.411 725.904 370.59 724.854 368.487 723.427C360.445 717.97 349.576 716.508 320.499 716.976C312.717 717.101 301.947 714.993 297.007 712.378C294.536 711.07 291.081 710 289.328 710C287.576 710 285.419 709.278 284.536 708.395C283.478 707.336 281.836 706.946 279.715 707.25C276.173 707.758 264.929 711.526 260.999 713.523C259.624 714.222 256.199 715.472 253.388 716.302C250.576 717.131 247.426 718.272 246.388 718.836C245.349 719.401 241.574 721.271 237.999 722.993C234.424 724.716 230.149 726.977 228.499 728.02C226.849 729.063 221.899 731.78 217.499 734.06C203.058 741.54 196.553 746.341 171.858 767.744C167.26 771.729 160.834 777.129 157.578 779.744C151.626 784.525 122.406 813.397 100.999 835.649C87.5891 849.589 70.7101 865.134 61.7801 871.769C58.3251 874.336 55.1951 876.9 54.8231 877.468C53.1261 880.059 36.8311 896.165 36.3711 895.705C36.0871 895.421 37.0981 893.234 38.6171 890.844C40.1361 888.455 42.6011 884.025 44.0941 881C47.0561 875.001 55.6321 860.282 58.9521 855.5C62.2501 850.75 71.2321 836.594 74.2961 831.317C77.1341 826.428 81.5581 819.153 86.6511 811C90.9361 804.139 103.86 787.738 106.652 785.619C109.358 783.565 115.506 775.837 120.999 767.587C129.225 755.232 135.062 748.335 146.253 737.746C152.79 731.561 158.584 726.341 159.128 726.147C159.672 725.953 162.698 723.253 165.852 720.147C169.006 717.041 176.289 710.45 182.036 705.5C193.734 695.425 197.848 691.652 208.282 681.428C212.251 677.538 217.974 672.703 220.999 670.683C224.024 668.663 229.236 665.018 232.581 662.583C241.535 656.063 255.147 648.469 261.445 646.479C268.141 644.363 272.298 644.738 278.54 648.022ZM1499.5 663.419C1505.74 666.823 1509.78 669.417 1518.87 675.86C1524.02 679.512 1529.73 683.5 1531.55 684.722C1536.65 688.143 1556.55 708.619 1561.47 715.51C1568.05 724.73 1577.19 742.652 1577.3 746.551C1577.35 748.552 1576.63 750.752 1575.5 751.999C1573.75 753.932 1573.7 754.636 1574.84 761.29C1576.32 769.886 1579.06 776.166 1585.68 786.106C1588.39 790.173 1591.49 795.238 1592.55 797.363C1593.63 799.494 1597.64 803.812 1601.5 806.991C1613.43 816.813 1628 833.08 1628 836.572C1628 837.238 1629.69 839.833 1631.75 842.34C1633.81 844.846 1637.97 850.858 1640.99 855.698C1644.01 860.539 1650.54 869.965 1655.49 876.644C1669.58 895.64 1672.25 899.508 1676.05 906.437C1678.01 909.999 1680.29 913.72 1681.13 914.706C1683.31 917.29 1696.26 943.249 1699.49 951.5C1700.99 955.35 1702.66 959.034 1703.18 959.687C1707.26 964.746 1712.68 1010.22 1710.22 1018.81C1709.64 1020.84 1708.71 1025.87 1708.15 1030C1706.8 1039.99 1703.55 1055.09 1701.16 1062.5C1700.1 1065.8 1698.98 1070.86 1698.66 1073.76C1697.74 1082.29 1696.62 1083.18 1694.06 1077.41C1692.86 1074.71 1691.72 1071.15 1691.52 1069.5C1690.99 1065.06 1687.56 1055.87 1683.59 1048.23C1679.7 1040.74 1677.73 1035.62 1675.05 1026C1673.09 1018.97 1665.29 1004.13 1658.49 994.5C1656.16 991.2 1650.28 981.3 1645.43 972.5C1636.28 955.926 1621.02 932.117 1615.6 925.982C1613.9 924.047 1608.94 917.072 1604.58 910.482C1592.86 892.751 1590.96 889.999 1586.53 884.376C1584.31 881.558 1579.87 875.033 1576.66 869.876C1573.44 864.719 1569.39 858.224 1567.66 855.443C1565.92 852.662 1562.92 848.419 1561 846.015C1556.34 840.195 1553.72 835.932 1549.51 827.306C1547.57 823.35 1545.58 819.858 1545.08 819.548C1543.99 818.877 1538.2 808.643 1533.35 798.839C1531.45 794.989 1528.18 789.963 1526.08 787.67C1523.98 785.376 1521.53 782.065 1520.64 780.311C1519.74 778.557 1518.21 776.532 1517.23 775.811C1516.25 775.09 1511.95 770.348 1507.68 765.272C1503.4 760.197 1499.33 755.697 1498.63 755.272C1497.93 754.848 1495.92 752.376 1494.15 749.78C1492.39 747.184 1489.39 743.873 1487.49 742.423C1485.59 740.973 1483.04 738.147 1481.84 736.143C1480.63 734.139 1477.36 730.045 1474.57 727.044L1469.5 721.589L1473.58 720.406C1489.35 715.839 1492.36 706.728 1488.11 676.471C1485.66 659.059 1485.57 656.83 1487.21 655.194C1488.15 654.253 1489.3 654.843 1492.46 657.885C1494.68 660.029 1497.85 662.519 1499.5 663.419ZM279.268 714.656C278.591 714.93 277.241 714.947 276.268 714.693C275.295 714.439 275.849 714.215 277.499 714.195C279.149 714.175 279.945 714.382 279.268 714.656ZM288.065 717.659C289.954 718.034 293.847 719.377 296.716 720.644C302.227 723.075 313.16 725.259 315.441 724.384C316.185 724.099 320.192 724.338 324.345 724.915C329.751 725.667 334.148 725.647 339.822 724.845C347.476 723.762 348.086 723.832 357.623 726.862C363.055 728.588 368.058 730.362 368.742 730.805C369.56 731.335 370.156 735.518 370.486 743.055C371.744 771.812 372.816 784.072 374.268 786.288C375.081 787.529 376.049 790.559 376.418 793.022C376.788 795.485 378.467 801.857 380.149 807.182C383.017 816.259 383.639 817.308 390.104 823.968C393.896 827.875 396.999 831.443 396.999 831.897C396.999 832.351 395.871 832.507 394.493 832.244C393.115 831.98 391.428 832.217 390.743 832.771C389.214 834.008 380.622 834.942 367.845 835.26C362.536 835.392 358.385 835.813 358.621 836.196C359.099 836.97 352.581 838.986 349.571 838.994C347.113 839.002 326.805 845.223 316.999 848.972C312.874 850.55 304.099 853.495 297.499 855.518C284.11 859.622 265.643 867.503 250.394 875.621C244.836 878.579 239.534 881 238.611 881C237.688 881 234.691 882.136 231.952 883.524C225.81 886.636 189.394 910.775 178.499 918.955C162.121 931.253 157.554 934.541 150.367 939.212C146.316 941.846 142.815 944 142.588 944C142.361 944 139.098 945.773 135.337 947.94C131.576 950.107 125.124 953.297 120.999 955.029C116.874 956.76 111.249 959.215 108.499 960.484C105.749 961.754 100.423 963.736 96.6641 964.89C92.9051 966.044 88.6301 967.624 87.1641 968.402C85.6981 969.181 81.0511 971.015 76.8361 972.478C72.6221 973.942 64.8031 977.358 59.4611 980.07C50.6531 984.541 49.1151 985 42.9501 985C35.7251 985 26.3791 983.324 24.1611 981.63C23.4251 981.068 20.5001 979.802 17.6611 978.816C6.64909 974.992 4.37708 967.684 9.87508 953.776C11.4571 949.774 13.2301 944.25 13.8161 941.5C15.4941 933.616 18.7231 927.241 21.7781 925.781C23.3741 925.019 24.6381 923.503 24.8351 922.116C25.0251 920.78 29.0981 915.707 34.1881 910.465C39.1481 905.359 44.1591 899.839 45.3231 898.2C46.4881 896.56 48.5791 894.435 49.9701 893.476C51.3611 892.517 54.0741 889.762 55.9991 887.353C57.9241 884.945 63.9991 879.325 69.4991 874.866C88.7971 859.22 105.028 843.936 109.462 837.235C110.983 834.937 114.137 831.937 116.471 830.569C118.806 829.201 121.5 826.826 122.459 825.291C123.418 823.756 127.87 818.89 132.351 814.478C136.832 810.065 143.805 802.978 147.845 798.728C151.885 794.477 155.796 791 156.537 791C158.109 791 169.034 781.668 170.499 779.073C171.958 776.489 193.062 757.935 195.999 756.655C197.374 756.056 200.685 753.638 203.357 751.283C206.277 748.708 209.2 747 210.683 747C212.059 747 215.66 745.075 218.825 742.649C221.946 740.255 226.172 737.988 228.217 737.609C230.262 737.231 232.592 736.264 233.395 735.461C234.199 734.657 235.226 733.982 235.678 733.959C236.129 733.937 238.057 732.587 239.961 730.959C241.865 729.332 243.92 728 244.527 728C245.133 728 249.65 725.893 254.564 723.317C263.534 718.616 271.698 716.045 277.749 716.016C279.537 716.007 280.999 715.48 280.999 714.845C280.999 714.151 281.724 714.346 282.815 715.333C283.813 716.237 286.176 717.283 288.065 717.659ZM1563.14 859.458C1564.21 860.809 1566.55 864.747 1568.35 868.208C1574.68 880.354 1577.33 884.539 1581.54 889C1583.88 891.475 1586.09 894.512 1586.46 895.75C1586.83 896.988 1587.55 898 1588.05 898C1588.56 898 1589.6 899.463 1590.36 901.25C1591.13 903.037 1594.02 907.65 1596.8 911.5C1599.57 915.35 1604.02 921.572 1606.67 925.327C1609.33 929.082 1613.11 934.257 1615.07 936.827C1617.03 939.397 1619.5 942.919 1620.57 944.654C1621.63 946.389 1624.7 951.106 1627.38 955.137C1630.06 959.169 1634.07 966.074 1636.29 970.484C1638.5 974.893 1641.37 979.892 1642.66 981.594C1643.94 983.296 1645 985.204 1645 985.833C1645 986.462 1647.63 990.695 1650.84 995.239C1658.79 1006.47 1665.56 1019.95 1667.96 1029.33C1669.05 1033.61 1670.77 1038.33 1671.77 1039.81C1676 1046.06 1687.58 1073.96 1688.66 1080.5L1689.16 1083.5L1686.11 1079.5C1684.43 1077.3 1683.02 1075.05 1682.98 1074.5C1682.95 1073.95 1680.91 1070.35 1678.46 1066.5C1673.09 1058.05 1668 1048.5 1668 1046.87C1668 1045.02 1662.19 1036.24 1655.79 1028.41C1652.61 1024.51 1650 1021.02 1650 1020.65C1650 1020.28 1648.25 1017.39 1646.12 1014.24C1643.99 1011.08 1641.55 1007.15 1640.69 1005.5C1639.84 1003.85 1637.32 1000.47 1635.08 998C1628.73 990.977 1619.58 977.115 1615.59 968.493C1613.6 964.175 1610.93 959.261 1609.66 957.572C1608.39 955.882 1607.04 953.66 1606.66 952.634C1606.28 951.608 1603.57 947.108 1600.63 942.634C1593.08 931.164 1590.99 926.679 1589.9 919.649C1588.83 912.733 1581.95 896.316 1577.9 891C1576.43 889.075 1572.77 883 1569.76 877.5C1566.75 872 1563.33 865.925 1562.15 864C1560.11 860.671 1559.3 857 1560.6 857C1560.94 857 1562.08 858.106 1563.14 859.458Z" fill="black"/>
</svg>
