<svg width="816" height="868" viewBox="0 0 816 868" fill="none" xmlns="http://www.w3.org/2000/svg">
<path fill-rule="evenodd" clip-rule="evenodd" d="M770.499 4.16499C767.199 6.38599 763.149 8.839 761.499 9.617C759.849 10.394 757.824 11.401 756.999 11.855C756.174 12.308 752.43 14.214 748.68 16.09C739.003 20.93 731.95 27.969 729.121 35.613C726.976 41.406 726.941 41.925 728.445 45.525C730.002 49.252 729.972 49.441 726.867 55.412C725.126 58.761 722.624 63.209 721.307 65.299C719.99 67.388 718.493 70.2 717.981 71.549C717.468 72.897 716.64 74 716.14 74C714.195 74 713.133 63.321 714.892 61.45C716.208 60.051 717.999 50.62 717.999 45.095C717.999 41.128 717.379 39.475 714.449 35.639C709.885 29.661 704.633 27.021 695.843 26.284C687.494 25.584 673.777 27.528 668.95 30.095C667.052 31.105 663.587 32.867 661.249 34.012C658.911 35.157 656.999 36.327 656.999 36.613C656.999 38.333 659.286 40.855 661.307 41.362C664.433 42.147 669.579 46.316 680.593 56.988C689.509 65.628 693.805 68.535 701.183 70.92C705.186 72.215 708.999 77.342 708.999 81.43C708.999 84.466 706.301 90.451 699.954 101.5C693.29 113.099 687.915 120.768 676.342 135.191L666.961 146.883L663.73 145.796C659.557 144.393 657.999 143.135 657.999 141.17C657.999 140.298 659.895 134.616 662.212 128.542C665.565 119.755 666.432 116.173 666.458 111C666.52 98.768 665.434 95.379 659.618 89.65C654.71 84.816 647.196 78.961 642.547 76.349C641.42 75.715 638.4 74.883 635.837 74.498C631.723 73.882 631.043 74.048 630.042 75.92C628.686 78.454 629.425 80 631.991 80C635.056 80 635.247 83.44 632.612 91.191C628.142 104.346 623.999 119.731 623.999 123.181C623.999 125.33 625.309 128.657 627.594 132.309C631.701 138.876 636.321 141.777 644.149 142.704C647.995 143.16 649.353 143.787 649.983 145.399C650.435 146.555 652.424 149.051 654.402 150.946C658.331 154.711 658.864 156.992 656.391 159.465C655.507 160.349 652.725 163.869 650.21 167.286C647.694 170.704 642.616 176.65 638.925 180.5C635.234 184.35 628.066 192.352 622.996 198.281C617.926 204.211 612.468 209.741 610.866 210.569L607.953 212.075L608.559 202.287C608.892 196.904 609.29 192.05 609.444 191.5C609.597 190.95 609.396 183.3 608.997 174.5C608.348 160.187 607.989 157.867 605.587 152.5C602.865 146.417 595.697 138 593.239 138C592.5 138 590.231 137.13 588.197 136.066C582.063 132.857 561.966 129.493 554.307 130.394C544.952 131.493 539.453 134.772 529.249 145.335C524.161 150.601 519.999 155.38 519.999 155.955C519.999 158.186 523.886 156.793 531.204 151.939C538.75 146.935 538.884 146.892 543.167 148.031C548.47 149.441 553.999 152.714 553.999 154.442C553.999 155.145 555.064 157.291 556.366 159.209C557.978 161.585 558.967 164.9 559.466 169.599C560.75 181.711 562.323 183.869 574.071 189.631C583.544 194.278 586.577 194.95 594.086 194.064C598.181 193.581 600.288 193.699 600.478 194.422C600.635 195.015 601.347 197.439 602.061 199.809C603.116 203.314 603.12 204.807 602.082 207.809C599.283 215.907 596.931 219.64 593.116 222.042C590.967 223.394 588.149 226.064 586.854 227.976C585.559 229.888 582.699 233.294 580.499 235.544C578.299 237.795 572.674 243.86 567.999 249.023C563.324 254.186 557.437 260.456 554.917 262.955C549.56 268.269 540.465 279.882 538.8 283.536C537.298 286.834 534.596 286.326 534.175 282.667C533.796 279.361 539.41 254.303 541.83 248.5C542.748 246.3 547.39 240.41 552.147 235.411C563.258 223.732 565.432 219.628 564.495 212.101C563.675 205.51 561.588 200.928 554.27 189.653C551.317 185.103 545.732 180 543.706 180C543.208 180 541.383 179.348 539.65 178.55C535.047 176.432 521.696 174.644 512.469 174.91L504.44 175.141L501.11 170.506C498.932 167.473 497.272 166.065 496.308 166.435C495.498 166.746 494.422 167 493.917 167C493.412 167 492.996 167.788 492.993 168.75C492.989 169.712 492.359 171.703 491.592 173.173C489.739 176.724 488.708 193.101 489.902 200C491.2 207.494 494.271 215.596 496.857 218.349C498.035 219.603 498.999 221.08 498.999 221.632C498.999 223.256 516.994 241.205 523.249 245.821C526.411 248.154 528.999 250.732 528.999 251.55C528.999 252.368 527.903 256.174 526.564 260.007C524.667 265.437 524.234 268.307 524.606 272.994C525.307 281.841 520.898 295.38 514.219 304.891C507.833 313.984 501.114 322.252 490.797 333.712C484.75 340.428 478.308 348.027 476.48 350.597C472.374 356.373 460.241 369 458.798 369C458.137 369 457.937 367.495 458.27 365.014C458.645 362.222 460.065 359.599 463.006 356.264C465.317 353.644 468.336 349.25 469.715 346.5C471.094 343.75 473.233 340.6 474.469 339.5C475.704 338.4 477.791 334.84 479.107 331.588C480.699 327.653 483.352 323.809 487.044 320.088C492.352 314.739 504.2 299.38 508.715 291.997C514.189 283.045 516.458 264.834 513.609 252.726C512.112 246.365 506.422 236.978 502.508 234.414C501.128 233.51 499.999 232.147 499.999 231.385C499.999 229.452 497.709 229.659 494.884 231.848C493.572 232.864 491.331 233.98 489.902 234.328C484.724 235.59 475.316 242.232 466.864 250.593C459.207 258.167 457.868 260.048 455.039 267.205C453.285 271.643 450.943 279.376 449.835 284.388C448.033 292.535 447.927 294.783 448.841 305.619C449.403 312.284 450.568 319.427 451.431 321.491C452.293 323.555 452.999 326.349 452.999 327.699C452.999 329.068 454.268 331.423 455.868 333.023C457.446 334.601 458.988 336.849 459.293 338.017C460.046 340.895 456.831 351.726 451.433 364.5C450.735 366.15 449.842 369.3 449.448 371.5C449.054 373.7 448.152 376.647 447.444 378.048C445.883 381.137 426.929 398.138 419.626 403C411.449 408.444 408.071 411.139 403.329 416C399.712 419.709 398.77 420.236 397.971 419C396.505 416.73 398.833 401.442 401.384 396.587C401.997 395.419 408.955 388.397 416.845 380.982C432.251 366.505 434.998 362.594 439.206 349.157C442.626 338.236 441.691 323.341 436.908 312.528C435.116 308.475 428.409 302.046 419.999 296.319C416.833 294.163 412.535 292.612 405.499 291.087C399.999 289.895 394.149 288.51 392.499 288.009C390.454 287.388 386.954 287.588 381.499 288.638C377.099 289.484 369.224 290.577 363.999 291.067C358.774 291.556 352.791 292.243 350.704 292.593C347.783 293.083 346.436 292.801 344.852 291.367C342.159 288.93 339.75 284.211 340.544 282.927C340.889 282.369 340.665 281.303 340.047 280.558C339.17 279.502 338.283 279.444 336.026 280.296C332.801 281.513 332.033 283.377 332.013 290.036C332 294.261 332.412 294.983 338.011 300.536C344.581 307.053 347.932 312.079 350.323 319C351.178 321.475 353.035 326.411 354.45 329.97C355.865 333.528 357.96 341.341 359.106 347.33C361.654 360.646 365.529 371.633 370.951 380.917C375.182 388.161 378.425 391.228 385.749 394.906C388.087 396.08 390.029 397.594 390.065 398.27C390.101 398.947 390.268 403.558 390.434 408.517C390.601 413.477 391.045 418.932 391.42 420.641C392.001 423.287 391.61 424.248 388.777 427.124C386.948 428.981 383.662 431.935 381.475 433.689C376.169 437.945 370.296 443.972 356.554 459.263C344.127 473.092 333.911 483 332.08 483C331.446 483 330.048 480.947 328.972 478.437C327.896 475.928 326.337 473.195 325.508 472.366C324.678 471.536 324.006 470.102 324.014 469.179C324.035 466.703 326.951 458.731 328.469 457C329.192 456.175 331.666 451.882 333.967 447.46C337.037 441.559 338.297 437.805 338.7 433.355C339.381 425.846 338.297 422.427 331.655 411.131C328.819 406.309 324.924 399.576 322.999 396.169C315.966 383.721 297.103 361.653 291.212 358.982C289.72 358.305 286.5 355.533 284.057 352.821C280.267 348.615 279.647 347.334 279.838 344.094C279.989 341.548 279.51 339.839 278.384 338.905C276.908 337.679 276.453 337.848 274.602 340.307C271.562 344.347 268.326 349.778 265.551 355.5L263.125 360.5L264.591 384C265.397 396.925 266.698 409.975 267.482 413C268.266 416.025 269.139 419.647 269.422 421.049C270.219 424.999 278.886 435.967 288.499 445.191C290.149 446.774 293.074 449.585 294.999 451.437C299.493 455.761 302.032 457 306.394 457C310.117 457 313.972 459.999 314.029 462.939C314.093 466.263 320.682 479.113 324.249 482.872C326.312 485.044 327.999 487.037 327.999 487.301C327.999 487.915 302.699 512.747 297.743 516.997L293.988 520.217L292.362 516.359C291.211 513.628 290.684 508.991 290.557 500.5C290.389 489.291 290.124 487.808 286.529 478C282.496 466.996 278.003 460.925 271.105 457.16C269.433 456.247 265.463 453.668 262.282 451.428C259.101 449.189 253.574 445.871 249.999 444.055C243.691 440.85 243.144 440.754 231.499 440.804C221.845 440.846 217.642 441.359 209.999 443.431C199.602 446.25 188.455 451.37 187.543 453.745C186.727 455.871 188.801 458 191.688 458C193.033 458 195.565 459.042 197.316 460.315C209.358 469.072 211.558 471.103 215.641 477.23C218.108 480.932 220.548 484.221 221.063 484.539C221.578 484.858 221.998 485.879 221.996 486.809C221.995 487.739 222.885 490.3 223.974 492.5C225.063 494.7 226.951 499.386 228.17 502.913C230.595 509.93 238.142 519.624 242.801 521.705C244.285 522.368 248.975 522.93 253.223 522.955C259.529 522.992 262.333 522.449 268.499 520C272.653 518.35 276.539 517 277.136 517C278.596 517 287.999 524.93 287.999 526.162C287.999 526.698 283.765 531.494 278.591 536.819C264.261 551.565 249.999 567.187 249.999 568.136C249.999 569.044 248.481 570.938 240.291 580.241C237.427 583.495 234.809 587.022 234.474 588.079C234.139 589.135 233.503 590 233.061 590C232.619 590 230.062 592.947 227.378 596.549C217.23 610.17 214.478 613.642 209.934 618.553C207.363 621.332 204.945 624.594 204.562 625.803C203.722 628.448 202.404 628.655 201.772 626.24C200.681 622.068 187.564 603.812 183.625 600.983L179.459 597.991L179.175 586.246C178.954 577.121 178.379 573.027 176.596 567.898C173.506 559.005 168.04 551.045 161.434 545.822C158.428 543.445 153.838 539.797 151.234 537.715C147.13 534.435 140.468 530.782 133.499 527.989C127.509 525.589 117.284 523.687 107.967 523.242C98.8128 522.803 96.9148 522.998 93.4668 524.727C91.2838 525.821 88.3738 526.994 86.9988 527.334C85.6238 527.674 81.0068 529.792 76.7398 532.041C68.9408 536.151 68.1358 536.933 53.7198 554.404C48.1648 561.137 43.9988 567.838 43.9988 570.04C43.9988 572.045 44.3368 572.123 50.2668 571.488C56.4958 570.821 56.5618 570.84 60.8268 574.658C65.0628 578.451 68.8818 583.89 71.0708 589.25C71.6888 590.763 72.6008 592 73.0968 592C73.5928 592 73.9988 592.468 73.9988 593.04C73.9988 596.484 96.3248 617 100.072 617C101.175 617 103.806 617.881 105.918 618.959C115.717 623.958 134.42 624.619 144.499 620.322C156.442 615.231 159.078 613.569 162.164 609.183C162.898 608.14 164.459 606.984 165.633 606.613C167.349 606.071 167.891 606.434 168.402 608.469C168.856 610.28 169.707 611 171.391 611C173.921 611 182.424 619.412 188.642 628.067C190.514 630.672 192.71 633.059 193.522 633.371C195.948 634.301 195.21 639.276 191.862 644.554C188.414 649.991 181.999 663.082 181.999 664.682C181.999 666.114 179.167 671.653 175.444 677.5C173.693 680.25 169.233 688.543 165.533 695.929C158.882 709.204 153.71 717 151.554 717C149.868 717 132.135 699.332 126.757 692.295C122.625 686.888 122.139 685.762 122.982 683.545C123.894 681.145 123.766 681 120.724 680.994C118.183 680.99 116.304 679.838 111.868 675.567C102.248 666.305 84.5907 659 71.8227 659C64.5347 659 57.4298 660.854 48.4388 665.102C45.0648 666.696 41.8007 668 41.1847 668C40.5697 668 38.5878 669.462 36.7818 671.25C33.3438 674.654 29.7608 677.215 24.1498 680.28C15.1498 685.197 6.01376 694.261 4.08576 700.185C3.42576 702.212 2.50276 704.012 2.03376 704.185C1.56576 704.358 1.02776 705.396 0.840763 706.491C0.576763 708.028 1.64078 709.041 5.49878 710.926C14.3868 715.269 16.2518 715.965 32.9988 721.179C49.4258 726.295 49.5698 726.319 65.4988 726.747C74.8528 726.997 86.0678 726.655 92.4988 725.922C98.5488 725.233 106.542 724.749 110.261 724.848C115.331 724.983 118.012 724.524 120.972 723.014C123.143 721.906 125.855 721 126.999 721C128.143 721 130.843 720.1 132.999 719C138.091 716.402 139.182 716.475 141.891 719.59C143.618 721.578 144.727 722.034 146.651 721.551C148.902 720.986 149.086 721.156 148.451 723.211C145.84 731.654 127.055 772.232 123.167 777.829C120.525 781.633 116.02 792.255 109.948 809C107.057 816.975 103.879 825.133 102.886 827.129C101.894 829.125 100.634 833.54 100.086 836.939C99.5387 840.338 97.9448 845.622 96.5448 848.681C93.6878 854.921 93.0688 863.927 95.3398 866.198C96.2118 867.07 98.3468 867.407 101.437 867.161C105.745 866.819 106.323 866.468 107.595 863.424C108.367 861.576 108.999 858.895 108.999 857.466C108.999 850.881 121.088 810.317 125.222 803.031C126.304 801.123 128.69 795.948 130.523 791.531C132.357 787.114 136.095 778.485 138.831 772.357C141.567 766.228 145.64 755.765 147.883 749.105C152.17 736.373 155.192 729.617 157.136 728.415C157.818 727.994 159.103 728.795 160.234 730.348C161.296 731.806 162.691 733.015 163.332 733.033C164.87 733.076 171.442 740.816 174.474 746.153C177.771 751.957 192.23 766.429 199.386 771.087C205.449 775.034 210.71 776.515 233.212 780.611C242.487 782.3 243.453 782.3 254.679 780.622C261.143 779.656 268.907 777.995 271.931 776.933C274.955 775.87 278.726 775 280.31 775C281.894 775 284.385 774.345 285.845 773.543C289.9 771.318 302.31 767.178 310.321 765.379C314.269 764.492 317.963 763.395 318.529 762.943C319.096 762.49 322.017 761.98 325.02 761.81C329.431 761.56 330.549 761.139 330.838 759.619C331.458 756.363 328.953 752.973 326.078 753.178C323.275 753.377 313.027 749.821 309.618 747.466C303.923 743.532 291.697 730.056 289.234 725C283.372 712.96 276.001 704.024 268.054 699.321C258.357 693.584 250.776 691.065 243.078 691.024C240.603 691.011 237.934 690.347 237.016 689.516C235.738 688.359 234.62 688.248 231.944 689.016C230.057 689.557 224.992 690 220.69 690C213.914 690 211.907 690.448 205.683 693.349C201.186 695.446 196.255 698.836 192.499 702.414C189.199 705.558 183.799 709.989 180.499 712.26C177.199 714.532 173.905 716.977 173.179 717.694C170.769 720.074 166.817 720.471 165.36 718.48C164.409 717.178 164.334 716.301 165.098 715.381C165.683 714.676 168.411 709.464 171.159 703.799C176.159 693.496 184.63 676.707 187.204 672C187.956 670.625 190.348 666.8 192.52 663.5C194.692 660.2 197.266 655.755 198.242 653.623C199.217 651.49 201.361 648.212 203.007 646.338C204.653 644.464 205.999 642.446 205.999 641.855C205.999 639.501 212.593 630.796 215.942 628.73C217.898 627.522 221.074 625.164 222.999 623.489C227.428 619.634 233.192 617.626 237.502 618.435C239.336 618.779 243.46 620.391 246.668 622.017C249.875 623.644 253.261 624.98 254.192 624.987C256.456 625.004 262.469 628.532 268.054 633.119C272.426 636.71 283.447 643 285.366 643C285.874 643 289.711 644.647 293.894 646.659C303.855 651.453 316.622 652.911 327.465 650.494C336.176 648.553 343.865 646.246 346.497 644.783C347.596 644.173 352.84 641.787 358.149 639.483C363.459 637.178 370.038 633.917 372.769 632.236C377.593 629.268 394.204 623 397.245 623C399.426 623 401.142 620.537 400.368 618.518C400.001 617.564 396.956 615.468 393.6 613.862C382.243 608.424 379.004 605.84 375.858 599.704C372.136 592.446 364.189 581.485 360.854 579.01C349.859 570.849 343.172 567.49 334.999 566.022C331.424 565.379 327.514 564.66 326.31 564.423C325.106 564.186 323.873 564.396 323.568 564.888C323.264 565.38 318.42 566.112 312.803 566.514C302.802 567.23 300.301 567.974 290.999 573.001C289.074 574.041 285.17 576.119 282.323 577.618C278.52 579.621 276.696 581.345 275.444 584.122C274.507 586.2 272.561 588.986 271.12 590.314C269.678 591.641 267.716 593.689 266.759 594.864C265.802 596.039 264.114 597.056 263.009 597.125C260.278 597.295 259.662 597.432 258.499 598.132C257.949 598.463 255.024 599.536 251.999 600.516C248.974 601.496 244.931 603.131 243.014 604.149C241.097 605.167 238.847 606.002 238.014 606.004C237.181 606.006 234.99 606.928 233.145 608.052C228.076 611.143 227.476 609.971 231.638 605.109C233.69 602.711 236.524 599.038 237.934 596.947C240.492 593.157 241.397 592.018 252.846 578.187C261.287 567.99 295.686 532.476 298.325 531.233C299.521 530.67 303.199 529.627 306.499 528.915C309.799 528.204 313.947 527.032 315.717 526.311C317.487 525.59 320.515 525 322.447 525C324.378 525 327.742 524.287 329.921 523.415C332.938 522.207 335.123 522.028 339.078 522.665C344.019 523.459 344.291 523.663 344.635 526.817C345.246 532.415 350.802 544.262 354.994 548.904C357.181 551.326 360.826 554.139 363.094 555.154C370.31 558.385 388.362 560.119 413.809 560.026C436.932 559.942 437.166 559.963 442.997 562.58L448.876 565.218L453.187 562.846C458.314 560.026 459.258 556.576 456.111 552.158C455 550.597 453.111 546.702 451.914 543.503C449.587 537.282 449.647 530.201 452.156 514.918C453.183 508.662 453.112 508.139 450.711 504.335C446.374 497.465 437.428 491.578 428.499 489.716C426.849 489.372 421.313 488.182 416.196 487.072C407.968 485.287 405.46 485.163 394.497 486C386.926 486.578 379.888 487.725 376.412 488.946C368.582 491.698 351.662 501.423 348.813 504.809C345.425 508.836 328.554 516 322.458 516C321.275 516 319 516.629 317.403 517.398C307.574 522.13 307.628 519.514 317.557 509.853C340.25 487.774 344.906 483.584 349.137 481.435C351.688 480.14 359.113 477.723 365.637 476.064C372.161 474.405 379.974 472.308 382.999 471.402C392.378 468.595 393.993 468.64 401.694 471.928C405.652 473.618 409.948 475 411.241 475C416.345 475 431.817 479.138 437.417 482.002C445.289 486.026 445.353 486.014 471.687 475.337C483.664 470.48 502.738 454.64 510.624 443C513.047 439.425 517.047 433.823 519.514 430.552C521.981 427.28 523.999 424.107 523.999 423.502C523.999 421.715 521.762 420 519.433 420C518.242 420 512.594 418.383 506.883 416.406C486.068 409.201 464.063 408.481 449.739 414.534C432.559 421.794 425.727 425.611 419.822 431.247C416.496 434.422 412.51 437.766 410.965 438.679C409.42 439.592 407.625 441.331 406.976 442.543C406.327 443.755 401.391 447.617 396.006 451.124C390.622 454.631 385.639 458.516 384.934 459.758C384.21 461.034 382.006 462.46 379.868 463.035C377.786 463.596 375.835 464.457 375.531 464.949C374.717 466.265 359.328 471.21 357.275 470.815C355.987 470.567 358.451 467.622 366.509 459.778C395.622 431.436 401.482 426.235 405.737 424.96C408.79 424.046 411.378 422.082 415.186 417.789C418.071 414.538 422.471 410.333 424.965 408.445C427.459 406.557 432.649 402.536 436.499 399.51C448.653 389.957 452.065 387.798 462.58 383.009C468.22 380.439 473.885 377.659 475.167 376.831C477.424 375.373 486.508 372 488.177 372C488.629 372 488.999 373.505 488.999 375.345C488.999 377.42 489.758 379.377 490.999 380.5C492.099 381.495 492.999 383.295 492.999 384.5C492.999 387.951 496.302 390.091 504.709 392.088C511.84 393.782 514.445 393.852 535.499 392.924C552.029 392.196 559.699 391.461 562.764 390.314C566.691 388.843 567.172 388.847 568.843 390.358C571.05 392.356 579.405 392.687 578.731 390.75C578.492 390.063 577.33 389.536 576.148 389.579C572.472 389.715 573.758 388.251 580.182 384.987C587.866 381.082 593.713 377.061 597.102 373.35C604.096 365.692 608.959 355 605.449 355C602.494 355 589.778 362.127 589.271 364.069C588.993 365.131 588.117 366 587.323 366C586.53 366 586.125 365.605 586.424 365.122C586.722 364.639 585.21 363.082 583.064 361.661C578.685 358.764 573.999 353.121 573.999 350.745C573.999 349.884 572.272 346.995 570.161 344.325C566.676 339.916 565.66 339.298 559.092 337.594C550.569 335.383 541.381 335.816 529.56 338.984C525.422 340.093 521.354 341 520.52 341C519.686 341 516.191 342.333 512.752 343.962C505.316 347.484 496.23 355.901 493.643 361.663C492.276 364.708 490.526 366.484 487.007 368.399C484.379 369.83 481.263 371 480.083 371C478.903 371 474.914 372.711 471.218 374.802C463.448 379.199 460.999 380.245 460.999 379.166C460.999 377.964 475.141 364.893 477.707 363.723C478.967 363.149 479.999 362.308 479.999 361.853C479.999 361.399 484.387 356.541 489.749 351.057C502.127 338.399 515.177 323.418 521.134 315.028C526.811 307.033 529.897 304.168 536.999 300.294C540.024 298.644 545.683 295.505 549.574 293.319C560.793 287.017 571.082 284.278 572.377 287.25C572.751 288.108 573.443 287.794 574.583 286.25C576.977 283.006 579.538 283.408 580.952 287.25C583.898 295.259 586.985 299.987 593.594 306.617C599.587 312.629 601.682 314.054 607.094 315.796C613.976 318.012 630.235 318.873 632.346 317.134C632.98 316.611 636.052 315.289 639.173 314.194C644.783 312.227 661.692 302.402 667.499 297.735C672.456 293.752 683.156 287.884 684.883 288.203C685.772 288.366 687.387 290.413 688.473 292.75C689.559 295.087 690.796 297 691.223 297C691.65 297 691.999 293.917 691.999 290.148C691.999 280.396 690.263 278.249 675.142 269.306C668.348 265.288 662.402 262 661.928 262C661.051 262 657.657 260.614 650.499 257.333C647.488 255.953 643.779 255.46 635.499 255.337C620.243 255.111 606.425 257.561 587.499 263.847C578.433 266.858 576.492 267.852 576.46 269.5C576.417 271.692 573.429 277.329 570.883 280.023C569.994 280.963 567.069 282.044 564.383 282.425C559.087 283.175 552.372 285.294 547.288 287.818C543.515 289.692 541.613 288.565 544.499 286.164C545.599 285.249 547.174 283.166 547.999 281.535C549.587 278.396 595.844 231.641 604.921 224C616.496 214.257 625.858 209.078 626.798 211.898C627.528 214.087 631.212 216.888 634.235 217.552C635.867 217.91 639.519 219.237 642.35 220.5C646.297 222.261 650.194 222.952 659.04 223.458C680.534 224.689 697.346 218.59 711.199 204.539C719.585 196.033 725.244 182.108 721.558 179.049C718.996 176.923 694.335 176.341 688.322 178.266C685.669 179.115 680.799 180.338 677.499 180.984C661.825 184.053 654.825 187.196 648.28 194.103C646.249 196.246 644.211 198 643.752 198C643.294 198 641.679 198.916 640.164 200.036C637.532 201.982 627.026 205.361 626.194 204.529C625.72 204.054 631.393 197.626 639.008 190.01C642.037 186.979 649.687 178.454 656.008 171.065C672.159 152.182 681.906 142.138 685.935 140.226C689.972 138.31 693.594 138.229 704.327 139.814C714.501 141.317 723.342 140.102 736.765 135.355C749.033 131.016 753.214 127.693 762.911 114.576C773.127 100.756 776.002 95.766 775.973 91.912C775.95 88.905 775.464 88.277 771.876 86.621C768.502 85.064 767.177 84.927 764.151 85.821C762.143 86.414 757.349 87.561 753.499 88.37C737.26 91.781 712.395 107.863 704.857 119.83C699.405 128.485 697.871 130.154 693.578 132.104C685.842 135.617 685.634 133.991 692.702 125.245C697.95 118.752 702.233 112.113 706.453 103.931C710.452 96.178 717.568 85.604 720.685 82.786C723.65 80.104 730.763 78.316 743.499 77.052C750.099 76.397 757.524 75.372 759.999 74.775C766.472 73.213 787.226 62.855 795.999 56.809C804.901 50.673 813.702 41.524 814.976 37.08C816.282 32.528 814.467 32.275 806.669 35.921C794.168 41.765 779.301 46.428 766.499 48.519C764.299 48.879 759.124 50.895 754.999 52.999C750.874 55.104 746.534 57.105 745.354 57.447C742.726 58.208 733.999 67.363 733.999 69.359C733.999 70.741 729.231 73 726.315 73C725.219 73 725.163 72.563 726.046 70.912C728.492 66.342 734.465 60.926 739.838 58.406C742.951 56.946 747.963 53.669 750.974 51.125C759.42 43.991 769.999 33.854 769.999 32.896C769.999 32.423 771.863 28.99 774.141 25.268C779.525 16.473 782.003 10.596 781.984 6.66701C781.95 -0.386994 778.407 -1.15901 770.499 4.16499ZM763.212 23C763.454 24.65 763.336 26 762.948 26C761.533 26 759.791 22.984 760.356 21.513C761.305 19.039 762.741 19.787 763.212 23ZM752.919 26.75C748.298 32.853 744.999 34.832 744.999 31.5C744.999 30.675 745.677 30 746.506 30C747.334 30 748.99 28.875 750.186 27.5C752.634 24.684 754.968 24.044 752.919 26.75ZM744.999 27.943C744.999 28.462 744.017 29.574 742.818 30.414C740.657 31.928 740.655 31.962 742.568 34.098C744.455 36.206 744.456 36.28 742.615 37.377C741.579 37.995 739.441 39.553 737.865 40.839L734.999 43.178V38.489C734.999 34.49 735.499 33.3 738.399 30.4C741.634 27.165 744.999 25.913 744.999 27.943ZM759.278 31.613C760.331 32.665 743.852 51 741.853 51C740.833 51 739.999 50.784 739.999 50.519C739.999 49.515 747.094 38.999 747.78 38.988C748.175 38.981 750.431 37.181 752.792 34.988C757.082 31.003 758.126 30.46 759.278 31.613ZM682.999 35.933C682.999 38.131 679.959 39.439 677.019 38.506C675.93 38.161 674.291 38.297 673.377 38.808C671.517 39.849 667.999 39.244 667.999 37.883C667.999 37.398 669.462 36.986 671.249 36.968C673.036 36.951 675.373 36.276 676.44 35.468C679.307 33.3 682.999 33.561 682.999 35.933ZM695.879 38.068C699.305 38.802 701.355 39.894 702.451 41.568C704.204 44.242 707.999 44.88 707.999 42.5C707.999 41.675 708.46 41 709.024 41C710.439 41 711.975 45.375 711.371 47.685C710.613 50.585 704.228 49.559 700.909 46.003C699.485 44.476 696.447 42.046 694.159 40.601C688.106 36.78 688.33 36.449 695.879 38.068ZM693.066 46.658C694.478 48.221 696.483 51.525 697.521 54C698.559 56.475 700.216 59.573 701.204 60.885C703.17 63.497 703.564 66 702.01 66C701.465 66 698.652 63.863 695.757 61.25C692.862 58.637 689.364 55.6 687.983 54.5C683.773 51.145 677.614 42.982 678.593 42.053C681.512 39.285 688.379 41.47 693.066 46.658ZM799.999 46.784C799.999 48.452 793.842 51.177 791.437 50.574C788.386 49.808 788.302 48.216 791.249 47.031C794.063 45.9 799.999 45.733 799.999 46.784ZM785.514 52.606C786.947 54.039 787.98 55.343 787.81 55.504C786.701 56.544 774.982 63 774.202 63C773.107 63 771.239 58.666 770.797 55.099C770.546 53.078 771.13 52.502 774.499 51.454C780.61 49.553 782.677 49.769 785.514 52.606ZM707.998 53.726C709.512 55.651 709.776 56.574 708.895 56.868C707.649 57.283 703.999 53.572 703.999 51.889C703.999 50.167 705.877 51.03 707.998 53.726ZM778.235 52.308C775.947 53.329 775.276 55.435 776.915 56.448C778.267 57.284 782.638 55.383 783.293 53.675C784.025 51.768 781.172 50.997 778.235 52.308ZM767.013 54.75C767.02 55.712 767.298 57.512 767.629 58.75C768.432 61.746 766.712 61.622 763.544 58.455C760.441 55.351 760.428 55.165 763.249 54.031C766.523 52.715 766.997 52.806 767.013 54.75ZM759.999 56.941C759.999 57.459 759.549 58.16 758.999 58.5C758.449 58.84 757.999 59.991 757.999 61.059C757.999 63.152 756.04 63.641 754.366 61.967C752.872 60.473 749.99 61.892 748.947 64.636C748.428 66.002 747.228 67 746.106 67C745.037 67 743.389 67.297 742.444 67.659C739.789 68.678 741.168 65.866 744.218 64.043C745.638 63.194 749.207 61.047 752.149 59.272C757.613 55.975 759.999 55.267 759.999 56.941ZM771.429 62.887C772.228 64.18 770.26 65.392 763.396 67.831C757.293 70 751.984 70.662 752.016 69.25C752.041 68.15 765.744 62.761 770.19 62.102C770.57 62.046 771.128 62.399 771.429 62.887ZM724.999 86.441C724.999 87.298 725.449 88 725.999 88C726.549 88 726.999 87.577 726.999 87.059C726.999 86.541 726.549 85.84 725.999 85.5C725.449 85.16 724.999 85.584 724.999 86.441ZM652.702 92.945C657.248 97.314 658.524 100.484 659.465 109.76C659.923 114.268 659.703 116.786 658.679 118.76C657.897 120.267 656.447 124.099 655.457 127.276C654.467 130.453 653.171 132.906 652.578 132.726C651.984 132.547 650.447 130.398 649.162 127.95C646.97 123.776 646.861 122.74 647.391 111.25C647.928 99.64 647.857 99 646.037 99C644.981 99 643.851 98.57 643.526 98.044C643.201 97.518 642.274 97.341 641.467 97.651C640.563 97.998 639.999 97.614 639.999 96.652C639.999 95.663 641.266 94.853 643.455 94.442C646.841 93.807 646.879 93.746 645.34 91.397C643.832 89.096 643.866 89 646.183 89C647.632 89 650.236 90.575 652.702 92.945ZM766.999 92.432C766.999 94.783 761.251 98.28 758.514 97.593C755.382 96.807 750.999 98.841 750.999 101.08C750.999 102.319 749.445 103.345 745.749 104.548C742.861 105.488 739.789 106.874 738.92 107.628C736.768 109.498 735.999 109.352 735.999 107.073C735.999 104.698 740.083 101.36 744.054 100.488C745.683 100.13 747.435 99.055 747.947 98.098C748.459 97.141 750.592 95.633 752.688 94.747C761.891 90.856 766.999 90.029 766.999 92.432ZM765.083 99.776C764.304 100.051 760.847 103.14 757.399 106.639C752.622 111.487 750.461 112.996 748.315 112.985C742.767 112.955 742.671 111.59 747.905 107.176C750.629 104.879 753.504 103 754.294 103C755.083 103 756.817 102.144 758.147 101.098C759.477 100.052 761.675 99.021 763.032 98.808C765.837 98.367 767.218 99.019 765.083 99.776ZM642.829 104.388C643.11 106.848 642.887 107.164 641.329 106.524C640.322 106.111 638.712 105.547 637.749 105.27C634.119 104.226 636.014 100.744 639.962 101.204C641.929 101.434 642.573 102.149 642.829 104.388ZM729.429 107.886C729.73 108.374 729.129 108.994 728.094 109.265C726.997 109.552 725.932 111.031 725.541 112.81C725.172 114.488 724.224 116.398 723.435 117.053C722.645 117.709 721.999 119.567 721.999 121.184C721.999 124.12 721.995 124.122 717.249 123.433C714.637 123.054 712.307 122.572 712.072 122.362C711.223 121.602 715.533 119.068 716.868 119.543C717.884 119.903 718.103 119.324 717.716 117.299C716.798 112.497 727.141 104.185 729.429 107.886ZM735.503 111.007C735.845 111.561 735.197 113.318 734.062 114.911C732.927 116.505 731.999 118.316 731.999 118.937C731.999 120.18 727.94 122.025 726.749 121.324C725.612 120.654 725.852 117 727.033 117C727.601 117 728.996 115.425 730.132 113.5C732.173 110.039 734.296 109.054 735.503 111.007ZM639.788 113.847C640.145 114.934 639.806 114.967 638.037 114.02C634.85 112.315 632.805 113.463 633.182 116.744C633.463 119.185 633.871 119.471 636.749 119.246C640.866 118.925 641.168 121.325 637.249 123.222C635.219 124.204 634.585 125.158 634.827 126.865C635.076 128.619 634.731 129.095 633.399 128.838C629.727 128.131 629.297 117.585 632.781 113.703C634.606 111.67 639.103 111.763 639.788 113.847ZM741.999 117C744.734 119.735 744.563 122 741.621 122C738.829 122 737.427 123.447 736.451 127.336C736.061 128.89 735.237 130.299 734.62 130.468C734.004 130.636 731.079 131.501 728.122 132.391C721.06 134.514 706.525 135.66 705.601 134.166C704.853 132.955 706.892 132.357 713.999 131.704C718.682 131.274 727.334 127.808 729.748 125.394C730.514 124.627 731.762 124 732.521 124C733.279 124 734.259 123.391 734.699 122.646C735.139 121.901 736.541 120.745 737.814 120.076C739.532 119.173 739.856 118.533 739.072 117.588C738.492 116.889 738.312 116.02 738.674 115.658C739.616 114.716 739.782 114.783 741.999 117ZM748.999 123C748.999 123.55 748.549 124 747.999 124C747.449 124 746.999 123.55 746.999 123C746.999 122.45 747.449 122 747.999 122C748.549 122 748.999 122.45 748.999 123ZM641.664 133.063C646.524 134.911 647.477 138 643.186 138C641.366 138 639.359 136.941 637.499 135C634.796 132.179 634.751 132 636.747 132C637.914 132 640.126 132.478 641.664 133.063ZM559.728 137.604C559.396 137.936 558.533 137.972 557.812 137.683C557.014 137.364 557.251 137.127 558.416 137.079C559.47 137.036 560.06 137.272 559.728 137.604ZM575.708 139.112C584.396 140.353 590.317 143.212 594.506 148.191L597.224 151.421L595.026 152.401C591.911 153.791 589.413 151.982 589.821 148.633C590.182 145.67 587.81 144.082 585.672 145.857C584.705 146.659 583.436 146.302 580.738 144.468C578.74 143.111 575.761 142 574.117 142C570.397 142 565.999 140.388 565.999 139.025C565.999 137.751 566.187 137.753 575.708 139.112ZM563.583 150.766C569.355 156.317 576.837 164.786 581.236 170.75C583.366 173.637 585.554 176 586.097 176C586.64 176 589.48 177.77 592.407 179.932C597.949 184.026 600.007 187.676 597.349 188.696C594.098 189.943 583.853 187.95 577.436 184.821C569.703 181.05 566.014 177.144 565.963 172.673C565.901 167.136 563.301 158.265 560.732 154.824C559.367 152.996 557.728 150.488 557.089 149.25C555.157 145.504 559.058 146.415 563.583 150.766ZM601.151 165.406C601.573 170.136 599.451 171.501 598.59 167.053C598.265 165.374 597.724 162.586 597.388 160.858C596.783 157.743 596.795 157.732 598.79 159.608C599.954 160.702 600.95 163.148 601.151 165.406ZM594.467 164C595.332 164 595.999 164.87 595.999 166C595.999 168.846 594.581 168.481 591.525 164.848C589.487 162.427 589.175 161.509 590.179 160.889C591.039 160.357 591.733 160.751 592.21 162.041C592.608 163.118 593.624 164 594.467 164ZM497.034 180.934C496.465 181.998 495.999 184.023 495.999 185.434C495.999 187.504 496.482 188 498.499 188C500.307 188 500.999 188.537 500.999 189.941C500.999 195.386 494.559 192.239 494.179 186.61C493.924 182.809 495.37 179 497.069 179C497.724 179 497.712 179.668 497.034 180.934ZM533.272 183C534.67 184.1 536.68 185 537.738 185C538.835 185 540.253 186.181 541.04 187.75C541.798 189.262 543.562 191.693 544.959 193.152C551.964 200.464 552.999 202.731 552.999 210.762C552.999 218.105 551.679 222.117 547.01 228.969C546.062 230.361 544.497 232.797 543.533 234.382C542.171 236.62 541.585 236.955 540.905 235.882C539.693 233.969 539.775 230.743 541.015 231.51C541.574 231.856 541.792 232.526 541.499 233C541.206 233.474 541.349 234.098 541.816 234.387C542.283 234.676 542.736 234.369 542.821 233.706C542.907 233.043 543.372 230.025 543.854 227C544.348 223.904 544.353 221.354 543.865 221.167C543.389 220.983 542.999 220.185 542.999 219.392C542.999 218.599 541.837 217.509 540.418 216.969C537.261 215.769 537.754 213.402 541.086 213.757C542.413 213.898 544.153 213.59 544.953 213.072C546.193 212.269 546.207 211.757 545.052 209.599C543.911 207.467 543.913 206.809 545.066 205.419C546.25 203.993 546.135 203.529 544.217 201.975C542.997 200.987 541.999 199.674 541.999 199.056C541.999 198.438 540.401 196.99 538.448 195.837C535.374 194.024 534.979 193.369 535.506 190.966C536.272 187.481 534.501 186.236 531.999 188.5C529.702 190.579 527.999 189.702 527.999 186.441C527.999 184.318 527.543 184 524.499 184C521.19 184 520.171 183.161 521.666 181.667C523.161 180.171 530.79 181.048 533.272 183ZM502.093 186.306C501.301 187.098 500.999 186.838 500.999 185.367C500.999 182.723 502.397 181.32 502.843 183.517C503.032 184.449 502.694 185.705 502.093 186.306ZM713.999 185.015C713.999 187.45 709.03 196.311 705.243 200.628C693.319 214.224 671.873 220.085 650.499 215.589C633.458 212.004 631.518 210.934 637.515 208.429C643.725 205.834 647.644 205.538 650.552 207.443C652.14 208.483 654.568 209.017 656.821 208.821C659.99 208.545 660.543 208.812 660.819 210.75C661.042 212.327 661.816 213 663.402 213C666.479 213 667.131 212.116 665.837 209.698C664.96 208.058 665.102 207.398 666.564 206.329C669.247 204.367 669.839 204.664 670.186 208.149C670.598 212.289 673.328 214.099 675.653 211.774C677.243 210.185 677.183 210.021 674.672 209.066C671.464 207.846 671.091 204.343 673.811 200.984C675.144 199.337 676.205 198.931 677.826 199.445C679.037 199.829 679.767 200.566 679.449 201.081C679.13 201.596 679.14 202.869 679.47 203.909C679.992 205.555 680.451 205.656 683.01 204.69C685.631 203.701 686.259 203.875 688.78 206.29C692.015 209.39 692.999 209.656 692.999 207.433C692.999 206.572 694.155 204.351 695.569 202.498C697.649 199.771 697.934 198.748 697.069 197.13C695.328 193.878 695.808 193 699.325 193C703.26 193 707.626 189.076 706.616 186.445C705.909 184.603 702.972 184.985 697.332 187.652C693.508 189.46 688.627 189.087 688.224 186.955C687.75 184.454 692.724 183.221 703.749 183.106C713.393 183.006 713.999 183.119 713.999 185.015ZM686.675 189.724C687.316 191.772 687.625 193.797 687.361 194.224C686.477 195.653 680.239 195.069 679.637 193.5C678.374 190.209 670.439 192.599 668.874 196.743C668.056 198.907 664.334 199.025 661.956 196.962C658.641 194.087 660.244 191.98 667.068 190.246C670.055 189.487 674.524 188.248 676.999 187.494C684.273 185.278 685.362 185.529 686.675 189.724ZM678.428 194.886C678.729 195.373 677.968 195.99 676.737 196.257C675.506 196.524 673.712 197.074 672.749 197.478C671.676 197.929 670.999 197.773 670.999 197.075C670.999 195.053 677.372 193.176 678.428 194.886ZM503.536 197.06C503.815 197.511 503.205 198.695 502.181 199.69C501.157 200.686 500.036 202.288 499.69 203.25C498.524 206.496 496.999 205.031 496.999 200.667C496.999 198.283 497.235 196.098 497.523 195.81C498.247 195.085 502.915 196.055 503.536 197.06ZM693.362 198.619C695.676 201.795 694.484 203.266 689.953 202.823C686.172 202.453 684.925 200.514 687.958 199.721C689.081 199.427 689.999 198.47 689.999 197.594C689.999 195.306 691.218 195.678 693.362 198.619ZM657.999 197.887C657.999 198.374 656.649 198.971 654.999 199.213C652.113 199.637 651.26 199.072 652.666 197.667C653.654 196.679 657.999 196.858 657.999 197.887ZM540.296 206.397C539.308 207.715 538.16 208.588 537.746 208.336C536.551 207.61 538.91 204 540.581 204C541.85 204 541.805 204.384 540.296 206.397ZM546.049 216.906C544.748 219.338 544.729 220 545.964 220C547.423 220 549.184 216.232 548.052 215.533C547.528 215.209 546.627 215.827 546.049 216.906ZM493.541 239.067C493.904 239.655 493.256 240.381 492.1 240.684C490.885 241.002 489.999 242.044 489.999 243.154C489.999 244.653 490.603 245.012 492.749 244.788C495.455 244.505 495.508 244.607 496.074 251.187C496.39 254.864 497.228 258.57 497.935 259.423C498.773 260.432 498.999 262.284 498.583 264.736C498.232 266.806 497.598 270.75 497.172 273.5C496.747 276.25 495.871 279.461 495.225 280.635C494.123 282.641 493.933 284.329 493.833 293C493.745 300.741 492.874 305.166 491.541 304.654C489.325 303.804 486.11 306.875 485.035 310.866C484.473 312.952 482.252 316.511 480.098 318.776C477.944 321.04 475.902 324.163 475.561 325.716C474.776 329.29 470.088 335.3 470.035 332.799C469.954 328.954 472.295 320.417 473.743 319.281C475.025 318.275 475.071 317.792 474.005 316.507C472.955 315.242 472.948 312.95 473.967 304.226C475.52 290.941 478.589 280.963 483.313 273.846C486.085 269.67 487.074 266.992 487.525 262.444C487.848 259.175 488.586 254.622 489.165 252.326C489.743 250.03 490.012 247.555 489.761 246.826C489.123 244.967 485.007 251.904 485.003 254.846C484.998 257.776 482.619 262.116 477.653 268.253C475.218 271.263 473.265 275.114 472.328 278.753C471.514 281.914 469.982 285.988 468.924 287.807C467.472 290.302 466.999 293.028 466.999 298.908C466.999 306.242 465.779 312.337 463.895 314.417C462.519 315.936 461.581 311.899 462.841 309.881C465.887 305.003 462.676 301.407 456.336 302.597L452.701 303.278L453.418 294.389C454.225 284.369 456.713 274.136 460.319 266C463.223 259.45 476.417 246.237 484.999 241.286C490.976 237.837 492.531 237.433 493.541 239.067ZM646.999 262.454C648.825 263.465 649.499 264.668 649.499 266.919C649.499 270.235 649.376 270.288 643.783 269.364C640.754 268.863 640.107 268.357 640.283 266.625C640.469 264.794 639.902 264.457 636.19 264.19C633.792 264.017 629.905 264.634 627.424 265.582C624.003 266.888 621.356 267.135 616.043 266.641C612.07 266.271 608.873 266.395 608.541 266.931C608.224 267.445 605.384 268.387 602.232 269.024C596.394 270.204 589.38 273.631 587.047 276.442C585.711 278.052 581.999 278.612 581.999 277.203C581.999 276.765 583.687 274.794 585.749 272.824C589.849 268.908 599.455 264.716 609.24 262.572C617.869 260.682 643.65 260.601 646.999 262.454ZM503.999 266.621C503.999 267.998 503.245 271.431 502.322 274.25C500.784 278.952 500.563 279.19 499.643 277.128C498.948 275.57 499.002 273.88 499.82 271.619C500.468 269.826 500.999 267.452 500.999 266.346C500.999 265.239 501.287 264.046 501.638 263.694C502.782 262.55 503.999 264.059 503.999 266.621ZM655.434 269.895C655.739 270.388 655.33 271.043 654.525 271.352C652.963 271.951 651.628 270.704 652.693 269.639C653.597 268.735 654.786 268.846 655.434 269.895ZM669.642 272.75C672.037 274.262 673.996 276.063 673.997 276.75C674 278.665 671.884 278.241 669.292 275.806C667.566 274.184 665.918 273.673 662.978 273.846C658.718 274.098 658.286 273.726 660.249 271.496C662.138 269.351 664.831 269.71 669.642 272.75ZM641.499 277C642.288 278.277 638.975 278.277 636.999 277C635.826 276.242 636.085 276.027 638.19 276.015C639.67 276.007 641.159 276.45 641.499 277ZM683.679 283.393C682.811 285.653 665.102 291.128 655.499 292.105C650.117 292.652 646.097 293.558 645.499 294.356C644.949 295.091 642.767 296.318 640.651 297.083C636.93 298.427 636.725 298.383 634.488 295.782C631.789 292.645 623.081 290.857 620.585 292.929C619.273 294.018 611.547 294.498 607.999 293.711C607.174 293.528 604.924 292.395 602.999 291.193C598.852 288.603 598.123 288.514 597.361 290.5C597.044 291.325 595.717 292 594.412 292C592.642 292 591.509 290.961 589.95 287.903C588.8 285.65 588.08 283.233 588.349 282.532C588.959 280.939 609.801 278.484 615.499 279.333C617.699 279.66 623.977 280.592 629.451 281.403C634.924 282.215 641.146 283.664 643.277 284.625C646.603 286.125 647.28 286.169 648.064 284.936C648.567 284.146 648.815 283.05 648.616 282.5C648.386 281.864 653.238 281.5 661.931 281.5C672.951 281.5 676.082 281.181 678.053 279.859C680.352 278.316 680.61 278.334 682.336 280.16C683.347 281.229 683.951 282.684 683.679 283.393ZM498.999 284.2C498.999 285.815 498.703 286.104 497.886 285.287C497.274 284.675 497.076 283.685 497.445 283.087C498.48 281.413 498.999 281.785 498.999 284.2ZM663.004 285.894C660.677 286.541 658.773 290 660.744 290C663.396 290 671.971 286.764 671.47 285.952C670.806 284.879 666.75 284.851 663.004 285.894ZM461.999 286.893C461.999 288.017 464.6 289.066 465.401 288.264C466.605 287.061 465.948 286 463.999 286C462.899 286 461.999 286.402 461.999 286.893ZM460.589 295.627C460.215 296.6 460.675 297.774 461.73 298.545C462.701 299.255 463.546 299.761 463.607 299.668C463.668 299.576 464.015 298.263 464.377 296.75C464.922 294.479 464.704 294 463.125 294C462.073 294 460.932 294.732 460.589 295.627ZM400.823 299.75C400.264 301.813 399.011 304.4 398.037 305.5C396.174 307.604 395.925 315.017 397.431 323.5L398.141 327.5L395.108 322.814L392.075 318.128L393.663 312.314C394.536 309.116 395.558 304.684 395.934 302.463C396.798 297.358 397.648 296 399.977 296C401.641 296 401.73 296.397 400.823 299.75ZM386.67 298.563C386.833 299.078 386.584 300.104 386.117 300.842C385.408 301.962 384.913 301.963 383.133 300.852C380.541 299.233 380.427 298.294 382.749 297.696C385.017 297.111 386.301 297.395 386.67 298.563ZM414.59 299.5C415.965 300.875 417.504 302 418.01 302C418.516 302 420.261 303.237 421.888 304.75C423.515 306.263 426.058 308.348 427.539 309.385C434.353 314.153 438.053 333.041 434.517 345C433.622 348.025 432.629 351.625 432.31 353C431.104 358.199 417.13 375 414.012 375C413.455 375 412.999 373.66 412.999 372.023C412.999 369.951 413.759 368.548 415.499 367.408C416.874 366.507 417.999 365.177 417.999 364.452C417.999 363.728 418.904 362.848 420.01 362.497C421.116 362.145 422.703 360.54 423.536 358.929C424.369 357.318 425.478 356 426.002 356C427.7 356 430.392 350.993 429.287 349.888C428.609 349.21 427.434 349.883 425.7 351.943C422.599 355.629 421.522 354.486 422.983 349.06C424.088 344.956 427.111 342 430.202 342C432.384 342 433.224 338.652 432.2 334.036C431.437 330.597 431.394 330.573 426.465 330.858C420.628 331.195 419.166 332.355 417.956 337.609C416.913 342.14 417.537 345 419.566 345C421.272 345 421.337 345.5 419.964 348.066C418.736 350.361 414.999 350.669 414.999 348.475C414.999 347.637 413.847 346.512 412.439 345.977C409.826 344.984 409.927 343 412.59 343C414.579 343 415.941 339.024 414.899 336.259C414.435 335.026 414.224 333.451 414.431 332.759C415.861 327.972 416.073 327.674 417.232 328.833C417.874 329.475 419.434 330 420.699 330C422.623 330 423.003 329.468 423.021 326.75C423.033 324.962 423.923 322.375 424.999 321C427.045 318.385 427.596 316 426.154 316C425.055 316 422.472 319.024 421.694 321.22C421.148 322.763 416.438 324.794 415.55 323.87C415.355 323.667 415.038 322.375 414.847 321C414.543 318.815 414.833 318.539 417.154 318.809C419.029 319.027 420.57 318.297 422.404 316.319C423.831 314.78 424.999 313.197 424.999 312.801C424.999 311.165 419.378 306.958 417.745 307.371C416.531 307.678 415.804 307.073 415.386 305.407C414.592 302.241 411.297 302.253 409.85 305.428C408.783 307.769 404.999 308.686 404.999 306.603C404.999 304.33 409.3 297 410.634 297C411.435 297 413.215 298.125 414.59 299.5ZM627.292 300.249C626.909 302.251 627.442 302.704 631.44 303.773C637.36 305.356 640.042 305.282 642.44 303.468C644.677 301.776 647.999 301.515 647.999 303.031C647.999 303.599 647.212 304.353 646.249 304.708C645.286 305.064 644.19 305.818 643.811 306.385C643.433 306.952 639.8 307.435 635.737 307.458C628.878 307.497 628.124 307.286 625.175 304.503C621.423 300.963 621.176 299.247 624.249 298.085C627.175 296.98 627.828 297.444 627.292 300.249ZM460.999 306.059C460.999 306.577 460.324 307 459.499 307C457.953 307 457.512 305.82 458.638 304.694C459.437 303.895 460.999 304.798 460.999 306.059ZM621.999 305C622.824 305.533 623.049 305.969 622.499 305.969C621.949 305.969 620.824 305.533 619.999 305C619.174 304.467 618.949 304.031 619.499 304.031C620.049 304.031 621.174 304.467 621.999 305ZM371.102 306.738C378.14 308.662 384.337 316.365 389.817 330C393.803 339.918 394.739 353.146 392.469 367.5C391.599 373 390.623 379.873 390.301 382.772C389.768 387.561 389.521 387.986 387.607 387.404C386.448 387.052 384.68 386.044 383.68 385.164C380.688 382.534 370.869 368.01 369.802 364.636C369.256 362.911 368.452 355.161 368.015 347.414C367.447 337.349 366.733 332.386 365.512 330.026C364.508 328.084 364.028 325.606 364.347 324.012C364.716 322.167 364.162 320.216 362.612 317.901C359.568 313.353 356.999 308.022 356.999 306.254C356.999 305.125 358.131 304.916 362.249 305.284C365.137 305.542 369.121 306.196 371.102 306.738ZM458.881 313.906C460.056 314.65 460.057 315.248 458.887 317.891C456.708 322.815 453.999 321.445 453.999 315.418C453.999 312.883 456.193 312.203 458.881 313.906ZM463.999 320C463.999 321.1 463.576 322 463.058 322C461.716 322 460.77 320.18 461.499 319C462.544 317.309 463.999 317.891 463.999 320ZM461.884 325.908C463.413 326.876 462.673 332 461.006 332C459.764 332 456.887 326.445 457.706 325.627C458.576 324.757 460.244 324.869 461.884 325.908ZM427.999 336.854C427.999 338.668 422.85 343.251 421.89 342.291C420.094 340.495 422.655 336 425.474 336C426.863 336 427.999 336.384 427.999 336.854ZM564.16 346.655C565.746 348.174 567.568 351.168 568.21 353.309C568.851 355.449 570.439 357.897 571.738 358.749C574.374 360.476 576.999 364.947 576.999 367.71C576.999 368.705 576.099 370.081 574.999 370.768C573.253 371.859 572.999 371.767 572.999 370.044C572.999 368.958 572.099 367.589 570.999 367C569.899 366.411 568.999 365.025 568.999 363.919C568.999 362.814 567.939 360.849 566.644 359.554C565.349 358.259 564.009 356.47 563.667 355.577C563.325 354.685 562.247 353.671 561.272 353.325C560.297 352.978 557.474 351.294 554.999 349.581C552.524 347.868 549.193 345.89 547.597 345.185C545.913 344.442 545.073 343.54 545.597 343.037C548.504 340.241 559.755 342.434 564.16 346.655ZM543.999 342.497C543.999 343.871 537.369 345.654 535.614 344.753C534.085 343.968 533.99 343.619 535.114 342.908C536.57 341.985 543.999 341.642 543.999 342.497ZM529.999 346C528.624 347.076 526.044 347.966 524.266 347.978C522.287 347.991 519.96 348.946 518.266 350.439C511.019 356.826 507.999 359.129 507.999 358.27C507.999 357.755 509.462 355.651 511.249 353.594C514.701 349.624 525.63 344.06 529.999 344.05L532.499 344.044L529.999 346ZM547.454 349.87C549.503 350.31 550.588 351.259 550.991 352.966C551.354 354.505 552.495 355.643 554.035 356.005C555.58 356.367 556.618 357.406 556.819 358.791C557.078 360.583 556.649 361 554.552 361C552.582 361 551.57 360.167 550.298 357.5C549.38 355.575 548.149 353.984 547.564 353.964C546.978 353.944 545.149 352.821 543.499 351.469C540.252 348.808 541.031 348.493 547.454 349.87ZM463.111 353.287C462.295 354.104 461.999 353.992 461.999 352.867C461.999 350.879 463.344 349.534 463.841 351.025C464.052 351.657 463.723 352.676 463.111 353.287ZM282.817 361.5C283.731 363.505 283.685 364 282.585 364C281.292 364 279.999 361.958 279.999 359.918C279.999 358.097 281.702 359.053 282.817 361.5ZM409.999 365.941C409.999 369.301 408.475 370.842 407.726 368.239C407.451 367.282 406.902 365.712 406.505 364.75C405.953 363.409 406.278 363 407.892 363C409.557 363 409.999 363.617 409.999 365.941ZM296.112 373.178C300.299 377.205 303.949 381.175 304.223 382C304.719 383.492 301.499 391 300.363 391C300.036 391 300.071 388.583 300.44 385.628C300.998 381.163 300.833 380.15 299.465 379.625C297.144 378.735 296.254 379.545 295.468 383.261C295.091 385.043 293.932 387.903 292.891 389.618C291.85 391.333 290.999 393.265 290.999 393.912C290.999 394.558 289.873 396.302 288.497 397.786C287.12 399.27 285.497 401.992 284.889 403.834C284.15 406.072 283.45 406.851 282.781 406.182C282.112 405.513 283.144 402.334 285.889 396.61C288.15 391.897 289.999 387.636 289.999 387.142C289.999 386.648 291.012 385.568 292.249 384.743C294.352 383.34 294.41 383.022 293.135 379.871C292.384 378.017 291.553 375.31 291.287 373.855C290.93 371.906 290.041 371.058 287.901 370.63C285.457 370.142 284.999 369.567 284.999 366.99C284.999 362.979 286.205 363.651 296.112 373.178ZM537.556 367.497C541.375 369.42 545.47 370.995 546.657 370.997C547.843 370.999 551.085 372.178 553.86 373.618C558.274 375.908 558.724 376.418 557.453 377.689C555.234 379.908 555.704 381 558.877 381C562.168 381 565.152 383.62 562.861 384.499C562.112 384.787 551.599 385.405 539.499 385.874C520.937 386.592 516.952 386.493 513.999 385.243C499.83 379.244 497.113 377.1 500.521 374.608C501.775 373.691 502.109 372.575 501.664 370.8C501.115 368.616 501.52 368.078 504.766 366.676C509.252 364.737 512.009 364.346 522.556 364.15C529.926 364.013 531.206 364.298 537.556 367.497ZM589.417 368.607C591.978 369.59 591.308 370.6 585.58 374.403C579.158 378.665 577.765 378.818 575.591 375.5C574.05 373.149 574.061 373 575.776 373C576.779 373 578.083 372.516 578.674 371.925C579.474 371.125 585 368.74 587.667 368.044C587.76 368.02 588.547 368.273 589.417 368.607ZM558.728 369.604C558.396 369.936 557.533 369.972 556.812 369.683C556.014 369.364 556.251 369.127 557.416 369.079C558.47 369.036 559.06 369.272 558.728 369.604ZM407.323 376.25C406.542 383.302 404.999 384.729 404.999 378.4C404.999 374.338 406.196 371 407.652 371C407.791 371 407.643 373.362 407.323 376.25ZM398.999 384.359C398.999 386.517 397.344 389 395.905 389C395.524 389 395.667 387.206 396.223 385.014C397.276 380.868 398.999 380.462 398.999 384.359ZM289.822 383.667C289.336 386.176 286.999 386.52 286.999 384.083C286.999 382.855 287.645 382 288.572 382C289.504 382 290.014 382.68 289.822 383.667ZM314.687 394.75C324.326 408.999 332.999 425.364 332.999 429.301C332.999 432.868 331.681 436.666 327.27 445.805C323.78 453.038 322.392 451.425 323.84 441.819C324.813 435.36 324.748 434.354 323.289 433.257C322.379 432.573 321.37 430.098 321.047 427.757C320.607 424.579 320.049 423.568 318.842 423.768C316.204 424.205 315.854 421.116 317.994 416.278C320.412 410.813 320.401 411.338 318.104 410.738C316.769 410.389 315.838 411.019 314.952 412.871L313.694 415.5L312.946 413C312.535 411.625 312.154 409.074 312.099 407.332C311.954 402.738 311.099 401.103 308.005 399.503C304.297 397.586 303.824 394.967 306.304 390.084C307.445 387.838 308.466 386 308.573 386C308.68 386 311.432 389.938 314.687 394.75ZM305.999 393.941C305.999 395.073 306.449 396 306.999 396C307.549 396 307.999 395.352 307.999 394.559C307.999 393.766 307.549 392.84 306.999 392.5C306.449 392.16 305.999 392.809 305.999 393.941ZM295.249 404.264C297.487 409.709 297.517 409.436 294.068 415.042C291.068 419.917 291.06 421 294.021 421C295.06 421 296.06 419.779 296.619 417.828C298.174 412.407 299.596 413.548 301.468 421.719C302.449 425.999 304.078 432.026 305.09 435.114C307.109 441.279 308.976 451.689 308.202 452.464C307.932 452.734 306.276 451.727 304.521 450.227C302.767 448.727 299.273 445.743 296.756 443.595C291.28 438.922 290.058 434.634 293.392 431.795C295.404 430.083 295.418 429.938 293.703 428.606C292.714 427.839 291.027 427.441 289.953 427.722C288.322 428.149 287.999 427.716 287.999 425.103C287.999 423.381 288.401 421.191 288.891 420.236C291.616 414.936 292.309 411.889 292.076 406.25C291.933 402.813 292.195 400.002 292.658 400.004C293.121 400.006 294.287 401.923 295.249 404.264ZM286.178 410.65C286.354 411.282 286.094 411.957 285.599 412.15C285.103 412.342 284.528 411.385 284.32 410.021C283.95 407.597 285.468 408.11 286.178 410.65ZM482.12 417.065C484.007 418.075 483.92 418.303 480.416 421.512C477.512 424.172 476.137 424.778 473.983 424.347C471.053 423.761 461.999 427.162 461.999 428.849C461.999 429.393 460.263 429.577 457.999 429.273L453.999 428.737V432.368C453.999 435.852 453.857 436 450.499 436C448.574 436 446.999 435.753 446.999 435.45C446.999 433.628 450.293 429.042 451.988 428.503C453.094 428.152 453.999 427.299 453.999 426.607C453.999 424.539 458.986 420.361 459.828 421.723C460.226 422.367 461.079 422.569 461.723 422.171C462.367 421.773 462.557 420.902 462.145 420.236C460.834 418.114 455.123 420.602 449.571 425.713C446.711 428.346 443.339 431.325 442.077 432.333C440.291 433.76 439.911 434.812 440.366 437.083C441.027 440.392 439.697 440.878 436.366 438.544C434.467 437.214 434.038 437.331 431.393 439.901C428.693 442.524 422.995 446 421.394 446C421.006 446 421.539 445.061 422.577 443.913C424.693 441.576 432.667 436 433.894 436C434.331 436 435.504 435.1 436.499 434C438.081 432.252 438.107 432 436.707 432C432.73 432 418.999 441.414 418.999 444.14C418.999 444.613 418.969 445.337 418.933 445.75C418.863 446.554 415.029 448.906 413.692 448.965C412.199 449.03 416.463 442.831 420.999 438.343C425.684 433.708 440.671 423.842 445.003 422.541C446.376 422.129 448.55 421.128 449.834 420.317C455.177 416.943 477.661 414.678 482.12 417.065ZM494.999 419.346C496.374 420.071 497.415 421.104 497.312 421.642C497.21 422.18 499.293 422.653 501.942 422.693C510.837 422.827 516.899 426.244 512.6 428.7C511.13 429.54 500.808 444.451 499.703 447.328C499.02 449.109 494.999 449.683 494.999 448C494.999 447.45 495.426 447 495.948 447C497.244 447 502.425 440.093 501.685 439.352C501.358 439.026 499.383 440.091 497.295 441.718C495.207 443.346 491.101 445.966 488.17 447.541C485.168 449.154 482.21 451.625 481.395 453.202C480.386 455.152 479.178 456 477.408 456C476.011 456 473.885 456.528 472.683 457.174C471.482 457.819 469.149 458.623 467.499 458.961C464.243 459.626 462.917 462.992 464.948 465.438C466.226 466.979 464.407 468 460.386 468C456.7 468 456.319 465.32 459.528 461.97C461.86 459.536 462.056 458.959 460.726 458.449C459.828 458.104 457.801 458.826 456.068 460.107C453.707 461.853 452.999 463.148 452.999 465.719C452.999 469.761 450.748 470.988 447.962 468.466C445.667 466.389 445.432 465 447.377 465C449.627 465 451.525 462.126 450.17 460.771C449.311 459.912 448.434 460.182 446.653 461.855C444.457 463.918 443.225 464.1 430.021 464.312C418.01 464.505 416.213 464.348 418.63 463.316C420.208 462.642 422.174 462.063 422.999 462.031C426.197 461.903 439.321 456.623 447.499 452.173C450.799 450.377 454.624 448.296 455.999 447.548C460.827 444.923 471.641 441.176 476.491 440.449C481.661 439.674 489.503 436.611 490.517 434.972C490.847 434.437 491.99 434 493.058 434C495.094 434 498.999 430.714 498.999 429C498.999 427.527 494.095 427.782 488.08 429.569C482.139 431.333 479.999 430.954 479.999 428.138C479.999 426.121 481.827 425 485.116 425C487.257 425 491.999 422.235 491.999 420.988C491.999 420.557 490.584 420.271 488.856 420.353C487.123 420.434 485.515 419.939 485.272 419.25C484.672 417.544 491.711 417.614 494.999 419.346ZM468.812 429.616C467.923 430.505 466.589 431.006 465.847 430.73C464.959 430.4 465.353 429.869 466.999 429.177C470.462 427.722 470.658 427.77 468.812 429.616ZM289.448 432.951C287.954 434.445 285.595 432.495 286.39 430.423C287.028 428.762 287.182 428.755 288.743 430.315C289.817 431.389 290.068 432.331 289.448 432.951ZM240.2 449.403C247.002 451.204 254.944 454.645 257.499 456.899C258.599 457.869 261.226 459.646 263.336 460.849C268.931 464.037 277.998 472.13 278.004 473.941C278.007 474.798 279.357 479.264 281.004 483.864C282.896 489.149 283.987 494.119 283.967 497.364L283.936 502.5L281.515 499.75C279.939 497.959 278.101 497 276.244 497C273.502 497 264.999 491.719 264.999 490.016C264.999 488.935 260.887 484.189 253.067 476.246C247.529 470.622 246.034 469.646 242.317 469.227C239.942 468.959 237.999 468.421 237.999 468.03C237.999 467.028 233.284 465 230.952 465C229.878 465 228.999 465.389 228.999 465.865C228.999 467.371 232.978 471.859 234.836 472.448C236.955 473.121 239.999 479.559 239.999 483.367C239.999 486.662 242.806 488.096 244.24 485.535C245.046 484.094 245.394 484.018 246.093 485.13C246.566 485.884 246.737 487.196 246.474 488.046C246.195 488.944 247.67 491.336 249.996 493.757C252.198 496.048 253.999 498.39 253.999 498.961C253.999 499.537 256.161 500 258.844 500C262.419 500 264.163 500.524 265.499 502C266.494 503.1 268.252 504.002 269.404 504.004C271.8 504.008 277.999 507.519 277.999 508.872C277.999 509.367 276.762 510.023 275.249 510.329C273.736 510.635 269.124 511.804 264.999 512.927C260.874 514.05 256.227 515.074 254.673 515.203C253.119 515.332 251.63 515.789 251.364 516.219C250.078 518.299 246.299 516.582 241.771 511.86C236.427 506.286 235.776 505.019 232.841 494.5C231.767 490.65 229.892 485.925 228.675 484C227.457 482.075 225.795 479.178 224.98 477.562C224.166 475.946 222.553 473.67 221.397 472.505C220.24 471.34 219.115 469.942 218.897 469.398C218.678 468.855 215.018 465.521 210.764 461.99C206.51 458.459 203.36 455.272 203.764 454.909C205.573 453.281 219.144 449.568 225.499 448.961C229.349 448.594 233.04 448.227 233.7 448.147C234.361 448.066 237.286 448.631 240.2 449.403ZM492.929 452.584C492.206 453.456 489.563 455.575 487.057 457.293C484.55 459.011 481.685 461.169 480.691 462.087C479.696 463.006 477.221 464.032 475.191 464.368C469.272 465.346 467.996 465.171 468.649 463.47C469.02 462.503 469.93 462.161 471.122 462.539C472.216 462.886 474.008 462.374 475.388 461.319C479.349 458.291 481.258 457.091 486.999 454.021C493.243 450.681 494.827 450.298 492.929 452.584ZM256.442 487.223C258.64 490.36 258.374 491.493 255.835 489.807C253.676 488.373 252.41 485 254.031 485C254.501 485 255.586 486 256.442 487.223ZM388.967 493.75C388.891 495.557 386.022 497.734 379.499 500.934C375.649 502.823 371.441 505.652 370.149 507.22C368.511 509.207 367.225 509.889 365.908 509.471C364.868 509.141 363.583 509.139 363.052 509.467C361.806 510.237 362.746 512.689 364.552 513.382C366.581 514.161 372.291 511.487 373.757 509.072C375.255 506.607 379.212 506.347 381.074 508.59C382.215 509.965 382.537 509.985 383.45 508.736C384.97 506.658 388.862 505.642 390.403 506.92C392.694 508.822 397.723 508.783 403.541 506.819C407.063 505.63 409.623 505.254 410.344 505.82C412.15 507.239 422.592 508.105 425.333 507.063C427.308 506.312 428.171 506.533 429.649 508.166C431.521 510.234 435.396 510.313 443.159 508.442C446.184 507.713 446.105 506.13 443.958 524.5C442.392 537.9 441.182 541.246 437.447 542.5C435.809 543.05 433.437 544.539 432.175 545.809C430.534 547.461 428.973 548.03 426.69 547.809C421.894 547.345 422.562 544.708 427.767 543.554C432.481 542.51 432.837 541.002 428.636 539.878C427.132 539.476 425.017 538.022 423.935 536.646C421.953 534.125 420.839 533.668 408.999 530.504C405.424 529.549 400.924 528.193 398.999 527.492C397.074 526.791 392.004 525.89 387.733 525.489C382.9 525.037 379.122 524.116 377.733 523.051C374.659 520.697 372.325 519.834 366.499 518.895C357.665 517.473 354.999 516.791 354.999 515.956C354.999 515.507 353.649 515.527 351.999 516C348.67 516.955 347.77 515.525 351.046 514.485C352.172 514.128 355.836 511.51 359.189 508.668C367.211 501.867 373.754 497 374.875 497C375.371 497 375.714 497.739 375.638 498.642C375.443 500.942 377.556 501.432 379.16 499.458C382.973 494.765 385.102 493 386.954 493C388.079 493 388.985 493.337 388.967 493.75ZM412.593 497.501C409.479 500.179 408.435 500.514 407.569 499.113C406.644 497.617 410.104 495.622 414.499 495.117C415.049 495.054 414.192 496.127 412.593 497.501ZM402.175 500.513C403.05 502.445 403.402 504.251 402.956 504.527C401.48 505.439 388.025 503.736 387.006 502.509C384.978 500.065 390.04 497.345 397.041 497.116C400.168 497.014 400.769 497.411 402.175 500.513ZM422.784 502.123C423.187 504.213 416.591 505.396 413.608 503.769C411.607 502.677 411.668 502.582 414.8 501.925C416.615 501.544 418.393 500.939 418.751 500.581C419.872 499.46 422.462 500.45 422.784 502.123ZM438.17 502.655C442.889 506.925 437.66 508.677 432.207 504.653C430.457 503.363 429.32 502.013 429.679 501.653C430.949 500.383 436.366 501.022 438.17 502.655ZM358.736 525.896C361.381 526.939 366.548 528.114 370.218 528.507C374.821 529 377.419 529.807 378.599 531.111C379.645 532.266 381.646 533 383.753 533C386.29 533 387.934 533.79 389.999 536C393.312 539.547 393.605 539.615 394.287 537.005C395.006 534.257 397.708 533.446 401.396 534.872C403.103 535.532 407.424 536.334 410.999 536.655C414.574 536.975 418.619 537.94 419.989 538.799L422.479 540.36L419.49 541.582C417.665 542.328 415.869 542.465 414.878 541.935C413.941 541.434 411.845 541.471 409.919 542.023C407.95 542.588 405.299 542.625 403.447 542.113C400.148 541.202 396.51 542.399 397.534 544.057C398.496 545.614 393.169 547.57 391.772 546.173C391.127 545.528 389.429 545 387.999 545C386.569 545 384.871 544.472 384.226 543.827C383.341 542.942 382.44 542.934 380.55 543.795C378.528 544.716 377.471 544.606 375.043 543.217C371.371 541.119 368.66 542.357 368.183 546.351C367.798 549.57 367.511 549.593 363.254 546.75C360.891 545.172 358.707 542.053 355.942 536.31C352.019 528.161 351.394 525.939 352.666 524.667C353.543 523.79 353.231 523.727 358.736 525.896ZM116.781 539.846C117.018 540.557 115.943 541 113.977 541C112.034 541 109.627 541.977 107.817 543.5C106.183 544.875 104.028 546 103.029 546C100.754 546 99.5887 548.801 101.104 550.627C101.731 551.382 103.266 552 104.514 552C105.763 552 107.02 552.613 107.307 553.361C107.622 554.182 110.212 554.992 113.825 555.401C117.122 555.774 120.365 556.736 121.032 557.54C122.826 559.702 125.832 559.319 129.181 556.5C132.504 553.705 136.145 553.266 137.953 555.444C138.612 556.238 140.804 557.026 142.825 557.194C145.819 557.443 146.561 557.938 146.834 559.865C147.446 564.193 145.68 564.465 136.589 561.443C125.552 557.774 123.675 559.547 132.695 565.121C135.804 567.043 136.587 567.14 140.206 566.056C143.091 565.192 144.553 565.154 145.322 565.923C148.136 568.737 153.076 564.313 150.921 560.908C149.362 558.445 149.924 557 152.442 557C155.087 557 158.154 560.433 157.359 562.504C157.09 563.205 155.999 563.551 154.934 563.273C153.87 562.994 152.999 563.217 152.999 563.767C152.999 564.317 153.899 565.002 154.999 565.29C158.025 566.081 157.413 568.119 154.249 567.788C150.261 567.37 150.694 570.194 154.798 571.371C157.36 572.106 158.025 572.784 157.774 574.409C157.581 575.662 156.86 576.355 155.975 576.138C150.606 574.821 138.123 574.075 130.444 574.612C121.615 575.23 121.35 575.184 119.782 572.792C118.898 571.443 115.998 569.534 113.337 568.55C110.676 567.565 106.619 565.689 104.321 564.38C99.4608 561.612 95.3748 561.348 92.1668 563.595C88.5368 566.137 89.7478 568.512 94.5088 568.189C99.2048 567.871 111.077 573.663 113.589 577.498C116.426 581.827 121.163 583.186 133.344 583.167C145.804 583.147 147.999 583.503 147.999 585.542C147.999 586.316 149.449 587.698 151.221 588.615C155.07 590.605 161.999 597.202 161.999 598.876C161.999 600.468 157.761 602.038 156.549 600.896C154.835 599.28 153.906 599.958 155.01 602.021C156.145 604.141 155.601 606 153.844 606C153.274 606 151.457 606.962 149.806 608.137C148.155 609.313 143.551 611.488 139.574 612.972C133.061 615.402 131.556 615.6 124.421 614.97C116.989 614.314 109.191 612.557 102.679 610.073C95.3778 607.287 81.8937 593.556 75.3717 582.266C70.1487 573.225 63.1798 566 59.6828 566C58.2068 566 56.9988 565.62 56.9988 565.155C56.9988 563.072 65.3388 551.934 71.1498 546.256C76.8918 540.646 77.9448 540.02 81.5198 540.09C83.7078 540.133 87.0348 539.844 88.9118 539.447C91.5338 538.893 92.6077 539.113 93.5467 540.397C94.6847 541.953 95.0718 541.956 99.1338 540.428C107.69 537.21 115.813 536.942 116.781 539.846ZM129.024 542.565C130.318 545.968 130.308 546 127.999 546C126.443 546 125.999 545.333 125.999 543C125.999 539.326 127.699 539.082 129.024 542.565ZM143.923 545.273C145.106 546.816 145.069 546.964 143.64 546.416C142.738 546.069 141.999 545.084 141.999 544.226C141.999 543.369 142.126 542.854 142.282 543.083C142.438 543.313 143.176 544.298 143.923 545.273ZM115.979 545.609C119.535 547.032 121.603 550 119.038 550C118.509 550 117.236 550.902 116.209 552.005C114.352 553.999 114.324 553.988 111.233 550.142C108.911 547.253 108.413 545.986 109.262 545.137C110.737 543.662 111.194 543.694 115.979 545.609ZM419.432 546.108C419.129 546.599 418.246 547 417.471 547C416.695 547 414.256 547.941 412.05 549.09C409.845 550.24 407.594 551.027 407.049 550.84C405.296 550.239 408.379 545.618 410.936 545.015C414.212 544.242 420.116 545.002 419.432 546.108ZM445.979 547.96C447.09 550.138 447.999 552.613 447.999 553.46C447.999 555.671 445.249 555.362 444.521 553.069C444.072 551.655 442.529 550.919 438.763 550.319C435.933 549.869 433.591 549.05 433.558 548.5C433.526 547.95 435.749 546.749 438.499 545.83C441.249 544.912 443.602 544.124 443.729 544.08C443.855 544.036 444.867 545.782 445.979 547.96ZM132.499 547C132.839 547.55 132.64 548 132.058 548C131.476 548 130.999 547.55 130.999 547C130.999 546.45 131.197 546 131.44 546C131.683 546 132.159 546.45 132.499 547ZM127.819 551.155C127.603 552.605 126.31 553.719 123.86 554.564C120.262 555.804 120.223 555.789 120.348 553.159C120.5 549.95 121.598 549.036 125.319 549.015C127.641 549.003 128.082 549.38 127.819 551.155ZM149.999 554C149.999 554.55 149.801 555 149.558 555C149.315 555 148.839 554.55 148.499 554C148.159 553.45 148.358 553 148.94 553C149.522 553 149.999 553.45 149.999 554ZM164.767 564.239L164.406 567.5L163.33 565C162.738 563.625 161.919 560.925 161.509 559L160.765 555.5L162.946 558.239C164.45 560.128 165.015 561.991 164.767 564.239ZM167.497 575.589C169.695 576.141 170.955 578.513 170.985 582.156C170.995 583.323 170.407 583.658 168.999 583.29C167.464 582.888 166.999 583.259 166.999 584.883C166.999 587.211 168.923 587.676 170.799 585.8C171.732 584.867 171.999 585.644 171.999 589.3C171.999 591.885 171.709 594 171.355 594C169.933 594 164.02 587.386 164.01 585.784C164.004 584.84 163.26 582.518 162.357 580.625C160.501 576.732 161.154 573.462 163.6 574.401C164.472 574.735 166.225 575.27 167.497 575.589ZM314.34 575.553C313.653 577.345 309.86 577.12 309.244 575.25C308.975 574.433 309.89 574 311.884 574C314.232 574 314.799 574.358 314.34 575.553ZM337.259 581.008C336.937 585.629 337.112 586.092 339.52 587.008C343.365 588.47 346.702 588.216 347.395 586.41C347.731 585.535 347.772 584.441 347.486 583.979C347.2 583.516 347.452 582.838 348.046 582.471C348.639 582.104 350.784 583.588 352.812 585.769C354.84 587.951 357.468 590.036 358.652 590.404C359.836 590.772 363.46 594.994 366.704 599.787C373.232 609.43 376.15 612.805 380.249 615.453C383.155 617.331 383.852 619 381.731 619C381.033 619 372.079 623.217 361.833 628.371C339.296 639.709 332.111 642.062 317.927 642.752L307.355 643.266L298.775 639.133C294.057 636.86 289.695 635 289.082 635C287.802 635 278.231 629.865 272.851 626.292C270.003 624.401 269.101 623.06 268.74 620.185C268.048 614.67 269.326 613.006 274.284 612.965C276.602 612.945 279.624 612.286 280.999 611.5C285.096 609.158 285.297 609.777 281.805 613.982C279.855 616.331 277.62 617.971 276.356 617.982C275.177 617.992 273.96 618.658 273.651 619.463C273.246 620.521 274.117 621.131 276.794 621.664C278.832 622.069 281.174 622.271 281.999 622.112C284.097 621.707 291.9 612.858 291.954 610.821C292.024 608.221 294.841 606 298.07 606C300.332 606 300.999 606.455 300.999 608C300.999 609.111 300.332 610 299.499 610C298.666 610 297.999 610.889 297.999 612C297.999 613.626 298.666 614 301.565 614C303.526 614 305.954 614.441 306.96 614.979C309.288 616.225 311.289 614.063 310.823 610.805C310.577 609.089 309.919 608.561 308.246 608.738C304.367 609.149 305.802 607.13 310.237 605.936C313.302 605.111 315.862 605.087 319.487 605.852C328.136 607.676 336.239 609 338.758 609C340.092 609 342.328 609.9 343.726 611C347.009 613.582 348.003 613.524 347.981 610.75C347.96 608.189 340.415 601.251 339.767 603.196C339.471 604.083 337.306 604.019 330.937 602.935L322.499 601.5V598C322.499 595.556 322.047 594.5 320.999 594.5C319.91 594.5 319.573 595.421 319.768 597.862L320.037 601.223L316.268 600.607C314.195 600.267 309.012 599.709 304.749 599.367C297.037 598.746 295.58 597.819 298.199 595.2C299.799 593.6 302.008 593.687 307.559 595.572C310.105 596.436 312.334 596.998 312.513 596.82C312.691 596.642 313.164 595.189 313.565 593.593C314.248 590.871 314.144 590.738 311.896 591.463C309.226 592.324 304.021 592.355 303.18 591.515C302.881 591.215 304.03 589.514 305.734 587.735C307.439 585.956 308.983 583.375 309.166 582C309.483 579.616 309.813 579.499 316.249 579.472C319.961 579.457 322.999 579.761 322.999 580.147C322.999 580.534 321.086 581.903 318.749 583.19C316.043 584.68 314.383 586.342 314.179 587.765C313.765 590.661 316.743 590.776 320.272 588C321.67 586.9 323.262 586 323.809 586C324.356 586 325.294 584.593 325.893 582.873C326.871 580.068 327.295 579.809 330.023 580.355C332.614 580.873 333.202 580.596 334.006 578.481C335.721 573.971 337.646 575.466 337.259 581.008ZM303.999 578C303.999 578.55 303.522 579 302.94 579C302.358 579 302.159 578.55 302.499 578C302.839 577.45 303.315 577 303.558 577C303.801 577 303.999 577.45 303.999 578ZM299.999 582.918C299.999 584.523 299.726 586.548 299.392 587.418C298.599 589.485 295.609 589.442 293.871 587.339C292.639 585.847 292.78 585.731 295.249 586.2C298.301 586.78 298.985 585.616 296.249 584.5C294.643 583.844 294.663 583.718 296.499 582.963C298.422 582.172 298.414 582.138 296.308 582.07C295.103 582.032 293.839 582.45 293.499 583C293.159 583.55 292.183 584 291.329 584C290.201 584 290.422 583.463 292.138 582.033C293.437 580.952 295.736 580.052 297.249 580.033C299.628 580.004 299.999 580.393 299.999 582.918ZM104.999 590C102.436 592.563 102.458 594.64 105.063 596.034C107.946 597.577 109.999 595.641 109.999 591.378C109.999 587.433 108.091 586.908 104.999 590ZM286.053 591.557C287.524 593.123 289.165 593.928 290.288 593.635C292.865 592.961 293.776 595.959 291.5 597.623C290.497 598.357 288.736 598.768 287.587 598.536C286.439 598.305 283.812 597.844 281.749 597.512C277.359 596.806 276.901 594.941 280.249 591.408C283.056 588.447 283.132 588.449 286.053 591.557ZM123.989 593.527C123.116 595.822 122.736 596.027 121.406 594.923C119.44 593.291 117.967 595.163 118.778 598.263C119.267 600.132 118.966 600.259 115.244 599.76C110.925 599.18 110.048 600.165 110.013 605.633C109.992 608.913 114.846 609.534 116.036 606.403C116.527 605.112 117.993 603.789 119.294 603.462C120.598 603.135 122.136 601.664 122.723 600.184L123.786 597.5L123.908 601C123.975 602.925 124.36 605.002 124.764 605.615C126.6 608.402 135.138 609.039 137.955 606.6C138.804 605.865 141.478 605.013 143.896 604.707C148.609 604.111 154.4 600 150.526 600C149.471 600 147.388 598.831 145.897 597.402L143.186 594.805L141.535 598.284C140.158 601.184 139.201 601.872 135.779 602.419C133.522 602.78 131.336 602.721 130.921 602.288C130.507 601.854 129.527 599.274 128.744 596.554C127.086 590.792 125.429 589.738 123.989 593.527ZM267.697 609.682C266.914 611.232 266.479 613.078 266.731 613.784C266.982 614.49 266.605 615.77 265.892 616.629C264.32 618.523 257.855 617.786 254.02 615.276C252.656 614.384 250.181 613.366 248.52 613.014C245.58 612.391 245.647 612.322 250.999 610.449C254.024 609.391 256.949 608.509 257.499 608.49C258.049 608.472 259.849 607.929 261.499 607.284C265.496 605.723 268.429 605.266 268.81 606.146C268.981 606.541 268.48 608.132 267.697 609.682ZM357.712 611.764C356.77 612.806 355.999 614.442 355.999 615.401C355.999 616.936 356.684 617.062 361.749 616.452C367.335 615.781 371.84 613.388 370.273 611.925C369.847 611.528 367.233 610.904 364.462 610.537C360.255 609.981 359.143 610.183 357.712 611.764ZM54.9988 674C54.9988 674.55 54.5217 675 53.9397 675C53.3577 675 53.1588 674.55 53.4988 674C53.8388 673.45 54.3148 673 54.5578 673C54.8008 673 54.9988 673.45 54.9988 674ZM73.2008 677.661C72.8378 680.297 74.5928 681.582 76.4508 680.04C78.6988 678.174 87.4958 679.836 90.1108 682.619C92.0628 684.697 92.5437 684.818 93.9217 683.577C95.9587 681.744 97.4557 681.268 97.6637 682.388C97.9837 684.119 100.305 684.773 103.19 683.945C107.063 682.835 108.883 683.657 109.642 686.86C109.986 688.312 110.952 690.288 111.788 691.25C113.191 692.864 113.084 692.999 110.404 692.985C108.806 692.977 104.799 692.394 101.499 691.689C95.0388 690.31 70.8768 690.145 62.4988 691.423C54.3338 692.669 40.5738 696.076 39.5068 697.116C37.9908 698.595 40.9038 699.972 45.4988 699.949C47.6988 699.938 52.1988 699.277 55.4988 698.48C58.7988 697.683 64.5097 697.024 68.1897 697.016C71.8697 697.007 75.1588 696.55 75.4988 696C76.4918 694.394 79.5288 694.842 82.2718 697C84.0698 698.415 86.3778 699.013 90.1568 699.044C96.1198 699.093 106.932 700.398 114.461 701.978C117.641 702.645 120.532 704.093 122.509 706.009C124.206 707.654 126.08 709 126.674 709C128.131 709 130.447 711.885 129.639 712.694C127.919 714.413 83.7158 718.96 68.4988 718.982C58.6628 718.997 42.1798 716.763 41.0668 715.265C40.7548 714.844 38.9238 714.374 36.9988 714.219C33.0148 713.899 18.7988 709.109 17.9138 707.788C17.5918 707.308 16.0458 706.572 14.4788 706.153C12.9118 705.734 11.4758 704.931 11.2888 704.369C10.5728 702.222 17.8568 694.823 26.4988 688.921C31.4488 685.54 36.2087 682.15 37.0777 681.387C39.3267 679.411 40.9988 679.672 40.9988 682C40.9988 684.482 43.1377 684.609 44.6327 682.215C45.6037 680.659 53.6728 677.677 56.4988 677.828C57.0488 677.858 57.7538 678.921 58.0658 680.191C58.5228 682.055 59.1978 682.438 61.5658 682.18C63.1788 682.004 64.6408 681.464 64.8158 680.98C64.9898 680.496 66.0538 678.928 67.1808 677.496C69.7308 674.254 73.6558 674.362 73.2008 677.661ZM225.417 699.607C226.287 699.941 226.999 700.602 226.999 701.076C226.999 701.549 226.321 701.677 225.491 701.359C223.354 700.539 218.999 703.668 218.999 706.023C218.999 708.487 218.975 708.488 224.249 705.684C229.495 702.895 232.677 703.569 235.202 708.007C236.139 709.653 237.628 711 238.512 711C239.395 711 239.839 710.55 239.499 710C239.159 709.45 239.332 709 239.883 709C241.449 709 247.999 713.096 247.999 714.076C247.999 714.559 249.172 715.722 250.605 716.662C253.124 718.312 253.27 718.292 254.948 716.067C257.081 713.239 260.572 713.968 262.22 717.587C262.834 718.934 264.179 720 265.266 720C266.336 720 268.096 721.125 269.178 722.5C270.259 723.875 271.614 725 272.189 725C272.763 725 275.543 727.3 278.366 730.112C281.189 732.924 286.874 737.948 290.999 741.276C295.124 744.604 300.074 748.78 301.999 750.555C303.924 752.33 306.535 754.094 307.802 754.475C311.326 755.536 308.992 757.46 301.732 759.481C298.304 760.435 295.049 761.551 294.499 761.961C292.864 763.181 284.698 764.932 283.655 764.287C283.124 763.959 282.97 764.144 283.312 764.697C284.015 765.835 277.649 768 273.601 768C272.135 768 269.361 768.658 267.437 769.461C258.638 773.138 241.84 774.252 235.666 771.569C231.954 769.957 231.881 769.829 233.364 767.566C235.206 764.755 234.477 763.674 231.73 765.144C230.627 765.734 228.292 765.985 226.542 765.701C223.209 765.16 216.026 760.793 214.762 758.538C213.871 756.95 216.436 754.57 218.277 755.277C219.082 755.585 219.651 754.928 219.765 753.561C219.891 752.036 218.787 750.5 216.224 748.634C214.175 747.143 210.055 744.141 207.068 741.962C200.717 737.328 199.291 737.103 197.989 740.528L197.028 743.055L193.013 741.007C190.805 739.881 188.999 738.599 188.999 738.158C188.999 736.893 179.651 733 176.614 733C173.638 733 169.999 731.419 169.999 730.125C169.999 727.168 188.987 725.687 198.745 727.883C201.36 728.472 204.657 729.178 206.072 729.451C207.487 729.725 210.32 731.086 212.367 732.475C214.413 733.864 216.637 735 217.308 735C217.979 735 220.148 735.868 222.128 736.929C224.108 737.99 227.333 739.16 229.294 739.528C231.256 739.896 233.103 740.827 233.398 741.598C234.016 743.209 237.579 743.489 238.499 742C239.511 740.363 242.432 740.862 243.698 742.889C244.94 744.879 245.656 745.031 262.999 746.976C268.774 747.624 274.81 748.796 276.411 749.581C279.872 751.277 280.551 750.9 279.057 748.109C277.435 745.077 275.226 744.216 266.144 743.077C261.645 742.513 257.102 741.59 256.047 741.026C254.993 740.462 252.986 740 251.588 740C249.961 740 248.439 739.075 247.362 737.432C246.057 735.44 245.135 735 243.254 735.472C240.506 736.162 236.724 735.254 237.45 734.079C237.714 733.652 236.491 733.261 234.732 733.211C232.965 733.161 226.818 730.684 220.996 727.677C210.853 722.437 198.809 718.381 196.899 719.562C195.619 720.353 191.999 719.083 191.999 717.843C191.999 716.205 196.932 711.25 204.885 704.899C211.98 699.232 212.498 699 218.053 699C221.233 699 224.547 699.273 225.417 699.607ZM254.999 712C254.999 712.55 254.351 713 253.558 713C252.765 713 251.839 712.55 251.499 712C251.159 711.45 251.808 711 252.94 711C254.072 711 254.999 711.45 254.999 712ZM200.999 747.441C200.999 747.684 200.549 748.16 199.999 748.5C199.449 748.84 198.999 748.641 198.999 748.059C198.999 747.477 199.449 747 199.999 747C200.549 747 200.999 747.198 200.999 747.441ZM226.12 749.39C223.87 750.637 220.436 756.771 221.431 757.765C221.685 758.02 223.103 757.277 224.581 756.114C227.741 753.628 228.942 753.507 231.545 755.41C233.446 756.8 233.445 756.851 231.486 759.067L229.499 761.314L231.712 760.76C232.997 760.439 234.412 760.792 235.085 761.603C236.275 763.037 243.06 763.597 242.923 762.25C242.457 757.653 237.984 752.13 232.315 749.149C229.609 747.726 229.085 747.746 226.12 749.39ZM208.442 750.092C208.784 749.54 209.773 749.36 210.64 749.693C212.063 750.239 212.058 750.387 210.588 751.21C208.69 752.272 204.999 751.348 204.999 749.81C204.999 749.125 205.494 749.166 206.41 749.926C207.327 750.687 208.038 750.746 208.442 750.092ZM192.931 752.904C195.909 757.087 195.475 757.83 191.999 754.5C188.962 751.591 188.231 750 189.931 750C190.443 750 191.793 751.307 192.931 752.904Z" fill="black"/>
</svg>
